<svg version="1.1" xmlns="http://www.w3.org/2000/svg" xmlns:xlink="http://www.w3.org/1999/xlink" width="553.8056640625" height="487"><defs/><g><g><rect fill="#C0C0C0" stroke="none" x="279" y="199" width="532.8056640625" height="211" transform="matrix(1 0 0 1 -262 -182)" fill-opacity="0.2"/></g><g><rect fill="#ffffff" stroke="none" x="272" y="192" width="532.8056640625" height="211" transform="matrix(1 0 0 1 -262 -182)"/></g><g><path fill="none" stroke="#000000" paint-order="fill stroke markers" d=" M 10 10 L 542.8056640625 10 L 542.8056640625 221 L 10 221 L 10 10 Z Z" stroke-miterlimit="10" stroke-dasharray=""/></g><g><path fill="none" stroke="#000000" paint-order="fill stroke markers" d=" M 10 48 L 543.8056640625 48" stroke-miterlimit="10" stroke-dasharray=""/></g><g><g><path fill="none" stroke="none"/><text fill="#000000" stroke="none" font-family="Arial" font-size="13px" font-style="normal" font-weight="normal" text-decoration="undefined" x="538.90283203125" y="203.5" text-anchor="middle" dominant-baseline="central" transform="matrix(1 0 0 1 -262 -182)">«interface»</text></g></g><g><g><path fill="none" stroke="none"/><text fill="#000000" stroke="none" font-family="Arial" font-size="13px" font-style="normal" font-weight="bold" text-decoration="undefined" x="538.90283203125" y="218.5" text-anchor="middle" dominant-baseline="central" transform="matrix(1 0 0 1 -262 -182)">IGestionCanciones</text></g></g><g><g><path fill="none" stroke="none"/><text fill="#000000" stroke="none" font-family="Arial" font-size="13px" font-style="normal" font-weight="normal" text-decoration="undefined" x="277" y="241.5" text-anchor="start" dominant-baseline="central" transform="matrix(1 0 0 1 -262 -182)">+AñadirCancionPlaylist(idCancion: String, idPlaylist: String, idUsuario: String): boolean</text></g></g><g><g><path fill="none" stroke="none"/><text fill="#000000" stroke="none" font-family="Arial" font-size="13px" font-style="normal" font-weight="normal" text-decoration="undefined" x="277" y="256.5" text-anchor="start" dominant-baseline="central" transform="matrix(1 0 0 1 -262 -182)">+EliminarCancionPlaylist(idCancion: String, idPlaylist: String, idUsuario: String): boolean</text></g></g><g><g><path fill="none" stroke="none"/><text fill="#000000" stroke="none" font-family="Arial" font-size="13px" font-style="normal" font-weight="normal" text-decoration="undefined" x="277" y="271.5" text-anchor="start" dominant-baseline="central" transform="matrix(1 0 0 1 -262 -182)">+VerCancionesPlaylist(idPlaylist: String): Cancion[*]</text></g></g><g><g><path fill="none" stroke="none"/><text fill="#000000" stroke="none" font-family="Arial" font-size="13px" font-style="normal" font-weight="normal" text-decoration="undefined" x="277" y="286.5" text-anchor="start" dominant-baseline="central" transform="matrix(1 0 0 1 -262 -182)">+ReproducirCancion(idCancion: String, idUsuario: String): boolean</text></g></g><g><g><path fill="none" stroke="none"/><text fill="#000000" stroke="none" font-family="Arial" font-size="13px" font-style="normal" font-weight="normal" text-decoration="undefined" x="277" y="301.5" text-anchor="start" dominant-baseline="central" transform="matrix(1 0 0 1 -262 -182)">+PausarCancion(idCancion: String, idUsuario: String)</text></g></g><g><g><path fill="none" stroke="none"/><text fill="#000000" stroke="none" font-family="Arial" font-size="13px" font-style="normal" font-weight="normal" text-decoration="undefined" x="277" y="316.5" text-anchor="start" dominant-baseline="central" transform="matrix(1 0 0 1 -262 -182)">+ReportarCancion(idCancion: String, idUsuario: String, motivo: String): boolean</text></g></g><g><g><path fill="none" stroke="none"/><text fill="#000000" stroke="none" font-family="Arial" font-size="13px" font-style="normal" font-weight="normal" text-decoration="undefined" x="277" y="331.5" text-anchor="start" dominant-baseline="central" transform="matrix(1 0 0 1 -262 -182)">+AñadirFavoritos(idCancion: String): boolean</text></g></g><g><g><path fill="none" stroke="none"/><text fill="#000000" stroke="none" font-family="Arial" font-size="13px" font-style="normal" font-weight="normal" text-decoration="undefined" x="277" y="346.5" text-anchor="start" dominant-baseline="central" transform="matrix(1 0 0 1 -262 -182)">+EliminarFavoritos(idCancion: String): boolean</text></g></g><g><g><path fill="none" stroke="none"/><text fill="#000000" stroke="none" font-family="Arial" font-size="13px" font-style="normal" font-weight="normal" text-decoration="undefined" x="277" y="361.5" text-anchor="start" dominant-baseline="central" transform="matrix(1 0 0 1 -262 -182)">+BuscarDiscosCancion(idCancion: String, idPlaylist: String): Disco[*]</text></g></g><g><g><path fill="none" stroke="none"/><text fill="#000000" stroke="none" font-family="Arial" font-size="13px" font-style="normal" font-weight="normal" text-decoration="undefined" x="277" y="376.5" text-anchor="start" dominant-baseline="central" transform="matrix(1 0 0 1 -262 -182)">+SaltarCancion(idCancion: String, idUsuario: String): boolean</text></g></g><g><g><path fill="none" stroke="none"/><text fill="#000000" stroke="none" font-family="Arial" font-size="13px" font-style="normal" font-weight="normal" text-decoration="undefined" x="277" y="391.5" text-anchor="start" dominant-baseline="central" transform="matrix(1 0 0 1 -262 -182)">+SeguirArtistasCancion(idCancion: String, idUsuario: String): boolean</text></g></g><g><rect fill="#C0C0C0" stroke="none" x="279" y="455" width="532.8056640625" height="211" transform="matrix(1 0 0 1 -262 -182)" fill-opacity="0.2"/></g><g><rect fill="#ffffff" stroke="none" x="272" y="448" width="532.8056640625" height="211" transform="matrix(1 0 0 1 -262 -182)"/></g><g><path fill="none" stroke="#000000" paint-order="fill stroke markers" d=" M 10 266 L 542.8056640625 266 L 542.8056640625 477 L 10 477 L 10 266 Z Z" stroke-miterlimit="10" stroke-dasharray=""/></g><g><path fill="none" stroke="#000000" paint-order="fill stroke markers" d=" M 10 304 L 543.8056640625 304" stroke-miterlimit="10" stroke-dasharray=""/></g><g><g><path fill="none" stroke="none"/><text fill="#000000" stroke="none" font-family="Arial" font-size="13px" font-style="normal" font-weight="normal" text-decoration="undefined" x="538.90283203125" y="459.5" text-anchor="middle" dominant-baseline="central" transform="matrix(1 0 0 1 -262 -182)">«interface»</text></g></g><g><g><path fill="none" stroke="none"/><text fill="#000000" stroke="none" font-family="Arial" font-size="13px" font-style="normal" font-weight="bold" text-decoration="undefined" x="538.90283203125" y="474.5" text-anchor="middle" dominant-baseline="central" transform="matrix(1 0 0 1 -262 -182)">DAOCompra</text></g></g><g><g><path fill="none" stroke="none"/><text fill="#000000" stroke="none" font-family="Arial" font-size="13px" font-style="normal" font-weight="normal" text-decoration="undefined" x="277" y="497.5" text-anchor="start" dominant-baseline="central" transform="matrix(1 0 0 1 -262 -182)">+ObtenerCompras(): Compra[*]</text></g></g><g><g><path fill="none" stroke="none"/><text fill="#000000" stroke="none" font-family="Arial" font-size="13px" font-style="normal" font-weight="normal" text-decoration="undefined" x="277" y="512.5" text-anchor="start" dominant-baseline="central" transform="matrix(1 0 0 1 -262 -182)">+ObtenerCompra(id: String): Compra</text></g></g><g><g><path fill="none" stroke="none"/><text fill="#000000" stroke="none" font-family="Arial" font-size="13px" font-style="normal" font-weight="normal" text-decoration="undefined" x="277" y="527.5" text-anchor="start" dominant-baseline="central" transform="matrix(1 0 0 1 -262 -182)">+CrearCompra(c: Compra): Compra</text></g></g><g><g><path fill="none" stroke="none"/><text fill="#000000" stroke="none" font-family="Arial" font-size="13px" font-style="normal" font-weight="normal" text-decoration="undefined" x="277" y="542.5" text-anchor="start" dominant-baseline="central" transform="matrix(1 0 0 1 -262 -182)">+ModificarCompra(c: Compra): boolean</text></g></g><g><g><path fill="none" stroke="none"/><text fill="#000000" stroke="none" font-family="Arial" font-size="13px" font-style="normal" font-weight="normal" text-decoration="undefined" x="277" y="557.5" text-anchor="start" dominant-baseline="central" transform="matrix(1 0 0 1 -262 -182)">+EliminarCompra(id: String): boolean</text></g></g></g></svg>