<svg version="1.1" xmlns="http://www.w3.org/2000/svg" xmlns:xlink="http://www.w3.org/1999/xlink" width="1164" height="740"><defs/><g><g><path fill="none" stroke="#000000" paint-order="fill stroke markers" d=" M 18 58 L 1154 58 L 1154 730 L 18 730 L 18 58" stroke-miterlimit="10" stroke-dasharray=""/></g><g><path fill="#ffffff" stroke="none" paint-order="stroke fill markers" d=" M 18 58 L 18 81 L 417.7158203125 81 L 429.2158203125 69.5 L 429.2158203125 58 L 18 58"/></g><g><path fill="none" stroke="#000000" paint-order="fill stroke markers" d=" M 18 58 L 18 81 L 417.7158203125 81 L 429.2158203125 69.5 L 429.2158203125 58 L 18 58 L 18 58" stroke-miterlimit="10" stroke-dasharray=""/></g><g><g><path fill="none" stroke="none"/><text fill="#000000" stroke="none" font-family="Arial" font-size="13px" font-style="normal" font-weight="normal" text-decoration="undefined" x="227.52880859375" y="75.5" text-anchor="middle" dominant-baseline="central" transform="matrix(1 0 0 1 2 -6)">anhadirDocumentacionProductor(in docAsociada:File): Boolean</text></g></g><g><g><path fill="none" stroke="none"/><text fill="#000000" stroke="none" font-family="Arial" font-size="13px" font-style="normal" font-weight="bold" text-decoration="undefined" x="29.6708984375" y="75.5" text-anchor="middle" dominant-baseline="central" transform="matrix(1 0 0 1 2 -6)">act</text></g></g><g><path fill="#C0C0C0" stroke="none" paint-order="stroke fill markers" d=" M 297 139 C 297 133.477152 301.477152 129 307 129 C 312.522848 129 317 133.477152 317 139 C 317 144.522848 312.522848 149 307 149 C 301.477152 149 297 144.522848 297 139 Z" fill-opacity="0.2"/></g><g><path fill="#000000" stroke="none" paint-order="stroke fill markers" d=" M 290 132 C 290 126.47715199999999 294.477152 122 300 122 C 305.522848 122 310 126.47715199999999 310 132 C 310 137.522848 305.522848 142 300 142 C 294.477152 142 290 137.522848 290 132 Z"/></g><g><rect fill="#C0C0C0" stroke="none" x="15" y="175" width="160.287109375" height="25" transform="matrix(1 0 0 1 2 -6)" fill-opacity="0.2"/></g><g><rect fill="#ffffff" stroke="none" x="8" y="168" width="160.287109375" height="25" transform="matrix(1 0 0 1 2 -6)"/></g><g><path fill="none" stroke="#000000" paint-order="fill stroke markers" d=" M 10 162 L 170.287109375 162 L 170.287109375 187 L 10 187 L 10 162 Z Z" stroke-miterlimit="10" stroke-dasharray=""/></g><g><rect fill="#ffffff" stroke="none" x="8" y="168" width="160.287109375" height="25" transform="matrix(1 0 0 1 2 -6)"/></g><g><path fill="none" stroke="#000000" paint-order="fill stroke markers" d=" M 10 162 L 170.287109375 162 L 170.287109375 187 L 10 187 L 10 162 Z Z" stroke-miterlimit="10" stroke-dasharray=""/></g><g><g><path fill="none" stroke="none"/><text fill="#000000" stroke="none" font-family="Arial" font-size="13px" font-style="normal" font-weight="bold" text-decoration="undefined" x="88.6435546875" y="181.5" text-anchor="middle" dominant-baseline="central" transform="matrix(1 0 0 1 2 -6)">in docAsociada: File</text></g></g><g><rect fill="#C0C0C0" stroke="none" x="15" y="631" width="168.9072265625" height="40" transform="matrix(1 0 0 1 2 -6)" fill-opacity="0.2"/></g><g><rect fill="#ffffff" stroke="none" x="8" y="624" width="168.9072265625" height="40" transform="matrix(1 0 0 1 2 -6)"/></g><g><path fill="none" stroke="#000000" paint-order="fill stroke markers" d=" M 10 618 L 178.9072265625 618 L 178.9072265625 658 L 10 658 L 10 618 Z Z" stroke-miterlimit="10" stroke-dasharray=""/></g><g><rect fill="#ffffff" stroke="none" x="8" y="624" width="168.9072265625" height="40" transform="matrix(1 0 0 1 2 -6)"/></g><g><path fill="none" stroke="#000000" paint-order="fill stroke markers" d=" M 10 618 L 178.9072265625 618 L 178.9072265625 658 L 10 658 L 10 618 Z Z" stroke-miterlimit="10" stroke-dasharray=""/></g><g><g><path fill="none" stroke="none"/><text fill="#000000" stroke="none" font-family="Arial" font-size="13px" font-style="normal" font-weight="bold" text-decoration="undefined" x="92.95361328125" y="637.5" text-anchor="middle" dominant-baseline="central" transform="matrix(1 0 0 1 2 -6)">return estado: Boolean</text></g></g><g><g><path fill="none" stroke="none"/><text fill="#000000" stroke="none" font-family="Helvetica" font-size="28px" font-style="normal" font-weight="normal" text-decoration="undefined" x="21" y="21" text-anchor="start" dominant-baseline="text-before-edge" transform="matrix(1 0 0 1 2 -6)">Adrián Del Río</text></g></g><g><path fill="#C0C0C0" stroke="none" paint-order="stroke fill markers" d=" M 260 113 L 260 113 Q 263 113 263 116 L 263 518 Q 263 521 260 521 L 260 521 Q 257 521 257 518 L 257 116 Q 257 113 260 113 Z" fill-opacity="0.2"/></g><g><path fill="#000000" stroke="none" paint-order="stroke fill markers" d=" M 253 106 L 253 106 Q 256 106 256 109 L 256 511 Q 256 514 253 514 L 253 514 Q 250 514 250 511 L 250 109 Q 250 106 253 106 Z"/></g><g><path fill="#C0C0C0" stroke="none" paint-order="stroke fill markers" d=" M 435 121 L 781.8525390625 121 Q 791.8525390625 121 791.8525390625 131 L 791.8525390625 152 Q 791.8525390625 162 781.8525390625 162 L 435 162 Q 425 162 425 152 L 425 131 Q 425 121 435 121 Z" fill-opacity="0.2"/></g><g><path fill="#ffffff" stroke="none" paint-order="stroke fill markers" d=" M 428 114 L 774.8525390625 114 Q 784.8525390625 114 784.8525390625 124 L 784.8525390625 145 Q 784.8525390625 155 774.8525390625 155 L 428 155 Q 418 155 418 145 L 418 124 Q 418 114 428 114 Z"/></g><g><path fill="none" stroke="#000000" paint-order="fill stroke markers" d=" M 428 114 L 774.8525390625 114 Q 784.8525390625 114 784.8525390625 124 L 784.8525390625 145 Q 784.8525390625 155 774.8525390625 155 L 428 155 Q 418 155 418 145 L 418 124 Q 418 114 428 114 Z" stroke-miterlimit="10" stroke-dasharray=""/></g><g><g><path fill="none" stroke="none"/><text fill="#000000" stroke="none" font-family="Arial" font-size="13px" font-style="normal" font-weight="bold" text-decoration="undefined" x="599.92626953125" y="133.5" text-anchor="middle" dominant-baseline="central" transform="matrix(1 0 0 1 2 -6)">Comprobar enumerado de verificación de documentación</text></g></g><g><path fill="none" stroke="#000000" paint-order="fill stroke markers" d=" M 170 172 L 250 172" stroke-miterlimit="10" stroke-dasharray=""/></g><g><path fill="none" stroke="#000000" paint-order="fill stroke markers" d=" M 239.83732514237585 176.209517756016 L 250 172 L 239.83732514237585 167.790482243984" stroke-miterlimit="10" stroke-dasharray=""/></g><g><path fill="#C0C0C0" stroke="none" paint-order="stroke fill markers" d=" M 1113 194.5 L 1124.5 185 L 1136 194.5 L 1124.5 204 L 1113 194.5" fill-opacity="0.2"/></g><g><path fill="#ffffff" stroke="none" paint-order="stroke fill markers" d=" M 1106 187.5 L 1117.5 178 L 1129 187.5 L 1117.5 197 L 1106 187.5"/></g><g><path fill="none" stroke="#000000" paint-order="fill stroke markers" d=" M 1106 187.5 L 1117.5 178 L 1129 187.5 L 1117.5 197 L 1106 187.5 L 1106 187.5" stroke-miterlimit="10" stroke-dasharray=""/></g><g><path fill="#C0C0C0" stroke="none" paint-order="stroke fill markers" d=" M 443 177 L 771.85693359375 177 Q 781.85693359375 177 781.85693359375 187 L 781.85693359375 208 Q 781.85693359375 218 771.85693359375 218 L 443 218 Q 433 218 433 208 L 433 187 Q 433 177 443 177 Z" fill-opacity="0.2"/></g><g><path fill="#ffffff" stroke="none" paint-order="stroke fill markers" d=" M 436 170 L 764.85693359375 170 Q 774.85693359375 170 774.85693359375 180 L 774.85693359375 201 Q 774.85693359375 211 764.85693359375 211 L 436 211 Q 426 211 426 201 L 426 180 Q 426 170 436 170 Z"/></g><g><path fill="none" stroke="#000000" paint-order="fill stroke markers" d=" M 436 170 L 764.85693359375 170 Q 774.85693359375 170 774.85693359375 180 L 774.85693359375 201 Q 774.85693359375 211 764.85693359375 211 L 436 211 Q 426 211 426 201 L 426 180 Q 426 170 436 170 Z" stroke-miterlimit="10" stroke-dasharray=""/></g><g><g><path fill="none" stroke="none"/><text fill="#000000" stroke="none" font-family="Arial" font-size="13px" font-style="normal" font-weight="bold" text-decoration="undefined" x="598.928466796875" y="189.5" text-anchor="middle" dominant-baseline="central" transform="matrix(1 0 0 1 2 -6)">Mensaje de error notificación en espera o ya verificada</text></g></g><g><path fill="none" stroke="#000000" paint-order="fill stroke markers" d=" M 1106 189 L 775 189" stroke-miterlimit="10" stroke-dasharray=""/></g><g><path fill="none" stroke="#000000" paint-order="fill stroke markers" d=" M 785.1626748576241 184.790482243984 L 775 189 L 785.1626748576241 193.209517756016" stroke-miterlimit="10" stroke-dasharray=""/></g><g><rect fill="#ffffff" stroke="none" x="840" y="176" width="186.67822265625" height="13" transform="matrix(1 0 0 1 2 -6)"/></g><g><g><path fill="none" stroke="none"/><text fill="#000000" stroke="none" font-family="Arial" font-size="13px" font-style="normal" font-weight="normal" text-decoration="undefined" x="933.339111328125" y="182.5" text-anchor="middle" dominant-baseline="central" transform="matrix(1 0 0 1 2 -6)"> [esperaVerificacion || verificado]</text></g></g><g><path fill="#C0C0C0" stroke="none" paint-order="stroke fill markers" d=" M 467 257 L 743.75537109375 257 Q 753.75537109375 257 753.75537109375 267 L 753.75537109375 288 Q 753.75537109375 298 743.75537109375 298 L 467 298 Q 457 298 457 288 L 457 267 Q 457 257 467 257 Z" fill-opacity="0.2"/></g><g><path fill="#ffffff" stroke="none" paint-order="stroke fill markers" d=" M 460 250 L 736.75537109375 250 Q 746.75537109375 250 746.75537109375 260 L 746.75537109375 281 Q 746.75537109375 291 736.75537109375 291 L 460 291 Q 450 291 450 281 L 450 260 Q 450 250 460 250 Z"/></g><g><path fill="none" stroke="#000000" paint-order="fill stroke markers" d=" M 460 250 L 736.75537109375 250 Q 746.75537109375 250 746.75537109375 260 L 746.75537109375 281 Q 746.75537109375 291 736.75537109375 291 L 460 291 Q 450 291 450 281 L 450 260 Q 450 250 460 250 Z" stroke-miterlimit="10" stroke-dasharray=""/></g><g><g><path fill="none" stroke="none"/><text fill="#000000" stroke="none" font-family="Arial" font-size="13px" font-style="normal" font-weight="bold" text-decoration="undefined" x="596.877685546875" y="269.5" text-anchor="middle" dominant-baseline="central" transform="matrix(1 0 0 1 2 -6)">Comprobar si la documentación es de tipo pdf</text></g></g><g><path fill="none" stroke="#000000" paint-order="fill stroke markers" d=" M 1117 197 L 1117 234 L 598 234 L 598 250" stroke-miterlimit="10" stroke-dasharray=""/></g><g><path fill="none" stroke="#000000" paint-order="fill stroke markers" d=" M 593.790482243984 239.83732514237585 L 598 250 L 602.209517756016 239.83732514237585" stroke-miterlimit="10" stroke-dasharray=""/></g><g><rect fill="#ffffff" stroke="none" x="896" y="222" width="93.9326171875" height="13" transform="matrix(1 0 0 1 2 -6)"/></g><g><g><path fill="none" stroke="none"/><text fill="#000000" stroke="none" font-family="Arial" font-size="13px" font-style="normal" font-weight="normal" text-decoration="undefined" x="942.96630859375" y="228.5" text-anchor="middle" dominant-baseline="central" transform="matrix(1 0 0 1 2 -6)"> [sinVerificar]</text></g></g><g><rect fill="#ffffff" stroke="none" x="432" y="264" width="18" height="18" transform="matrix(1 0 0 1 2 -6)"/></g><g><path fill="none" stroke="#000000" paint-order="fill stroke markers" d=" M 434 258 L 452 258 L 452 276 L 434 276 L 434 258 Z Z" stroke-miterlimit="10" stroke-dasharray=""/></g><g><path fill="none" stroke="#000000" paint-order="fill stroke markers" d=" M 436 267 L 450 267" stroke-miterlimit="10" stroke-dasharray=""/></g><g><path fill="none" stroke="#000000" paint-order="fill stroke markers" d=" M 450 267 L 447 264" stroke-miterlimit="10" stroke-dasharray=""/></g><g><path fill="none" stroke="#000000" paint-order="fill stroke markers" d=" M 450 267 L 447 270" stroke-miterlimit="10" stroke-dasharray=""/></g><g><rect fill="#ffffff" stroke="none" x="367.780517578125" y="246.5" width="74.43896484375" height="13" transform="matrix(1 0 0 1 2 -6)"/></g><g><g><path fill="none" stroke="none"/><text fill="#000000" stroke="none" font-family="Arial" font-size="13px" font-style="normal" font-weight="normal" text-decoration="undefined" x="405" y="253" text-anchor="middle" dominant-baseline="central" transform="matrix(1 0 0 1 2 -6)">docAsociada</text></g></g><g><path fill="none" stroke="#000000" paint-order="fill stroke markers" d=" M 256 266 L 434 266" stroke-miterlimit="10" stroke-dasharray=""/></g><g><path fill="none" stroke="#000000" paint-order="fill stroke markers" d=" M 423.83732514237585 270.209517756016 L 434 266 L 423.83732514237585 261.790482243984" stroke-miterlimit="10" stroke-dasharray=""/></g><g><path fill="#C0C0C0" stroke="none" paint-order="stroke fill markers" d=" M 1113 314.5 L 1124.5 305 L 1136 314.5 L 1124.5 324 L 1113 314.5" fill-opacity="0.2"/></g><g><path fill="#ffffff" stroke="none" paint-order="stroke fill markers" d=" M 1106 307.5 L 1117.5 298 L 1129 307.5 L 1117.5 317 L 1106 307.5"/></g><g><path fill="none" stroke="#000000" paint-order="fill stroke markers" d=" M 1106 307.5 L 1117.5 298 L 1129 307.5 L 1117.5 317 L 1106 307.5 L 1106 307.5" stroke-miterlimit="10" stroke-dasharray=""/></g><g><path fill="#C0C0C0" stroke="none" paint-order="stroke fill markers" d=" M 337 566 C 337 558.8202976 342.8202976 553 350 553 C 357.1797024 553 363 558.8202976 363 566 C 363 573.1797024 357.1797024 579 350 579 C 342.8202976 579 337 573.1797024 337 566 Z" fill-opacity="0.2"/></g><g><path fill="none" stroke="#000000" paint-order="fill stroke markers" d=" M 330 559 C 330 551.8202976 335.8202976 546 343 546 C 350.1797024 546 356 551.8202976 356 559 C 356 566.1797024 350.1797024 572 343 572 C 335.8202976 572 330 566.1797024 330 559 Z" stroke-miterlimit="10" stroke-dasharray=""/></g><g><path fill="#000000" stroke="none" paint-order="stroke fill markers" d=" M 335 559 C 335 554.5817216 338.5817216 551 343 551 C 347.4182784 551 351 554.5817216 351 559 C 351 563.4182784 347.4182784 567 343 567 C 338.5817216 567 335 563.4182784 335 559 Z"/></g><g><path fill="#C0C0C0" stroke="none" paint-order="stroke fill markers" d=" M 467 329 L 752.45166015625 329 Q 762.45166015625 329 762.45166015625 339 L 762.45166015625 360 Q 762.45166015625 370 752.45166015625 370 L 467 370 Q 457 370 457 360 L 457 339 Q 457 329 467 329 Z" fill-opacity="0.2"/></g><g><path fill="#ffffff" stroke="none" paint-order="stroke fill markers" d=" M 460 322 L 745.45166015625 322 Q 755.45166015625 322 755.45166015625 332 L 755.45166015625 353 Q 755.45166015625 363 745.45166015625 363 L 460 363 Q 450 363 450 353 L 450 332 Q 450 322 460 322 Z"/></g><g><path fill="none" stroke="#000000" paint-order="fill stroke markers" d=" M 460 322 L 745.45166015625 322 Q 755.45166015625 322 755.45166015625 332 L 755.45166015625 353 Q 755.45166015625 363 745.45166015625 363 L 460 363 Q 450 363 450 353 L 450 332 Q 450 322 460 322 Z" stroke-miterlimit="10" stroke-dasharray=""/></g><g><g><path fill="none" stroke="none"/><text fill="#000000" stroke="none" font-family="Arial" font-size="13px" font-style="normal" font-weight="bold" text-decoration="undefined" x="601.225830078125" y="341.5" text-anchor="middle" dominant-baseline="central" transform="matrix(1 0 0 1 2 -6)">Mensaje de error documentación no esta en pdf</text></g></g><g><path fill="none" stroke="#000000" paint-order="fill stroke markers" d=" M 1106 306 L 594 306 L 594 322" stroke-miterlimit="10" stroke-dasharray=""/></g><g><path fill="none" stroke="#000000" paint-order="fill stroke markers" d=" M 589.790482243984 311.83732514237585 L 594 322 L 598.209517756016 311.83732514237585" stroke-miterlimit="10" stroke-dasharray=""/></g><g><rect fill="#ffffff" stroke="none" x="800" y="288" width="38.29541015625" height="13" transform="matrix(1 0 0 1 2 -6)"/></g><g><g><path fill="none" stroke="none"/><text fill="#000000" stroke="none" font-family="Arial" font-size="13px" font-style="normal" font-weight="normal" text-decoration="undefined" x="819.147705078125" y="294.5" text-anchor="middle" dominant-baseline="central" transform="matrix(1 0 0 1 2 -6)"> [false]</text></g></g><g><path fill="#C0C0C0" stroke="none" paint-order="stroke fill markers" d=" M 419 409 L 799 409 Q 809 409 809 419 L 809 453 Q 809 463 799 463 L 419 463 Q 409 463 409 453 L 409 419 Q 409 409 419 409 Z" fill-opacity="0.2"/></g><g><path fill="#ffffff" stroke="none" paint-order="stroke fill markers" d=" M 412 402 L 792 402 Q 802 402 802 412 L 802 446 Q 802 456 792 456 L 412 456 Q 402 456 402 446 L 402 412 Q 402 402 412 402 Z"/></g><g><path fill="none" stroke="#000000" paint-order="fill stroke markers" d=" M 412 402 L 792 402 Q 802 402 802 412 L 802 446 Q 802 456 792 456 L 412 456 Q 402 456 402 446 L 402 412 Q 402 402 412 402 Z" stroke-miterlimit="10" stroke-dasharray=""/></g><g><g><path fill="none" stroke="none"/><text fill="#000000" stroke="none" font-family="Arial" font-size="13px" font-style="normal" font-weight="bold" text-decoration="undefined" x="600.5" y="421.5" text-anchor="middle" dominant-baseline="central" transform="matrix(1 0 0 1 2 -6)">Aumenta numIntentosNotificacion y ajusta enumerado de</text><text fill="#000000" stroke="none" font-family="Arial" font-size="13px" font-style="normal" font-weight="bold" text-decoration="undefined" x="600.5" y="434.5" text-anchor="middle" dominant-baseline="central" transform="matrix(1 0 0 1 2 -6)">verificación de documentación a esperaVerificacion</text></g></g><g><path fill="none" stroke="#000000" paint-order="fill stroke markers" d=" M 1117 317 L 1117 378 L 594 378 L 594 402" stroke-miterlimit="10" stroke-dasharray=""/></g><g><path fill="none" stroke="#000000" paint-order="fill stroke markers" d=" M 589.790482243984 391.83732514237585 L 594 402 L 598.209517756016 391.83732514237585" stroke-miterlimit="10" stroke-dasharray=""/></g><g><rect fill="#ffffff" stroke="none" x="800" y="359" width="33.236328125" height="13" transform="matrix(1 0 0 1 2 -6)"/></g><g><g><path fill="none" stroke="none"/><text fill="#000000" stroke="none" font-family="Arial" font-size="13px" font-style="normal" font-weight="normal" text-decoration="undefined" x="816.6181640625" y="365.5" text-anchor="middle" dominant-baseline="central" transform="matrix(1 0 0 1 2 -6)"> [true]</text></g></g><g><path fill="#C0C0C0" stroke="none" paint-order="stroke fill markers" d=" M 475 593 L 725.79345703125 593 Q 735.79345703125 593 735.79345703125 603 L 735.79345703125 624 Q 735.79345703125 634 725.79345703125 634 L 475 634 Q 465 634 465 624 L 465 603 Q 465 593 475 593 Z" fill-opacity="0.2"/></g><g><path fill="#ffffff" stroke="none" paint-order="stroke fill markers" d=" M 468 586 L 718.79345703125 586 Q 728.79345703125 586 728.79345703125 596 L 728.79345703125 617 Q 728.79345703125 627 718.79345703125 627 L 468 627 Q 458 627 458 617 L 458 596 Q 458 586 468 586 Z"/></g><g><path fill="none" stroke="#000000" paint-order="fill stroke markers" d=" M 468 586 L 718.79345703125 586 Q 728.79345703125 586 728.79345703125 596 L 728.79345703125 617 Q 728.79345703125 627 718.79345703125 627 L 468 627 Q 458 627 458 617 L 458 596 Q 458 586 468 586 Z" stroke-miterlimit="10" stroke-dasharray=""/></g><g><g><path fill="none" stroke="none"/><text fill="#000000" stroke="none" font-family="Arial" font-size="13px" font-style="normal" font-weight="bold" text-decoration="undefined" x="591.896728515625" y="605.5" text-anchor="middle" dominant-baseline="central" transform="matrix(1 0 0 1 2 -6)">Mensaje de exito al añadir documentación</text></g></g><g><path fill="#C0C0C0" stroke="none" paint-order="stroke fill markers" d=" M 435 497 L 766.7197265625 497 Q 776.7197265625 497 776.7197265625 507 L 776.7197265625 528 Q 776.7197265625 538 766.7197265625 538 L 435 538 Q 425 538 425 528 L 425 507 Q 425 497 435 497 Z" fill-opacity="0.2"/></g><g><path fill="#ffffff" stroke="none" paint-order="stroke fill markers" d=" M 428 490 L 759.7197265625 490 Q 769.7197265625 490 769.7197265625 500 L 769.7197265625 521 Q 769.7197265625 531 759.7197265625 531 L 428 531 Q 418 531 418 521 L 418 500 Q 418 490 428 490 Z"/></g><g><path fill="none" stroke="#000000" paint-order="fill stroke markers" d=" M 428 490 L 759.7197265625 490 Q 769.7197265625 490 769.7197265625 500 L 769.7197265625 521 Q 769.7197265625 531 759.7197265625 531 L 428 531 Q 418 531 418 521 L 418 500 Q 418 490 428 490 Z" stroke-miterlimit="10" stroke-dasharray=""/></g><g><g><path fill="none" stroke="none"/><text fill="#000000" stroke="none" font-family="Arial" font-size="13px" font-style="normal" font-weight="bold" text-decoration="undefined" x="592.35986328125" y="509.5" text-anchor="middle" dominant-baseline="central" transform="matrix(1 0 0 1 2 -6)">Escribe la nueva documentación asociada al Productor</text></g></g><g><path fill="none" stroke="#000000" paint-order="fill stroke markers" d=" M 594 456 L 594 490" stroke-miterlimit="10" stroke-dasharray=""/></g><g><path fill="none" stroke="#000000" paint-order="fill stroke markers" d=" M 589.790482243984 479.83732514237585 L 594 490 L 598.209517756016 479.83732514237585" stroke-miterlimit="10" stroke-dasharray=""/></g><g><rect fill="#ffffff" stroke="none" x="399" y="504" width="18" height="18" transform="matrix(1 0 0 1 2 -6)"/></g><g><path fill="none" stroke="#000000" paint-order="fill stroke markers" d=" M 401 498 L 419 498 L 419 516 L 401 516 L 401 498 Z Z" stroke-miterlimit="10" stroke-dasharray=""/></g><g><path fill="none" stroke="#000000" paint-order="fill stroke markers" d=" M 403 507 L 417 507" stroke-miterlimit="10" stroke-dasharray=""/></g><g><path fill="none" stroke="#000000" paint-order="fill stroke markers" d=" M 417 507 L 414 504" stroke-miterlimit="10" stroke-dasharray=""/></g><g><path fill="none" stroke="#000000" paint-order="fill stroke markers" d=" M 417 507 L 414 510" stroke-miterlimit="10" stroke-dasharray=""/></g><g><rect fill="#ffffff" stroke="none" x="367.780517578125" y="478.5" width="74.43896484375" height="13" transform="matrix(1 0 0 1 2 -6)"/></g><g><g><path fill="none" stroke="none"/><text fill="#000000" stroke="none" font-family="Arial" font-size="13px" font-style="normal" font-weight="normal" text-decoration="undefined" x="405" y="485" text-anchor="middle" dominant-baseline="central" transform="matrix(1 0 0 1 2 -6)">docAsociada</text></g></g><g><path fill="none" stroke="#000000" paint-order="fill stroke markers" d=" M 256 507 L 401 507" stroke-miterlimit="10" stroke-dasharray=""/></g><g><path fill="none" stroke="#000000" paint-order="fill stroke markers" d=" M 390.83732514237585 511.209517756016 L 401 507 L 390.83732514237585 502.790482243984" stroke-miterlimit="10" stroke-dasharray=""/></g><g><path fill="none" stroke="#000000" paint-order="fill stroke markers" d=" M 310 133 L 418 133" stroke-miterlimit="10" stroke-dasharray=""/></g><g><path fill="none" stroke="#000000" paint-order="fill stroke markers" d=" M 407.83732514237585 137.209517756016 L 418 133 L 407.83732514237585 128.790482243984" stroke-miterlimit="10" stroke-dasharray=""/></g><g><path fill="#C0C0C0" stroke="none" paint-order="stroke fill markers" d=" M 1113 570.5 L 1124.5 561 L 1136 570.5 L 1124.5 580 L 1113 570.5" fill-opacity="0.2"/></g><g><path fill="#ffffff" stroke="none" paint-order="stroke fill markers" d=" M 1106 563.5 L 1117.5 554 L 1129 563.5 L 1117.5 573 L 1106 563.5"/></g><g><path fill="none" stroke="#000000" paint-order="fill stroke markers" d=" M 1106 563.5 L 1117.5 554 L 1129 563.5 L 1117.5 573 L 1106 563.5 L 1106 563.5" stroke-miterlimit="10" stroke-dasharray=""/></g><g><path fill="none" stroke="#000000" paint-order="fill stroke markers" d=" M 1106 562 L 593 562 L 593 586" stroke-miterlimit="10" stroke-dasharray=""/></g><g><path fill="none" stroke="#000000" paint-order="fill stroke markers" d=" M 588.790482243984 575.8373251423759 L 593 586 L 597.209517756016 575.8373251423759" stroke-miterlimit="10" stroke-dasharray=""/></g><g><rect fill="#ffffff" stroke="none" x="800" y="544" width="33.236328125" height="13" transform="matrix(1 0 0 1 2 -6)"/></g><g><g><path fill="none" stroke="none"/><text fill="#000000" stroke="none" font-family="Arial" font-size="13px" font-style="normal" font-weight="normal" text-decoration="undefined" x="816.6181640625" y="550.5" text-anchor="middle" dominant-baseline="central" transform="matrix(1 0 0 1 2 -6)"> [true]</text></g></g><g><path fill="#C0C0C0" stroke="none" paint-order="stroke fill markers" d=" M 443 657 L 757.39697265625 657 Q 767.39697265625 657 767.39697265625 667 L 767.39697265625 688 Q 767.39697265625 698 757.39697265625 698 L 443 698 Q 433 698 433 688 L 433 667 Q 433 657 443 657 Z" fill-opacity="0.2"/></g><g><path fill="#ffffff" stroke="none" paint-order="stroke fill markers" d=" M 436 650 L 750.39697265625 650 Q 760.39697265625 650 760.39697265625 660 L 760.39697265625 681 Q 760.39697265625 691 750.39697265625 691 L 436 691 Q 426 691 426 681 L 426 660 Q 426 650 436 650 Z"/></g><g><path fill="none" stroke="#000000" paint-order="fill stroke markers" d=" M 436 650 L 750.39697265625 650 Q 760.39697265625 650 760.39697265625 660 L 760.39697265625 681 Q 760.39697265625 691 750.39697265625 691 L 436 691 Q 426 691 426 681 L 426 660 Q 426 650 436 650 Z" stroke-miterlimit="10" stroke-dasharray=""/></g><g><g><path fill="none" stroke="none"/><text fill="#000000" stroke="none" font-family="Arial" font-size="13px" font-style="normal" font-weight="bold" text-decoration="undefined" x="591.698486328125" y="669.5" text-anchor="middle" dominant-baseline="central" transform="matrix(1 0 0 1 2 -6)">Mensaje de error al escribir la nueva documentación</text></g></g><g><path fill="none" stroke="#000000" paint-order="fill stroke markers" d=" M 1114 573 L 1114 670 L 760 670" stroke-miterlimit="10" stroke-dasharray=""/></g><g><path fill="none" stroke="#000000" paint-order="fill stroke markers" d=" M 770.1626748576241 665.790482243984 L 760 670 L 770.1626748576241 674.209517756016" stroke-miterlimit="10" stroke-dasharray=""/></g><g><rect fill="#ffffff" stroke="none" x="805" y="655" width="38.29541015625" height="13" transform="matrix(1 0 0 1 2 -6)"/></g><g><g><path fill="none" stroke="none"/><text fill="#000000" stroke="none" font-family="Arial" font-size="13px" font-style="normal" font-weight="normal" text-decoration="undefined" x="824.147705078125" y="661.5" text-anchor="middle" dominant-baseline="central" transform="matrix(1 0 0 1 2 -6)"> [false]</text></g></g><g><path fill="none" stroke="#000000" paint-order="fill stroke markers" d=" M 426 658 L 343 658 L 343 572" stroke-miterlimit="10" stroke-dasharray=""/></g><g><path fill="none" stroke="#000000" paint-order="fill stroke markers" d=" M 347.209517756016 582.1626748576241 L 343 572 L 338.790482243984 582.1626748576241" stroke-miterlimit="10" stroke-dasharray=""/></g><g><path fill="none" stroke="#000000" paint-order="fill stroke markers" d=" M 458 586 L 458 562 L 356 562" stroke-miterlimit="10" stroke-dasharray=""/></g><g><path fill="none" stroke="#000000" paint-order="fill stroke markers" d=" M 366.16267485762415 557.790482243984 L 356 562 L 366.16267485762415 566.209517756016" stroke-miterlimit="10" stroke-dasharray=""/></g><g><path fill="none" stroke="#000000" paint-order="fill stroke markers" d=" M 426 202 L 338 202 L 338 546" stroke-miterlimit="10" stroke-dasharray=""/></g><g><path fill="none" stroke="#000000" paint-order="fill stroke markers" d=" M 333.790482243984 535.8373251423759 L 338 546 L 342.209517756016 535.8373251423759" stroke-miterlimit="10" stroke-dasharray=""/></g><g><path fill="none" stroke="#000000" paint-order="fill stroke markers" d=" M 450 354 L 354 354 L 354 546" stroke-miterlimit="10" stroke-dasharray=""/></g><g><path fill="none" stroke="#000000" paint-order="fill stroke markers" d=" M 349.790482243984 535.8373251423759 L 354 546 L 358.209517756016 535.8373251423759" stroke-miterlimit="10" stroke-dasharray=""/></g><g><path fill="none" stroke="#000000" paint-order="fill stroke markers" d=" M 785 130 L 1114 130 L 1114 178" stroke-miterlimit="10" stroke-dasharray=""/></g><g><path fill="none" stroke="#000000" paint-order="fill stroke markers" d=" M 1109.7904822439841 167.83732514237585 L 1114 178 L 1118.2095177560159 167.83732514237585" stroke-miterlimit="10" stroke-dasharray=""/></g><g><rect fill="#ffffff" stroke="none" x="407" y="184" width="18" height="18" transform="matrix(1 0 0 1 2 -6)"/></g><g><path fill="none" stroke="#000000" paint-order="fill stroke markers" d=" M 409 178 L 427 178 L 427 196 L 409 196 L 409 178 Z Z" stroke-miterlimit="10" stroke-dasharray=""/></g><g><path fill="none" stroke="#000000" paint-order="fill stroke markers" d=" M 411 187 L 425 187" stroke-miterlimit="10" stroke-dasharray=""/></g><g><path fill="none" stroke="#000000" paint-order="fill stroke markers" d=" M 411 187 L 414 184" stroke-miterlimit="10" stroke-dasharray=""/></g><g><path fill="none" stroke="#000000" paint-order="fill stroke markers" d=" M 411 187 L 414 190" stroke-miterlimit="10" stroke-dasharray=""/></g><g><rect fill="#ffffff" stroke="none" x="359.477783203125" y="166.5" width="65.04443359375" height="13" transform="matrix(1 0 0 1 2 -6)"/></g><g><g><path fill="none" stroke="none"/><text fill="#000000" stroke="none" font-family="Arial" font-size="13px" font-style="normal" font-weight="normal" text-decoration="undefined" x="392" y="173" text-anchor="middle" dominant-baseline="central" transform="matrix(1 0 0 1 2 -6)">false</text></g></g><g><path fill="none" stroke="#000000" paint-order="fill stroke markers" d=" M 409 186 L 282 186 L 282 538 L 94 538 L 94 618" stroke-miterlimit="10" stroke-dasharray=""/></g><g><path fill="none" stroke="#000000" paint-order="fill stroke markers" d=" M 89.79048224398402 607.8373251423759 L 94 618 L 98.20951775601598 607.8373251423759" stroke-miterlimit="10" stroke-dasharray=""/></g><g><path fill="none" stroke="#000000" paint-order="fill stroke markers" d=" M 747 266 L 1114 266 L 1114 298" stroke-miterlimit="10" stroke-dasharray=""/></g><g><path fill="none" stroke="#000000" paint-order="fill stroke markers" d=" M 1109.7904822439841 287.83732514237585 L 1114 298 L 1118.2095177560159 287.83732514237585" stroke-miterlimit="10" stroke-dasharray=""/></g><g><rect fill="#ffffff" stroke="none" x="432" y="336" width="18" height="18" transform="matrix(1 0 0 1 2 -6)"/></g><g><path fill="none" stroke="#000000" paint-order="fill stroke markers" d=" M 434 330 L 452 330 L 452 348 L 434 348 L 434 330 Z Z" stroke-miterlimit="10" stroke-dasharray=""/></g><g><path fill="none" stroke="#000000" paint-order="fill stroke markers" d=" M 436 339 L 450 339" stroke-miterlimit="10" stroke-dasharray=""/></g><g><path fill="none" stroke="#000000" paint-order="fill stroke markers" d=" M 436 339 L 439 336" stroke-miterlimit="10" stroke-dasharray=""/></g><g><path fill="none" stroke="#000000" paint-order="fill stroke markers" d=" M 436 339 L 439 342" stroke-miterlimit="10" stroke-dasharray=""/></g><g><rect fill="#ffffff" stroke="none" x="375.477783203125" y="318.5" width="65.04443359375" height="13" transform="matrix(1 0 0 1 2 -6)"/></g><g><g><path fill="none" stroke="none"/><text fill="#000000" stroke="none" font-family="Arial" font-size="13px" font-style="normal" font-weight="normal" text-decoration="undefined" x="408" y="325" text-anchor="middle" dominant-baseline="central" transform="matrix(1 0 0 1 2 -6)">false</text></g></g><g><path fill="none" stroke="#000000" paint-order="fill stroke markers" d=" M 434 338 L 298 338 L 298 626 L 179 626" stroke-miterlimit="10" stroke-dasharray=""/></g><g><path fill="none" stroke="#000000" paint-order="fill stroke markers" d=" M 189.16267485762415 621.790482243984 L 179 626 L 189.16267485762415 630.209517756016" stroke-miterlimit="10" stroke-dasharray=""/></g><g><rect fill="#ffffff" stroke="none" x="408" y="672" width="18" height="18" transform="matrix(1 0 0 1 2 -6)"/></g><g><path fill="none" stroke="#000000" paint-order="fill stroke markers" d=" M 410 666 L 428 666 L 428 684 L 410 684 L 410 666 Z Z" stroke-miterlimit="10" stroke-dasharray=""/></g><g><path fill="none" stroke="#000000" paint-order="fill stroke markers" d=" M 412 675 L 426 675" stroke-miterlimit="10" stroke-dasharray=""/></g><g><path fill="none" stroke="#000000" paint-order="fill stroke markers" d=" M 412 675 L 415 672" stroke-miterlimit="10" stroke-dasharray=""/></g><g><path fill="none" stroke="#000000" paint-order="fill stroke markers" d=" M 412 675 L 415 678" stroke-miterlimit="10" stroke-dasharray=""/></g><g><rect fill="#ffffff" stroke="none" x="351.477783203125" y="695.5" width="65.04443359375" height="13" transform="matrix(1 0 0 1 2 -6)"/></g><g><g><path fill="none" stroke="none"/><text fill="#000000" stroke="none" font-family="Arial" font-size="13px" font-style="normal" font-weight="normal" text-decoration="undefined" x="384" y="702" text-anchor="middle" dominant-baseline="central" transform="matrix(1 0 0 1 2 -6)">false</text></g></g><g><path fill="none" stroke="#000000" paint-order="fill stroke markers" d=" M 410 674 L 94 674 L 94 658" stroke-miterlimit="10" stroke-dasharray=""/></g><g><path fill="none" stroke="#000000" paint-order="fill stroke markers" d=" M 98.20951775601598 668.1626748576241 L 94 658 L 89.79048224398402 668.1626748576241" stroke-miterlimit="10" stroke-dasharray=""/></g><g><rect fill="#ffffff" stroke="none" x="440" y="600" width="18" height="18" transform="matrix(1 0 0 1 2 -6)"/></g><g><path fill="none" stroke="#000000" paint-order="fill stroke markers" d=" M 442 594 L 460 594 L 460 612 L 442 612 L 442 594 Z Z" stroke-miterlimit="10" stroke-dasharray=""/></g><g><path fill="none" stroke="#000000" paint-order="fill stroke markers" d=" M 444 603 L 458 603" stroke-miterlimit="10" stroke-dasharray=""/></g><g><path fill="none" stroke="#000000" paint-order="fill stroke markers" d=" M 444 603 L 447 600" stroke-miterlimit="10" stroke-dasharray=""/></g><g><path fill="none" stroke="#000000" paint-order="fill stroke markers" d=" M 444 603 L 447 606" stroke-miterlimit="10" stroke-dasharray=""/></g><g><rect fill="#ffffff" stroke="none" x="383.477783203125" y="582.5" width="65.04443359375" height="13" transform="matrix(1 0 0 1 2 -6)"/></g><g><g><path fill="none" stroke="none"/><text fill="#000000" stroke="none" font-family="Arial" font-size="13px" font-style="normal" font-weight="normal" text-decoration="undefined" x="416" y="589" text-anchor="middle" dominant-baseline="central" transform="matrix(1 0 0 1 2 -6)">true</text></g></g><g><path fill="none" stroke="#000000" paint-order="fill stroke markers" d=" M 442 602 L 378 602 L 378 650 L 179 650" stroke-miterlimit="10" stroke-dasharray=""/></g><g><path fill="none" stroke="#000000" paint-order="fill stroke markers" d=" M 189.16267485762415 645.790482243984 L 179 650 L 189.16267485762415 654.209517756016" stroke-miterlimit="10" stroke-dasharray=""/></g><g><path fill="none" stroke="#000000" paint-order="fill stroke markers" d=" M 770 509 L 1114 509 L 1114 554" stroke-miterlimit="10" stroke-dasharray=""/></g><g><path fill="none" stroke="#000000" paint-order="fill stroke markers" d=" M 1109.7904822439841 543.8373251423759 L 1114 554 L 1118.2095177560159 543.8373251423759" stroke-miterlimit="10" stroke-dasharray=""/></g></g></svg>