<svg version="1.1" xmlns="http://www.w3.org/2000/svg" xmlns:xlink="http://www.w3.org/1999/xlink" width="1471.40087890625" height="1020"><defs/><g><g><rect fill="#C0C0C0" stroke="none" x="279" y="127" width="1024" height="936" transform="matrix(1 0 0 1 -54 -46)" fill-opacity="0.2"/></g><g><rect fill="#ffffff" stroke="none" x="272" y="120" width="1024" height="936" transform="matrix(1 0 0 1 -54 -46)"/></g><g><path fill="none" stroke="#000000" paint-order="fill stroke markers" d=" M 218 74 L 1242 74 L 1242 1010 L 218 1010 L 218 74 Z Z" stroke-miterlimit="10" stroke-dasharray=""/></g><g><g><path fill="none" stroke="none"/><text fill="#000000" stroke="none" font-family="Arial" font-size="13px" font-style="normal" font-weight="bold" text-decoration="undefined" x="784.5" y="133.5" text-anchor="middle" dominant-baseline="central" transform="matrix(1 0 0 1 -54 -46)">Gestión eventos</text></g></g><g><path fill="#ffffff" stroke="none" paint-order="stroke fill markers" d=" M 33.16 331.85 C 33.16 326.96227952000004 37.117802368 323 42 323 C 46.882197632 323 50.84 326.96227952000004 50.84 331.85 C 50.84 336.73772048 46.882197632 340.7 42 340.7 C 37.117802368 340.7 33.16 336.73772048 33.16 331.85 Z"/></g><g><path fill="none" stroke="#000000" paint-order="fill stroke markers" d=" M 33.16 331.85 C 33.16 326.96227952000004 37.117802368 323 42 323 C 46.882197632 323 50.84 326.96227952000004 50.84 331.85 C 50.84 336.73772048 46.882197632 340.7 42 340.7 C 37.117802368 340.7 33.16 336.73772048 33.16 331.85 Z" stroke-miterlimit="10" stroke-dasharray=""/></g><g><path fill="none" stroke="#000000" paint-order="fill stroke markers" d=" M 42 340.7 L 42 358.3" stroke-miterlimit="10" stroke-dasharray=""/></g><g><path fill="none" stroke="#000000" paint-order="fill stroke markers" d=" M 32.64 347.3 L 51.36 347.3" stroke-miterlimit="10" stroke-dasharray=""/></g><g><path fill="none" stroke="#000000" paint-order="fill stroke markers" d=" M 42 358.3 L 29 376" stroke-miterlimit="10" stroke-dasharray=""/></g><g><path fill="none" stroke="#000000" paint-order="fill stroke markers" d=" M 42 358.3 L 55 376" stroke-miterlimit="10" stroke-dasharray=""/></g><g><g><path fill="none" stroke="none"/><text fill="#000000" stroke="none" font-family="Arial" font-size="13px" font-style="normal" font-weight="bold" text-decoration="undefined" x="96.5" y="436.5" text-anchor="middle" dominant-baseline="central" transform="matrix(1 0 0 1 -54 -46)">Usuario</text></g></g><g><path fill="#ffffff" stroke="none" paint-order="stroke fill markers" d=" M 30.360439453124997 715.85 C 30.360439453124997 710.96227952 34.318241821125 707 39.200439453125 707 C 44.082637085125 707 48.040439453125 710.96227952 48.040439453125 715.85 C 48.040439453125 720.73772048 44.082637085125 724.7 39.200439453125 724.7 C 34.318241821125 724.7 30.360439453124997 720.73772048 30.360439453124997 715.85 Z"/></g><g><path fill="none" stroke="#000000" paint-order="fill stroke markers" d=" M 30.360439453124997 715.85 C 30.360439453124997 710.96227952 34.318241821125 707 39.200439453125 707 C 44.082637085125 707 48.040439453125 710.96227952 48.040439453125 715.85 C 48.040439453125 720.73772048 44.082637085125 724.7 39.200439453125 724.7 C 34.318241821125 724.7 30.360439453124997 720.73772048 30.360439453124997 715.85 Z" stroke-miterlimit="10" stroke-dasharray=""/></g><g><path fill="none" stroke="#000000" paint-order="fill stroke markers" d=" M 39.200439453125 724.7 L 39.200439453125 742.3" stroke-miterlimit="10" stroke-dasharray=""/></g><g><path fill="none" stroke="#000000" paint-order="fill stroke markers" d=" M 29.840439453125 731.3 L 48.560439453125 731.3" stroke-miterlimit="10" stroke-dasharray=""/></g><g><path fill="none" stroke="#000000" paint-order="fill stroke markers" d=" M 39.200439453125 742.3 L 26.200439453125 760" stroke-miterlimit="10" stroke-dasharray=""/></g><g><path fill="none" stroke="#000000" paint-order="fill stroke markers" d=" M 39.200439453125 742.3 L 52.200439453125 760" stroke-miterlimit="10" stroke-dasharray=""/></g><g><g><path fill="none" stroke="none"/><text fill="#000000" stroke="none" font-family="Arial" font-size="13px" font-style="normal" font-weight="bold" text-decoration="undefined" x="93.700439453125" y="820.5" text-anchor="middle" dominant-baseline="central" transform="matrix(1 0 0 1 -54 -46)">Artista</text></g></g><g><path fill="#ffffff" stroke="none" paint-order="stroke fill markers" d=" M 1422.360439453125 619.85 C 1422.360439453125 614.96227952 1426.318241821125 611 1431.200439453125 611 C 1436.082637085125 611 1440.040439453125 614.96227952 1440.040439453125 619.85 C 1440.040439453125 624.73772048 1436.082637085125 628.7 1431.200439453125 628.7 C 1426.318241821125 628.7 1422.360439453125 624.73772048 1422.360439453125 619.85 Z"/></g><g><path fill="none" stroke="#000000" paint-order="fill stroke markers" d=" M 1422.360439453125 619.85 C 1422.360439453125 614.96227952 1426.318241821125 611 1431.200439453125 611 C 1436.082637085125 611 1440.040439453125 614.96227952 1440.040439453125 619.85 C 1440.040439453125 624.73772048 1436.082637085125 628.7 1431.200439453125 628.7 C 1426.318241821125 628.7 1422.360439453125 624.73772048 1422.360439453125 619.85 Z" stroke-miterlimit="10" stroke-dasharray=""/></g><g><path fill="none" stroke="#000000" paint-order="fill stroke markers" d=" M 1431.200439453125 628.7 L 1431.200439453125 646.3" stroke-miterlimit="10" stroke-dasharray=""/></g><g><path fill="none" stroke="#000000" paint-order="fill stroke markers" d=" M 1421.840439453125 635.3 L 1440.560439453125 635.3" stroke-miterlimit="10" stroke-dasharray=""/></g><g><path fill="none" stroke="#000000" paint-order="fill stroke markers" d=" M 1431.200439453125 646.3 L 1418.200439453125 664" stroke-miterlimit="10" stroke-dasharray=""/></g><g><path fill="none" stroke="#000000" paint-order="fill stroke markers" d=" M 1431.200439453125 646.3 L 1444.200439453125 664" stroke-miterlimit="10" stroke-dasharray=""/></g><g><g><path fill="none" stroke="none"/><text fill="#000000" stroke="none" font-family="Arial" font-size="13px" font-style="normal" font-weight="bold" text-decoration="undefined" x="1485.700439453125" y="724.5" text-anchor="middle" dominant-baseline="central" transform="matrix(1 0 0 1 -54 -46)">Admin</text></g></g><g><path fill="#C0C0C0" stroke="none" paint-order="stroke fill markers" d=" M 337 240 C 337 231.715728 407.9628592 225 495.5 225 C 583.0371408 225 654 231.715728 654 240 C 654 248.284272 583.0371408 255 495.5 255 C 407.9628592 255 337 248.284272 337 240 Z" fill-opacity="0.2"/></g><g><path fill="#ffffff" stroke="none" paint-order="stroke fill markers" d=" M 330 233 C 330 224.715728 400.9628592 218 488.5 218 C 576.0371408 218 647 224.715728 647 233 C 647 241.284272 576.0371408 248 488.5 248 C 400.9628592 248 330 241.284272 330 233 Z"/></g><g><path fill="none" stroke="#000000" paint-order="fill stroke markers" d=" M 330 233 C 330 224.715728 400.9628592 218 488.5 218 C 576.0371408 218 647 224.715728 647 233 C 647 241.284272 576.0371408 248 488.5 248 C 400.9628592 248 330 241.284272 330 233 Z" stroke-miterlimit="10" stroke-dasharray=""/></g><g><path fill="none" stroke="#000000" paint-order="fill stroke markers" d=" M 330 253 L 647 253" stroke-miterlimit="10" stroke-dasharray=""/></g><g><g><path fill="none" stroke="none"/><text fill="#000000" stroke="none" font-family="Arial" font-size="13px" font-style="normal" font-weight="bold" text-decoration="undefined" x="542.5" y="282.5" text-anchor="middle" dominant-baseline="central" transform="matrix(1 0 0 1 -54 -46)">Registrarse en evento</text></g></g><g><g><path fill="none" stroke="none"/><text fill="#000000" stroke="none" font-family="Arial" font-size="13px" font-style="normal" font-weight="normal" text-decoration="undefined" x="389" y="310.5" text-anchor="start" dominant-baseline="central" transform="matrix(1 0 0 1 -54 -46)">mostrar sitios</text></g></g><g><path fill="#C0C0C0" stroke="none" paint-order="stroke fill markers" d=" M 345 501 C 345 485.5360256 415.9628592 473 503.5 473 C 591.0371408 473 662 485.5360256 662 501 C 662 516.4639744 591.0371408 529 503.5 529 C 415.9628592 529 345 516.4639744 345 501 Z" fill-opacity="0.2"/></g><g><path fill="#ffffff" stroke="none" paint-order="stroke fill markers" d=" M 338 494 C 338 478.5360256 408.9628592 466 496.5 466 C 584.0371408 466 655 478.5360256 655 494 C 655 509.4639744 584.0371408 522 496.5 522 C 408.9628592 522 338 509.4639744 338 494 Z"/></g><g><path fill="none" stroke="#000000" paint-order="fill stroke markers" d=" M 338 494 C 338 478.5360256 408.9628592 466 496.5 466 C 584.0371408 466 655 478.5360256 655 494 C 655 509.4639744 584.0371408 522 496.5 522 C 408.9628592 522 338 509.4639744 338 494 Z" stroke-miterlimit="10" stroke-dasharray=""/></g><g><g><path fill="none" stroke="none"/><text fill="#000000" stroke="none" font-family="Arial" font-size="13px" font-style="normal" font-weight="bold" text-decoration="undefined" x="550.5" y="541" text-anchor="middle" dominant-baseline="central" transform="matrix(1 0 0 1 -54 -46)">Eliminarse de evento</text></g></g><g><path fill="#C0C0C0" stroke="none" paint-order="stroke fill markers" d=" M 833 852 C 833 836.5360256 903.9628592 824 991.5 824 C 1079.0371408 824 1150 836.5360256 1150 852 C 1150 867.4639744 1079.0371408 880 991.5 880 C 903.9628592 880 833 867.4639744 833 852 Z" fill-opacity="0.2"/></g><g><path fill="#ffffff" stroke="none" paint-order="stroke fill markers" d=" M 826 845 C 826 829.5360256 896.9628592 817 984.5 817 C 1072.0371408 817 1143 829.5360256 1143 845 C 1143 860.4639744 1072.0371408 873 984.5 873 C 896.9628592 873 826 860.4639744 826 845 Z"/></g><g><path fill="none" stroke="#000000" paint-order="fill stroke markers" d=" M 826 845 C 826 829.5360256 896.9628592 817 984.5 817 C 1072.0371408 817 1143 829.5360256 1143 845 C 1143 860.4639744 1072.0371408 873 984.5 873 C 896.9628592 873 826 860.4639744 826 845 Z" stroke-miterlimit="10" stroke-dasharray=""/></g><g><g><path fill="none" stroke="none"/><text fill="#000000" stroke="none" font-family="Arial" font-size="13px" font-style="normal" font-weight="bold" text-decoration="undefined" x="1038.5" y="892" text-anchor="middle" dominant-baseline="central" transform="matrix(1 0 0 1 -54 -46)">Añadir evento</text></g></g><g><path fill="#C0C0C0" stroke="none" paint-order="stroke fill markers" d=" M 833 947 C 833 931.5360256 903.9628592 919 991.5 919 C 1079.0371408 919 1150 931.5360256 1150 947 C 1150 962.4639744 1079.0371408 975 991.5 975 C 903.9628592 975 833 962.4639744 833 947 Z" fill-opacity="0.2"/></g><g><path fill="#ffffff" stroke="none" paint-order="stroke fill markers" d=" M 826 940 C 826 924.5360256 896.9628592 912 984.5 912 C 1072.0371408 912 1143 924.5360256 1143 940 C 1143 955.4639744 1072.0371408 968 984.5 968 C 896.9628592 968 826 955.4639744 826 940 Z"/></g><g><path fill="none" stroke="#000000" paint-order="fill stroke markers" d=" M 826 940 C 826 924.5360256 896.9628592 912 984.5 912 C 1072.0371408 912 1143 924.5360256 1143 940 C 1143 955.4639744 1072.0371408 968 984.5 968 C 896.9628592 968 826 955.4639744 826 940 Z" stroke-miterlimit="10" stroke-dasharray=""/></g><g><g><path fill="none" stroke="none"/><text fill="#000000" stroke="none" font-family="Arial" font-size="13px" font-style="normal" font-weight="bold" text-decoration="undefined" x="1038.5" y="987" text-anchor="middle" dominant-baseline="central" transform="matrix(1 0 0 1 -54 -46)">Eliminar evento</text></g></g><g><path fill="#C0C0C0" stroke="none" paint-order="stroke fill markers" d=" M 825 341 C 825 325.5360256 895.9628592 313 983.5 313 C 1071.0371408 313 1142 325.5360256 1142 341 C 1142 356.4639744 1071.0371408 369 983.5 369 C 895.9628592 369 825 356.4639744 825 341 Z" fill-opacity="0.2"/></g><g><path fill="#ffffff" stroke="none" paint-order="stroke fill markers" d=" M 818 334 C 818 318.5360256 888.9628592 306 976.5 306 C 1064.0371408 306 1135 318.5360256 1135 334 C 1135 349.4639744 1064.0371408 362 976.5 362 C 888.9628592 362 818 349.4639744 818 334 Z"/></g><g><path fill="none" stroke="#000000" paint-order="fill stroke markers" d=" M 818 334 C 818 318.5360256 888.9628592 306 976.5 306 C 1064.0371408 306 1135 318.5360256 1135 334 C 1135 349.4639744 1064.0371408 362 976.5 362 C 888.9628592 362 818 349.4639744 818 334 Z" stroke-miterlimit="10" stroke-dasharray=""/></g><g><g><path fill="none" stroke="none"/><text fill="#000000" stroke="none" font-family="Arial" font-size="13px" font-style="normal" font-weight="bold" text-decoration="undefined" x="1030.5" y="381" text-anchor="middle" dominant-baseline="central" transform="matrix(1 0 0 1 -54 -46)">Añadir a lista del evento</text></g></g><g><path fill="#C0C0C0" stroke="none" paint-order="stroke fill markers" d=" M 825 256 C 825 240.53602560000002 895.9628592 228 983.5 228 C 1071.0371408 228 1142 240.53602560000002 1142 256 C 1142 271.4639744 1071.0371408 284 983.5 284 C 895.9628592 284 825 271.4639744 825 256 Z" fill-opacity="0.2"/></g><g><path fill="#ffffff" stroke="none" paint-order="stroke fill markers" d=" M 818 249 C 818 233.53602560000002 888.9628592 221 976.5 221 C 1064.0371408 221 1135 233.53602560000002 1135 249 C 1135 264.4639744 1064.0371408 277 976.5 277 C 888.9628592 277 818 264.4639744 818 249 Z"/></g><g><path fill="none" stroke="#000000" paint-order="fill stroke markers" d=" M 818 249 C 818 233.53602560000002 888.9628592 221 976.5 221 C 1064.0371408 221 1135 233.53602560000002 1135 249 C 1135 264.4639744 1064.0371408 277 976.5 277 C 888.9628592 277 818 264.4639744 818 249 Z" stroke-miterlimit="10" stroke-dasharray=""/></g><g><g><path fill="none" stroke="none"/><text fill="#000000" stroke="none" font-family="Arial" font-size="13px" font-style="normal" font-weight="bold" text-decoration="undefined" x="1030.5" y="296" text-anchor="middle" dominant-baseline="central" transform="matrix(1 0 0 1 -54 -46)">Pagar entrada</text></g></g><g><path fill="#C0C0C0" stroke="none" paint-order="stroke fill markers" d=" M 825 165 C 825 149.5360256 895.9628592 137 983.5 137 C 1071.0371408 137 1142 149.5360256 1142 165 C 1142 180.4639744 1071.0371408 193 983.5 193 C 895.9628592 193 825 180.4639744 825 165 Z" fill-opacity="0.2"/></g><g><path fill="#ffffff" stroke="none" paint-order="stroke fill markers" d=" M 818 158 C 818 142.5360256 888.9628592 130 976.5 130 C 1064.0371408 130 1135 142.5360256 1135 158 C 1135 173.4639744 1064.0371408 186 976.5 186 C 888.9628592 186 818 173.4639744 818 158 Z"/></g><g><path fill="none" stroke="#000000" paint-order="fill stroke markers" d=" M 818 158 C 818 142.5360256 888.9628592 130 976.5 130 C 1064.0371408 130 1135 142.5360256 1135 158 C 1135 173.4639744 1064.0371408 186 976.5 186 C 888.9628592 186 818 173.4639744 818 158 Z" stroke-miterlimit="10" stroke-dasharray=""/></g><g><g><path fill="none" stroke="none"/><text fill="#000000" stroke="none" font-family="Arial" font-size="13px" font-style="normal" font-weight="bold" text-decoration="undefined" x="1030.5" y="205" text-anchor="middle" dominant-baseline="central" transform="matrix(1 0 0 1 -54 -46)">Mostrar sitios libres</text></g></g><g><path fill="none" stroke="#000000" paint-order="fill stroke markers" d=" M 648 248 L 817 248" stroke-miterlimit="10" stroke-dasharray="3"/></g><g><path fill="none" stroke="#000000" paint-order="fill stroke markers" d=" M 806.8373251423759 252.209517756016 L 817 248 L 806.8373251423758 243.790482243984" stroke-miterlimit="10" stroke-dasharray=""/></g><g><rect fill="#ffffff" stroke="none" x="785" y="277" width="55.65625" height="13" transform="matrix(1 0 0 1 -54 -46)"/></g><g><g><path fill="none" stroke="none"/><text fill="#000000" stroke="none" font-family="Arial" font-size="13px" font-style="normal" font-weight="normal" text-decoration="undefined" x="812.828125" y="283.5" text-anchor="middle" dominant-baseline="central" transform="matrix(1 0 0 1 -54 -46)">«include»</text></g></g><g><path fill="none" stroke="#000000" paint-order="fill stroke markers" d=" M 648 276 L 817 306" stroke-miterlimit="10" stroke-dasharray="3"/></g><g><path fill="none" stroke="#000000" paint-order="fill stroke markers" d=" M 806.2580088920743 308.36846512265714 L 817 306 L 807.7295074949054 300.07902299337474" stroke-miterlimit="10" stroke-dasharray=""/></g><g><rect fill="#ffffff" stroke="none" x="794" y="322" width="55.65625" height="13" transform="matrix(1 0 0 1 -54 -46)"/></g><g><g><path fill="none" stroke="none"/><text fill="#000000" stroke="none" font-family="Arial" font-size="13px" font-style="normal" font-weight="normal" text-decoration="undefined" x="821.828125" y="328.5" text-anchor="middle" dominant-baseline="central" transform="matrix(1 0 0 1 -54 -46)">«include»</text></g></g><g><path fill="none" stroke="#000000" paint-order="fill stroke markers" d=" M 817 187 L 648 218" stroke-miterlimit="10" stroke-dasharray="3"/></g><g><path fill="none" stroke="#000000" paint-order="fill stroke markers" d=" M 657.2364103224878 212.0259959529106 L 648 218 L 658.7553871453854 220.30686960031977" stroke-miterlimit="10" stroke-dasharray=""/></g><g><rect fill="#ffffff" stroke="none" x="741" y="230" width="53.49169921875" height="13" transform="matrix(1 0 0 1 -54 -46)"/></g><g><g><path fill="none" stroke="none"/><text fill="#000000" stroke="none" font-family="Arial" font-size="13px" font-style="normal" font-weight="normal" text-decoration="undefined" x="767.745849609375" y="236.5" text-anchor="middle" dominant-baseline="central" transform="matrix(1 0 0 1 -54 -46)">«extend»</text></g></g><g><path fill="none" stroke="#000000" paint-order="fill stroke markers" d=" M 39 705 L 42 403" stroke-miterlimit="10" stroke-dasharray=""/></g><g><path fill="#FFFFFF" stroke="none" paint-order="stroke fill markers" d=" M 50.21672266191729 423.40797561487017 L 42 403 L 33.37948236580651 423.2407182609353"/></g><g><path fill="none" stroke="#000000" paint-order="fill stroke markers" d=" M 50.21672266191729 423.40797561487017 L 42 403 L 33.37948236580651 423.2407182609353 L 50.21672266191729 423.40797561487017" stroke-miterlimit="10" stroke-dasharray=""/></g><g><path fill="none" stroke="#000000" paint-order="fill stroke markers" d=" M 75 324 L 138 250 L 329 248" stroke-miterlimit="10" stroke-dasharray=""/></g><g><path fill="none" stroke="#000000" paint-order="fill stroke markers" d=" M 68 403 L 122 490 L 337 492" stroke-miterlimit="10" stroke-dasharray=""/></g><g><path fill="#C0C0C0" stroke="none" paint-order="stroke fill markers" d=" M 825 453 C 825 437.5360256 895.9628592 425 983.5 425 C 1071.0371408 425 1142 437.5360256 1142 453 C 1142 468.4639744 1071.0371408 481 983.5 481 C 895.9628592 481 825 468.4639744 825 453 Z" fill-opacity="0.2"/></g><g><path fill="#ffffff" stroke="none" paint-order="stroke fill markers" d=" M 818 446 C 818 430.5360256 888.9628592 418 976.5 418 C 1064.0371408 418 1135 430.5360256 1135 446 C 1135 461.4639744 1064.0371408 474 976.5 474 C 888.9628592 474 818 461.4639744 818 446 Z"/></g><g><path fill="none" stroke="#000000" paint-order="fill stroke markers" d=" M 818 446 C 818 430.5360256 888.9628592 418 976.5 418 C 1064.0371408 418 1135 430.5360256 1135 446 C 1135 461.4639744 1064.0371408 474 976.5 474 C 888.9628592 474 818 461.4639744 818 446 Z" stroke-miterlimit="10" stroke-dasharray=""/></g><g><g><path fill="none" stroke="none"/><text fill="#000000" stroke="none" font-family="Arial" font-size="13px" font-style="normal" font-weight="bold" text-decoration="undefined" x="1030.5" y="493" text-anchor="middle" dominant-baseline="central" transform="matrix(1 0 0 1 -54 -46)">Reembolso de entrada</text></g></g><g><path fill="#C0C0C0" stroke="none" paint-order="stroke fill markers" d=" M 825 541 C 825 525.5360256 895.9628592 513 983.5 513 C 1071.0371408 513 1142 525.5360256 1142 541 C 1142 556.4639744 1071.0371408 569 983.5 569 C 895.9628592 569 825 556.4639744 825 541 Z" fill-opacity="0.2"/></g><g><path fill="#ffffff" stroke="none" paint-order="stroke fill markers" d=" M 818 534 C 818 518.5360256 888.9628592 506 976.5 506 C 1064.0371408 506 1135 518.5360256 1135 534 C 1135 549.4639744 1064.0371408 562 976.5 562 C 888.9628592 562 818 549.4639744 818 534 Z"/></g><g><path fill="none" stroke="#000000" paint-order="fill stroke markers" d=" M 818 534 C 818 518.5360256 888.9628592 506 976.5 506 C 1064.0371408 506 1135 518.5360256 1135 534 C 1135 549.4639744 1064.0371408 562 976.5 562 C 888.9628592 562 818 549.4639744 818 534 Z" stroke-miterlimit="10" stroke-dasharray=""/></g><g><g><path fill="none" stroke="none"/><text fill="#000000" stroke="none" font-family="Arial" font-size="13px" font-style="normal" font-weight="bold" text-decoration="undefined" x="1030.5" y="581" text-anchor="middle" dominant-baseline="central" transform="matrix(1 0 0 1 -54 -46)">Eliminarse de lista del evento</text></g></g><g><path fill="none" stroke="#000000" paint-order="fill stroke markers" d=" M 656 478 L 817 462" stroke-miterlimit="10" stroke-dasharray="3"/></g><g><path fill="none" stroke="#000000" paint-order="fill stroke markers" d=" M 807.3034271303026 467.19388819504695 L 817 462 L 806.470854006125 458.8161211330099" stroke-miterlimit="10" stroke-dasharray=""/></g><g><rect fill="#ffffff" stroke="none" x="761" y="495" width="55.65625" height="13" transform="matrix(1 0 0 1 -54 -46)"/></g><g><g><path fill="none" stroke="none"/><text fill="#000000" stroke="none" font-family="Arial" font-size="13px" font-style="normal" font-weight="normal" text-decoration="undefined" x="788.828125" y="501.5" text-anchor="middle" dominant-baseline="central" transform="matrix(1 0 0 1 -54 -46)">«include»</text></g></g><g><path fill="none" stroke="#000000" paint-order="fill stroke markers" d=" M 656 507 L 817 521" stroke-miterlimit="10" stroke-dasharray="3"/></g><g><path fill="none" stroke="#000000" paint-order="fill stroke markers" d=" M 806.5108619139144 524.313303821117 L 817 521 L 807.2401997304837 515.9259189305699" stroke-miterlimit="10" stroke-dasharray=""/></g><g><rect fill="#ffffff" stroke="none" x="776" y="537" width="55.65625" height="13" transform="matrix(1 0 0 1 -54 -46)"/></g><g><g><path fill="none" stroke="none"/><text fill="#000000" stroke="none" font-family="Arial" font-size="13px" font-style="normal" font-weight="normal" text-decoration="undefined" x="803.828125" y="543.5" text-anchor="middle" dominant-baseline="central" transform="matrix(1 0 0 1 -54 -46)">«include»</text></g></g><g><path fill="none" stroke="#000000" paint-order="fill stroke markers" d=" M 1403 609 L 1354 538 L 1136 536" stroke-miterlimit="10" stroke-dasharray=""/></g><g><path fill="none" stroke="#000000" paint-order="fill stroke markers" d=" M 1421 609 L 1354 338 L 1136 336" stroke-miterlimit="10" stroke-dasharray=""/></g><g><path fill="#C0C0C0" stroke="none" paint-order="stroke fill markers" d=" M 345 661 C 345 645.5360256 415.9628592 633 503.5 633 C 591.0371408 633 662 645.5360256 662 661 C 662 676.4639744 591.0371408 689 503.5 689 C 415.9628592 689 345 676.4639744 345 661 Z" fill-opacity="0.2"/></g><g><path fill="#ffffff" stroke="none" paint-order="stroke fill markers" d=" M 338 654 C 338 638.5360256 408.9628592 626 496.5 626 C 584.0371408 626 655 638.5360256 655 654 C 655 669.4639744 584.0371408 682 496.5 682 C 408.9628592 682 338 669.4639744 338 654 Z"/></g><g><path fill="none" stroke="#000000" paint-order="fill stroke markers" d=" M 338 654 C 338 638.5360256 408.9628592 626 496.5 626 C 584.0371408 626 655 638.5360256 655 654 C 655 669.4639744 584.0371408 682 496.5 682 C 408.9628592 682 338 669.4639744 338 654 Z" stroke-miterlimit="10" stroke-dasharray=""/></g><g><g><path fill="none" stroke="none"/><text fill="#000000" stroke="none" font-family="Arial" font-size="13px" font-style="normal" font-weight="bold" text-decoration="undefined" x="550.5" y="701" text-anchor="middle" dominant-baseline="central" transform="matrix(1 0 0 1 -54 -46)">Ver próximos eventos disponibles</text></g></g><g><path fill="#C0C0C0" stroke="none" paint-order="stroke fill markers" d=" M 345 757 C 345 741.5360256 415.9628592 729 503.5 729 C 591.0371408 729 662 741.5360256 662 757 C 662 772.4639744 591.0371408 785 503.5 785 C 415.9628592 785 345 772.4639744 345 757 Z" fill-opacity="0.2"/></g><g><path fill="#ffffff" stroke="none" paint-order="stroke fill markers" d=" M 338 750 C 338 734.5360256 408.9628592 722 496.5 722 C 584.0371408 722 655 734.5360256 655 750 C 655 765.4639744 584.0371408 778 496.5 778 C 408.9628592 778 338 765.4639744 338 750 Z"/></g><g><path fill="none" stroke="#000000" paint-order="fill stroke markers" d=" M 338 750 C 338 734.5360256 408.9628592 722 496.5 722 C 584.0371408 722 655 734.5360256 655 750 C 655 765.4639744 584.0371408 778 496.5 778 C 408.9628592 778 338 765.4639744 338 750 Z" stroke-miterlimit="10" stroke-dasharray=""/></g><g><g><path fill="none" stroke="none"/><text fill="#000000" stroke="none" font-family="Arial" font-size="13px" font-style="normal" font-weight="bold" text-decoration="undefined" x="550.5" y="797" text-anchor="middle" dominant-baseline="central" transform="matrix(1 0 0 1 -54 -46)">Solicitar añadir evento</text></g></g><g><path fill="#C0C0C0" stroke="none" paint-order="stroke fill markers" d=" M 345 853 C 345 837.5360256 415.9628592 825 503.5 825 C 591.0371408 825 662 837.5360256 662 853 C 662 868.4639744 591.0371408 881 503.5 881 C 415.9628592 881 345 868.4639744 345 853 Z" fill-opacity="0.2"/></g><g><path fill="#ffffff" stroke="none" paint-order="stroke fill markers" d=" M 338 846 C 338 830.5360256 408.9628592 818 496.5 818 C 584.0371408 818 655 830.5360256 655 846 C 655 861.4639744 584.0371408 874 496.5 874 C 408.9628592 874 338 861.4639744 338 846 Z"/></g><g><path fill="none" stroke="#000000" paint-order="fill stroke markers" d=" M 338 846 C 338 830.5360256 408.9628592 818 496.5 818 C 584.0371408 818 655 830.5360256 655 846 C 655 861.4639744 584.0371408 874 496.5 874 C 408.9628592 874 338 861.4639744 338 846 Z" stroke-miterlimit="10" stroke-dasharray=""/></g><g><g><path fill="none" stroke="none"/><text fill="#000000" stroke="none" font-family="Arial" font-size="13px" font-style="normal" font-weight="bold" text-decoration="undefined" x="550.5" y="893" text-anchor="middle" dominant-baseline="central" transform="matrix(1 0 0 1 -54 -46)">Solicitar eliminar evento</text></g></g><g><path fill="#C0C0C0" stroke="none" paint-order="stroke fill markers" d=" M 833 757 C 833 741.5360256 903.9628592 729 991.5 729 C 1079.0371408 729 1150 741.5360256 1150 757 C 1150 772.4639744 1079.0371408 785 991.5 785 C 903.9628592 785 833 772.4639744 833 757 Z" fill-opacity="0.2"/></g><g><path fill="#ffffff" stroke="none" paint-order="stroke fill markers" d=" M 826 750 C 826 734.5360256 896.9628592 722 984.5 722 C 1072.0371408 722 1143 734.5360256 1143 750 C 1143 765.4639744 1072.0371408 778 984.5 778 C 896.9628592 778 826 765.4639744 826 750 Z"/></g><g><path fill="none" stroke="#000000" paint-order="fill stroke markers" d=" M 826 750 C 826 734.5360256 896.9628592 722 984.5 722 C 1072.0371408 722 1143 734.5360256 1143 750 C 1143 765.4639744 1072.0371408 778 984.5 778 C 896.9628592 778 826 765.4639744 826 750 Z" stroke-miterlimit="10" stroke-dasharray=""/></g><g><g><path fill="none" stroke="none"/><text fill="#000000" stroke="none" font-family="Arial" font-size="13px" font-style="normal" font-weight="bold" text-decoration="undefined" x="1038.5" y="797" text-anchor="middle" dominant-baseline="central" transform="matrix(1 0 0 1 -54 -46)">Ver solicitudes</text></g></g><g><path fill="#C0C0C0" stroke="none" paint-order="stroke fill markers" d=" M 337 373 C 337 357.5360256 412.8877264 345 506.5 345 C 600.1122736 345 676 357.5360256 676 373 C 676 388.4639744 600.1122736 401 506.5 401 C 412.8877264 401 337 388.4639744 337 373 Z" fill-opacity="0.2"/></g><g><path fill="#ffffff" stroke="none" paint-order="stroke fill markers" d=" M 330 366 C 330 350.5360256 405.8877264 338 499.5 338 C 593.1122736 338 669 350.5360256 669 366 C 669 381.4639744 593.1122736 394 499.5 394 C 405.8877264 394 330 381.4639744 330 366 Z"/></g><g><path fill="none" stroke="#000000" paint-order="fill stroke markers" d=" M 330 366 C 330 350.5360256 405.8877264 338 499.5 338 C 593.1122736 338 669 350.5360256 669 366 C 669 381.4639744 593.1122736 394 499.5 394 C 405.8877264 394 330 381.4639744 330 366 Z" stroke-miterlimit="10" stroke-dasharray=""/></g><g><g><path fill="none" stroke="none"/><text fill="#000000" stroke="none" font-family="Arial" font-size="13px" font-style="normal" font-weight="bold" text-decoration="undefined" x="553.5" y="413" text-anchor="middle" dominant-baseline="central" transform="matrix(1 0 0 1 -54 -46)">Ver eventos a los que esta registrado</text></g></g><g><path fill="none" stroke="#000000" paint-order="fill stroke markers" d=" M 53 403 L 122 650 L 337 652" stroke-miterlimit="10" stroke-dasharray=""/></g><g><path fill="none" stroke="#000000" paint-order="fill stroke markers" d=" M 75 362 L 130 362 L 329 364" stroke-miterlimit="10" stroke-dasharray=""/></g><g><path fill="none" stroke="#000000" paint-order="fill stroke markers" d=" M 656 653 L 1401 650" stroke-miterlimit="10" stroke-dasharray=""/></g><g><path fill="none" stroke="#000000" paint-order="fill stroke markers" d=" M 1144 748 L 1354 746 L 1401 687" stroke-miterlimit="10" stroke-dasharray=""/></g><g><path fill="none" stroke="#000000" paint-order="fill stroke markers" d=" M 1144 844 L 1354 842 L 1415 691" stroke-miterlimit="10" stroke-dasharray=""/></g><g><path fill="none" stroke="#000000" paint-order="fill stroke markers" d=" M 1144 939 L 1354 938 L 1420 691" stroke-miterlimit="10" stroke-dasharray=""/></g><g><path fill="none" stroke="#000000" paint-order="fill stroke markers" d=" M 69 746 L 337 749" stroke-miterlimit="10" stroke-dasharray=""/></g><g><path fill="none" stroke="#000000" paint-order="fill stroke markers" d=" M 69 781 L 122 842 L 337 844" stroke-miterlimit="10" stroke-dasharray=""/></g><g><g><path fill="none" stroke="none"/><text fill="#000000" stroke="none" font-family="Helvetica" font-size="28px" font-style="normal" font-weight="normal" text-decoration="undefined" x="573" y="61" text-anchor="start" dominant-baseline="text-before-edge" transform="matrix(1 0 0 1 -54 -46)">Gestión de eventos - Adrián González</text></g></g></g></svg>