<svg version="1.1" xmlns="http://www.w3.org/2000/svg" xmlns:xlink="http://www.w3.org/1999/xlink" width="969.8798828125" height="956"><defs/><g><g><rect fill="#C0C0C0" stroke="none" x="439" y="487" width="144" height="160" transform="matrix(1 0 0 1 -38 -46)" fill-opacity="0.2"/></g><g><rect fill="#ffffff" stroke="none" x="432" y="480" width="144" height="160" transform="matrix(1 0 0 1 -38 -46)"/></g><g><path fill="none" stroke="#000000" paint-order="fill stroke markers" d=" M 394 434 L 538 434 L 538 594 L 394 594 L 394 434 Z Z" stroke-miterlimit="10" stroke-dasharray=""/></g><g><path fill="none" stroke="#000000" paint-order="fill stroke markers" d=" M 394 459 L 539 459" stroke-miterlimit="10" stroke-dasharray=""/></g><g><path fill="none" stroke="#000000" paint-order="fill stroke markers" d=" M 394 557 L 539 557" stroke-miterlimit="10" stroke-dasharray=""/></g><g><g><path fill="none" stroke="none"/><text fill="#000000" stroke="none" font-family="Arial" font-size="13px" font-style="normal" font-weight="bold" text-decoration="undefined" x="504.5" y="493.5" text-anchor="middle" dominant-baseline="central" transform="matrix(1 0 0 1 -38 -46)">Artista</text></g></g><g><g><path fill="none" stroke="none"/><text fill="#000000" stroke="none" font-family="Arial" font-size="13px" font-style="normal" font-weight="normal" text-decoration="undefined" x="437" y="516.5" text-anchor="start" dominant-baseline="central" transform="matrix(1 0 0 1 -38 -46)">-nombreArtistico</text></g></g><g><g><path fill="none" stroke="none"/><text fill="#000000" stroke="none" font-family="Arial" font-size="13px" font-style="normal" font-weight="normal" text-decoration="undefined" x="437" y="531.5" text-anchor="start" dominant-baseline="central" transform="matrix(1 0 0 1 -38 -46)">-verificado: boolean</text></g></g><g><g><path fill="none" stroke="none"/><text fill="#000000" stroke="none" font-family="Arial" font-size="13px" font-style="normal" font-weight="normal" text-decoration="undefined" x="437" y="546.5" text-anchor="start" dominant-baseline="central" transform="matrix(1 0 0 1 -38 -46)">-banner</text></g></g><g><g><path fill="none" stroke="none"/><text fill="#000000" stroke="none" font-family="Arial" font-size="13px" font-style="normal" font-weight="normal" text-decoration="undefined" x="437" y="561.5" text-anchor="start" dominant-baseline="central" transform="matrix(1 0 0 1 -38 -46)">-fotos: Image[*]</text></g></g><g><g><path fill="none" stroke="none"/><text fill="#000000" stroke="none" font-family="Arial" font-size="13px" font-style="normal" font-weight="normal" text-decoration="undefined" x="437" y="576.5" text-anchor="start" dominant-baseline="central" transform="matrix(1 0 0 1 -38 -46)">-información</text></g></g><g><g><path fill="none" stroke="none"/><text fill="#000000" stroke="none" font-family="Arial" font-size="13px" font-style="normal" font-weight="normal" text-decoration="undefined" x="437" y="591.5" text-anchor="start" dominant-baseline="central" transform="matrix(1 0 0 1 -38 -46)">-/escuchasMensuales</text></g></g><g><rect fill="#C0C0C0" stroke="none" x="439" y="135" width="144" height="160" transform="matrix(1 0 0 1 -38 -46)" fill-opacity="0.2"/></g><g><rect fill="#ffffff" stroke="none" x="432" y="128" width="144" height="160" transform="matrix(1 0 0 1 -38 -46)"/></g><g><path fill="none" stroke="#000000" paint-order="fill stroke markers" d=" M 394 82 L 538 82 L 538 242 L 394 242 L 394 82 Z Z" stroke-miterlimit="10" stroke-dasharray=""/></g><g><path fill="none" stroke="#000000" paint-order="fill stroke markers" d=" M 394 107 L 539 107" stroke-miterlimit="10" stroke-dasharray=""/></g><g><path fill="none" stroke="#000000" paint-order="fill stroke markers" d=" M 394 220 L 539 220" stroke-miterlimit="10" stroke-dasharray=""/></g><g><g><path fill="none" stroke="none"/><text fill="#000000" stroke="none" font-family="Arial" font-size="13px" font-style="normal" font-weight="bold" text-decoration="undefined" x="504.5" y="141.5" text-anchor="middle" dominant-baseline="central" transform="matrix(1 0 0 1 -38 -46)">Usuario</text></g></g><g><g><path fill="none" stroke="none"/><text fill="#000000" stroke="none" font-family="Arial" font-size="13px" font-style="normal" font-weight="normal" text-decoration="undefined" x="437" y="164.5" text-anchor="start" dominant-baseline="central" transform="matrix(1 0 0 1 -38 -46)">-nombre</text></g></g><g><g><path fill="none" stroke="none"/><text fill="#000000" stroke="none" font-family="Arial" font-size="13px" font-style="normal" font-weight="normal" text-decoration="undefined" x="437" y="179.5" text-anchor="start" dominant-baseline="central" transform="matrix(1 0 0 1 -38 -46)">-apellidos</text></g></g><g><g><path fill="none" stroke="none"/><text fill="#000000" stroke="none" font-family="Arial" font-size="13px" font-style="normal" font-weight="normal" text-decoration="undefined" x="437" y="194.5" text-anchor="start" dominant-baseline="central" transform="matrix(1 0 0 1 -38 -46)">-fechaNacimiento</text></g></g><g><g><path fill="none" stroke="none"/><text fill="#000000" stroke="none" font-family="Arial" font-size="13px" font-style="normal" font-weight="normal" text-decoration="undefined" x="437" y="209.5" text-anchor="start" dominant-baseline="central" transform="matrix(1 0 0 1 -38 -46)">-email</text></g></g><g><g><path fill="none" stroke="none"/><text fill="#000000" stroke="none" font-family="Arial" font-size="13px" font-style="normal" font-weight="normal" text-decoration="undefined" x="437" y="224.5" text-anchor="start" dominant-baseline="central" transform="matrix(1 0 0 1 -38 -46)">-contraseña</text></g></g><g><g><path fill="none" stroke="none"/><text fill="#000000" stroke="none" font-family="Arial" font-size="13px" font-style="normal" font-weight="normal" text-decoration="undefined" x="437" y="239.5" text-anchor="start" dominant-baseline="central" transform="matrix(1 0 0 1 -38 -46)">-nombreUsuario</text></g></g><g><g><path fill="none" stroke="none"/><text fill="#000000" stroke="none" font-family="Arial" font-size="13px" font-style="normal" font-weight="normal" text-decoration="undefined" x="437" y="254.5" text-anchor="start" dominant-baseline="central" transform="matrix(1 0 0 1 -38 -46)">-fotoPerfil</text></g></g><g><path fill="#ffffff" stroke="none" paint-order="stroke fill markers" d=" M 202 610 L 367 610 L 377 620 L 377 673 L 202 673 L 202 610"/></g><g><path fill="none" stroke="#000000" paint-order="fill stroke markers" d=" M 202 610 L 367 610 L 377 620 L 377 673 L 202 673 L 202 610 L 202 610" stroke-miterlimit="10" stroke-dasharray=""/></g><g><path fill="none" stroke="#000000" paint-order="fill stroke markers" d=" M 367 610 L 367 620 L 377 620 L 367 610" stroke-miterlimit="10" stroke-dasharray=""/></g><g><g><path fill="none" stroke="none"/><text fill="#000000" stroke="none" font-family="Arial" font-size="13px" font-style="normal" font-weight="normal" text-decoration="undefined" x="245" y="661" text-anchor="start" dominant-baseline="text-before-edge" transform="matrix(1 0 0 1 -38 -46)">Para cada canción que se</text><text fill="#000000" stroke="none" font-family="Arial" font-size="13px" font-style="normal" font-weight="normal" text-decoration="undefined" x="245" y="674" text-anchor="start" dominant-baseline="text-before-edge" transform="matrix(1 0 0 1 -38 -46)">reproduzca</text><text fill="#000000" stroke="none" font-family="Arial" font-size="13px" font-style="normal" font-weight="normal" text-decoration="undefined" x="245" y="687" text-anchor="start" dominant-baseline="text-before-edge" transform="matrix(1 0 0 1 -38 -46)">escuchasMensuales =+ 1</text></g></g><g><rect fill="#C0C0C0" stroke="none" x="55" y="135" width="144" height="160" transform="matrix(1 0 0 1 -38 -46)" fill-opacity="0.2"/></g><g><rect fill="#ffffff" stroke="none" x="48" y="128" width="144" height="160" transform="matrix(1 0 0 1 -38 -46)"/></g><g><path fill="none" stroke="#000000" paint-order="fill stroke markers" d=" M 10 82 L 154 82 L 154 242 L 10 242 L 10 82 Z Z" stroke-miterlimit="10" stroke-dasharray=""/></g><g><path fill="none" stroke="#000000" paint-order="fill stroke markers" d=" M 10 107 L 155 107" stroke-miterlimit="10" stroke-dasharray=""/></g><g><path fill="none" stroke="#000000" paint-order="fill stroke markers" d=" M 10 117 L 155 117" stroke-miterlimit="10" stroke-dasharray=""/></g><g><g><path fill="none" stroke="none"/><text fill="#000000" stroke="none" font-family="Arial" font-size="13px" font-style="normal" font-weight="bold" text-decoration="undefined" x="120.5" y="141.5" text-anchor="middle" dominant-baseline="central" transform="matrix(1 0 0 1 -38 -46)">Canción</text></g></g><g><rect fill="#C0C0C0" stroke="none" x="55" y="487" width="144" height="160" transform="matrix(1 0 0 1 -38 -46)" fill-opacity="0.2"/></g><g><rect fill="#ffffff" stroke="none" x="48" y="480" width="144" height="160" transform="matrix(1 0 0 1 -38 -46)"/></g><g><path fill="none" stroke="#000000" paint-order="fill stroke markers" d=" M 10 434 L 154 434 L 154 594 L 10 594 L 10 434 Z Z" stroke-miterlimit="10" stroke-dasharray=""/></g><g><path fill="none" stroke="#000000" paint-order="fill stroke markers" d=" M 10 459 L 155 459" stroke-miterlimit="10" stroke-dasharray=""/></g><g><path fill="none" stroke="#000000" paint-order="fill stroke markers" d=" M 10 469 L 155 469" stroke-miterlimit="10" stroke-dasharray=""/></g><g><g><path fill="none" stroke="none"/><text fill="#000000" stroke="none" font-family="Arial" font-size="13px" font-style="normal" font-weight="bold" text-decoration="undefined" x="120.5" y="493.5" text-anchor="middle" dominant-baseline="central" transform="matrix(1 0 0 1 -38 -46)">Disco</text></g></g><g><rect fill="#C0C0C0" stroke="none" x="439" y="839" width="144" height="160" transform="matrix(1 0 0 1 -38 -46)" fill-opacity="0.2"/></g><g><rect fill="#ffffff" stroke="none" x="432" y="832" width="144" height="160" transform="matrix(1 0 0 1 -38 -46)"/></g><g><path fill="none" stroke="#000000" paint-order="fill stroke markers" d=" M 394 786 L 538 786 L 538 946 L 394 946 L 394 786 Z Z" stroke-miterlimit="10" stroke-dasharray=""/></g><g><path fill="none" stroke="#000000" paint-order="fill stroke markers" d=" M 394 811 L 539 811" stroke-miterlimit="10" stroke-dasharray=""/></g><g><path fill="none" stroke="#000000" paint-order="fill stroke markers" d=" M 394 821 L 539 821" stroke-miterlimit="10" stroke-dasharray=""/></g><g><g><path fill="none" stroke="none"/><text fill="#000000" stroke="none" font-family="Arial" font-size="13px" font-style="normal" font-weight="bold" text-decoration="undefined" x="504.5" y="845.5" text-anchor="middle" dominant-baseline="central" transform="matrix(1 0 0 1 -38 -46)">Productor</text></g></g><g><rect fill="#C0C0C0" stroke="none" x="823" y="135" width="144" height="160" transform="matrix(1 0 0 1 -38 -46)" fill-opacity="0.2"/></g><g><rect fill="#ffffff" stroke="none" x="816" y="128" width="144" height="160" transform="matrix(1 0 0 1 -38 -46)"/></g><g><path fill="none" stroke="#000000" paint-order="fill stroke markers" d=" M 778 82 L 922 82 L 922 242 L 778 242 L 778 82 Z Z" stroke-miterlimit="10" stroke-dasharray=""/></g><g><path fill="none" stroke="#000000" paint-order="fill stroke markers" d=" M 778 107 L 923 107" stroke-miterlimit="10" stroke-dasharray=""/></g><g><path fill="none" stroke="#000000" paint-order="fill stroke markers" d=" M 778 145 L 923 145" stroke-miterlimit="10" stroke-dasharray=""/></g><g><g><path fill="none" stroke="none"/><text fill="#000000" stroke="none" font-family="Arial" font-size="13px" font-style="normal" font-weight="bold" text-decoration="undefined" x="888.5" y="141.5" text-anchor="middle" dominant-baseline="central" transform="matrix(1 0 0 1 -38 -46)">Donación</text></g></g><g><g><path fill="none" stroke="none"/><text fill="#000000" stroke="none" font-family="Arial" font-size="13px" font-style="normal" font-weight="normal" text-decoration="undefined" x="821" y="164.5" text-anchor="start" dominant-baseline="central" transform="matrix(1 0 0 1 -38 -46)">-cantidadDonada</text></g></g><g><g><path fill="none" stroke="none"/><text fill="#000000" stroke="none" font-family="Arial" font-size="13px" font-style="normal" font-weight="normal" text-decoration="undefined" x="821" y="179.5" text-anchor="start" dominant-baseline="central" transform="matrix(1 0 0 1 -38 -46)">-fechaDonacion</text></g></g><g><rect fill="#C0C0C0" stroke="none" x="823" y="839" width="144" height="160" transform="matrix(1 0 0 1 -38 -46)" fill-opacity="0.2"/></g><g><rect fill="#ffffff" stroke="none" x="816" y="832" width="144" height="160" transform="matrix(1 0 0 1 -38 -46)"/></g><g><path fill="none" stroke="#000000" paint-order="fill stroke markers" d=" M 778 786 L 922 786 L 922 946 L 778 946 L 778 786 Z Z" stroke-miterlimit="10" stroke-dasharray=""/></g><g><path fill="none" stroke="#000000" paint-order="fill stroke markers" d=" M 778 811 L 923 811" stroke-miterlimit="10" stroke-dasharray=""/></g><g><path fill="none" stroke="#000000" paint-order="fill stroke markers" d=" M 778 909 L 923 909" stroke-miterlimit="10" stroke-dasharray=""/></g><g><g><path fill="none" stroke="none"/><text fill="#000000" stroke="none" font-family="Arial" font-size="13px" font-style="normal" font-weight="bold" text-decoration="undefined" x="888.5" y="845.5" text-anchor="middle" dominant-baseline="central" transform="matrix(1 0 0 1 -38 -46)">Evento</text></g></g><g><g><path fill="none" stroke="none"/><text fill="#000000" stroke="none" font-family="Arial" font-size="13px" font-style="normal" font-weight="normal" text-decoration="undefined" x="821" y="868.5" text-anchor="start" dominant-baseline="central" transform="matrix(1 0 0 1 -38 -46)">-nombreEvento</text></g></g><g><g><path fill="none" stroke="none"/><text fill="#000000" stroke="none" font-family="Arial" font-size="13px" font-style="normal" font-weight="normal" text-decoration="undefined" x="821" y="883.5" text-anchor="start" dominant-baseline="central" transform="matrix(1 0 0 1 -38 -46)">-capacidad</text></g></g><g><g><path fill="none" stroke="none"/><text fill="#000000" stroke="none" font-family="Arial" font-size="13px" font-style="normal" font-weight="normal" text-decoration="undefined" x="821" y="898.5" text-anchor="start" dominant-baseline="central" transform="matrix(1 0 0 1 -38 -46)">-/estaCompleto = false</text></g></g><g><g><path fill="none" stroke="none"/><text fill="#000000" stroke="none" font-family="Arial" font-size="13px" font-style="normal" font-weight="normal" text-decoration="undefined" x="821" y="913.5" text-anchor="start" dominant-baseline="central" transform="matrix(1 0 0 1 -38 -46)">-fecha</text></g></g><g><g><path fill="none" stroke="none"/><text fill="#000000" stroke="none" font-family="Arial" font-size="13px" font-style="normal" font-weight="normal" text-decoration="undefined" x="821" y="928.5" text-anchor="start" dominant-baseline="central" transform="matrix(1 0 0 1 -38 -46)">-lugar</text></g></g><g><g><path fill="none" stroke="none"/><text fill="#000000" stroke="none" font-family="Arial" font-size="13px" font-style="normal" font-weight="normal" text-decoration="undefined" x="821" y="943.5" text-anchor="start" dominant-baseline="central" transform="matrix(1 0 0 1 -38 -46)">-descripción</text></g></g><g><rect fill="#C0C0C0" stroke="none" x="823" y="487" width="144" height="160" transform="matrix(1 0 0 1 -38 -46)" fill-opacity="0.2"/></g><g><rect fill="#ffffff" stroke="none" x="816" y="480" width="144" height="160" transform="matrix(1 0 0 1 -38 -46)"/></g><g><path fill="none" stroke="#000000" paint-order="fill stroke markers" d=" M 778 434 L 922 434 L 922 594 L 778 594 L 778 434 Z Z" stroke-miterlimit="10" stroke-dasharray=""/></g><g><path fill="none" stroke="#000000" paint-order="fill stroke markers" d=" M 778 459 L 923 459" stroke-miterlimit="10" stroke-dasharray=""/></g><g><path fill="none" stroke="#000000" paint-order="fill stroke markers" d=" M 778 527 L 923 527" stroke-miterlimit="10" stroke-dasharray=""/></g><g><g><path fill="none" stroke="none"/><text fill="#000000" stroke="none" font-family="Arial" font-size="13px" font-style="normal" font-weight="bold" text-decoration="undefined" x="888.5" y="493.5" text-anchor="middle" dominant-baseline="central" transform="matrix(1 0 0 1 -38 -46)">Oyente</text></g></g><g><g><path fill="none" stroke="none"/><text fill="#000000" stroke="none" font-family="Arial" font-size="13px" font-style="normal" font-weight="normal" text-decoration="undefined" x="821" y="516.5" text-anchor="start" dominant-baseline="central" transform="matrix(1 0 0 1 -38 -46)">-esPremium = false</text></g></g><g><g><path fill="none" stroke="none"/><text fill="#000000" stroke="none" font-family="Arial" font-size="13px" font-style="normal" font-weight="normal" text-decoration="undefined" x="821" y="531.5" text-anchor="start" dominant-baseline="central" transform="matrix(1 0 0 1 -38 -46)">-fechaPremium = null</text></g></g><g><g><path fill="none" stroke="none"/><text fill="#000000" stroke="none" font-family="Arial" font-size="13px" font-style="normal" font-weight="normal" text-decoration="undefined" x="821" y="546.5" text-anchor="start" dominant-baseline="central" transform="matrix(1 0 0 1 -38 -46)">-puntos</text></g></g><g><g><path fill="none" stroke="none"/><text fill="#000000" stroke="none" font-family="Arial" font-size="13px" font-style="normal" font-weight="normal" text-decoration="undefined" x="821" y="561.5" text-anchor="start" dominant-baseline="central" transform="matrix(1 0 0 1 -38 -46)">-escuchas</text></g></g><g><path fill="none" stroke="#000000" paint-order="fill stroke markers" d=" M 466 433 L 466 243" stroke-miterlimit="10" stroke-dasharray=""/></g><g><path fill="#FFFFFF" stroke="none" paint-order="stroke fill markers" d=" M 474.419035512032 263.3253497152483 L 466 243 L 457.580964487968 263.3253497152483"/></g><g><path fill="none" stroke="#000000" paint-order="fill stroke markers" d=" M 474.419035512032 263.3253497152483 L 466 243 L 457.580964487968 263.3253497152483 L 474.419035512032 263.3253497152483" stroke-miterlimit="10" stroke-dasharray=""/></g><g><path fill="none" stroke="#000000" paint-order="fill stroke markers" d=" M 155 229 L 393 447" stroke-miterlimit="10" stroke-dasharray=""/></g><g><rect fill="#ffffff" stroke="none" x="207" y="272" width="62.8671875" height="13" transform="matrix(1 0 0 1 -38 -46)"/></g><g><g><path fill="none" stroke="none"/><text fill="#000000" stroke="none" font-family="Arial" font-size="13px" font-style="normal" font-weight="normal" text-decoration="undefined" x="238.43359375" y="278.5" text-anchor="middle" dominant-baseline="central" transform="matrix(1 0 0 1 -38 -46)">-canciones</text></g></g><g><rect fill="#ffffff" stroke="none" x="192" y="287" width="16" height="13" transform="matrix(1 0 0 1 -38 -46)"/></g><g><g><path fill="none" stroke="none"/><text fill="#000000" stroke="none" font-family="Arial" font-size="13px" font-style="normal" font-weight="normal" text-decoration="undefined" x="200" y="293.5" text-anchor="middle" dominant-baseline="central" transform="matrix(1 0 0 1 -38 -46)">*</text></g></g><g><rect fill="#ffffff" stroke="none" x="400" y="448" width="62.13720703125" height="13" transform="matrix(1 0 0 1 -38 -46)"/></g><g><g><path fill="none" stroke="none"/><text fill="#000000" stroke="none" font-family="Arial" font-size="13px" font-style="normal" font-weight="normal" text-decoration="undefined" x="431.068603515625" y="454.5" text-anchor="middle" dominant-baseline="central" transform="matrix(1 0 0 1 -38 -46)">-creadores</text></g></g><g><rect fill="#ffffff" stroke="none" x="397" y="481" width="19.5126953125" height="13" transform="matrix(1 0 0 1 -38 -46)"/></g><g><g><path fill="none" stroke="none"/><text fill="#000000" stroke="none" font-family="Arial" font-size="13px" font-style="normal" font-weight="normal" text-decoration="undefined" x="406.75634765625" y="487.5" text-anchor="middle" dominant-baseline="central" transform="matrix(1 0 0 1 -38 -46)">1..*</text></g></g><g><path fill="none" stroke="#000000" paint-order="fill stroke markers" d=" M 155 514 L 393 514" stroke-miterlimit="10" stroke-dasharray=""/></g><g><rect fill="#ffffff" stroke="none" x="198" y="539" width="41.17724609375" height="13" transform="matrix(1 0 0 1 -38 -46)"/></g><g><g><path fill="none" stroke="none"/><text fill="#000000" stroke="none" font-family="Arial" font-size="13px" font-style="normal" font-weight="normal" text-decoration="undefined" x="218.588623046875" y="545.5" text-anchor="middle" dominant-baseline="central" transform="matrix(1 0 0 1 -38 -46)">-discos</text></g></g><g><rect fill="#ffffff" stroke="none" x="205" y="566" width="19.5126953125" height="13" transform="matrix(1 0 0 1 -38 -46)"/></g><g><g><path fill="none" stroke="none"/><text fill="#000000" stroke="none" font-family="Arial" font-size="13px" font-style="normal" font-weight="normal" text-decoration="undefined" x="214.75634765625" y="572.5" text-anchor="middle" dominant-baseline="central" transform="matrix(1 0 0 1 -38 -46)">*</text></g></g><g><rect fill="#ffffff" stroke="none" x="382" y="539" width="46.22998046875" height="13" transform="matrix(1 0 0 1 -38 -46)"/></g><g><g><path fill="none" stroke="none"/><text fill="#000000" stroke="none" font-family="Arial" font-size="13px" font-style="normal" font-weight="normal" text-decoration="undefined" x="405.114990234375" y="545.5" text-anchor="middle" dominant-baseline="central" transform="matrix(1 0 0 1 -38 -46)">-artistas</text></g></g><g><rect fill="#ffffff" stroke="none" x="400" y="566" width="19.5126953125" height="13" transform="matrix(1 0 0 1 -38 -46)"/></g><g><g><path fill="none" stroke="none"/><text fill="#000000" stroke="none" font-family="Arial" font-size="13px" font-style="normal" font-weight="normal" text-decoration="undefined" x="409.75634765625" y="572.5" text-anchor="middle" dominant-baseline="central" transform="matrix(1 0 0 1 -38 -46)">1..*</text></g></g><g><path fill="none" stroke="#000000" paint-order="fill stroke markers" d=" M 82 243 L 82 433" stroke-miterlimit="10" stroke-dasharray=""/></g><g><rect fill="#ffffff" stroke="none" x="128" y="319" width="95.37353515625" height="13" transform="matrix(1 0 0 1 -38 -46)"/></g><g><g><path fill="none" stroke="none"/><text fill="#000000" stroke="none" font-family="Arial" font-size="13px" font-style="normal" font-weight="normal" text-decoration="undefined" x="175.686767578125" y="325.5" text-anchor="middle" dominant-baseline="central" transform="matrix(1 0 0 1 -38 -46)">-cancionesDisco</text></g></g><g><rect fill="#ffffff" stroke="none" x="88" y="320" width="19.5126953125" height="13" transform="matrix(1 0 0 1 -38 -46)"/></g><g><g><path fill="none" stroke="none"/><text fill="#000000" stroke="none" font-family="Arial" font-size="13px" font-style="normal" font-weight="normal" text-decoration="undefined" x="97.75634765625" y="326.5" text-anchor="middle" dominant-baseline="central" transform="matrix(1 0 0 1 -38 -46)">1..*</text></g></g><g><rect fill="#ffffff" stroke="none" x="128" y="448" width="100.43896484375" height="13" transform="matrix(1 0 0 1 -38 -46)"/></g><g><g><path fill="none" stroke="none"/><text fill="#000000" stroke="none" font-family="Arial" font-size="13px" font-style="normal" font-weight="normal" text-decoration="undefined" x="178.219482421875" y="454.5" text-anchor="middle" dominant-baseline="central" transform="matrix(1 0 0 1 -38 -46)">-discosPertenece</text></g></g><g><rect fill="#ffffff" stroke="none" x="88" y="450" width="19.5126953125" height="13" transform="matrix(1 0 0 1 -38 -46)"/></g><g><g><path fill="none" stroke="none"/><text fill="#000000" stroke="none" font-family="Arial" font-size="13px" font-style="normal" font-weight="normal" text-decoration="undefined" x="97.75634765625" y="456.5" text-anchor="middle" dominant-baseline="central" transform="matrix(1 0 0 1 -38 -46)">0..*</text></g></g><g><path fill="none" stroke="#000000" paint-order="fill stroke markers" d=" M 393 567 L 335 609" stroke-miterlimit="10" stroke-dasharray="3"/></g><g><path fill="none" stroke="#000000" paint-order="fill stroke markers" d=" M 466 595 L 466 785" stroke-miterlimit="10" stroke-dasharray=""/></g><g><path fill="none" stroke="#000000" paint-order="fill stroke markers" d=" M 470.209517756016 605.1626748576241 L 466 595 L 461.790482243984 605.1626748576241" stroke-miterlimit="10" stroke-dasharray=""/></g><g><rect fill="#ffffff" stroke="none" x="512" y="655" width="46.22998046875" height="13" transform="matrix(1 0 0 1 -38 -46)"/></g><g><g><path fill="none" stroke="none"/><text fill="#000000" stroke="none" font-family="Arial" font-size="13px" font-style="normal" font-weight="normal" text-decoration="undefined" x="535.114990234375" y="661.5" text-anchor="middle" dominant-baseline="central" transform="matrix(1 0 0 1 -38 -46)">-artistas</text></g></g><g><rect fill="#ffffff" stroke="none" x="472" y="656" width="19.5126953125" height="13" transform="matrix(1 0 0 1 -38 -46)"/></g><g><g><path fill="none" stroke="none"/><text fill="#000000" stroke="none" font-family="Arial" font-size="13px" font-style="normal" font-weight="normal" text-decoration="undefined" x="481.75634765625" y="662.5" text-anchor="middle" dominant-baseline="central" transform="matrix(1 0 0 1 -38 -46)">0..*</text></g></g><g><path fill="none" stroke="#000000" paint-order="fill stroke markers" d=" M 539 514 L 777 514" stroke-miterlimit="10" stroke-dasharray=""/></g><g><path fill="none" stroke="#000000" paint-order="fill stroke markers" d=" M 549.1626748576241 509.790482243984 L 539 514 L 549.1626748576241 518.209517756016" stroke-miterlimit="10" stroke-dasharray=""/></g><g><rect fill="#ffffff" stroke="none" x="592" y="539" width="83.08447265625" height="13" transform="matrix(1 0 0 1 -38 -46)"/></g><g><g><path fill="none" stroke="none"/><text fill="#000000" stroke="none" font-family="Arial" font-size="13px" font-style="normal" font-weight="normal" text-decoration="undefined" x="633.542236328125" y="545.5" text-anchor="middle" dominant-baseline="central" transform="matrix(1 0 0 1 -38 -46)">-suscripciones</text></g></g><g><rect fill="#ffffff" stroke="none" x="592" y="567" width="19.5126953125" height="13" transform="matrix(1 0 0 1 -38 -46)"/></g><g><g><path fill="none" stroke="none"/><text fill="#000000" stroke="none" font-family="Arial" font-size="13px" font-style="normal" font-weight="normal" text-decoration="undefined" x="601.75634765625" y="573.5" text-anchor="middle" dominant-baseline="central" transform="matrix(1 0 0 1 -38 -46)">0..*</text></g></g><g><path fill="none" stroke="#000000" paint-order="fill stroke markers" d=" M 850 243 L 850 433" stroke-miterlimit="10" stroke-dasharray=""/></g><g><path fill="none" stroke="#000000" paint-order="fill stroke markers" d=" M 845.790482243984 422.83732514237585 L 850 433 L 854.209517756016 422.83732514237585" stroke-miterlimit="10" stroke-dasharray=""/></g><g><rect fill="#ffffff" stroke="none" x="896" y="448" width="52.0380859375" height="13" transform="matrix(1 0 0 1 -38 -46)"/></g><g><g><path fill="none" stroke="none"/><text fill="#000000" stroke="none" font-family="Arial" font-size="13px" font-style="normal" font-weight="normal" text-decoration="undefined" x="922.01904296875" y="454.5" text-anchor="middle" dominant-baseline="central" transform="matrix(1 0 0 1 -38 -46)">-donador</text></g></g><g><rect fill="#ffffff" stroke="none" x="864" y="447" width="7.22998046875" height="13" transform="matrix(1 0 0 1 -38 -46)"/></g><g><g><path fill="none" stroke="none"/><text fill="#000000" stroke="none" font-family="Arial" font-size="13px" font-style="normal" font-weight="normal" text-decoration="undefined" x="867.614990234375" y="453.5" text-anchor="middle" dominant-baseline="central" transform="matrix(1 0 0 1 -38 -46)">1</text></g></g><g><path fill="none" stroke="#000000" paint-order="fill stroke markers" d=" M 777 229 L 539 447" stroke-miterlimit="10" stroke-dasharray=""/></g><g><path fill="none" stroke="#000000" paint-order="fill stroke markers" d=" M 543.6507779803329 437.0315365187181 L 539 447 L 549.3373647733114 443.23982852206154" stroke-miterlimit="10" stroke-dasharray=""/></g><g><rect fill="#ffffff" stroke="none" x="552" y="446" width="47.708984375" height="13" transform="matrix(1 0 0 1 -38 -46)"/></g><g><g><path fill="none" stroke="none"/><text fill="#000000" stroke="none" font-family="Arial" font-size="13px" font-style="normal" font-weight="normal" text-decoration="undefined" x="575.8544921875" y="452.5" text-anchor="middle" dominant-baseline="central" transform="matrix(1 0 0 1 -38 -46)">-donado</text></g></g><g><rect fill="#ffffff" stroke="none" x="600" y="480" width="7.22998046875" height="13" transform="matrix(1 0 0 1 -38 -46)"/></g><g><g><path fill="none" stroke="none"/><text fill="#000000" stroke="none" font-family="Arial" font-size="13px" font-style="normal" font-weight="normal" text-decoration="undefined" x="603.614990234375" y="486.5" text-anchor="middle" dominant-baseline="central" transform="matrix(1 0 0 1 -38 -46)">1</text></g></g><g><path fill="#ffffff" stroke="none" paint-order="stroke fill markers" d=" M 570 834 L 735 834 L 745 844 L 745 897 L 570 897 L 570 834"/></g><g><path fill="none" stroke="#000000" paint-order="fill stroke markers" d=" M 570 834 L 735 834 L 745 844 L 745 897 L 570 897 L 570 834 L 570 834" stroke-miterlimit="10" stroke-dasharray=""/></g><g><path fill="none" stroke="#000000" paint-order="fill stroke markers" d=" M 735 834 L 735 844 L 745 844 L 735 834" stroke-miterlimit="10" stroke-dasharray=""/></g><g><g><path fill="none" stroke="none"/><text fill="#000000" stroke="none" font-family="Arial" font-size="13px" font-style="normal" font-weight="normal" text-decoration="undefined" x="613" y="885" text-anchor="start" dominant-baseline="text-before-edge" transform="matrix(1 0 0 1 -38 -46)">If asistentes &gt;= capacidad {</text><text fill="#000000" stroke="none" font-family="Arial" font-size="13px" font-style="normal" font-weight="normal" text-decoration="undefined" x="613" y="898" text-anchor="start" dominant-baseline="text-before-edge" transform="matrix(1 0 0 1 -38 -46)">estaCompleto = true }</text></g></g><g><path fill="none" stroke="#000000" paint-order="fill stroke markers" d=" M 747 866 L 777 866" stroke-miterlimit="10" stroke-dasharray="3"/></g><g><path fill="none" stroke="#000000" paint-order="fill stroke markers" d=" M 850 785 L 850 595" stroke-miterlimit="10" stroke-dasharray=""/></g><g><rect fill="#ffffff" stroke="none" x="896" y="800" width="101.8798828125" height="13" transform="matrix(1 0 0 1 -38 -46)"/></g><g><g><path fill="none" stroke="none"/><text fill="#000000" stroke="none" font-family="Arial" font-size="13px" font-style="normal" font-weight="normal" text-decoration="undefined" x="946.93994140625" y="806.5" text-anchor="middle" dominant-baseline="central" transform="matrix(1 0 0 1 -38 -46)">-eventosAsistidos</text></g></g><g><rect fill="#ffffff" stroke="none" x="848" y="799" width="19.5126953125" height="13" transform="matrix(1 0 0 1 -38 -46)"/></g><g><g><path fill="none" stroke="none"/><text fill="#000000" stroke="none" font-family="Arial" font-size="13px" font-style="normal" font-weight="normal" text-decoration="undefined" x="857.75634765625" y="805.5" text-anchor="middle" dominant-baseline="central" transform="matrix(1 0 0 1 -38 -46)">0..*</text></g></g><g><rect fill="#ffffff" stroke="none" x="904" y="654" width="62.86083984375" height="13" transform="matrix(1 0 0 1 -38 -46)"/></g><g><g><path fill="none" stroke="none"/><text fill="#000000" stroke="none" font-family="Arial" font-size="13px" font-style="normal" font-weight="normal" text-decoration="undefined" x="935.430419921875" y="660.5" text-anchor="middle" dominant-baseline="central" transform="matrix(1 0 0 1 -38 -46)">-asistentes</text></g></g><g><rect fill="#ffffff" stroke="none" x="848" y="656" width="19.5126953125" height="13" transform="matrix(1 0 0 1 -38 -46)"/></g><g><g><path fill="none" stroke="none"/><text fill="#000000" stroke="none" font-family="Arial" font-size="13px" font-style="normal" font-weight="normal" text-decoration="undefined" x="857.75634765625" y="662.5" text-anchor="middle" dominant-baseline="central" transform="matrix(1 0 0 1 -38 -46)">0..*</text></g></g><g><path fill="none" stroke="#000000" paint-order="fill stroke markers" d=" M 539 581 L 777 799" stroke-miterlimit="10" stroke-dasharray=""/></g><g><rect fill="#ffffff" stroke="none" x="583" y="624" width="114.91162109375" height="13" transform="matrix(1 0 0 1 -38 -46)"/></g><g><g><path fill="none" stroke="none"/><text fill="#000000" stroke="none" font-family="Arial" font-size="13px" font-style="normal" font-weight="normal" text-decoration="undefined" x="640.455810546875" y="630.5" text-anchor="middle" dominant-baseline="central" transform="matrix(1 0 0 1 -38 -46)">-artistasEvento</text></g></g><g><rect fill="#ffffff" stroke="none" x="584" y="655" width="19.5126953125" height="13" transform="matrix(1 0 0 1 -38 -46)"/></g><g><g><path fill="none" stroke="none"/><text fill="#000000" stroke="none" font-family="Arial" font-size="13px" font-style="normal" font-weight="normal" text-decoration="undefined" x="593.75634765625" y="661.5" text-anchor="middle" dominant-baseline="central" transform="matrix(1 0 0 1 -38 -46)">1..*</text></g></g><g><rect fill="#ffffff" stroke="none" x="768" y="816" width="117.08251953125" height="13" transform="matrix(1 0 0 1 -38 -46)"/></g><g><g><path fill="none" stroke="none"/><text fill="#000000" stroke="none" font-family="Arial" font-size="13px" font-style="normal" font-weight="normal" text-decoration="undefined" x="826.541259765625" y="822.5" text-anchor="middle" dominant-baseline="central" transform="matrix(1 0 0 1 -38 -46)">-eventos pendientes</text></g></g><g><rect fill="#ffffff" stroke="none" x="781" y="833" width="19.5126953125" height="13" transform="matrix(1 0 0 1 -38 -46)"/></g><g><g><path fill="none" stroke="none"/><text fill="#000000" stroke="none" font-family="Arial" font-size="13px" font-style="normal" font-weight="normal" text-decoration="undefined" x="790.75634765625" y="839.5" text-anchor="middle" dominant-baseline="central" transform="matrix(1 0 0 1 -38 -46)">0..*</text></g></g><g><g><path fill="none" stroke="none"/><text fill="#000000" stroke="none" font-family="Helvetica" font-size="28px" font-style="normal" font-weight="normal" text-decoration="undefined" x="357" y="61" text-anchor="start" dominant-baseline="text-before-edge" transform="matrix(1 0 0 1 -38 -46)">Artista - Gabriel Gómez</text></g></g></g></svg>