<svg version="1.1" xmlns="http://www.w3.org/2000/svg" xmlns:xlink="http://www.w3.org/1999/xlink" width="455.29638671875" height="448"><defs/><g><g><rect fill="#C0C0C0" stroke="none" x="439" y="575" width="434.29638671875" height="196" transform="matrix(1 0 0 1 -422 -326)" fill-opacity="0.2"/></g><g><rect fill="#ffffff" stroke="none" x="432" y="568" width="434.29638671875" height="196" transform="matrix(1 0 0 1 -422 -326)"/></g><g><path fill="none" stroke="#000000" paint-order="fill stroke markers" d=" M 10 242 L 444.29638671875 242 L 444.29638671875 438 L 10 438 L 10 242 Z Z" stroke-miterlimit="10" stroke-dasharray=""/></g><g><path fill="none" stroke="#000000" paint-order="fill stroke markers" d=" M 10 280 L 445.29638671875 280" stroke-miterlimit="10" stroke-dasharray=""/></g><g><g><path fill="none" stroke="none"/><text fill="#000000" stroke="none" font-family="Arial" font-size="13px" font-style="normal" font-weight="normal" text-decoration="undefined" x="649.648193359375" y="579.5" text-anchor="middle" dominant-baseline="central" transform="matrix(1 0 0 1 -422 -326)">«interface»</text></g></g><g><g><path fill="none" stroke="none"/><text fill="#000000" stroke="none" font-family="Arial" font-size="13px" font-style="normal" font-weight="bold" text-decoration="undefined" x="649.648193359375" y="594.5" text-anchor="middle" dominant-baseline="central" transform="matrix(1 0 0 1 -422 -326)">DAOEventos</text></g></g><g><g><path fill="none" stroke="none"/><text fill="#000000" stroke="none" font-family="Arial" font-size="13px" font-style="normal" font-weight="normal" text-decoration="undefined" x="437" y="617.5" text-anchor="start" dominant-baseline="central" transform="matrix(1 0 0 1 -422 -326)">+obtenerEventos(): Evento[*]</text></g></g><g><g><path fill="none" stroke="none"/><text fill="#000000" stroke="none" font-family="Arial" font-size="13px" font-style="normal" font-weight="normal" text-decoration="undefined" x="437" y="632.5" text-anchor="start" dominant-baseline="central" transform="matrix(1 0 0 1 -422 -326)">+obtenerEvento(idEvento: String): Evento</text></g></g><g><g><path fill="none" stroke="none"/><text fill="#000000" stroke="none" font-family="Arial" font-size="13px" font-style="normal" font-weight="normal" text-decoration="undefined" x="437" y="647.5" text-anchor="start" dominant-baseline="central" transform="matrix(1 0 0 1 -422 -326)">+crearEvento(E: evento): boolean</text></g></g><g><g><path fill="none" stroke="none"/><text fill="#000000" stroke="none" font-family="Arial" font-size="13px" font-style="normal" font-weight="normal" text-decoration="undefined" x="437" y="662.5" text-anchor="start" dominant-baseline="central" transform="matrix(1 0 0 1 -422 -326)">+modificarEvento(eventoModificado: Evento): boolean</text></g></g><g><g><path fill="none" stroke="none"/><text fill="#000000" stroke="none" font-family="Arial" font-size="13px" font-style="normal" font-weight="normal" text-decoration="undefined" x="437" y="677.5" text-anchor="start" dominant-baseline="central" transform="matrix(1 0 0 1 -422 -326)">+eliminarEvento(idEvento: String): boolean</text></g></g><g><rect fill="#C0C0C0" stroke="none" x="439" y="343" width="434.29638671875" height="196" transform="matrix(1 0 0 1 -422 -326)" fill-opacity="0.2"/></g><g><rect fill="#ffffff" stroke="none" x="432" y="336" width="434.29638671875" height="196" transform="matrix(1 0 0 1 -422 -326)"/></g><g><path fill="none" stroke="#000000" paint-order="fill stroke markers" d=" M 10 10 L 444.29638671875 10 L 444.29638671875 206 L 10 206 L 10 10 Z Z" stroke-miterlimit="10" stroke-dasharray=""/></g><g><path fill="none" stroke="#000000" paint-order="fill stroke markers" d=" M 10 48 L 445.29638671875 48" stroke-miterlimit="10" stroke-dasharray=""/></g><g><g><path fill="none" stroke="none"/><text fill="#000000" stroke="none" font-family="Arial" font-size="13px" font-style="normal" font-weight="normal" text-decoration="undefined" x="649.648193359375" y="347.5" text-anchor="middle" dominant-baseline="central" transform="matrix(1 0 0 1 -422 -326)">«interface»</text></g></g><g><g><path fill="none" stroke="none"/><text fill="#000000" stroke="none" font-family="Arial" font-size="13px" font-style="normal" font-weight="bold" text-decoration="undefined" x="649.648193359375" y="362.5" text-anchor="middle" dominant-baseline="central" transform="matrix(1 0 0 1 -422 -326)">IGestionTienda</text></g></g><g><g><path fill="none" stroke="none"/><text fill="#000000" stroke="none" font-family="Arial" font-size="13px" font-style="normal" font-weight="normal" text-decoration="undefined" x="437" y="385.5" text-anchor="start" dominant-baseline="central" transform="matrix(1 0 0 1 -422 -326)">+crearTienda(idArtista: String, t: Tienda): boolean</text></g></g><g><g><path fill="none" stroke="none"/><text fill="#000000" stroke="none" font-family="Arial" font-size="13px" font-style="normal" font-weight="normal" text-decoration="undefined" x="437" y="400.5" text-anchor="start" dominant-baseline="central" transform="matrix(1 0 0 1 -422 -326)">+eliminarTienda(idTienda: String): boolean</text></g></g><g><g><path fill="none" stroke="none"/><text fill="#000000" stroke="none" font-family="Arial" font-size="13px" font-style="normal" font-weight="normal" text-decoration="undefined" x="437" y="415.5" text-anchor="start" dominant-baseline="central" transform="matrix(1 0 0 1 -422 -326)">+añadirProductoATienda(idProducto: String, idTienda: String): boolean</text></g></g><g><g><path fill="none" stroke="none"/><text fill="#000000" stroke="none" font-family="Arial" font-size="13px" font-style="normal" font-weight="normal" text-decoration="undefined" x="437" y="430.5" text-anchor="start" dominant-baseline="central" transform="matrix(1 0 0 1 -422 -326)">+eliminarProductoDeTienda(idProducto: String, idTienda: String): boolean</text></g></g><g><g><path fill="none" stroke="none"/><text fill="#000000" stroke="none" font-family="Arial" font-size="13px" font-style="normal" font-weight="normal" text-decoration="undefined" x="437" y="445.5" text-anchor="start" dominant-baseline="central" transform="matrix(1 0 0 1 -422 -326)">+verSolicitudCreacionTienda(): SolicitudTienda[*]</text></g></g><g><g><path fill="none" stroke="none"/><text fill="#000000" stroke="none" font-family="Arial" font-size="13px" font-style="normal" font-weight="normal" text-decoration="undefined" x="437" y="460.5" text-anchor="start" dominant-baseline="central" transform="matrix(1 0 0 1 -422 -326)">+verSolicitudCambioProducto(): SolicitudProducto[*]</text></g></g><g><g><path fill="none" stroke="none"/><text fill="#000000" stroke="none" font-family="Arial" font-size="13px" font-style="normal" font-weight="normal" text-decoration="undefined" x="437" y="475.5" text-anchor="start" dominant-baseline="central" transform="matrix(1 0 0 1 -422 -326)">+aprobarSolicitudDeTienda(idSolicitud: String): boolean</text></g></g><g><g><path fill="none" stroke="none"/><text fill="#000000" stroke="none" font-family="Arial" font-size="13px" font-style="normal" font-weight="normal" text-decoration="undefined" x="437" y="490.5" text-anchor="start" dominant-baseline="central" transform="matrix(1 0 0 1 -422 -326)">+denegarSolicitudDeTienda(idSolicitud: String): boolean</text></g></g><g><g><path fill="none" stroke="none"/><text fill="#000000" stroke="none" font-family="Arial" font-size="13px" font-style="normal" font-weight="normal" text-decoration="undefined" x="437" y="505.5" text-anchor="start" dominant-baseline="central" transform="matrix(1 0 0 1 -422 -326)">+aprobarSolicitudDeProducto(idSolicitud: String): boolean</text></g></g><g><g><path fill="none" stroke="none"/><text fill="#000000" stroke="none" font-family="Arial" font-size="13px" font-style="normal" font-weight="normal" text-decoration="undefined" x="437" y="520.5" text-anchor="start" dominant-baseline="central" transform="matrix(1 0 0 1 -422 -326)">+denegarSolicitudDeProducto(idSolicitud: String): boolean</text></g></g></g></svg>