<svg version="1.1" xmlns="http://www.w3.org/2000/svg" xmlns:xlink="http://www.w3.org/1999/xlink" width="407.07958984375" height="500"><defs/><g><g><rect fill="#C0C0C0" stroke="none" x="327" y="215" width="386.07958984375" height="224" transform="matrix(1 0 0 1 -310 -198)" fill-opacity="0.2"/></g><g><rect fill="#ffffff" stroke="none" x="320" y="208" width="386.07958984375" height="224" transform="matrix(1 0 0 1 -310 -198)"/></g><g><path fill="none" stroke="#000000" paint-order="fill stroke markers" d=" M 10 10 L 396.07958984375 10 L 396.07958984375 234 L 10 234 L 10 10 Z Z" stroke-miterlimit="10" stroke-dasharray=""/></g><g><path fill="none" stroke="#000000" paint-order="fill stroke markers" d=" M 10 48 L 397.07958984375 48" stroke-miterlimit="10" stroke-dasharray=""/></g><g><g><path fill="none" stroke="none"/><text fill="#000000" stroke="none" font-family="Arial" font-size="13px" font-style="normal" font-weight="normal" text-decoration="undefined" x="513.539794921875" y="219.5" text-anchor="middle" dominant-baseline="central" transform="matrix(1 0 0 1 -310 -198)">«interface»</text></g></g><g><g><path fill="none" stroke="none"/><text fill="#000000" stroke="none" font-family="Arial" font-size="13px" font-style="normal" font-weight="bold" text-decoration="undefined" x="513.539794921875" y="234.5" text-anchor="middle" dominant-baseline="central" transform="matrix(1 0 0 1 -310 -198)">IGestionCancionDisco</text></g></g><g><g><path fill="none" stroke="none"/><text fill="#000000" stroke="none" font-family="Arial" font-size="13px" font-style="normal" font-weight="normal" text-decoration="undefined" x="325" y="257.5" text-anchor="start" dominant-baseline="central" transform="matrix(1 0 0 1 -310 -198)">+verDisco(idCancion: String): Disco</text></g></g><g><g><path fill="none" stroke="none"/><text fill="#000000" stroke="none" font-family="Arial" font-size="13px" font-style="normal" font-weight="normal" text-decoration="undefined" x="325" y="272.5" text-anchor="start" dominant-baseline="central" transform="matrix(1 0 0 1 -310 -198)">+modificarDisco(d: Disco): boolean</text></g></g><g><g><path fill="none" stroke="none"/><text fill="#000000" stroke="none" font-family="Arial" font-size="13px" font-style="normal" font-weight="normal" text-decoration="undefined" x="325" y="287.5" text-anchor="start" dominant-baseline="central" transform="matrix(1 0 0 1 -310 -198)">+borrarDisco(idDisco: String): boolean</text></g></g><g><g><path fill="none" stroke="none"/><text fill="#000000" stroke="none" font-family="Arial" font-size="13px" font-style="normal" font-weight="normal" text-decoration="undefined" x="325" y="302.5" text-anchor="start" dominant-baseline="central" transform="matrix(1 0 0 1 -310 -198)">+modificarCancion(c: Cancion): boolean</text></g></g><g><g><path fill="none" stroke="none"/><text fill="#000000" stroke="none" font-family="Arial" font-size="13px" font-style="normal" font-weight="normal" text-decoration="undefined" x="325" y="317.5" text-anchor="start" dominant-baseline="central" transform="matrix(1 0 0 1 -310 -198)">+eliminarCancion(idCancion: String): Cancion</text></g></g><g><g><path fill="none" stroke="none"/><text fill="#000000" stroke="none" font-family="Arial" font-size="13px" font-style="normal" font-weight="normal" text-decoration="undefined" x="325" y="332.5" text-anchor="start" dominant-baseline="central" transform="matrix(1 0 0 1 -310 -198)">+verCancionDisco(idDisco: String, idCancion: String): Cancion</text></g></g><g><g><path fill="none" stroke="none"/><text fill="#000000" stroke="none" font-family="Arial" font-size="13px" font-style="normal" font-weight="normal" text-decoration="undefined" x="325" y="347.5" text-anchor="start" dominant-baseline="central" transform="matrix(1 0 0 1 -310 -198)">+verCancionesDisco(idDisco: String): Cancion[*]</text></g></g><g><g><path fill="none" stroke="none"/><text fill="#000000" stroke="none" font-family="Arial" font-size="13px" font-style="normal" font-weight="normal" text-decoration="undefined" x="325" y="362.5" text-anchor="start" dominant-baseline="central" transform="matrix(1 0 0 1 -310 -198)">+verDiscosConCancion(idCancion: String): Disco[*]</text></g></g><g><g><path fill="none" stroke="none"/><text fill="#000000" stroke="none" font-family="Arial" font-size="13px" font-style="normal" font-weight="normal" text-decoration="undefined" x="325" y="377.5" text-anchor="start" dominant-baseline="central" transform="matrix(1 0 0 1 -310 -198)">+verCancionesArtista(idArtista: String): Cancion[*]</text></g></g><g><g><path fill="none" stroke="none"/><text fill="#000000" stroke="none" font-family="Arial" font-size="13px" font-style="normal" font-weight="normal" text-decoration="undefined" x="325" y="392.5" text-anchor="start" dominant-baseline="central" transform="matrix(1 0 0 1 -310 -198)">+verDiscosArtista(idArtista: String): Disco[*]</text></g></g><g><rect fill="#C0C0C0" stroke="none" x="327" y="471" width="386.07958984375" height="224" transform="matrix(1 0 0 1 -310 -198)" fill-opacity="0.2"/></g><g><rect fill="#ffffff" stroke="none" x="320" y="464" width="386.07958984375" height="224" transform="matrix(1 0 0 1 -310 -198)"/></g><g><path fill="none" stroke="#000000" paint-order="fill stroke markers" d=" M 10 266 L 396.07958984375 266 L 396.07958984375 490 L 10 490 L 10 266 Z Z" stroke-miterlimit="10" stroke-dasharray=""/></g><g><path fill="none" stroke="#000000" paint-order="fill stroke markers" d=" M 10 304 L 397.07958984375 304" stroke-miterlimit="10" stroke-dasharray=""/></g><g><g><path fill="none" stroke="none"/><text fill="#000000" stroke="none" font-family="Arial" font-size="13px" font-style="normal" font-weight="normal" text-decoration="undefined" x="513.539794921875" y="475.5" text-anchor="middle" dominant-baseline="central" transform="matrix(1 0 0 1 -310 -198)">«interface»</text></g></g><g><g><path fill="none" stroke="none"/><text fill="#000000" stroke="none" font-family="Arial" font-size="13px" font-style="normal" font-weight="bold" text-decoration="undefined" x="513.539794921875" y="490.5" text-anchor="middle" dominant-baseline="central" transform="matrix(1 0 0 1 -310 -198)">DAODiscos</text></g></g><g><g><path fill="none" stroke="none"/><text fill="#000000" stroke="none" font-family="Arial" font-size="13px" font-style="normal" font-weight="normal" text-decoration="undefined" x="325" y="513.5" text-anchor="start" dominant-baseline="central" transform="matrix(1 0 0 1 -310 -198)">+obtenerDisco(id: String): Disco</text></g></g><g><g><path fill="none" stroke="none"/><text fill="#000000" stroke="none" font-family="Arial" font-size="13px" font-style="normal" font-weight="normal" text-decoration="undefined" x="325" y="528.5" text-anchor="start" dominant-baseline="central" transform="matrix(1 0 0 1 -310 -198)">+obtenerTodosDiscos(): Disco[*]</text></g></g><g><g><path fill="none" stroke="none"/><text fill="#000000" stroke="none" font-family="Arial" font-size="13px" font-style="normal" font-weight="normal" text-decoration="undefined" x="325" y="543.5" text-anchor="start" dominant-baseline="central" transform="matrix(1 0 0 1 -310 -198)">+borrarDisco(id: String): boolean</text></g></g><g><g><path fill="none" stroke="none"/><text fill="#000000" stroke="none" font-family="Arial" font-size="13px" font-style="normal" font-weight="normal" text-decoration="undefined" x="325" y="558.5" text-anchor="start" dominant-baseline="central" transform="matrix(1 0 0 1 -310 -198)">+crearDisco(d: Disco): Disco</text></g></g><g><g><path fill="none" stroke="none"/><text fill="#000000" stroke="none" font-family="Arial" font-size="13px" font-style="normal" font-weight="normal" text-decoration="undefined" x="325" y="573.5" text-anchor="start" dominant-baseline="central" transform="matrix(1 0 0 1 -310 -198)">+modificarDisco(d: Disco): boolean</text></g></g></g></svg>