<svg version="1.1" xmlns="http://www.w3.org/2000/svg" xmlns:xlink="http://www.w3.org/1999/xlink" width="811.736328125" height="516"><defs/><g><g><rect fill="#C0C0C0" stroke="none" x="199" y="439" width="790.736328125" height="192" transform="matrix(1 0 0 1 -182 -118)" fill-opacity="0.2"/></g><g><rect fill="#ffffff" stroke="none" x="192" y="432" width="790.736328125" height="192" transform="matrix(1 0 0 1 -182 -118)"/></g><g><path fill="none" stroke="#000000" paint-order="fill stroke markers" d=" M 10 314 L 800.736328125 314 L 800.736328125 506 L 10 506 L 10 314 Z Z" stroke-miterlimit="10" stroke-dasharray=""/></g><g><path fill="none" stroke="#000000" paint-order="fill stroke markers" d=" M 10 352 L 801.736328125 352" stroke-miterlimit="10" stroke-dasharray=""/></g><g><g><path fill="none" stroke="none"/><text fill="#000000" stroke="none" font-family="Arial" font-size="13px" font-style="normal" font-weight="normal" text-decoration="undefined" x="587.8681640625" y="443.5" text-anchor="middle" dominant-baseline="central" transform="matrix(1 0 0 1 -182 -118)">«interface»</text></g></g><g><g><path fill="none" stroke="none"/><text fill="#000000" stroke="none" font-family="Arial" font-size="13px" font-style="normal" font-weight="bold" text-decoration="undefined" x="587.8681640625" y="458.5" text-anchor="middle" dominant-baseline="central" transform="matrix(1 0 0 1 -182 -118)">DAOChats</text></g></g><g><g><path fill="none" stroke="none"/><text fill="#000000" stroke="none" font-family="Arial" font-size="13px" font-style="normal" font-weight="normal" text-decoration="undefined" x="197" y="481.5" text-anchor="start" dominant-baseline="central" transform="matrix(1 0 0 1 -182 -118)">+obtenerChats() : Chat [*]</text></g></g><g><g><path fill="none" stroke="none"/><text fill="#000000" stroke="none" font-family="Arial" font-size="13px" font-style="normal" font-weight="normal" text-decoration="undefined" x="197" y="496.5" text-anchor="start" dominant-baseline="central" transform="matrix(1 0 0 1 -182 -118)">+obtenerChat( id : String ) : Chat</text></g></g><g><g><path fill="none" stroke="none"/><text fill="#000000" stroke="none" font-family="Arial" font-size="13px" font-style="normal" font-weight="normal" text-decoration="undefined" x="197" y="511.5" text-anchor="start" dominant-baseline="central" transform="matrix(1 0 0 1 -182 -118)">+crearChat( c : Chat ) : Chat</text></g></g><g><g><path fill="none" stroke="none"/><text fill="#000000" stroke="none" font-family="Arial" font-size="13px" font-style="normal" font-weight="normal" text-decoration="undefined" x="197" y="526.5" text-anchor="start" dominant-baseline="central" transform="matrix(1 0 0 1 -182 -118)">+modificarChat( c : Chat ) : boolean</text></g></g><g><g><path fill="none" stroke="none"/><text fill="#000000" stroke="none" font-family="Arial" font-size="13px" font-style="normal" font-weight="normal" text-decoration="undefined" x="197" y="541.5" text-anchor="start" dominant-baseline="central" transform="matrix(1 0 0 1 -182 -118)">+eliminarChat( id : String ) : boolean</text></g></g><g><rect fill="#C0C0C0" stroke="none" x="199" y="183" width="790.736328125" height="192" transform="matrix(1 0 0 1 -182 -118)" fill-opacity="0.2"/></g><g><rect fill="#ffffff" stroke="none" x="192" y="176" width="790.736328125" height="192" transform="matrix(1 0 0 1 -182 -118)"/></g><g><path fill="none" stroke="#000000" paint-order="fill stroke markers" d=" M 10 58 L 800.736328125 58 L 800.736328125 250 L 10 250 L 10 58 Z Z" stroke-miterlimit="10" stroke-dasharray=""/></g><g><path fill="none" stroke="#000000" paint-order="fill stroke markers" d=" M 10 96 L 801.736328125 96" stroke-miterlimit="10" stroke-dasharray=""/></g><g><g><path fill="none" stroke="none"/><text fill="#000000" stroke="none" font-family="Arial" font-size="13px" font-style="normal" font-weight="normal" text-decoration="undefined" x="587.8681640625" y="187.5" text-anchor="middle" dominant-baseline="central" transform="matrix(1 0 0 1 -182 -118)">«interface»</text></g></g><g><g><path fill="none" stroke="none"/><text fill="#000000" stroke="none" font-family="Arial" font-size="13px" font-style="normal" font-weight="bold" text-decoration="undefined" x="587.8681640625" y="202.5" text-anchor="middle" dominant-baseline="central" transform="matrix(1 0 0 1 -182 -118)">iGestionChats</text></g></g><g><g><path fill="none" stroke="none"/><text fill="#000000" stroke="none" font-family="Arial" font-size="13px" font-style="normal" font-weight="normal" text-decoration="undefined" x="197" y="225.5" text-anchor="start" dominant-baseline="central" transform="matrix(1 0 0 1 -182 -118)">+verSolicitudChat( idUsuarioSolicitante : String, idUsuarioSolicitado : String, idChat : String ) : Boolean</text></g></g><g><g><path fill="none" stroke="none"/><text fill="#000000" stroke="none" font-family="Arial" font-size="13px" font-style="normal" font-weight="normal" text-decoration="undefined" x="197" y="240.5" text-anchor="start" dominant-baseline="central" transform="matrix(1 0 0 1 -182 -118)">+anhadirSolicitudChatArtista( idProductorSolicitante : String, idArtistaSolicitado : String, idChat : String, msgSolicitud : String ) : Boolean</text></g></g><g><g><path fill="none" stroke="none"/><text fill="#000000" stroke="none" font-family="Arial" font-size="13px" font-style="normal" font-weight="normal" text-decoration="undefined" x="197" y="255.5" text-anchor="start" dominant-baseline="central" transform="matrix(1 0 0 1 -182 -118)">+eliminarSolicitudChatArtista( idUsuarioSolicitante : String, idUsuarioSolicitado : String, idChat : String ) : Boolean</text></g></g><g><g><path fill="none" stroke="none"/><text fill="#000000" stroke="none" font-family="Arial" font-size="13px" font-style="normal" font-weight="normal" text-decoration="undefined" x="197" y="270.5" text-anchor="start" dominant-baseline="central" transform="matrix(1 0 0 1 -182 -118)">+verChat( idUsuarioSolicitante : String, idUsuarioSolicitado : String, idChat : String ) : Chat</text></g></g><g><g><path fill="none" stroke="none"/><text fill="#000000" stroke="none" font-family="Arial" font-size="13px" font-style="normal" font-weight="normal" text-decoration="undefined" x="197" y="285.5" text-anchor="start" dominant-baseline="central" transform="matrix(1 0 0 1 -182 -118)">+archivarChat( idUsuarioSolicitante : String, idUsuarioSolicitado : String, idChat : String, archivar : Boolean ) : Boolean</text></g></g><g><g><path fill="none" stroke="none"/><text fill="#000000" stroke="none" font-family="Arial" font-size="13px" font-style="normal" font-weight="normal" text-decoration="undefined" x="197" y="300.5" text-anchor="start" dominant-baseline="central" transform="matrix(1 0 0 1 -182 -118)">+enviarMensajeChat( idUsuarioSolicitante : String, idUsuarioSolicitado : String, idChat : String, msg : String ) : Boolean</text></g></g><g><g><path fill="none" stroke="none"/><text fill="#000000" stroke="none" font-family="Arial" font-size="13px" font-style="normal" font-weight="normal" text-decoration="undefined" x="197" y="315.5" text-anchor="start" dominant-baseline="central" transform="matrix(1 0 0 1 -182 -118)">+bloquearChat( idUsuarioSolicitante : String, idUsuarioSolicitado : String, idChat : String, bloquear : Boolean ) : Boolean</text></g></g><g><g><path fill="none" stroke="none"/><text fill="#000000" stroke="none" font-family="Arial" font-size="22px" font-style="normal" font-weight="normal" text-decoration="undefined" x="445" y="133" text-anchor="start" dominant-baseline="text-before-edge" transform="matrix(1 0 0 1 -182 -118)">Descripción - Adrián Del Río</text></g></g></g></svg>