<svg version="1.1" xmlns="http://www.w3.org/2000/svg" xmlns:xlink="http://www.w3.org/1999/xlink" width="962" height="900"><defs/><g><g><rect fill="#C0C0C0" stroke="none" x="55" y="319" width="415.01220703125" height="251" transform="matrix(1 0 0 1 -38 -38)" fill-opacity="0.2"/></g><g><rect fill="#ffffff" stroke="none" x="48" y="312" width="415.01220703125" height="251" transform="matrix(1 0 0 1 -38 -38)"/></g><g><path fill="none" stroke="#000000" paint-order="fill stroke markers" d=" M 10 274 L 425.01220703125 274 L 425.01220703125 525 L 10 525 L 10 274 Z Z" stroke-miterlimit="10" stroke-dasharray=""/></g><g><path fill="none" stroke="#000000" paint-order="fill stroke markers" d=" M 10 299 L 426.01220703125 299" stroke-miterlimit="10" stroke-dasharray=""/></g><g><path fill="none" stroke="#000000" paint-order="fill stroke markers" d=" M 10 367 L 426.01220703125 367" stroke-miterlimit="10" stroke-dasharray=""/></g><g><g><path fill="none" stroke="none"/><text fill="#000000" stroke="none" font-family="Arial" font-size="13px" font-style="normal" font-weight="bold" text-decoration="undefined" x="256.006103515625" y="325.5" text-anchor="middle" dominant-baseline="central" transform="matrix(1 0 0 1 -38 -38)">Oyente</text></g></g><g><g><path fill="none" stroke="none"/><text fill="#000000" stroke="none" font-family="Arial" font-size="13px" font-style="normal" font-weight="normal" text-decoration="undefined" x="53" y="348.5" text-anchor="start" dominant-baseline="central" transform="matrix(1 0 0 1 -38 -38)">-esPremium: Boolean</text></g></g><g><g><path fill="none" stroke="none"/><text fill="#000000" stroke="none" font-family="Arial" font-size="13px" font-style="normal" font-weight="normal" text-decoration="undefined" x="53" y="363.5" text-anchor="start" dominant-baseline="central" transform="matrix(1 0 0 1 -38 -38)">-fechaPremium</text></g></g><g><g><path fill="none" stroke="none"/><text fill="#000000" stroke="none" font-family="Arial" font-size="13px" font-style="normal" font-weight="normal" text-decoration="undefined" x="53" y="378.5" text-anchor="start" dominant-baseline="central" transform="matrix(1 0 0 1 -38 -38)">-puntos</text></g></g><g><g><path fill="none" stroke="none"/><text fill="#000000" stroke="none" font-family="Arial" font-size="13px" font-style="normal" font-weight="normal" text-decoration="undefined" x="53" y="393.5" text-anchor="start" dominant-baseline="central" transform="matrix(1 0 0 1 -38 -38)">-escuchas</text></g></g><g><g><path fill="none" stroke="none"/><text fill="#000000" stroke="none" font-family="Arial" font-size="13px" font-style="normal" font-weight="normal" text-decoration="undefined" x="53" y="416.5" text-anchor="start" dominant-baseline="central" transform="matrix(1 0 0 1 -38 -38)">+añadirCancionPlaylist(pl: Playlist, c: Cancion): boolean</text></g></g><g><g><path fill="none" stroke="none"/><text fill="#000000" stroke="none" font-family="Arial" font-size="13px" font-style="normal" font-weight="normal" text-decoration="undefined" x="53" y="431.5" text-anchor="start" dominant-baseline="central" transform="matrix(1 0 0 1 -38 -38)">+eliminarCancionPlaylist(pl: Playlist, c: Cancion): boolean</text></g></g><g><g><path fill="none" stroke="none"/><text fill="#000000" stroke="none" font-family="Arial" font-size="13px" font-style="normal" font-weight="normal" text-decoration="undefined" x="53" y="446.5" text-anchor="start" dominant-baseline="central" transform="matrix(1 0 0 1 -38 -38)">+reproducirCancionPlaylist(pl: Playlist, c: Cancion, o: oyente): boolean</text></g></g><g><g><path fill="none" stroke="none"/><text fill="#000000" stroke="none" font-family="Arial" font-size="13px" font-style="normal" font-weight="normal" text-decoration="undefined" x="53" y="461.5" text-anchor="start" dominant-baseline="central" transform="matrix(1 0 0 1 -38 -38)">+pausarCancionPlaylist(pl: Playlist, c: Cancion): boolean</text></g></g><g><g><path fill="none" stroke="none"/><text fill="#000000" stroke="none" font-family="Arial" font-size="13px" font-style="normal" font-weight="normal" text-decoration="undefined" x="53" y="476.5" text-anchor="start" dominant-baseline="central" transform="matrix(1 0 0 1 -38 -38)">+saltarCancion(pl: Playlist): boolean</text></g></g><g><g><path fill="none" stroke="none"/><text fill="#000000" stroke="none" font-family="Arial" font-size="13px" font-style="normal" font-weight="normal" text-decoration="undefined" x="53" y="491.5" text-anchor="start" dominant-baseline="central" transform="matrix(1 0 0 1 -38 -38)">+reproducirCancionArtista(a: Artista, c: Cancion): boolean</text></g></g><g><g><path fill="none" stroke="none"/><text fill="#000000" stroke="none" font-family="Arial" font-size="13px" font-style="normal" font-weight="normal" text-decoration="undefined" x="53" y="506.5" text-anchor="start" dominant-baseline="central" transform="matrix(1 0 0 1 -38 -38)">+seguirArtista(a: Artista): boolean</text></g></g><g><g><path fill="none" stroke="none"/><text fill="#000000" stroke="none" font-family="Arial" font-size="13px" font-style="normal" font-weight="normal" text-decoration="undefined" x="53" y="521.5" text-anchor="start" dominant-baseline="central" transform="matrix(1 0 0 1 -38 -38)">+verArtistasSeguidos(): null[*]</text></g></g><g><g><path fill="none" stroke="none"/><text fill="#000000" stroke="none" font-family="Arial" font-size="13px" font-style="normal" font-weight="normal" text-decoration="undefined" x="53" y="536.5" text-anchor="start" dominant-baseline="central" transform="matrix(1 0 0 1 -38 -38)">+verDiscosArtista(a: Artista): Disco[*]</text></g></g><g><rect fill="#C0C0C0" stroke="none" x="351" y="135" width="192" height="160" transform="matrix(1 0 0 1 -38 -38)" fill-opacity="0.2"/></g><g><rect fill="#ffffff" stroke="none" x="344" y="128" width="192" height="160" transform="matrix(1 0 0 1 -38 -38)"/></g><g><path fill="none" stroke="#000000" paint-order="fill stroke markers" d=" M 306 90 L 498 90 L 498 250 L 306 250 L 306 90 Z Z" stroke-miterlimit="10" stroke-dasharray=""/></g><g><path fill="none" stroke="#000000" paint-order="fill stroke markers" d=" M 306 115 L 499 115" stroke-miterlimit="10" stroke-dasharray=""/></g><g><g><path fill="none" stroke="none"/><text fill="#000000" stroke="none" font-family="Arial" font-size="13px" font-style="normal" font-weight="bold" text-decoration="undefined" x="440.5" y="141.5" text-anchor="middle" dominant-baseline="central" transform="matrix(1 0 0 1 -38 -38)">Playlist</text></g></g><g><g><path fill="none" stroke="none"/><text fill="#000000" stroke="none" font-family="Arial" font-size="13px" font-style="normal" font-weight="normal" text-decoration="undefined" x="349" y="164.5" text-anchor="start" dominant-baseline="central" transform="matrix(1 0 0 1 -38 -38)">-creador: Oyente</text></g></g><g><g><path fill="none" stroke="none"/><text fill="#000000" stroke="none" font-family="Arial" font-size="13px" font-style="normal" font-weight="normal" text-decoration="undefined" x="349" y="179.5" text-anchor="start" dominant-baseline="central" transform="matrix(1 0 0 1 -38 -38)">-duración</text></g></g><g><g><path fill="none" stroke="none"/><text fill="#000000" stroke="none" font-family="Arial" font-size="13px" font-style="normal" font-weight="normal" text-decoration="undefined" x="349" y="194.5" text-anchor="start" dominant-baseline="central" transform="matrix(1 0 0 1 -38 -38)">-reproducciones</text></g></g><g><g><path fill="none" stroke="none"/><text fill="#000000" stroke="none" font-family="Arial" font-size="13px" font-style="normal" font-weight="normal" text-decoration="undefined" x="349" y="209.5" text-anchor="start" dominant-baseline="central" transform="matrix(1 0 0 1 -38 -38)">-likes</text></g></g><g><g><path fill="none" stroke="none"/><text fill="#000000" stroke="none" font-family="Arial" font-size="13px" font-style="normal" font-weight="normal" text-decoration="undefined" x="349" y="224.5" text-anchor="start" dominant-baseline="central" transform="matrix(1 0 0 1 -38 -38)">-descripcion</text></g></g><g><g><path fill="none" stroke="none"/><text fill="#000000" stroke="none" font-family="Arial" font-size="13px" font-style="normal" font-weight="normal" text-decoration="undefined" x="349" y="239.5" text-anchor="start" dominant-baseline="central" transform="matrix(1 0 0 1 -38 -38)">-foto</text></g></g><g><g><path fill="none" stroke="none"/><text fill="#000000" stroke="none" font-family="Arial" font-size="13px" font-style="normal" font-weight="normal" text-decoration="undefined" x="349" y="254.5" text-anchor="start" dominant-baseline="central" transform="matrix(1 0 0 1 -38 -38)">-nombre</text></g></g><g><rect fill="#C0C0C0" stroke="none" x="655" y="135" width="184" height="161" transform="matrix(1 0 0 1 -38 -38)" fill-opacity="0.2"/></g><g><rect fill="#ffffff" stroke="none" x="648" y="128" width="184" height="161" transform="matrix(1 0 0 1 -38 -38)"/></g><g><path fill="none" stroke="#000000" paint-order="fill stroke markers" d=" M 610 90 L 794 90 L 794 251 L 610 251 L 610 90 Z Z" stroke-miterlimit="10" stroke-dasharray=""/></g><g><path fill="none" stroke="#000000" paint-order="fill stroke markers" d=" M 610 115 L 795 115" stroke-miterlimit="10" stroke-dasharray=""/></g><g><path fill="none" stroke="#000000" paint-order="fill stroke markers" d=" M 610 228 L 795 228" stroke-miterlimit="10" stroke-dasharray=""/></g><g><g><path fill="none" stroke="none"/><text fill="#000000" stroke="none" font-family="Arial" font-size="13px" font-style="normal" font-weight="bold" text-decoration="undefined" x="740.5" y="141.5" text-anchor="middle" dominant-baseline="central" transform="matrix(1 0 0 1 -38 -38)">Canción</text></g></g><g><g><path fill="none" stroke="none"/><text fill="#000000" stroke="none" font-family="Arial" font-size="13px" font-style="normal" font-weight="normal" text-decoration="undefined" x="653" y="164.5" text-anchor="start" dominant-baseline="central" transform="matrix(1 0 0 1 -38 -38)">-productor: Productor</text></g></g><g><g><path fill="none" stroke="none"/><text fill="#000000" stroke="none" font-family="Arial" font-size="13px" font-style="normal" font-weight="normal" text-decoration="undefined" x="653" y="179.5" text-anchor="start" dominant-baseline="central" transform="matrix(1 0 0 1 -38 -38)">-duración</text></g></g><g><g><path fill="none" stroke="none"/><text fill="#000000" stroke="none" font-family="Arial" font-size="13px" font-style="normal" font-weight="normal" text-decoration="undefined" x="653" y="194.5" text-anchor="start" dominant-baseline="central" transform="matrix(1 0 0 1 -38 -38)">-escuchas</text></g></g><g><g><path fill="none" stroke="none"/><text fill="#000000" stroke="none" font-family="Arial" font-size="13px" font-style="normal" font-weight="normal" text-decoration="undefined" x="653" y="209.5" text-anchor="start" dominant-baseline="central" transform="matrix(1 0 0 1 -38 -38)">-likes</text></g></g><g><g><path fill="none" stroke="none"/><text fill="#000000" stroke="none" font-family="Arial" font-size="13px" font-style="normal" font-weight="normal" text-decoration="undefined" x="653" y="224.5" text-anchor="start" dominant-baseline="central" transform="matrix(1 0 0 1 -38 -38)">-descripción</text></g></g><g><g><path fill="none" stroke="none"/><text fill="#000000" stroke="none" font-family="Arial" font-size="13px" font-style="normal" font-weight="normal" text-decoration="undefined" x="653" y="239.5" text-anchor="start" dominant-baseline="central" transform="matrix(1 0 0 1 -38 -38)">-foto</text></g></g><g><g><path fill="none" stroke="none"/><text fill="#000000" stroke="none" font-family="Arial" font-size="13px" font-style="normal" font-weight="normal" text-decoration="undefined" x="653" y="254.5" text-anchor="start" dominant-baseline="central" transform="matrix(1 0 0 1 -38 -38)">-nombre</text></g></g><g><g><path fill="none" stroke="none"/><text fill="#000000" stroke="none" font-family="Arial" font-size="13px" font-style="normal" font-weight="normal" text-decoration="undefined" x="653" y="277.5" text-anchor="start" dominant-baseline="central" transform="matrix(1 0 0 1 -38 -38)">+obtenerEscuchas(): int</text></g></g><g><rect fill="#C0C0C0" stroke="none" x="887" y="415" width="98" height="166" transform="matrix(1 0 0 1 -38 -38)" fill-opacity="0.2"/></g><g><rect fill="#ffffff" stroke="none" x="880" y="408" width="98" height="166" transform="matrix(1 0 0 1 -38 -38)"/></g><g><path fill="none" stroke="#000000" paint-order="fill stroke markers" d=" M 842 370 L 940 370 L 940 536 L 842 536 L 842 370 Z Z" stroke-miterlimit="10" stroke-dasharray=""/></g><g><path fill="none" stroke="#000000" paint-order="fill stroke markers" d=" M 842 408 L 941 408" stroke-miterlimit="10" stroke-dasharray=""/></g><g><g><path fill="none" stroke="none"/><text fill="#000000" stroke="none" font-family="Arial" font-size="13px" font-style="normal" font-weight="normal" text-decoration="undefined" x="929.5" y="419.5" text-anchor="middle" dominant-baseline="central" transform="matrix(1 0 0 1 -38 -38)">«enumeration»</text></g></g><g><g><path fill="none" stroke="none"/><text fill="#000000" stroke="none" font-family="Arial" font-size="13px" font-style="normal" font-weight="bold" text-decoration="undefined" x="929.5" y="434.5" text-anchor="middle" dominant-baseline="central" transform="matrix(1 0 0 1 -38 -38)">Género</text></g></g><g><g><path fill="none" stroke="none"/><text fill="#000000" stroke="none" font-family="Arial" font-size="13px" font-style="normal" font-weight="normal" text-decoration="undefined" x="885" y="457.5" text-anchor="start" dominant-baseline="central" transform="matrix(1 0 0 1 -38 -38)">Pop</text></g></g><g><g><path fill="none" stroke="none"/><text fill="#000000" stroke="none" font-family="Arial" font-size="13px" font-style="normal" font-weight="normal" text-decoration="undefined" x="885" y="472.5" text-anchor="start" dominant-baseline="central" transform="matrix(1 0 0 1 -38 -38)">Rock</text></g></g><g><g><path fill="none" stroke="none"/><text fill="#000000" stroke="none" font-family="Arial" font-size="13px" font-style="normal" font-weight="normal" text-decoration="undefined" x="885" y="487.5" text-anchor="start" dominant-baseline="central" transform="matrix(1 0 0 1 -38 -38)">Reggaeton</text></g></g><g><g><path fill="none" stroke="none"/><text fill="#000000" stroke="none" font-family="Arial" font-size="13px" font-style="normal" font-weight="normal" text-decoration="undefined" x="885" y="502.5" text-anchor="start" dominant-baseline="central" transform="matrix(1 0 0 1 -38 -38)">Kpop</text></g></g><g><g><path fill="none" stroke="none"/><text fill="#000000" stroke="none" font-family="Arial" font-size="13px" font-style="normal" font-weight="normal" text-decoration="undefined" x="885" y="517.5" text-anchor="start" dominant-baseline="central" transform="matrix(1 0 0 1 -38 -38)">Metal</text></g></g><g><g><path fill="none" stroke="none"/><text fill="#000000" stroke="none" font-family="Arial" font-size="13px" font-style="normal" font-weight="normal" text-decoration="undefined" x="885" y="532.5" text-anchor="start" dominant-baseline="central" transform="matrix(1 0 0 1 -38 -38)">Rap</text></g></g><g><g><path fill="none" stroke="none"/><text fill="#000000" stroke="none" font-family="Arial" font-size="13px" font-style="normal" font-weight="normal" text-decoration="undefined" x="885" y="547.5" text-anchor="start" dominant-baseline="central" transform="matrix(1 0 0 1 -38 -38)">Electrohouse</text></g></g><g><g><path fill="none" stroke="none"/><text fill="#000000" stroke="none" font-family="Arial" font-size="13px" font-style="normal" font-weight="normal" text-decoration="undefined" x="885" y="562.5" text-anchor="start" dominant-baseline="central" transform="matrix(1 0 0 1 -38 -38)">Electrónica</text></g></g><g><rect fill="#C0C0C0" stroke="none" x="631" y="695" width="224.9951171875" height="191" transform="matrix(1 0 0 1 -38 -38)" fill-opacity="0.2"/></g><g><rect fill="#ffffff" stroke="none" x="624" y="688" width="224.9951171875" height="191" transform="matrix(1 0 0 1 -38 -38)"/></g><g><path fill="none" stroke="#000000" paint-order="fill stroke markers" d=" M 586 650 L 810.9951171875 650 L 810.9951171875 841 L 586 841 L 586 650 Z Z" stroke-miterlimit="10" stroke-dasharray=""/></g><g><path fill="none" stroke="#000000" paint-order="fill stroke markers" d=" M 586 675 L 811.9951171875 675" stroke-miterlimit="10" stroke-dasharray=""/></g><g><path fill="none" stroke="#000000" paint-order="fill stroke markers" d=" M 586 788 L 811.9951171875 788" stroke-miterlimit="10" stroke-dasharray=""/></g><g><g><path fill="none" stroke="none"/><text fill="#000000" stroke="none" font-family="Arial" font-size="13px" font-style="normal" font-weight="bold" text-decoration="undefined" x="736.99755859375" y="701.5" text-anchor="middle" dominant-baseline="central" transform="matrix(1 0 0 1 -38 -38)">Disco</text></g></g><g><g><path fill="none" stroke="none"/><text fill="#000000" stroke="none" font-family="Arial" font-size="13px" font-style="normal" font-weight="normal" text-decoration="undefined" x="629" y="724.5" text-anchor="start" dominant-baseline="central" transform="matrix(1 0 0 1 -38 -38)">-nombre</text></g></g><g><g><path fill="none" stroke="none"/><text fill="#000000" stroke="none" font-family="Arial" font-size="13px" font-style="normal" font-weight="normal" text-decoration="undefined" x="629" y="739.5" text-anchor="start" dominant-baseline="central" transform="matrix(1 0 0 1 -38 -38)">-duracion</text></g></g><g><g><path fill="none" stroke="none"/><text fill="#000000" stroke="none" font-family="Arial" font-size="13px" font-style="normal" font-weight="normal" text-decoration="undefined" x="629" y="754.5" text-anchor="start" dominant-baseline="central" transform="matrix(1 0 0 1 -38 -38)">-reproducciones</text></g></g><g><g><path fill="none" stroke="none"/><text fill="#000000" stroke="none" font-family="Arial" font-size="13px" font-style="normal" font-weight="normal" text-decoration="undefined" x="629" y="769.5" text-anchor="start" dominant-baseline="central" transform="matrix(1 0 0 1 -38 -38)">-likes</text></g></g><g><g><path fill="none" stroke="none"/><text fill="#000000" stroke="none" font-family="Arial" font-size="13px" font-style="normal" font-weight="normal" text-decoration="undefined" x="629" y="784.5" text-anchor="start" dominant-baseline="central" transform="matrix(1 0 0 1 -38 -38)">-descripcion</text></g></g><g><g><path fill="none" stroke="none"/><text fill="#000000" stroke="none" font-family="Arial" font-size="13px" font-style="normal" font-weight="normal" text-decoration="undefined" x="629" y="799.5" text-anchor="start" dominant-baseline="central" transform="matrix(1 0 0 1 -38 -38)">-foto</text></g></g><g><g><path fill="none" stroke="none"/><text fill="#000000" stroke="none" font-family="Arial" font-size="13px" font-style="normal" font-weight="normal" text-decoration="undefined" x="629" y="814.5" text-anchor="start" dominant-baseline="central" transform="matrix(1 0 0 1 -38 -38)">-valoracionMedia</text></g></g><g><g><path fill="none" stroke="none"/><text fill="#000000" stroke="none" font-family="Arial" font-size="13px" font-style="normal" font-weight="normal" text-decoration="undefined" x="629" y="837.5" text-anchor="start" dominant-baseline="central" transform="matrix(1 0 0 1 -38 -38)">+añadirReproducciones(): void</text></g></g><g><g><path fill="none" stroke="none"/><text fill="#000000" stroke="none" font-family="Arial" font-size="13px" font-style="normal" font-weight="normal" text-decoration="undefined" x="629" y="852.5" text-anchor="start" dominant-baseline="central" transform="matrix(1 0 0 1 -38 -38)">+obtenerReproducciones(): int</text></g></g><g><g><path fill="none" stroke="none"/><text fill="#000000" stroke="none" font-family="Arial" font-size="13px" font-style="normal" font-weight="normal" text-decoration="undefined" x="629" y="867.5" text-anchor="start" dominant-baseline="central" transform="matrix(1 0 0 1 -38 -38)">+añadirCancion(c: Cancion): boolean</text></g></g><g><path fill="none" stroke="#000000" paint-order="fill stroke markers" d=" M 204 273 L 194 170 L 305 170" stroke-miterlimit="10" stroke-dasharray=""/></g><g><path fill="none" stroke="#000000" paint-order="fill stroke markers" d=" M 294.83732514237585 174.209517756016 L 305 170 L 294.83732514237585 165.790482243984" stroke-miterlimit="10" stroke-dasharray=""/></g><g><rect fill="#ffffff" stroke="none" x="272" y="186" width="56" height="13" transform="matrix(1 0 0 1 -38 -38)"/></g><g><g><path fill="none" stroke="none"/><text fill="#000000" stroke="none" font-family="Arial" font-size="13px" font-style="normal" font-weight="normal" text-decoration="undefined" x="300" y="192.5" text-anchor="middle" dominant-baseline="central" transform="matrix(1 0 0 1 -38 -38)">-playlists</text></g></g><g><rect fill="#ffffff" stroke="none" x="311" y="214" width="20" height="13" transform="matrix(1 0 0 1 -38 -38)"/></g><g><g><path fill="none" stroke="none"/><text fill="#000000" stroke="none" font-family="Arial" font-size="13px" font-style="normal" font-weight="normal" text-decoration="undefined" x="321" y="220.5" text-anchor="middle" dominant-baseline="central" transform="matrix(1 0 0 1 -38 -38)">0..*</text></g></g><g><path fill="none" stroke="#000000" paint-order="fill stroke markers" d=" M 499 170 L 609 170" stroke-miterlimit="10" stroke-dasharray=""/></g><g><path fill="none" stroke="#000000" paint-order="fill stroke markers" d=" M 598.8373251423759 174.209517756016 L 609 170 L 598.8373251423758 165.790482243984" stroke-miterlimit="10" stroke-dasharray=""/></g><g><rect fill="#ffffff" stroke="none" x="576" y="186" width="67" height="13" transform="matrix(1 0 0 1 -38 -38)"/></g><g><g><path fill="none" stroke="none"/><text fill="#000000" stroke="none" font-family="Arial" font-size="13px" font-style="normal" font-weight="normal" text-decoration="undefined" x="609.5" y="192.5" text-anchor="middle" dominant-baseline="central" transform="matrix(1 0 0 1 -38 -38)">-canciones</text></g></g><g><rect fill="#ffffff" stroke="none" x="615" y="214" width="20" height="13" transform="matrix(1 0 0 1 -38 -38)"/></g><g><g><path fill="none" stroke="none"/><text fill="#000000" stroke="none" font-family="Arial" font-size="13px" font-style="normal" font-weight="normal" text-decoration="undefined" x="625" y="220.5" text-anchor="middle" dominant-baseline="central" transform="matrix(1 0 0 1 -38 -38)">1..*</text></g></g><g><path fill="none" stroke="#000000" paint-order="fill stroke markers" d=" M 795 170 L 890 170 L 891 369" stroke-miterlimit="10" stroke-dasharray=""/></g><g><path fill="none" stroke="#000000" paint-order="fill stroke markers" d=" M 886.7394673190131 358.85860654178913 L 891 369 L 895.1583965347891 358.81630036482545" stroke-miterlimit="10" stroke-dasharray=""/></g><g><rect fill="#ffffff" stroke="none" x="936" y="392" width="54" height="13" transform="matrix(1 0 0 1 -38 -38)"/></g><g><g><path fill="none" stroke="none"/><text fill="#000000" stroke="none" font-family="Arial" font-size="13px" font-style="normal" font-weight="normal" text-decoration="undefined" x="963" y="398.5" text-anchor="middle" dominant-baseline="central" transform="matrix(1 0 0 1 -38 -38)">-géneros</text></g></g><g><rect fill="#ffffff" stroke="none" x="896" y="391" width="20" height="13" transform="matrix(1 0 0 1 -38 -38)"/></g><g><g><path fill="none" stroke="none"/><text fill="#000000" stroke="none" font-family="Arial" font-size="13px" font-style="normal" font-weight="normal" text-decoration="undefined" x="906" y="397.5" text-anchor="middle" dominant-baseline="central" transform="matrix(1 0 0 1 -38 -38)">1..*</text></g></g><g><path fill="none" stroke="#000000" paint-order="fill stroke markers" d=" M 204 526 L 198 593" stroke-miterlimit="10" stroke-dasharray=""/></g><g><path fill="none" stroke="#000000" paint-order="fill stroke markers" d=" M 194.71372353302218 582.5023627904853 L 198 593 L 203.09920208263028 583.2533011680621" stroke-miterlimit="10" stroke-dasharray=""/></g><g><rect fill="#ffffff" stroke="none" x="260" y="619" width="88" height="13" transform="matrix(1 0 0 1 -38 -38)"/></g><g><g><path fill="none" stroke="none"/><text fill="#000000" stroke="none" font-family="Arial" font-size="13px" font-style="normal" font-weight="normal" text-decoration="undefined" x="304" y="625.5" text-anchor="middle" dominant-baseline="central" transform="matrix(1 0 0 1 -38 -38)">-suscripciones</text></g></g><g><rect fill="#ffffff" stroke="none" x="209" y="586" width="20" height="13" transform="matrix(1 0 0 1 -38 -38)"/></g><g><g><path fill="none" stroke="none"/><text fill="#000000" stroke="none" font-family="Arial" font-size="13px" font-style="normal" font-weight="normal" text-decoration="undefined" x="219" y="592.5" text-anchor="middle" dominant-baseline="central" transform="matrix(1 0 0 1 -38 -38)">0..*</text></g></g><g><path fill="none" stroke="#000000" paint-order="fill stroke markers" d=" M 701 252 L 699 649" stroke-miterlimit="10" stroke-dasharray=""/></g><g><rect fill="#ffffff" stroke="none" x="630" y="352" width="100" height="13" transform="matrix(1 0 0 1 -38 -38)"/></g><g><g><path fill="none" stroke="none"/><text fill="#000000" stroke="none" font-family="Arial" font-size="13px" font-style="normal" font-weight="normal" text-decoration="undefined" x="680" y="358.5" text-anchor="middle" dominant-baseline="central" transform="matrix(1 0 0 1 -38 -38)">-cancionesDisco</text></g></g><g><rect fill="#ffffff" stroke="none" x="750" y="353" width="20" height="13" transform="matrix(1 0 0 1 -38 -38)"/></g><g><g><path fill="none" stroke="none"/><text fill="#000000" stroke="none" font-family="Arial" font-size="13px" font-style="normal" font-weight="normal" text-decoration="undefined" x="760" y="359.5" text-anchor="middle" dominant-baseline="central" transform="matrix(1 0 0 1 -38 -38)">1..*</text></g></g><g><rect fill="#ffffff" stroke="none" x="745" y="663" width="48" height="13" transform="matrix(1 0 0 1 -38 -38)"/></g><g><g><path fill="none" stroke="none"/><text fill="#000000" stroke="none" font-family="Arial" font-size="13px" font-style="normal" font-weight="normal" text-decoration="undefined" x="769" y="669.5" text-anchor="middle" dominant-baseline="central" transform="matrix(1 0 0 1 -38 -38)">-discos</text></g></g><g><rect fill="#ffffff" stroke="none" x="696" y="680" width="20" height="13" transform="matrix(1 0 0 1 -38 -38)"/></g><g><g><path fill="none" stroke="none"/><text fill="#000000" stroke="none" font-family="Arial" font-size="13px" font-style="normal" font-weight="normal" text-decoration="undefined" x="706" y="686.5" text-anchor="middle" dominant-baseline="central" transform="matrix(1 0 0 1 -38 -38)">0..*</text></g></g><g><rect fill="#C0C0C0" stroke="none" x="79" y="135" width="112" height="56" transform="matrix(1 0 0 1 -38 -38)" fill-opacity="0.2"/></g><g><rect fill="#ffffff" stroke="none" x="72" y="128" width="112" height="56" transform="matrix(1 0 0 1 -38 -38)"/></g><g><path fill="none" stroke="#000000" paint-order="fill stroke markers" d=" M 34 90 L 146 90 L 146 146 L 34 146 L 34 90 Z Z" stroke-miterlimit="10" stroke-dasharray=""/></g><g><path fill="none" stroke="#000000" paint-order="fill stroke markers" d=" M 34 115 L 147 115" stroke-miterlimit="10" stroke-dasharray=""/></g><g><g><path fill="none" stroke="none"/><text fill="#000000" stroke="none" font-family="Arial" font-size="13px" font-style="normal" font-weight="bold" text-decoration="undefined" x="128.5" y="141.5" text-anchor="middle" dominant-baseline="central" transform="matrix(1 0 0 1 -38 -38)">Usuario</text></g></g><g><path fill="none" stroke="#000000" paint-order="fill stroke markers" d=" M 160 273 L 103 147" stroke-miterlimit="10" stroke-dasharray=""/></g><g><path fill="#FFFFFF" stroke="none" paint-order="stroke fill markers" d=" M 119.0481060538707 162.04853122679148 L 103 147 L 103.7068061385311 168.98864309325464"/></g><g><path fill="none" stroke="#000000" paint-order="fill stroke markers" d=" M 119.0481060538707 162.04853122679148 L 103 147 L 103.7068061385311 168.98864309325464 L 119.0481060538707 162.04853122679148" stroke-miterlimit="10" stroke-dasharray=""/></g><g><g><path fill="none" stroke="none"/><text fill="#000000" stroke="none" font-family="Helvetica" font-size="28px" font-style="normal" font-weight="normal" text-decoration="undefined" x="317" y="53" text-anchor="start" dominant-baseline="text-before-edge" transform="matrix(1 0 0 1 -38 -38)">Oyente - Lucía Fernández</text></g></g><g><rect fill="#C0C0C0" stroke="none" x="79" y="639" width="299.42138671875" height="296" transform="matrix(1 0 0 1 -38 -38)" fill-opacity="0.2"/></g><g><rect fill="#ffffff" stroke="none" x="72" y="632" width="299.42138671875" height="296" transform="matrix(1 0 0 1 -38 -38)"/></g><g><path fill="none" stroke="#000000" paint-order="fill stroke markers" d=" M 34 594 L 333.42138671875 594 L 333.42138671875 890 L 34 890 L 34 594 Z Z" stroke-miterlimit="10" stroke-dasharray=""/></g><g><path fill="none" stroke="#000000" paint-order="fill stroke markers" d=" M 34 619 L 334.42138671875 619" stroke-miterlimit="10" stroke-dasharray=""/></g><g><path fill="none" stroke="#000000" paint-order="fill stroke markers" d=" M 34 717 L 334.42138671875 717" stroke-miterlimit="10" stroke-dasharray=""/></g><g><g><path fill="none" stroke="none"/><text fill="#000000" stroke="none" font-family="Arial" font-size="13px" font-style="normal" font-weight="bold" text-decoration="undefined" x="222.210693359375" y="645.5" text-anchor="middle" dominant-baseline="central" transform="matrix(1 0 0 1 -38 -38)">Artista</text></g></g><g><g><path fill="none" stroke="none"/><text fill="#000000" stroke="none" font-family="Arial" font-size="13px" font-style="normal" font-weight="normal" text-decoration="undefined" x="77" y="668.5" text-anchor="start" dominant-baseline="central" transform="matrix(1 0 0 1 -38 -38)">-nombreArtistico</text></g></g><g><g><path fill="none" stroke="none"/><text fill="#000000" stroke="none" font-family="Arial" font-size="13px" font-style="normal" font-weight="normal" text-decoration="undefined" x="77" y="683.5" text-anchor="start" dominant-baseline="central" transform="matrix(1 0 0 1 -38 -38)">-verificado: boolean</text></g></g><g><g><path fill="none" stroke="none"/><text fill="#000000" stroke="none" font-family="Arial" font-size="13px" font-style="normal" font-weight="normal" text-decoration="undefined" x="77" y="698.5" text-anchor="start" dominant-baseline="central" transform="matrix(1 0 0 1 -38 -38)">-banner</text></g></g><g><g><path fill="none" stroke="none"/><text fill="#000000" stroke="none" font-family="Arial" font-size="13px" font-style="normal" font-weight="normal" text-decoration="undefined" x="77" y="713.5" text-anchor="start" dominant-baseline="central" transform="matrix(1 0 0 1 -38 -38)">-fotos: Image[*]</text></g></g><g><g><path fill="none" stroke="none"/><text fill="#000000" stroke="none" font-family="Arial" font-size="13px" font-style="normal" font-weight="normal" text-decoration="undefined" x="77" y="728.5" text-anchor="start" dominant-baseline="central" transform="matrix(1 0 0 1 -38 -38)">-información</text></g></g><g><g><path fill="none" stroke="none"/><text fill="#000000" stroke="none" font-family="Arial" font-size="13px" font-style="normal" font-weight="normal" text-decoration="undefined" x="77" y="743.5" text-anchor="start" dominant-baseline="central" transform="matrix(1 0 0 1 -38 -38)">-escuchasMensuales</text></g></g><g><g><path fill="none" stroke="none"/><text fill="#000000" stroke="none" font-family="Arial" font-size="13px" font-style="normal" font-weight="normal" text-decoration="undefined" x="77" y="766.5" text-anchor="start" dominant-baseline="central" transform="matrix(1 0 0 1 -38 -38)">+publicarCancion(c: Cancion): boolean</text></g></g><g><g><path fill="none" stroke="none"/><text fill="#000000" stroke="none" font-family="Arial" font-size="13px" font-style="normal" font-weight="normal" text-decoration="undefined" x="77" y="781.5" text-anchor="start" dominant-baseline="central" transform="matrix(1 0 0 1 -38 -38)">+modificarCancion(c: Cancion): boolean</text></g></g><g><g><path fill="none" stroke="none"/><text fill="#000000" stroke="none" font-family="Arial" font-size="13px" font-style="normal" font-weight="normal" text-decoration="undefined" x="77" y="796.5" text-anchor="start" dominant-baseline="central" transform="matrix(1 0 0 1 -38 -38)">+borrarCancion(c: Cancion): boolean</text></g></g><g><g><path fill="none" stroke="none"/><text fill="#000000" stroke="none" font-family="Arial" font-size="13px" font-style="normal" font-weight="normal" text-decoration="undefined" x="77" y="811.5" text-anchor="start" dominant-baseline="central" transform="matrix(1 0 0 1 -38 -38)">+agregarDisco(d: Disco): boolean</text></g></g><g><g><path fill="none" stroke="none"/><text fill="#000000" stroke="none" font-family="Arial" font-size="13px" font-style="normal" font-weight="normal" text-decoration="undefined" x="77" y="826.5" text-anchor="start" dominant-baseline="central" transform="matrix(1 0 0 1 -38 -38)">+eliminarDisco(d: Disco): boolean</text></g></g><g><g><path fill="none" stroke="none"/><text fill="#000000" stroke="none" font-family="Arial" font-size="13px" font-style="normal" font-weight="normal" text-decoration="undefined" x="77" y="841.5" text-anchor="start" dominant-baseline="central" transform="matrix(1 0 0 1 -38 -38)">+verReproduccionesDisco(d: disco): int</text></g></g><g><g><path fill="none" stroke="none"/><text fill="#000000" stroke="none" font-family="Arial" font-size="13px" font-style="normal" font-weight="normal" text-decoration="undefined" x="77" y="856.5" text-anchor="start" dominant-baseline="central" transform="matrix(1 0 0 1 -38 -38)">+verEscuchasCancion(c: Cancion): int</text></g></g><g><g><path fill="none" stroke="none"/><text fill="#000000" stroke="none" font-family="Arial" font-size="13px" font-style="normal" font-weight="normal" text-decoration="undefined" x="77" y="871.5" text-anchor="start" dominant-baseline="central" transform="matrix(1 0 0 1 -38 -38)">+calculaEscuchasPromedio(): int</text></g></g><g><path fill="none" stroke="#000000" paint-order="fill stroke markers" d=" M 334 743 L 585 744" stroke-miterlimit="10" stroke-dasharray=""/></g><g><rect fill="#ffffff" stroke="none" x="375" y="760" width="46.22998046875" height="13" transform="matrix(1 0 0 1 -38 -38)"/></g><g><g><path fill="none" stroke="none"/><text fill="#000000" stroke="none" font-family="Arial" font-size="13px" font-style="normal" font-weight="normal" text-decoration="undefined" x="398.114990234375" y="766.5" text-anchor="middle" dominant-baseline="central" transform="matrix(1 0 0 1 -38 -38)">-artistas</text></g></g><g><rect fill="#ffffff" stroke="none" x="384" y="787" width="19.5126953125" height="13" transform="matrix(1 0 0 1 -38 -38)"/></g><g><g><path fill="none" stroke="none"/><text fill="#000000" stroke="none" font-family="Arial" font-size="13px" font-style="normal" font-weight="normal" text-decoration="undefined" x="393.75634765625" y="793.5" text-anchor="middle" dominant-baseline="central" transform="matrix(1 0 0 1 -38 -38)">1..*</text></g></g><g><rect fill="#ffffff" stroke="none" x="577" y="760" width="41.17724609375" height="13" transform="matrix(1 0 0 1 -38 -38)"/></g><g><g><path fill="none" stroke="none"/><text fill="#000000" stroke="none" font-family="Arial" font-size="13px" font-style="normal" font-weight="normal" text-decoration="undefined" x="597.588623046875" y="766.5" text-anchor="middle" dominant-baseline="central" transform="matrix(1 0 0 1 -38 -38)">-discos</text></g></g><g><rect fill="#ffffff" stroke="none" x="598" y="788" width="6.5" height="13" transform="matrix(1 0 0 1 -38 -38)"/></g><g><g><path fill="none" stroke="none"/><text fill="#000000" stroke="none" font-family="Arial" font-size="13px" font-style="normal" font-weight="normal" text-decoration="undefined" x="601.25" y="794.5" text-anchor="middle" dominant-baseline="central" transform="matrix(1 0 0 1 -38 -38)">*</text></g></g><g><path fill="none" stroke="#000000" paint-order="fill stroke markers" d=" M 318 593 L 628 252" stroke-miterlimit="10" stroke-dasharray=""/></g><g><rect fill="#ffffff" stroke="none" x="339" y="595" width="46.22998046875" height="13" transform="matrix(1 0 0 1 -38 -38)"/></g><g><g><path fill="none" stroke="none"/><text fill="#000000" stroke="none" font-family="Arial" font-size="13px" font-style="normal" font-weight="normal" text-decoration="undefined" x="362.114990234375" y="601.5" text-anchor="middle" dominant-baseline="central" transform="matrix(1 0 0 1 -38 -38)">-artistas</text></g></g><g><rect fill="#ffffff" stroke="none" x="370" y="617" width="19.5126953125" height="13" transform="matrix(1 0 0 1 -38 -38)"/></g><g><g><path fill="none" stroke="none"/><text fill="#000000" stroke="none" font-family="Arial" font-size="13px" font-style="normal" font-weight="normal" text-decoration="undefined" x="379.75634765625" y="623.5" text-anchor="middle" dominant-baseline="central" transform="matrix(1 0 0 1 -38 -38)">1..*</text></g></g><g><rect fill="#ffffff" stroke="none" x="584" y="296" width="62.8671875" height="13" transform="matrix(1 0 0 1 -38 -38)"/></g><g><g><path fill="none" stroke="none"/><text fill="#000000" stroke="none" font-family="Arial" font-size="13px" font-style="normal" font-weight="normal" text-decoration="undefined" x="615.43359375" y="302.5" text-anchor="middle" dominant-baseline="central" transform="matrix(1 0 0 1 -38 -38)">-canciones</text></g></g><g><rect fill="#ffffff" stroke="none" x="651" y="308" width="19.5126953125" height="13" transform="matrix(1 0 0 1 -38 -38)"/></g><g><g><path fill="none" stroke="none"/><text fill="#000000" stroke="none" font-family="Arial" font-size="13px" font-style="normal" font-weight="normal" text-decoration="undefined" x="660.75634765625" y="314.5" text-anchor="middle" dominant-baseline="central" transform="matrix(1 0 0 1 -38 -38)">0..*</text></g></g></g></svg>