<svg version="1.1" xmlns="http://www.w3.org/2000/svg" xmlns:xlink="http://www.w3.org/1999/xlink" width="1188" height="949"><defs/><g><g><path fill="#C0C0C0" stroke="none" paint-order="stroke fill markers" d=" M 17 126 C 17 119.3725824 22.3725824 114 29 114 C 35.6274176 114 41 119.3725824 41 126 C 41 132.6274176 35.6274176 138 29 138 C 22.3725824 138 17 132.6274176 17 126 Z" fill-opacity="0.2"/></g><g><path fill="#000000" stroke="none" paint-order="stroke fill markers" d=" M 10 119 C 10 112.3725824 15.372582399999999 107 22 107 C 28.6274176 107 34 112.3725824 34 119 C 34 125.6274176 28.6274176 131 22 131 C 15.372582399999999 131 10 125.6274176 10 119 Z"/></g><g><path fill="#C0C0C0" stroke="none" paint-order="stroke fill markers" d=" M 187 90 L 479 90 Q 489 90 489 100 L 489 152 Q 489 162 479 162 L 187 162 Q 177 162 177 152 L 177 100 Q 177 90 187 90 Z" fill-opacity="0.2"/></g><g><path fill="#ffffff" stroke="none" paint-order="stroke fill markers" d=" M 180 83 L 472 83 Q 482 83 482 93 L 482 145 Q 482 155 472 155 L 180 155 Q 170 155 170 145 L 170 93 Q 170 83 180 83 Z"/></g><g><path fill="none" stroke="#000000" paint-order="fill stroke markers" d=" M 180 83 L 472 83 Q 482 83 482 93 L 482 145 Q 482 155 472 155 L 180 155 Q 170 155 170 145 L 170 93 Q 170 83 180 83 Z" stroke-miterlimit="10" stroke-dasharray=""/></g><g><g><path fill="none" stroke="none"/><text fill="#000000" stroke="none" font-family="Arial" font-size="13px" font-style="normal" font-weight="bold" text-decoration="undefined" x="332.5" y="149.5" text-anchor="middle" dominant-baseline="central" transform="matrix(1 0 0 1 -6 -53)">Con plazas libres</text></g></g><g><path fill="none" stroke="#000000" paint-order="fill stroke markers" d=" M 35 119 L 169 119" stroke-miterlimit="10" stroke-dasharray=""/></g><g><path fill="none" stroke="#000000" paint-order="fill stroke markers" d=" M 158.83732514237585 123.209517756016 L 169 119 L 158.83732514237585 114.790482243984" stroke-miterlimit="10" stroke-dasharray=""/></g><g><rect fill="#ffffff" stroke="none" x="51" y="151" width="115.63525390625" height="13" transform="matrix(1 0 0 1 -6 -53)"/></g><g><g><path fill="none" stroke="none"/><text fill="#000000" stroke="none" font-family="Arial" font-size="13px" font-style="normal" font-weight="normal" text-decoration="undefined" x="108.817626953125" y="157.5" text-anchor="middle" dominant-baseline="central" transform="matrix(1 0 0 1 -6 -53)"> / aforoActual = 0</text></g></g><g><path fill="none" stroke="#000000" paint-order="fill stroke markers" d=" M 202 83 L 202 35 L 298 35 L 298 83" stroke-miterlimit="10" stroke-dasharray=""/></g><g><path fill="none" stroke="#000000" paint-order="fill stroke markers" d=" M 293.790482243984 72.83732514237585 L 298 83 L 302.209517756016 72.83732514237585" stroke-miterlimit="10" stroke-dasharray=""/></g><g><rect fill="#ffffff" stroke="none" x="64" y="63" width="263.05322265625" height="13" transform="matrix(1 0 0 1 -6 -53)"/></g><g><g><path fill="none" stroke="none"/><text fill="#000000" stroke="none" font-family="Arial" font-size="13px" font-style="normal" font-weight="normal" text-decoration="undefined" x="195.526611328125" y="69.5" text-anchor="middle" dominant-baseline="central" transform="matrix(1 0 0 1 -6 -53)">apuntarOyente(o:Oyente) / aforoActual++</text></g></g><g><path fill="none" stroke="#000000" paint-order="fill stroke markers" d=" M 362 83 L 362 35 L 458 35 L 458 83" stroke-miterlimit="10" stroke-dasharray=""/></g><g><path fill="none" stroke="#000000" paint-order="fill stroke markers" d=" M 453.790482243984 72.83732514237585 L 458 83 L 462.209517756016 72.83732514237585" stroke-miterlimit="10" stroke-dasharray=""/></g><g><rect fill="#ffffff" stroke="none" x="328" y="64" width="284.01318359375" height="13" transform="matrix(1 0 0 1 -6 -53)"/></g><g><g><path fill="none" stroke="none"/><text fill="#000000" stroke="none" font-family="Arial" font-size="13px" font-style="normal" font-weight="normal" text-decoration="undefined" x="470.006591796875" y="70.5" text-anchor="middle" dominant-baseline="central" transform="matrix(1 0 0 1 -6 -53)">desapuntarOyente(o:Oyente) / aforoActual--</text></g></g><g><path fill="#C0C0C0" stroke="none" paint-order="stroke fill markers" d=" M 771 90 L 919 90 Q 929 90 929 100 L 929 152 Q 929 162 919 162 L 771 162 Q 761 162 761 152 L 761 100 Q 761 90 771 90 Z" fill-opacity="0.2"/></g><g><path fill="#ffffff" stroke="none" paint-order="stroke fill markers" d=" M 764 83 L 912 83 Q 922 83 922 93 L 922 145 Q 922 155 912 155 L 764 155 Q 754 155 754 145 L 754 93 Q 754 83 764 83 Z"/></g><g><path fill="none" stroke="#000000" paint-order="fill stroke markers" d=" M 764 83 L 912 83 Q 922 83 922 93 L 922 145 Q 922 155 912 155 L 764 155 Q 754 155 754 145 L 754 93 Q 754 83 764 83 Z" stroke-miterlimit="10" stroke-dasharray=""/></g><g><g><path fill="none" stroke="none"/><text fill="#000000" stroke="none" font-family="Arial" font-size="13px" font-style="normal" font-weight="bold" text-decoration="undefined" x="844.5" y="149.5" text-anchor="middle" dominant-baseline="central" transform="matrix(1 0 0 1 -6 -53)">Sin plazas libres</text></g></g><g><path fill="none" stroke="#000000" paint-order="fill stroke markers" d=" M 483 119 L 753 119" stroke-miterlimit="10" stroke-dasharray=""/></g><g><path fill="none" stroke="#000000" paint-order="fill stroke markers" d=" M 742.8373251423759 123.209517756016 L 753 119 L 742.8373251423758 114.790482243984" stroke-miterlimit="10" stroke-dasharray=""/></g><g><rect fill="#ffffff" stroke="none" x="531" y="151" width="186.42431640625" height="13" transform="matrix(1 0 0 1 -6 -53)"/></g><g><g><path fill="none" stroke="none"/><text fill="#000000" stroke="none" font-family="Arial" font-size="13px" font-style="normal" font-weight="normal" text-decoration="undefined" x="624.212158203125" y="157.5" text-anchor="middle" dominant-baseline="central" transform="matrix(1 0 0 1 -6 -53)">when(aforoActual == aforoMax)</text></g></g><g><path fill="none" stroke="#000000" paint-order="fill stroke markers" d=" M 786 156 L 754 179 L 434 179 L 393 156" stroke-miterlimit="10" stroke-dasharray=""/></g><g><path fill="none" stroke="#000000" paint-order="fill stroke markers" d=" M 403.9228168195706 157.30079695806293 L 393 156 L 399.8037954927837 164.64340019276997" stroke-miterlimit="10" stroke-dasharray=""/></g><g><rect fill="#ffffff" stroke="none" x="457" y="241" width="284.01318359375" height="13" transform="matrix(1 0 0 1 -6 -53)"/></g><g><g><path fill="none" stroke="none"/><text fill="#000000" stroke="none" font-family="Arial" font-size="13px" font-style="normal" font-weight="normal" text-decoration="undefined" x="599.006591796875" y="247.5" text-anchor="middle" dominant-baseline="central" transform="matrix(1 0 0 1 -6 -53)">desapuntarOyente(o:Oyente) / aforoActual--</text></g></g><g><path fill="#C0C0C0" stroke="none" paint-order="stroke fill markers" d=" M 523 394 L 687 394 Q 697 394 697 404 L 697 448 Q 697 458 687 458 L 523 458 Q 513 458 513 448 L 513 404 Q 513 394 523 394 Z" fill-opacity="0.2"/></g><g><path fill="#ffffff" stroke="none" paint-order="stroke fill markers" d=" M 516 387 L 680 387 Q 690 387 690 397 L 690 441 Q 690 451 680 451 L 516 451 Q 506 451 506 441 L 506 397 Q 506 387 516 387 Z"/></g><g><path fill="none" stroke="#000000" paint-order="fill stroke markers" d=" M 516 387 L 680 387 Q 690 387 690 397 L 690 441 Q 690 451 680 451 L 516 451 Q 506 451 506 441 L 506 397 Q 506 387 516 387 Z" stroke-miterlimit="10" stroke-dasharray=""/></g><g><g><path fill="none" stroke="none"/><text fill="#000000" stroke="none" font-family="Arial" font-size="13px" font-style="normal" font-weight="bold" text-decoration="undefined" x="604.5" y="453.5" text-anchor="middle" dominant-baseline="central" transform="matrix(1 0 0 1 -6 -53)">Cancelado</text></g></g><g><path fill="none" stroke="#000000" paint-order="fill stroke markers" d=" M 360 156 L 568 386" stroke-miterlimit="10" stroke-dasharray=""/></g><g><path fill="none" stroke="#000000" paint-order="fill stroke markers" d=" M 558.0612913103107 381.2859709821115 L 568 386 L 564.3055935745422 375.6389498040239" stroke-miterlimit="10" stroke-dasharray=""/></g><g><rect fill="#ffffff" stroke="none" x="379" y="334" width="98.26806640625" height="13" transform="matrix(1 0 0 1 -6 -53)"/></g><g><g><path fill="none" stroke="none"/><text fill="#000000" stroke="none" font-family="Arial" font-size="13px" font-style="normal" font-weight="normal" text-decoration="undefined" x="428.134033203125" y="340.5" text-anchor="middle" dominant-baseline="central" transform="matrix(1 0 0 1 -6 -53)">cancelarEvento()</text></g></g><g><path fill="none" stroke="#000000" paint-order="fill stroke markers" d=" M 808 156 L 624 386" stroke-miterlimit="10" stroke-dasharray=""/></g><g><path fill="none" stroke="#000000" paint-order="fill stroke markers" d=" M 627.0614915349942 375.4346192883948 L 624 386 L 633.6356537719332 380.693949077946" stroke-miterlimit="10" stroke-dasharray=""/></g><g><rect fill="#ffffff" stroke="none" x="722" y="338" width="98.26806640625" height="13" transform="matrix(1 0 0 1 -6 -53)"/></g><g><g><path fill="none" stroke="none"/><text fill="#000000" stroke="none" font-family="Arial" font-size="13px" font-style="normal" font-weight="normal" text-decoration="undefined" x="771.134033203125" y="344.5" text-anchor="middle" dominant-baseline="central" transform="matrix(1 0 0 1 -6 -53)">cancelarEvento()</text></g></g><g><path fill="#C0C0C0" stroke="none" paint-order="stroke fill markers" d=" M 531 602 L 687 602 Q 697 602 697 612 L 697 656 Q 697 666 687 666 L 531 666 Q 521 666 521 656 L 521 612 Q 521 602 531 602 Z" fill-opacity="0.2"/></g><g><path fill="#ffffff" stroke="none" paint-order="stroke fill markers" d=" M 524 595 L 680 595 Q 690 595 690 605 L 690 649 Q 690 659 680 659 L 524 659 Q 514 659 514 649 L 514 605 Q 514 595 524 595 Z"/></g><g><path fill="none" stroke="#000000" paint-order="fill stroke markers" d=" M 524 595 L 680 595 Q 690 595 690 605 L 690 649 Q 690 659 680 659 L 524 659 Q 514 659 514 649 L 514 605 Q 514 595 524 595 Z" stroke-miterlimit="10" stroke-dasharray=""/></g><g><path fill="none" stroke="#000000" paint-order="fill stroke markers" d=" M 514 620 L 691 620" stroke-miterlimit="10" stroke-dasharray=""/></g><g><g><path fill="none" stroke="none"/><text fill="#000000" stroke="none" font-family="Arial" font-size="13px" font-style="normal" font-weight="bold" text-decoration="undefined" x="608.5" y="661.5" text-anchor="middle" dominant-baseline="central" transform="matrix(1 0 0 1 -6 -53)">RealizandoEvento</text></g></g><g><g><path fill="none" stroke="none"/><text fill="#000000" stroke="none" font-family="Arial" font-size="13px" font-style="normal" font-weight="normal" text-decoration="undefined" x="525" y="684.5" text-anchor="start" dominant-baseline="central" transform="matrix(1 0 0 1 -6 -53)">entry/iniciarEvento()</text></g></g><g><g><path fill="none" stroke="none"/><text fill="#000000" stroke="none" font-family="Arial" font-size="13px" font-style="normal" font-weight="normal" text-decoration="undefined" x="525" y="699.5" text-anchor="start" dominant-baseline="central" transform="matrix(1 0 0 1 -6 -53)">exit/finalizaEvento()</text></g></g><g><path fill="#C0C0C0" stroke="none" paint-order="stroke fill markers" d=" M 321 427.5 L 332.5 418 L 344 427.5 L 332.5 437 L 321 427.5" fill-opacity="0.2"/></g><g><path fill="#ffffff" stroke="none" paint-order="stroke fill markers" d=" M 314 420.5 L 325.5 411 L 337 420.5 L 325.5 430 L 314 420.5"/></g><g><path fill="none" stroke="#000000" paint-order="fill stroke markers" d=" M 314 420.5 L 325.5 411 L 337 420.5 L 325.5 430 L 314 420.5 L 314 420.5" stroke-miterlimit="10" stroke-dasharray=""/></g><g><path fill="none" stroke="#000000" paint-order="fill stroke markers" d=" M 326 156 L 325 410" stroke-miterlimit="10" stroke-dasharray=""/></g><g><path fill="none" stroke="#000000" paint-order="fill stroke markers" d=" M 320.8305250882895 399.8208311262355 L 325 410 L 329.24949535342427 399.8539766784604" stroke-miterlimit="10" stroke-dasharray=""/></g><g><rect fill="#ffffff" stroke="none" x="237" y="335" width="80.92626953125" height="13" transform="matrix(1 0 0 1 -6 -53)"/></g><g><g><path fill="none" stroke="none"/><text fill="#000000" stroke="none" font-family="Arial" font-size="13px" font-style="normal" font-weight="normal" text-decoration="undefined" x="277.463134765625" y="341.5" text-anchor="middle" dominant-baseline="central" transform="matrix(1 0 0 1 -6 -53)">at(fechainicio)</text></g></g><g><path fill="none" stroke="#000000" paint-order="fill stroke markers" d=" M 338 420 L 505 419" stroke-miterlimit="10" stroke-dasharray=""/></g><g><path fill="none" stroke="#000000" paint-order="fill stroke markers" d=" M 494.8627135773513 423.2702955383887 L 505 419 L 494.8123010948495 414.85141096058015" stroke-miterlimit="10" stroke-dasharray=""/></g><g><rect fill="#ffffff" stroke="none" x="344" y="450" width="141.99072265625" height="13" transform="matrix(1 0 0 1 -6 -53)"/></g><g><g><path fill="none" stroke="none"/><text fill="#000000" stroke="none" font-family="Arial" font-size="13px" font-style="normal" font-weight="normal" text-decoration="undefined" x="414.995361328125" y="456.5" text-anchor="middle" dominant-baseline="central" transform="matrix(1 0 0 1 -6 -53)"> [aforoActual &lt; aforoMin]</text></g></g><g><path fill="none" stroke="#000000" paint-order="fill stroke markers" d=" M 325 431 L 322 627 L 513 627" stroke-miterlimit="10" stroke-dasharray=""/></g><g><path fill="none" stroke="#000000" paint-order="fill stroke markers" d=" M 502.83732514237585 631.209517756016 L 513 627 L 502.83732514237585 622.790482243984" stroke-miterlimit="10" stroke-dasharray=""/></g><g><rect fill="#ffffff" stroke="none" x="344" y="656" width="149.58251953125" height="13" transform="matrix(1 0 0 1 -6 -53)"/></g><g><g><path fill="none" stroke="none"/><text fill="#000000" stroke="none" font-family="Arial" font-size="13px" font-style="normal" font-weight="normal" text-decoration="undefined" x="418.791259765625" y="662.5" text-anchor="middle" dominant-baseline="central" transform="matrix(1 0 0 1 -6 -53)"> [aforoActual &gt;= aforoMin]</text></g></g><g><path fill="none" stroke="#000000" paint-order="fill stroke markers" d=" M 838 156 L 834 627 L 691 627" stroke-miterlimit="10" stroke-dasharray=""/></g><g><path fill="none" stroke="#000000" paint-order="fill stroke markers" d=" M 701.1626748576241 622.790482243984 L 691 627 L 701.1626748576241 631.209517756016" stroke-miterlimit="10" stroke-dasharray=""/></g><g><rect fill="#ffffff" stroke="none" x="848" y="440" width="81.64990234375" height="13" transform="matrix(1 0 0 1 -6 -53)"/></g><g><g><path fill="none" stroke="none"/><text fill="#000000" stroke="none" font-family="Arial" font-size="13px" font-style="normal" font-weight="normal" text-decoration="undefined" x="888.824951171875" y="446.5" text-anchor="middle" dominant-baseline="central" transform="matrix(1 0 0 1 -6 -53)">at(fechaInicio)</text></g></g><g><path fill="none" stroke="#000000" paint-order="fill stroke markers" d=" M 602 660 L 602 762" stroke-miterlimit="10" stroke-dasharray=""/></g><g><path fill="none" stroke="#000000" paint-order="fill stroke markers" d=" M 597.790482243984 751.8373251423759 L 602 762 L 606.209517756016 751.8373251423759" stroke-miterlimit="10" stroke-dasharray=""/></g><g><rect fill="#ffffff" stroke="none" x="448" y="751" width="148" height="13" transform="matrix(1 0 0 1 -6 -53)"/></g><g><g><path fill="none" stroke="none"/><text fill="#000000" stroke="none" font-family="Arial" font-size="13px" font-style="normal" font-weight="normal" text-decoration="undefined" x="522" y="757.5" text-anchor="middle" dominant-baseline="central" transform="matrix(1 0 0 1 -6 -53)">at(fechaFin) / archivar()</text></g></g><g><path fill="#C0C0C0" stroke="none" paint-order="stroke fill markers" d=" M 531 770 L 687 770 Q 697 770 697 780 L 697 824 Q 697 834 687 834 L 531 834 Q 521 834 521 824 L 521 780 Q 521 770 531 770 Z" fill-opacity="0.2"/></g><g><path fill="#ffffff" stroke="none" paint-order="stroke fill markers" d=" M 524 763 L 680 763 Q 690 763 690 773 L 690 817 Q 690 827 680 827 L 524 827 Q 514 827 514 817 L 514 773 Q 514 763 524 763 Z"/></g><g><path fill="none" stroke="#000000" paint-order="fill stroke markers" d=" M 524 763 L 680 763 Q 690 763 690 773 L 690 817 Q 690 827 680 827 L 524 827 Q 514 827 514 817 L 514 773 Q 514 763 524 763 Z" stroke-miterlimit="10" stroke-dasharray=""/></g><g><g><path fill="none" stroke="none"/><text fill="#000000" stroke="none" font-family="Arial" font-size="13px" font-style="normal" font-weight="bold" text-decoration="undefined" x="608.5" y="829.5" text-anchor="middle" dominant-baseline="central" transform="matrix(1 0 0 1 -6 -53)">Archivado</text></g></g><g><path fill="none" stroke="#000000" paint-order="fill stroke markers" d=" M 691 419 L 770 419 L 770 795 L 691 795" stroke-miterlimit="10" stroke-dasharray=""/></g><g><path fill="none" stroke="#000000" paint-order="fill stroke markers" d=" M 701.1626748576241 790.790482243984 L 691 795 L 701.1626748576241 799.209517756016" stroke-miterlimit="10" stroke-dasharray=""/></g><g><rect fill="#ffffff" stroke="none" x="712" y="591" width="54.89453125" height="13" transform="matrix(1 0 0 1 -6 -53)"/></g><g><g><path fill="none" stroke="none"/><text fill="#000000" stroke="none" font-family="Arial" font-size="13px" font-style="normal" font-weight="normal" text-decoration="undefined" x="739.447265625" y="597.5" text-anchor="middle" dominant-baseline="central" transform="matrix(1 0 0 1 -6 -53)">archivar()</text></g></g><g><path fill="#C0C0C0" stroke="none" paint-order="stroke fill markers" d=" M 593 930 C 593 921.1634432 600.1634432 914 609 914 C 617.8365568 914 625 921.1634432 625 930 C 625 938.8365568 617.8365568 946 609 946 C 600.1634432 946 593 938.8365568 593 930 Z" fill-opacity="0.2"/></g><g><path fill="none" stroke="#000000" paint-order="fill stroke markers" d=" M 586 923 C 586 914.1634432 593.1634432 907 602 907 C 610.8365568 907 618 914.1634432 618 923 C 618 931.8365568 610.8365568 939 602 939 C 593.1634432 939 586 931.8365568 586 923 Z" stroke-miterlimit="10" stroke-dasharray=""/></g><g><path fill="#000000" stroke="none" paint-order="stroke fill markers" d=" M 591 923 C 591 916.9248672 595.9248672 912 602 912 C 608.0751328 912 613 916.9248672 613 923 C 613 929.0751328 608.0751328 934 602 934 C 595.9248672 934 591 929.0751328 591 923 Z"/></g><g><path fill="none" stroke="#000000" paint-order="fill stroke markers" d=" M 602 828 L 602 906" stroke-miterlimit="10" stroke-dasharray=""/></g><g><path fill="none" stroke="#000000" paint-order="fill stroke markers" d=" M 597.790482243984 895.8373251423759 L 602 906 L 606.209517756016 895.8373251423759" stroke-miterlimit="10" stroke-dasharray=""/></g><g><rect fill="#ffffff" stroke="none" x="616" y="913" width="80.9326171875" height="13" transform="matrix(1 0 0 1 -6 -53)"/></g><g><g><path fill="none" stroke="none"/><text fill="#000000" stroke="none" font-family="Arial" font-size="13px" font-style="normal" font-weight="normal" text-decoration="undefined" x="656.46630859375" y="919.5" text-anchor="middle" dominant-baseline="central" transform="matrix(1 0 0 1 -6 -53)">after(10 a침os)</text></g></g><g><g><path fill="none" stroke="none"/><text fill="#000000" stroke="none" font-family="Arial" font-size="20px" font-style="normal" font-weight="normal" text-decoration="undefined" x="973" y="453" text-anchor="start" dominant-baseline="text-before-edge" transform="matrix(1 0 0 1 -6 -53)">Gabriel G칩mez</text></g></g><g><g><path fill="none" stroke="none"/><text fill="#000000" stroke="none" font-family="Arial" font-size="20px" font-style="normal" font-weight="normal" text-decoration="undefined" x="973" y="475" text-anchor="start" dominant-baseline="text-before-edge" transform="matrix(1 0 0 1 -6 -53)">Adri치n Gonz치lez</text></g></g></g></svg>