<svg version="1.1" xmlns="http://www.w3.org/2000/svg" xmlns:xlink="http://www.w3.org/1999/xlink" width="1756.236328125" height="1172"><defs/><g><g><path fill="none" stroke="#000000" paint-order="fill stroke markers" d=" M 10 10 L 1578 10 L 1578 1162 L 10 1162 L 10 10" stroke-miterlimit="10" stroke-dasharray=""/></g><g><path fill="#ffffff" stroke="none" paint-order="stroke fill markers" d=" M 10 10 L 10 33 L 184.2470703125 33 L 195.7470703125 21.5 L 195.7470703125 10 L 10 10"/></g><g><path fill="none" stroke="#000000" paint-order="fill stroke markers" d=" M 10 10 L 10 33 L 184.2470703125 33 L 195.7470703125 21.5 L 195.7470703125 10 L 10 10 L 10 10" stroke-miterlimit="10" stroke-dasharray=""/></g><g><g><path fill="none" stroke="none"/><text fill="#000000" stroke="none" font-family="Arial" font-size="13px" font-style="normal" font-weight="normal" text-decoration="undefined" x="104.988525390625" y="19.5" text-anchor="middle" dominant-baseline="central" transform="matrix(1 0 0 1 2 2)">Añadir Canción a Playlist</text></g></g><g><g><path fill="none" stroke="none"/><text fill="#000000" stroke="none" font-family="Arial" font-size="13px" font-style="normal" font-weight="bold" text-decoration="undefined" x="19.864990234375" y="19.5" text-anchor="middle" dominant-baseline="central" transform="matrix(1 0 0 1 2 2)">sd</text></g></g><g><rect fill="#C0C0C0" stroke="none" x="52" y="47" width="153.52685546875" height="40" transform="matrix(1 0 0 1 2 2)" fill-opacity="0.2"/></g><g><rect fill="#ffffff" stroke="none" x="45" y="40" width="153.52685546875" height="40" transform="matrix(1 0 0 1 2 2)"/></g><g><path fill="none" stroke="#000000" paint-order="fill stroke markers" d=" M 47 42 L 200.52685546875 42 L 200.52685546875 82 L 47 82 L 47 42 Z Z" stroke-miterlimit="10" stroke-dasharray=""/></g><g><g><path fill="none" stroke="none"/><text fill="#000000" stroke="none" font-family="Arial" font-size="13px" font-style="normal" font-weight="bold" text-decoration="undefined" x="122.263427734375" y="53.5" text-anchor="middle" dominant-baseline="central" transform="matrix(1 0 0 1 2 2)">: Vista Usuario</text></g></g><g><path fill="none" stroke="#000000" paint-order="fill stroke markers" d=" M 124.5 83 L 124.5 969" stroke-miterlimit="10" stroke-dasharray="3"/></g><g><rect fill="#C0C0C0" stroke="none" x="1079" y="47" width="184.82080078125" height="40" transform="matrix(1 0 0 1 2 2)" fill-opacity="0.2"/></g><g><rect fill="#ffffff" stroke="none" x="1072" y="40" width="184.82080078125" height="40" transform="matrix(1 0 0 1 2 2)"/></g><g><path fill="none" stroke="#000000" paint-order="fill stroke markers" d=" M 1074 42 L 1258.82080078125 42 L 1258.82080078125 82 L 1074 82 L 1074 42 Z Z" stroke-miterlimit="10" stroke-dasharray=""/></g><g><g><path fill="none" stroke="none"/><text fill="#000000" stroke="none" font-family="Arial" font-size="13px" font-style="normal" font-weight="bold" text-decoration="undefined" x="1164.910400390625" y="53.5" text-anchor="middle" dominant-baseline="central" transform="matrix(1 0 0 1 2 2)">: Datos de Usuarios</text></g></g><g><path fill="none" stroke="#000000" paint-order="fill stroke markers" d=" M 1166.5 83 L 1166.5 946" stroke-miterlimit="10" stroke-dasharray="3"/></g><g><rect fill="#C0C0C0" stroke="none" x="1391" y="47" width="172.55078125" height="40" transform="matrix(1 0 0 1 2 2)" fill-opacity="0.2"/></g><g><rect fill="#ffffff" stroke="none" x="1384" y="40" width="172.55078125" height="40" transform="matrix(1 0 0 1 2 2)"/></g><g><path fill="none" stroke="#000000" paint-order="fill stroke markers" d=" M 1386 42 L 1558.55078125 42 L 1558.55078125 82 L 1386 82 L 1386 42 Z Z" stroke-miterlimit="10" stroke-dasharray=""/></g><g><g><path fill="none" stroke="none"/><text fill="#000000" stroke="none" font-family="Arial" font-size="13px" font-style="normal" font-weight="bold" text-decoration="undefined" x="1470.775390625" y="53.5" text-anchor="middle" dominant-baseline="central" transform="matrix(1 0 0 1 2 2)">: Datos Musicales</text></g></g><g><path fill="none" stroke="#000000" paint-order="fill stroke markers" d=" M 1472.5 83 L 1472.5 946" stroke-miterlimit="10" stroke-dasharray="3"/></g><g><rect fill="#C0C0C0" stroke="none" x="671" y="47" width="192.76806640625" height="40" transform="matrix(1 0 0 1 2 2)" fill-opacity="0.2"/></g><g><rect fill="#ffffff" stroke="none" x="664" y="40" width="192.76806640625" height="40" transform="matrix(1 0 0 1 2 2)"/></g><g><path fill="none" stroke="#000000" paint-order="fill stroke markers" d=" M 666 42 L 858.76806640625 42 L 858.76806640625 82 L 666 82 L 666 42 Z Z" stroke-miterlimit="10" stroke-dasharray=""/></g><g><g><path fill="none" stroke="none"/><text fill="#000000" stroke="none" font-family="Arial" font-size="13px" font-style="normal" font-weight="bold" text-decoration="undefined" x="760.884033203125" y="53.5" text-anchor="middle" dominant-baseline="central" transform="matrix(1 0 0 1 2 2)">: Gestión de Oyentes</text></g></g><g><path fill="none" stroke="#000000" paint-order="fill stroke markers" d=" M 762.5 83 L 762.5 969" stroke-miterlimit="10" stroke-dasharray="3"/></g><g><g><path fill="none" stroke="none"/><text fill="#000000" stroke="none" font-family="Arial" font-size="20px" font-style="normal" font-weight="normal" text-decoration="undefined" x="1597" y="21" text-anchor="start" dominant-baseline="text-before-edge" transform="matrix(1 0 0 1 2 2)">LUCÍA</text><text fill="#000000" stroke="none" font-family="Arial" font-size="20px" font-style="normal" font-weight="normal" text-decoration="undefined" x="1597" y="41" text-anchor="start" dominant-baseline="text-before-edge" transform="matrix(1 0 0 1 2 2)">FERNÁNDEZ</text><text fill="#000000" stroke="none" font-family="Arial" font-size="20px" font-style="normal" font-weight="normal" text-decoration="undefined" x="1597" y="61" text-anchor="start" dominant-baseline="text-before-edge" transform="matrix(1 0 0 1 2 2)">MANCEBO</text></g></g><g><path fill="none" stroke="#000000" paint-order="fill stroke markers" d=" M 125 131 L 755 131" stroke-miterlimit="10" stroke-dasharray=""/></g><g><path fill="#000000" stroke="none" paint-order="stroke fill markers" d=" M 744.8373251423759 135.209517756016 L 755 131 L 744.8373251423758 126.79048224398402"/></g><g><path fill="none" stroke="#000000" paint-order="fill stroke markers" d=" M 744.8373251423759 135.209517756016 L 755 131 L 744.8373251423758 126.79048224398402 L 744.8373251423759 135.209517756016" stroke-miterlimit="10" stroke-dasharray=""/></g><g><rect fill="#ffffff" stroke="none" x="186" y="113" width="505.07666015625" height="13" transform="matrix(1 0 0 1 2 2)"/></g><g><g><path fill="none" stroke="none"/><text fill="#000000" stroke="none" font-family="Arial" font-size="13px" font-style="normal" font-weight="normal" text-decoration="undefined" x="438.538330078125" y="119.5" text-anchor="middle" dominant-baseline="central" transform="matrix(1 0 0 1 2 2)">1 : AñadirCancionPlaylist(idCancion: String, idPlaylist: String, idUsuario: String):boolean</text></g></g><g><rect fill="#ffffff" stroke="none" x="753" y="129" width="14" height="823" transform="matrix(1 0 0 1 2 2)"/></g><g><path fill="none" stroke="#000000" paint-order="fill stroke markers" d=" M 755 131 L 769 131 L 769 954 L 755 954 L 755 131 Z Z" stroke-miterlimit="10" stroke-dasharray=""/></g><g><path fill="none" stroke="#000000" paint-order="fill stroke markers" d=" M 769 186 L 1159 186" stroke-miterlimit="10" stroke-dasharray=""/></g><g><path fill="#000000" stroke="none" paint-order="stroke fill markers" d=" M 1148.837325142376 190.209517756016 L 1159 186 L 1148.837325142376 181.790482243984"/></g><g><path fill="none" stroke="#000000" paint-order="fill stroke markers" d=" M 1148.837325142376 190.209517756016 L 1159 186 L 1148.837325142376 181.790482243984 L 1148.837325142376 190.209517756016" stroke-miterlimit="10" stroke-dasharray=""/></g><g><rect fill="#ffffff" stroke="none" x="832" y="168" width="260.1142578125" height="13" transform="matrix(1 0 0 1 2 2)"/></g><g><g><path fill="none" stroke="none"/><text fill="#000000" stroke="none" font-family="Arial" font-size="13px" font-style="normal" font-weight="normal" text-decoration="undefined" x="962.05712890625" y="174.5" text-anchor="middle" dominant-baseline="central" transform="matrix(1 0 0 1 2 2)">2 : obtenerUsuario(idUsuario)</text></g></g><g><rect fill="#ffffff" stroke="none" x="1157" y="184" width="14" height="28" transform="matrix(1 0 0 1 2 2)"/></g><g><path fill="none" stroke="#000000" paint-order="fill stroke markers" d=" M 1159 186 L 1173 186 L 1173 214 L 1159 214 L 1159 186 Z Z" stroke-miterlimit="10" stroke-dasharray=""/></g><g><path fill="none" stroke="#000000" paint-order="fill stroke markers" d=" M 1159 202 L 769 202" stroke-miterlimit="10" stroke-dasharray="3"/></g><g><path fill="none" stroke="#000000" paint-order="fill stroke markers" d=" M 779.1626748576241 197.790482243984 L 769 202 L 779.1626748576241 206.209517756016" stroke-miterlimit="10" stroke-dasharray=""/></g><g><rect fill="#ffffff" stroke="none" x="949" y="204" width="25.29541015625" height="13" transform="matrix(1 0 0 1 2 2)"/></g><g><g><path fill="none" stroke="none"/><text fill="#000000" stroke="none" font-family="Arial" font-size="13px" font-style="normal" font-weight="normal" text-decoration="undefined" x="961.647705078125" y="210.5" text-anchor="middle" dominant-baseline="central" transform="matrix(1 0 0 1 2 2)">3 : u</text></g></g><g><path fill="none" stroke="#000000" paint-order="fill stroke markers" d=" M 755 324 L 125 324" stroke-miterlimit="10" stroke-dasharray="3"/></g><g><path fill="none" stroke="#000000" paint-order="fill stroke markers" d=" M 135.16267485762415 319.790482243984 L 125 324 L 135.16267485762415 328.209517756016" stroke-miterlimit="10" stroke-dasharray=""/></g><g><rect fill="#ffffff" stroke="none" x="415" y="326" width="45.525390625" height="13" transform="matrix(1 0 0 1 2 2)"/></g><g><g><path fill="none" stroke="none"/><text fill="#000000" stroke="none" font-family="Arial" font-size="13px" font-style="normal" font-weight="normal" text-decoration="undefined" x="437.7626953125" y="332.5" text-anchor="middle" dominant-baseline="central" transform="matrix(1 0 0 1 2 2)">4 : false</text></g></g><g><path fill="none" stroke="#000000" paint-order="fill stroke markers" d=" M 769 394 L 1465 394" stroke-miterlimit="10" stroke-dasharray=""/></g><g><path fill="#000000" stroke="none" paint-order="stroke fill markers" d=" M 1454.837325142376 398.209517756016 L 1465 394 L 1454.837325142376 389.790482243984"/></g><g><path fill="none" stroke="#000000" paint-order="fill stroke markers" d=" M 1454.837325142376 398.209517756016 L 1465 394 L 1454.837325142376 389.790482243984 L 1454.837325142376 398.209517756016" stroke-miterlimit="10" stroke-dasharray=""/></g><g><rect fill="#ffffff" stroke="none" x="1011" y="376" width="208.08251953125" height="13" transform="matrix(1 0 0 1 2 2)"/></g><g><g><path fill="none" stroke="none"/><text fill="#000000" stroke="none" font-family="Arial" font-size="13px" font-style="normal" font-weight="normal" text-decoration="undefined" x="1115.041259765625" y="382.5" text-anchor="middle" dominant-baseline="central" transform="matrix(1 0 0 1 2 2)">5 : obtenerPlaylist(idPlaylist)</text></g></g><g><rect fill="#ffffff" stroke="none" x="1463" y="392" width="14" height="28" transform="matrix(1 0 0 1 2 2)"/></g><g><path fill="none" stroke="#000000" paint-order="fill stroke markers" d=" M 1465 394 L 1479 394 L 1479 422 L 1465 422 L 1465 394 Z Z" stroke-miterlimit="10" stroke-dasharray=""/></g><g><path fill="none" stroke="#000000" paint-order="fill stroke markers" d=" M 1465 419 L 769 419" stroke-miterlimit="10" stroke-dasharray="3"/></g><g><path fill="none" stroke="#000000" paint-order="fill stroke markers" d=" M 779.1626748576241 414.790482243984 L 769 419 L 779.1626748576241 423.209517756016" stroke-miterlimit="10" stroke-dasharray=""/></g><g><rect fill="#ffffff" stroke="none" x="1102" y="421" width="25.29541015625" height="13" transform="matrix(1 0 0 1 2 2)"/></g><g><g><path fill="none" stroke="none"/><text fill="#000000" stroke="none" font-family="Arial" font-size="13px" font-style="normal" font-weight="normal" text-decoration="undefined" x="1114.647705078125" y="427.5" text-anchor="middle" dominant-baseline="central" transform="matrix(1 0 0 1 2 2)">6 : p</text></g></g><g><path fill="none" stroke="#000000" paint-order="fill stroke markers" d=" M 755 532 L 125 532" stroke-miterlimit="10" stroke-dasharray="3"/></g><g><path fill="none" stroke="#000000" paint-order="fill stroke markers" d=" M 135.16267485762415 527.790482243984 L 125 532 L 135.16267485762415 536.209517756016" stroke-miterlimit="10" stroke-dasharray=""/></g><g><rect fill="#ffffff" stroke="none" x="415" y="534" width="45.525390625" height="13" transform="matrix(1 0 0 1 2 2)"/></g><g><g><path fill="none" stroke="none"/><text fill="#000000" stroke="none" font-family="Arial" font-size="13px" font-style="normal" font-weight="normal" text-decoration="undefined" x="437.7626953125" y="540.5" text-anchor="middle" dominant-baseline="central" transform="matrix(1 0 0 1 2 2)">7 : false</text></g></g><g><path fill="none" stroke="#000000" paint-order="fill stroke markers" d=" M 769 586 L 1465 586" stroke-miterlimit="10" stroke-dasharray=""/></g><g><path fill="#000000" stroke="none" paint-order="stroke fill markers" d=" M 1454.837325142376 590.209517756016 L 1465 586 L 1454.837325142376 581.790482243984"/></g><g><path fill="none" stroke="#000000" paint-order="fill stroke markers" d=" M 1454.837325142376 590.209517756016 L 1465 586 L 1454.837325142376 581.790482243984 L 1454.837325142376 590.209517756016" stroke-miterlimit="10" stroke-dasharray=""/></g><g><rect fill="#ffffff" stroke="none" x="1005" y="568" width="221.12060546875" height="13" transform="matrix(1 0 0 1 2 2)"/></g><g><g><path fill="none" stroke="none"/><text fill="#000000" stroke="none" font-family="Arial" font-size="13px" font-style="normal" font-weight="normal" text-decoration="undefined" x="1115.560302734375" y="574.5" text-anchor="middle" dominant-baseline="central" transform="matrix(1 0 0 1 2 2)">8 : obtenerCancion(idCancion)</text></g></g><g><rect fill="#ffffff" stroke="none" x="1463" y="584" width="14" height="28" transform="matrix(1 0 0 1 2 2)"/></g><g><path fill="none" stroke="#000000" paint-order="fill stroke markers" d=" M 1465 586 L 1479 586 L 1479 614 L 1465 614 L 1465 586 Z Z" stroke-miterlimit="10" stroke-dasharray=""/></g><g><path fill="none" stroke="#000000" paint-order="fill stroke markers" d=" M 1465 613 L 769 613" stroke-miterlimit="10" stroke-dasharray="3"/></g><g><path fill="none" stroke="#000000" paint-order="fill stroke markers" d=" M 779.1626748576241 608.790482243984 L 769 613 L 779.1626748576241 617.209517756016" stroke-miterlimit="10" stroke-dasharray=""/></g><g><rect fill="#ffffff" stroke="none" x="1102" y="615" width="24.5654296875" height="13" transform="matrix(1 0 0 1 2 2)"/></g><g><g><path fill="none" stroke="none"/><text fill="#000000" stroke="none" font-family="Arial" font-size="13px" font-style="normal" font-weight="normal" text-decoration="undefined" x="1114.28271484375" y="621.5" text-anchor="middle" dominant-baseline="central" transform="matrix(1 0 0 1 2 2)">9 : s</text></g></g><g><path fill="none" stroke="#000000" paint-order="fill stroke markers" d=" M 755 714 L 125 714" stroke-miterlimit="10" stroke-dasharray="3"/></g><g><path fill="none" stroke="#000000" paint-order="fill stroke markers" d=" M 135.16267485762415 709.790482243984 L 125 714 L 135.16267485762415 718.209517756016" stroke-miterlimit="10" stroke-dasharray=""/></g><g><rect fill="#ffffff" stroke="none" x="411" y="716" width="52.75537109375" height="13" transform="matrix(1 0 0 1 2 2)"/></g><g><g><path fill="none" stroke="none"/><text fill="#000000" stroke="none" font-family="Arial" font-size="13px" font-style="normal" font-weight="normal" text-decoration="undefined" x="437.377685546875" y="722.5" text-anchor="middle" dominant-baseline="central" transform="matrix(1 0 0 1 2 2)">10 : false</text></g></g><g><path fill="none" stroke="#000000" paint-order="fill stroke markers" d=" M 769 762 L 799 762 L 799 782 L 776 782" stroke-miterlimit="10" stroke-dasharray=""/></g><g><path fill="#000000" stroke="none" paint-order="stroke fill markers" d=" M 786.1626748576241 777.790482243984 L 776 782 L 786.1626748576241 786.209517756016"/></g><g><path fill="none" stroke="#000000" paint-order="fill stroke markers" d=" M 786.1626748576241 777.790482243984 L 776 782 L 786.1626748576241 786.209517756016 L 786.1626748576241 777.790482243984" stroke-miterlimit="10" stroke-dasharray=""/></g><g><rect fill="#ffffff" stroke="none" x="800" y="760" width="85.2744140625" height="13" transform="matrix(1 0 0 1 2 2)"/></g><g><g><path fill="none" stroke="none"/><text fill="#000000" stroke="none" font-family="Arial" font-size="13px" font-style="normal" font-weight="normal" text-decoration="undefined" x="842.63720703125" y="766.5" text-anchor="middle" dominant-baseline="central" transform="matrix(1 0 0 1 2 2)">11 : p.add(s)</text></g></g><g><rect fill="#ffffff" stroke="none" x="760" y="780" width="14" height="28" transform="matrix(1 0 0 1 2 2)"/></g><g><path fill="none" stroke="#000000" paint-order="fill stroke markers" d=" M 762 782 L 776 782 L 776 810 L 762 810 L 762 782 Z Z" stroke-miterlimit="10" stroke-dasharray=""/></g><g><path fill="none" stroke="#000000" paint-order="fill stroke markers" d=" M 769 850 L 1465 850" stroke-miterlimit="10" stroke-dasharray=""/></g><g><path fill="#000000" stroke="none" paint-order="stroke fill markers" d=" M 1454.837325142376 854.209517756016 L 1465 850 L 1454.837325142376 845.790482243984"/></g><g><path fill="none" stroke="#000000" paint-order="fill stroke markers" d=" M 1454.837325142376 854.209517756016 L 1465 850 L 1454.837325142376 845.790482243984 L 1454.837325142376 854.209517756016" stroke-miterlimit="10" stroke-dasharray=""/></g><g><rect fill="#ffffff" stroke="none" x="999" y="832" width="233.3779296875" height="13" transform="matrix(1 0 0 1 2 2)"/></g><g><g><path fill="none" stroke="none"/><text fill="#000000" stroke="none" font-family="Arial" font-size="13px" font-style="normal" font-weight="normal" text-decoration="undefined" x="1115.68896484375" y="838.5" text-anchor="middle" dominant-baseline="central" transform="matrix(1 0 0 1 2 2)">12 : modificarPlaylist(p: Playlist):boolean</text></g></g><g><rect fill="#ffffff" stroke="none" x="1463" y="848" width="14" height="28" transform="matrix(1 0 0 1 2 2)"/></g><g><path fill="none" stroke="#000000" paint-order="fill stroke markers" d=" M 1465 850 L 1479 850 L 1479 878 L 1465 878 L 1465 850 Z Z" stroke-miterlimit="10" stroke-dasharray=""/></g><g><path fill="none" stroke="#000000" paint-order="fill stroke markers" d=" M 755 938 L 125 938" stroke-miterlimit="10" stroke-dasharray="3"/></g><g><path fill="none" stroke="#000000" paint-order="fill stroke markers" d=" M 135.16267485762415 933.790482243984 L 125 938 L 135.16267485762415 942.209517756016" stroke-miterlimit="10" stroke-dasharray=""/></g><g><rect fill="#ffffff" stroke="none" x="414" y="940" width="47.6962890625" height="13" transform="matrix(1 0 0 1 2 2)"/></g><g><g><path fill="none" stroke="none"/><text fill="#000000" stroke="none" font-family="Arial" font-size="13px" font-style="normal" font-weight="normal" text-decoration="undefined" x="437.84814453125" y="946.5" text-anchor="middle" dominant-baseline="central" transform="matrix(1 0 0 1 2 2)">13 : true</text></g></g><g><path fill="none" stroke="#000000" paint-order="fill stroke markers" d=" M 114 218 L 786 218 L 786 378 L 114 378 L 114 218" stroke-miterlimit="10" stroke-dasharray=""/></g><g><path fill="#ffffff" stroke="none" paint-order="stroke fill markers" d=" M 114 218 L 114 241 L 287.5107421875 241 L 299.0107421875 229.5 L 299.0107421875 218 L 114 218"/></g><g><path fill="none" stroke="#000000" paint-order="fill stroke markers" d=" M 114 218 L 114 241 L 287.5107421875 241 L 299.0107421875 229.5 L 299.0107421875 218 L 114 218 L 114 218" stroke-miterlimit="10" stroke-dasharray=""/></g><g><g><path fill="none" stroke="none"/><text fill="#000000" stroke="none" font-family="Arial" font-size="13px" font-style="normal" font-weight="normal" text-decoration="undefined" x="210.791259765625" y="227.5" text-anchor="middle" dominant-baseline="central" transform="matrix(1 0 0 1 2 2)">Gestion Errores Usuario</text></g></g><g><g><path fill="none" stroke="none"/><text fill="#000000" stroke="none" font-family="Arial" font-size="13px" font-style="normal" font-weight="bold" text-decoration="undefined" x="126.035888671875" y="227.5" text-anchor="middle" dominant-baseline="central" transform="matrix(1 0 0 1 2 2)">opt</text></g></g><g><g><path fill="none" stroke="none"/><text fill="#000000" stroke="none" font-family="Arial" font-size="13px" font-style="normal" font-weight="normal" text-decoration="undefined" x="213.608642578125" y="260.5" text-anchor="middle" dominant-baseline="central" transform="matrix(1 0 0 1 2 2)">[u == null || u.tipo != Oyente]</text></g></g><g><path fill="none" stroke="#000000" paint-order="fill stroke markers" d=" M 114 426 L 794 426 L 794 578 L 114 578 L 114 426" stroke-miterlimit="10" stroke-dasharray=""/></g><g><path fill="#ffffff" stroke="none" paint-order="stroke fill markers" d=" M 114 426 L 114 449 L 283.892578125 449 L 295.392578125 437.5 L 295.392578125 426 L 114 426"/></g><g><path fill="none" stroke="#000000" paint-order="fill stroke markers" d=" M 114 426 L 114 449 L 283.892578125 449 L 295.392578125 437.5 L 295.392578125 426 L 114 426 L 114 426" stroke-miterlimit="10" stroke-dasharray=""/></g><g><g><path fill="none" stroke="none"/><text fill="#000000" stroke="none" font-family="Arial" font-size="13px" font-style="normal" font-weight="normal" text-decoration="undefined" x="208.982177734375" y="435.5" text-anchor="middle" dominant-baseline="central" transform="matrix(1 0 0 1 2 2)">Gestion Errores Playlist</text></g></g><g><g><path fill="none" stroke="none"/><text fill="#000000" stroke="none" font-family="Arial" font-size="13px" font-style="normal" font-weight="bold" text-decoration="undefined" x="126.035888671875" y="435.5" text-anchor="middle" dominant-baseline="central" transform="matrix(1 0 0 1 2 2)">opt</text></g></g><g><g><path fill="none" stroke="none"/><text fill="#000000" stroke="none" font-family="Arial" font-size="13px" font-style="normal" font-weight="normal" text-decoration="undefined" x="207.825927734375" y="468.5" text-anchor="middle" dominant-baseline="central" transform="matrix(1 0 0 1 2 2)">[p == null || p.creador != u]</text></g></g><g><path fill="none" stroke="#000000" paint-order="fill stroke markers" d=" M 114 634 L 786 634 L 786 746 L 114 746 L 114 634" stroke-miterlimit="10" stroke-dasharray=""/></g><g><path fill="#ffffff" stroke="none" paint-order="stroke fill markers" d=" M 114 634 L 114 657 L 276.681640625 657 L 288.181640625 645.5 L 288.181640625 634 L 114 634"/></g><g><path fill="none" stroke="#000000" paint-order="fill stroke markers" d=" M 114 634 L 114 657 L 276.681640625 657 L 288.181640625 645.5 L 288.181640625 634 L 114 634 L 114 634" stroke-miterlimit="10" stroke-dasharray=""/></g><g><g><path fill="none" stroke="none"/><text fill="#000000" stroke="none" font-family="Arial" font-size="13px" font-style="normal" font-weight="normal" text-decoration="undefined" x="205.376708984375" y="643.5" text-anchor="middle" dominant-baseline="central" transform="matrix(1 0 0 1 2 2)">Gestion Error Cancion</text></g></g><g><g><path fill="none" stroke="none"/><text fill="#000000" stroke="none" font-family="Arial" font-size="13px" font-style="normal" font-weight="bold" text-decoration="undefined" x="126.035888671875" y="643.5" text-anchor="middle" dominant-baseline="central" transform="matrix(1 0 0 1 2 2)">opt</text></g></g><g><g><path fill="none" stroke="none"/><text fill="#000000" stroke="none" font-family="Arial" font-size="13px" font-style="normal" font-weight="normal" text-decoration="undefined" x="160.18359375" y="676.5" text-anchor="middle" dominant-baseline="central" transform="matrix(1 0 0 1 2 2)">[s == null]</text></g></g></g></svg>