<svg version="1.1" xmlns="http://www.w3.org/2000/svg" xmlns:xlink="http://www.w3.org/1999/xlink" width="1524.236328125" height="1036"><defs/><g><g><path fill="none" stroke="#000000" paint-order="fill stroke markers" d=" M 10 10 L 1346 10 L 1346 1026 L 10 1026 L 10 10" stroke-miterlimit="10" stroke-dasharray=""/></g><g><path fill="#ffffff" stroke="none" paint-order="stroke fill markers" d=" M 10 10 L 10 33 L 132.93896484375 33 L 144.43896484375 21.5 L 144.43896484375 10 L 10 10"/></g><g><path fill="none" stroke="#000000" paint-order="fill stroke markers" d=" M 10 10 L 10 33 L 132.93896484375 33 L 144.43896484375 21.5 L 144.43896484375 10 L 10 10 L 10 10" stroke-miterlimit="10" stroke-dasharray=""/></g><g><g><path fill="none" stroke="none"/><text fill="#000000" stroke="none" font-family="Arial" font-size="13px" font-style="normal" font-weight="normal" text-decoration="undefined" x="79.33447265625" y="19.5" text-anchor="middle" dominant-baseline="central" transform="matrix(1 0 0 1 2 2)">eliminarCancion</text></g></g><g><g><path fill="none" stroke="none"/><text fill="#000000" stroke="none" font-family="Arial" font-size="13px" font-style="normal" font-weight="bold" text-decoration="undefined" x="19.864990234375" y="19.5" text-anchor="middle" dominant-baseline="central" transform="matrix(1 0 0 1 2 2)">sd</text></g></g><g><rect fill="#C0C0C0" stroke="none" x="87" y="47" width="220.26171875" height="40" transform="matrix(1 0 0 1 2 2)" fill-opacity="0.2"/></g><g><rect fill="#ffffff" stroke="none" x="80" y="40" width="220.26171875" height="40" transform="matrix(1 0 0 1 2 2)"/></g><g><path fill="none" stroke="#000000" paint-order="fill stroke markers" d=" M 82 42 L 302.26171875 42 L 302.26171875 82 L 82 82 L 82 42 Z Z" stroke-miterlimit="10" stroke-dasharray=""/></g><g><g><path fill="none" stroke="none"/><text fill="#000000" stroke="none" font-family="Arial" font-size="13px" font-style="normal" font-weight="bold" text-decoration="undefined" x="190.630859375" y="53.5" text-anchor="middle" dominant-baseline="central" transform="matrix(1 0 0 1 2 2)">: Vista Artista</text></g></g><g><path fill="none" stroke="#000000" paint-order="fill stroke markers" d=" M 192.5 83 L 192.5 945" stroke-miterlimit="10" stroke-dasharray="3"/></g><g><rect fill="#C0C0C0" stroke="none" x="576" y="47" width="220.26171875" height="40" transform="matrix(1 0 0 1 2 2)" fill-opacity="0.2"/></g><g><rect fill="#ffffff" stroke="none" x="569" y="40" width="220.26171875" height="40" transform="matrix(1 0 0 1 2 2)"/></g><g><path fill="none" stroke="#000000" paint-order="fill stroke markers" d=" M 571 42 L 791.26171875 42 L 791.26171875 82 L 571 82 L 571 42 Z Z" stroke-miterlimit="10" stroke-dasharray=""/></g><g><g><path fill="none" stroke="none"/><text fill="#000000" stroke="none" font-family="Arial" font-size="13px" font-style="normal" font-weight="bold" text-decoration="undefined" x="679.630859375" y="53.5" text-anchor="middle" dominant-baseline="central" transform="matrix(1 0 0 1 2 2)">: Gestión deArtistas</text></g></g><g><path fill="none" stroke="#000000" paint-order="fill stroke markers" d=" M 681.5 83 L 681.5 945" stroke-miterlimit="10" stroke-dasharray="3"/></g><g><rect fill="#C0C0C0" stroke="none" x="1065" y="47" width="220.26171875" height="40" transform="matrix(1 0 0 1 2 2)" fill-opacity="0.2"/></g><g><rect fill="#ffffff" stroke="none" x="1058" y="40" width="220.26171875" height="40" transform="matrix(1 0 0 1 2 2)"/></g><g><path fill="none" stroke="#000000" paint-order="fill stroke markers" d=" M 1060 42 L 1280.26171875 42 L 1280.26171875 82 L 1060 82 L 1060 42 Z Z" stroke-miterlimit="10" stroke-dasharray=""/></g><g><g><path fill="none" stroke="none"/><text fill="#000000" stroke="none" font-family="Arial" font-size="13px" font-style="normal" font-weight="bold" text-decoration="undefined" x="1168.630859375" y="53.5" text-anchor="middle" dominant-baseline="central" transform="matrix(1 0 0 1 2 2)">: Datos Musicales</text></g></g><g><path fill="none" stroke="#000000" paint-order="fill stroke markers" d=" M 1170.5 83 L 1170.5 913" stroke-miterlimit="10" stroke-dasharray="3"/></g><g><g><path fill="none" stroke="none"/><text fill="#000000" stroke="none" font-family="Arial" font-size="20px" font-style="normal" font-weight="normal" text-decoration="undefined" x="1365" y="21" text-anchor="start" dominant-baseline="text-before-edge" transform="matrix(1 0 0 1 2 2)">GABRIEL</text></g></g><g><g><path fill="none" stroke="none"/><text fill="#000000" stroke="none" font-family="Arial" font-size="20px" font-style="normal" font-weight="normal" text-decoration="undefined" x="1365" y="43" text-anchor="start" dominant-baseline="text-before-edge" transform="matrix(1 0 0 1 2 2)">GOMEZ</text><text fill="#000000" stroke="none" font-family="Arial" font-size="20px" font-style="normal" font-weight="normal" text-decoration="undefined" x="1365" y="63" text-anchor="start" dominant-baseline="text-before-edge" transform="matrix(1 0 0 1 2 2)">GARCIA</text></g></g><g><path fill="none" stroke="#000000" paint-order="fill stroke markers" d=" M 193 162 L 674 162" stroke-miterlimit="10" stroke-dasharray=""/></g><g><path fill="#000000" stroke="none" paint-order="stroke fill markers" d=" M 663.8373251423759 166.209517756016 L 674 162 L 663.8373251423758 157.790482243984"/></g><g><path fill="none" stroke="#000000" paint-order="fill stroke markers" d=" M 663.8373251423759 166.209517756016 L 674 162 L 663.8373251423758 157.790482243984 L 663.8373251423759 166.209517756016" stroke-miterlimit="10" stroke-dasharray=""/></g><g><rect fill="#ffffff" stroke="none" x="296" y="144" width="270.23876953125" height="13" transform="matrix(1 0 0 1 2 2)"/></g><g><g><path fill="none" stroke="none"/><text fill="#000000" stroke="none" font-family="Arial" font-size="13px" font-style="normal" font-weight="normal" text-decoration="undefined" x="431.119384765625" y="150.5" text-anchor="middle" dominant-baseline="central" transform="matrix(1 0 0 1 2 2)">1 : eliminarCancion(idCancion: String):Cancion</text></g></g><g><rect fill="#ffffff" stroke="none" x="672" y="160" width="14" height="752" transform="matrix(1 0 0 1 2 2)"/></g><g><path fill="none" stroke="#000000" paint-order="fill stroke markers" d=" M 674 162 L 688 162 L 688 914 L 674 914 L 674 162 Z Z" stroke-miterlimit="10" stroke-dasharray=""/></g><g><path fill="none" stroke="#000000" paint-order="fill stroke markers" d=" M 688 218 L 1163 218" stroke-miterlimit="10" stroke-dasharray=""/></g><g><path fill="#000000" stroke="none" paint-order="stroke fill markers" d=" M 1152.837325142376 222.209517756016 L 1163 218 L 1152.837325142376 213.790482243984"/></g><g><path fill="none" stroke="#000000" paint-order="fill stroke markers" d=" M 1152.837325142376 222.209517756016 L 1163 218 L 1152.837325142376 213.790482243984 L 1152.837325142376 222.209517756016" stroke-miterlimit="10" stroke-dasharray=""/></g><g><rect fill="#ffffff" stroke="none" x="813" y="200" width="221.12060546875" height="13" transform="matrix(1 0 0 1 2 2)"/></g><g><g><path fill="none" stroke="none"/><text fill="#000000" stroke="none" font-family="Arial" font-size="13px" font-style="normal" font-weight="normal" text-decoration="undefined" x="923.560302734375" y="206.5" text-anchor="middle" dominant-baseline="central" transform="matrix(1 0 0 1 2 2)">2 : obtenerCancion(id: String):Cancion</text></g></g><g><rect fill="#ffffff" stroke="none" x="1161" y="216" width="14" height="40" transform="matrix(1 0 0 1 2 2)"/></g><g><path fill="none" stroke="#000000" paint-order="fill stroke markers" d=" M 1163 218 L 1177 218 L 1177 258 L 1163 258 L 1163 218 Z Z" stroke-miterlimit="10" stroke-dasharray=""/></g><g><path fill="none" stroke="#000000" paint-order="fill stroke markers" d=" M 1170 258 L 688 258" stroke-miterlimit="10" stroke-dasharray="3"/></g><g><path fill="none" stroke="#000000" paint-order="fill stroke markers" d=" M 698.1626748576241 253.790482243984 L 688 258 L 698.1626748576241 262.209517756016" stroke-miterlimit="10" stroke-dasharray=""/></g><g><rect fill="#ffffff" stroke="none" x="914" y="260" width="24.5654296875" height="13" transform="matrix(1 0 0 1 2 2)"/></g><g><g><path fill="none" stroke="none"/><text fill="#000000" stroke="none" font-family="Arial" font-size="13px" font-style="normal" font-weight="normal" text-decoration="undefined" x="926.28271484375" y="266.5" text-anchor="middle" dominant-baseline="central" transform="matrix(1 0 0 1 2 2)">3 : c</text></g></g><g><path fill="none" stroke="#000000" paint-order="fill stroke markers" d=" M 688 426 L 718 426 L 718 446 L 695 446" stroke-miterlimit="10" stroke-dasharray=""/></g><g><path fill="#000000" stroke="none" paint-order="stroke fill markers" d=" M 705.1626748576241 441.790482243984 L 695 446 L 705.1626748576241 450.209517756016"/></g><g><path fill="none" stroke="#000000" paint-order="fill stroke markers" d=" M 705.1626748576241 441.790482243984 L 695 446 L 705.1626748576241 450.209517756016 L 705.1626748576241 441.790482243984" stroke-miterlimit="10" stroke-dasharray=""/></g><g><rect fill="#ffffff" stroke="none" x="729" y="427" width="182.06982421875" height="13" transform="matrix(1 0 0 1 2 2)"/></g><g><g><path fill="none" stroke="none"/><text fill="#000000" stroke="none" font-family="Arial" font-size="13px" font-style="normal" font-weight="normal" text-decoration="undefined" x="820.034912109375" y="433.5" text-anchor="middle" dominant-baseline="central" transform="matrix(1 0 0 1 2 2)">4 : d.cancionesDisco.remove(c)</text></g></g><g><rect fill="#ffffff" stroke="none" x="679" y="444" width="14" height="28" transform="matrix(1 0 0 1 2 2)"/></g><g><path fill="none" stroke="#000000" paint-order="fill stroke markers" d=" M 681 446 L 695 446 L 695 474 L 681 474 L 681 446 Z Z" stroke-miterlimit="10" stroke-dasharray=""/></g><g><path fill="none" stroke="#000000" paint-order="fill stroke markers" d=" M 688 570 L 1163 570" stroke-miterlimit="10" stroke-dasharray=""/></g><g><path fill="#000000" stroke="none" paint-order="stroke fill markers" d=" M 1152.837325142376 574.209517756016 L 1163 570 L 1152.837325142376 565.790482243984"/></g><g><path fill="none" stroke="#000000" paint-order="fill stroke markers" d=" M 1152.837325142376 574.209517756016 L 1163 570 L 1152.837325142376 565.790482243984 L 1152.837325142376 574.209517756016" stroke-miterlimit="10" stroke-dasharray=""/></g><g><rect fill="#ffffff" stroke="none" x="826" y="552" width="195.0888671875" height="13" transform="matrix(1 0 0 1 2 2)"/></g><g><g><path fill="none" stroke="none"/><text fill="#000000" stroke="none" font-family="Arial" font-size="13px" font-style="normal" font-weight="normal" text-decoration="undefined" x="923.54443359375" y="558.5" text-anchor="middle" dominant-baseline="central" transform="matrix(1 0 0 1 2 2)">5 : borrarDisco(id: String):boolean</text></g></g><g><rect fill="#ffffff" stroke="none" x="1161" y="568" width="14" height="40" transform="matrix(1 0 0 1 2 2)"/></g><g><path fill="none" stroke="#000000" paint-order="fill stroke markers" d=" M 1163 570 L 1177 570 L 1177 610 L 1163 610 L 1163 570 Z Z" stroke-miterlimit="10" stroke-dasharray=""/></g><g><path fill="none" stroke="#000000" paint-order="fill stroke markers" d=" M 1170 610 L 688 610" stroke-miterlimit="10" stroke-dasharray="3"/></g><g><path fill="none" stroke="#000000" paint-order="fill stroke markers" d=" M 698.1626748576241 605.790482243984 L 688 610 L 698.1626748576241 614.209517756016" stroke-miterlimit="10" stroke-dasharray=""/></g><g><rect fill="#ffffff" stroke="none" x="906" y="612" width="40.46630859375" height="13" transform="matrix(1 0 0 1 2 2)"/></g><g><g><path fill="none" stroke="none"/><text fill="#000000" stroke="none" font-family="Arial" font-size="13px" font-style="normal" font-weight="normal" text-decoration="undefined" x="926.233154296875" y="618.5" text-anchor="middle" dominant-baseline="central" transform="matrix(1 0 0 1 2 2)">6 : true</text></g></g><g><path fill="none" stroke="#000000" paint-order="fill stroke markers" d=" M 688 698 L 1163 698" stroke-miterlimit="10" stroke-dasharray=""/></g><g><path fill="#000000" stroke="none" paint-order="stroke fill markers" d=" M 1152.837325142376 702.209517756016 L 1163 698 L 1152.837325142376 693.790482243984"/></g><g><path fill="none" stroke="#000000" paint-order="fill stroke markers" d=" M 1152.837325142376 702.209517756016 L 1163 698 L 1152.837325142376 693.790482243984 L 1152.837325142376 702.209517756016" stroke-miterlimit="10" stroke-dasharray=""/></g><g><rect fill="#ffffff" stroke="none" x="819" y="680" width="208.80615234375" height="13" transform="matrix(1 0 0 1 2 2)"/></g><g><g><path fill="none" stroke="none"/><text fill="#000000" stroke="none" font-family="Arial" font-size="13px" font-style="normal" font-weight="normal" text-decoration="undefined" x="923.403076171875" y="686.5" text-anchor="middle" dominant-baseline="central" transform="matrix(1 0 0 1 2 2)">7 : modificarDisco(d: Disco):boolean</text></g></g><g><rect fill="#ffffff" stroke="none" x="1161" y="696" width="14" height="40" transform="matrix(1 0 0 1 2 2)"/></g><g><path fill="none" stroke="#000000" paint-order="fill stroke markers" d=" M 1163 698 L 1177 698 L 1177 738 L 1163 738 L 1163 698 Z Z" stroke-miterlimit="10" stroke-dasharray=""/></g><g><path fill="none" stroke="#000000" paint-order="fill stroke markers" d=" M 1170 738 L 688 738" stroke-miterlimit="10" stroke-dasharray="3"/></g><g><path fill="none" stroke="#000000" paint-order="fill stroke markers" d=" M 698.1626748576241 733.790482243984 L 688 738 L 698.1626748576241 742.209517756016" stroke-miterlimit="10" stroke-dasharray=""/></g><g><rect fill="#ffffff" stroke="none" x="906" y="740" width="40.46630859375" height="13" transform="matrix(1 0 0 1 2 2)"/></g><g><g><path fill="none" stroke="none"/><text fill="#000000" stroke="none" font-family="Arial" font-size="13px" font-style="normal" font-weight="normal" text-decoration="undefined" x="926.233154296875" y="746.5" text-anchor="middle" dominant-baseline="central" transform="matrix(1 0 0 1 2 2)">8 : true</text></g></g><g><path fill="none" stroke="#000000" paint-order="fill stroke markers" d=" M 688 846 L 1163 846" stroke-miterlimit="10" stroke-dasharray=""/></g><g><path fill="#000000" stroke="none" paint-order="stroke fill markers" d=" M 1152.837325142376 850.209517756016 L 1163 846 L 1152.837325142376 841.790482243984"/></g><g><path fill="none" stroke="#000000" paint-order="fill stroke markers" d=" M 1152.837325142376 850.209517756016 L 1163 846 L 1152.837325142376 841.790482243984 L 1152.837325142376 850.209517756016" stroke-miterlimit="10" stroke-dasharray=""/></g><g><rect fill="#ffffff" stroke="none" x="815" y="828" width="217.5087890625" height="13" transform="matrix(1 0 0 1 2 2)"/></g><g><g><path fill="none" stroke="none"/><text fill="#000000" stroke="none" font-family="Arial" font-size="13px" font-style="normal" font-weight="normal" text-decoration="undefined" x="923.75439453125" y="834.5" text-anchor="middle" dominant-baseline="central" transform="matrix(1 0 0 1 2 2)">9 : borrarCancion(id: String):boolean</text></g></g><g><rect fill="#ffffff" stroke="none" x="1161" y="844" width="14" height="40" transform="matrix(1 0 0 1 2 2)"/></g><g><path fill="none" stroke="#000000" paint-order="fill stroke markers" d=" M 1163 846 L 1177 846 L 1177 886 L 1163 886 L 1163 846 Z Z" stroke-miterlimit="10" stroke-dasharray=""/></g><g><path fill="none" stroke="#000000" paint-order="fill stroke markers" d=" M 1163 882 L 688 882" stroke-miterlimit="10" stroke-dasharray="3"/></g><g><path fill="none" stroke="#000000" paint-order="fill stroke markers" d=" M 698.1626748576241 877.790482243984 L 688 882 L 698.1626748576241 886.209517756016" stroke-miterlimit="10" stroke-dasharray=""/></g><g><rect fill="#ffffff" stroke="none" x="899" y="884" width="47.6962890625" height="13" transform="matrix(1 0 0 1 2 2)"/></g><g><g><path fill="none" stroke="none"/><text fill="#000000" stroke="none" font-family="Arial" font-size="13px" font-style="normal" font-weight="normal" text-decoration="undefined" x="922.84814453125" y="890.5" text-anchor="middle" dominant-baseline="central" transform="matrix(1 0 0 1 2 2)">10 : true</text></g></g><g><path fill="none" stroke="#000000" paint-order="fill stroke markers" d=" M 681 914 L 193 914" stroke-miterlimit="10" stroke-dasharray="3"/></g><g><path fill="none" stroke="#000000" paint-order="fill stroke markers" d=" M 203.16267485762415 909.790482243984 L 193 914 L 203.16267485762415 918.209517756016" stroke-miterlimit="10" stroke-dasharray=""/></g><g><rect fill="#ffffff" stroke="none" x="411" y="916" width="46.7314453125" height="13" transform="matrix(1 0 0 1 2 2)"/></g><g><g><path fill="none" stroke="none"/><text fill="#000000" stroke="none" font-family="Arial" font-size="13px" font-style="normal" font-weight="normal" text-decoration="undefined" x="434.36572265625" y="922.5" text-anchor="middle" dominant-baseline="central" transform="matrix(1 0 0 1 2 2)">11 : c</text></g></g><g><path fill="none" stroke="#000000" paint-order="fill stroke markers" d=" M 418 514 L 1234 514 L 1234 779 L 418 779 L 418 514" stroke-miterlimit="10" stroke-dasharray=""/></g><g><path fill="#ffffff" stroke="none" paint-order="stroke fill markers" d=" M 418 514 L 418 537 L 584.3125 537 L 595.8125 525.5 L 595.8125 514 L 418 514"/></g><g><path fill="none" stroke="#000000" paint-order="fill stroke markers" d=" M 418 514 L 418 537 L 584.3125 537 L 595.8125 525.5 L 595.8125 514 L 418 514 L 418 514" stroke-miterlimit="10" stroke-dasharray=""/></g><g><g><path fill="none" stroke="none"/><text fill="#000000" stroke="none" font-family="Arial" font-size="13px" font-style="normal" font-weight="normal" text-decoration="undefined" x="509.021240234375" y="523.5" text-anchor="middle" dominant-baseline="central" transform="matrix(1 0 0 1 2 2)">El disco se queda vacio</text></g></g><g><g><path fill="none" stroke="none"/><text fill="#000000" stroke="none" font-family="Arial" font-size="13px" font-style="normal" font-weight="bold" text-decoration="undefined" x="427.864990234375" y="523.5" text-anchor="middle" dominant-baseline="central" transform="matrix(1 0 0 1 2 2)">alt</text></g></g><g><g><path fill="none" stroke="none"/><text fill="#000000" stroke="none" font-family="Arial" font-size="13px" font-style="normal" font-weight="normal" text-decoration="undefined" x="519.804931640625" y="556.5" text-anchor="middle" dominant-baseline="central" transform="matrix(1 0 0 1 2 2)">[d.cancionesDisco.isEmpty()]</text></g></g><g><path fill="none" stroke="#000000" paint-order="fill stroke markers" d=" M 418 658 L 1234 658" stroke-miterlimit="10" stroke-dasharray="10,3"/></g><g><g><path fill="none" stroke="none"/><text fill="#000000" stroke="none" font-family="Arial" font-size="13px" font-style="normal" font-weight="normal" text-decoration="undefined" x="451.535888671875" y="677.5" text-anchor="middle" dominant-baseline="central" transform="matrix(1 0 0 1 2 2)">[else]</text></g></g><g><path fill="none" stroke="#000000" paint-order="fill stroke markers" d=" M 330 322 L 1282 322 L 1282 802 L 330 802 L 330 322" stroke-miterlimit="10" stroke-dasharray=""/></g><g><path fill="#ffffff" stroke="none" paint-order="stroke fill markers" d=" M 330 322 L 330 345 L 505.68798828125 345 L 517.18798828125 333.5 L 517.18798828125 322 L 330 322"/></g><g><path fill="none" stroke="#000000" paint-order="fill stroke markers" d=" M 330 322 L 330 345 L 505.68798828125 345 L 517.18798828125 333.5 L 517.18798828125 322 L 330 322 L 330 322" stroke-miterlimit="10" stroke-dasharray=""/></g><g><g><path fill="none" stroke="none"/><text fill="#000000" stroke="none" font-family="Arial" font-size="13px" font-style="normal" font-weight="normal" text-decoration="undefined" x="431.133056640625" y="331.5" text-anchor="middle" dominant-baseline="central" transform="matrix(1 0 0 1 2 2)">revisar todos los discos</text></g></g><g><g><path fill="none" stroke="none"/><text fill="#000000" stroke="none" font-family="Arial" font-size="13px" font-style="normal" font-weight="bold" text-decoration="undefined" x="345.2890625" y="331.5" text-anchor="middle" dominant-baseline="central" transform="matrix(1 0 0 1 2 2)">loop</text></g></g><g><g><path fill="none" stroke="none"/><text fill="#000000" stroke="none" font-family="Arial" font-size="13px" font-style="normal" font-weight="normal" text-decoration="undefined" x="468.6689453125" y="364.5" text-anchor="middle" dominant-baseline="central" transform="matrix(1 0 0 1 2 2)">[por cada d:Disco en c.discosPertenece()]</text></g></g></g></svg>