<svg version="1.1" xmlns="http://www.w3.org/2000/svg" xmlns:xlink="http://www.w3.org/1999/xlink" width="1022.15576171875" height="988"><defs/><g><g><rect fill="#C0C0C0" stroke="none" x="55" y="151" width="61.3017578125" height="45" transform="matrix(1 0 0 1 -20 -22)" fill-opacity="0.2"/></g><g><rect fill="#ffffff" stroke="none" x="48" y="144" width="61.3017578125" height="45" transform="matrix(1 0 0 1 -20 -22)"/></g><g><path fill="none" stroke="#000000" paint-order="fill stroke markers" d=" M 28 122 L 89.3017578125 122 L 89.3017578125 167 L 28 167 L 28 122 Z Z" stroke-miterlimit="10" stroke-dasharray=""/></g><g><path fill="none" stroke="#000000" paint-order="fill stroke markers" d=" M 28 147 L 90.3017578125 147" stroke-miterlimit="10" stroke-dasharray=""/></g><g><path fill="none" stroke="#000000" paint-order="fill stroke markers" d=" M 28 157 L 90.3017578125 157" stroke-miterlimit="10" stroke-dasharray=""/></g><g><g><path fill="none" stroke="none"/><text fill="#000000" stroke="none" font-family="Arial" font-size="13px" font-style="normal" font-weight="bold" text-decoration="undefined" x="79.15087890625" y="157.5" text-anchor="middle" dominant-baseline="central" transform="matrix(1 0 0 1 -20 -22)">Usuario</text></g></g><g><rect fill="#C0C0C0" stroke="none" x="55" y="343" width="438.8349609375" height="266" transform="matrix(1 0 0 1 -20 -22)" fill-opacity="0.2"/></g><g><rect fill="#ffffff" stroke="none" x="48" y="336" width="438.8349609375" height="266" transform="matrix(1 0 0 1 -20 -22)"/></g><g><path fill="none" stroke="#000000" paint-order="fill stroke markers" d=" M 28 314 L 466.8349609375 314 L 466.8349609375 580 L 28 580 L 28 314 Z Z" stroke-miterlimit="10" stroke-dasharray=""/></g><g><path fill="none" stroke="#000000" paint-order="fill stroke markers" d=" M 28 339 L 467.8349609375 339" stroke-miterlimit="10" stroke-dasharray=""/></g><g><path fill="none" stroke="#000000" paint-order="fill stroke markers" d=" M 28 392 L 467.8349609375 392" stroke-miterlimit="10" stroke-dasharray=""/></g><g><g><path fill="none" stroke="none"/><text fill="#000000" stroke="none" font-family="Arial" font-size="13px" font-style="normal" font-weight="bold" text-decoration="undefined" x="267.91748046875" y="349.5" text-anchor="middle" dominant-baseline="central" transform="matrix(1 0 0 1 -20 -22)">Productor</text></g></g><g><g><path fill="none" stroke="none"/><text fill="#000000" stroke="none" font-family="Arial" font-size="13px" font-style="normal" font-weight="normal" text-decoration="undefined" x="53" y="372.5" text-anchor="start" dominant-baseline="central" transform="matrix(1 0 0 1 -20 -22)">-docAsociada: File</text></g></g><g><g><path fill="none" stroke="none"/><text fill="#000000" stroke="none" font-family="Arial" font-size="13px" font-style="normal" font-weight="normal" text-decoration="undefined" x="53" y="387.5" text-anchor="start" dominant-baseline="central" transform="matrix(1 0 0 1 -20 -22)">-historicoContratos: File[0..*]</text></g></g><g><g><path fill="none" stroke="none"/><text fill="#000000" stroke="none" font-family="Arial" font-size="13px" font-style="normal" font-weight="normal" text-decoration="undefined" x="53" y="402.5" text-anchor="start" dominant-baseline="central" transform="matrix(1 0 0 1 -20 -22)">-numIntentosVerificacion: Int</text></g></g><g><g><path fill="none" stroke="none"/><text fill="#000000" stroke="none" font-family="Arial" font-size="13px" font-style="normal" font-weight="normal" text-decoration="undefined" x="53" y="425.5" text-anchor="start" dominant-baseline="central" transform="matrix(1 0 0 1 -20 -22)">+anhadirSolicitudChat(aSolicitado: Artista, msgSolicitud: String): Chat</text></g></g><g><g><path fill="none" stroke="none"/><text fill="#000000" stroke="none" font-family="Arial" font-size="13px" font-style="normal" font-weight="normal" text-decoration="undefined" x="53" y="440.5" text-anchor="start" dominant-baseline="central" transform="matrix(1 0 0 1 -20 -22)">+eliminarSolicitudChat(c: Chat): Boolean</text></g></g><g><g><path fill="none" stroke="none"/><text fill="#000000" stroke="none" font-family="Arial" font-size="13px" font-style="normal" font-weight="normal" text-decoration="undefined" x="53" y="455.5" text-anchor="start" dominant-baseline="central" transform="matrix(1 0 0 1 -20 -22)">+archivarChat(c: Chat, archivar: Boolean): Boolean</text></g></g><g><g><path fill="none" stroke="none"/><text fill="#000000" stroke="none" font-family="Arial" font-size="13px" font-style="normal" font-weight="normal" text-decoration="undefined" x="53" y="470.5" text-anchor="start" dominant-baseline="central" transform="matrix(1 0 0 1 -20 -22)">+enviarMensajeChat(c: Chat, msg: String): Boolean</text></g></g><g><g><path fill="none" stroke="none"/><text fill="#000000" stroke="none" font-family="Arial" font-size="13px" font-style="normal" font-weight="normal" text-decoration="undefined" x="53" y="485.5" text-anchor="start" dominant-baseline="central" transform="matrix(1 0 0 1 -20 -22)">+bloquearChat(c: Chat, bloquear: Boolean): Boolean</text></g></g><g><g><path fill="none" stroke="none"/><text fill="#000000" stroke="none" font-family="Arial" font-size="13px" font-style="normal" font-weight="normal" text-decoration="undefined" x="53" y="500.5" text-anchor="start" dominant-baseline="central" transform="matrix(1 0 0 1 -20 -22)">+anhadirDocumentacionProductor(docAsociada: File): Boolean</text></g></g><g><g><path fill="none" stroke="none"/><text fill="#000000" stroke="none" font-family="Arial" font-size="13px" font-style="normal" font-weight="normal" text-decoration="undefined" x="53" y="515.5" text-anchor="start" dominant-baseline="central" transform="matrix(1 0 0 1 -20 -22)">+modificarDocumentacionProductor(docAsociada: File): Boolean</text></g></g><g><g><path fill="none" stroke="none"/><text fill="#000000" stroke="none" font-family="Arial" font-size="13px" font-style="normal" font-weight="normal" text-decoration="undefined" x="53" y="530.5" text-anchor="start" dominant-baseline="central" transform="matrix(1 0 0 1 -20 -22)">+eliminarDocumentacionProductor(): Boolean</text></g></g><g><g><path fill="none" stroke="none"/><text fill="#000000" stroke="none" font-family="Arial" font-size="13px" font-style="normal" font-weight="normal" text-decoration="undefined" x="53" y="545.5" text-anchor="start" dominant-baseline="central" transform="matrix(1 0 0 1 -20 -22)">+anhadirContratoHistorico(contrato: File): Boolean</text></g></g><g><g><path fill="none" stroke="none"/><text fill="#000000" stroke="none" font-family="Arial" font-size="13px" font-style="normal" font-weight="normal" text-decoration="undefined" x="53" y="560.5" text-anchor="start" dominant-baseline="central" transform="matrix(1 0 0 1 -20 -22)">+modificarContratoHistorico(contrato: File): Boolean</text></g></g><g><g><path fill="none" stroke="none"/><text fill="#000000" stroke="none" font-family="Arial" font-size="13px" font-style="normal" font-weight="normal" text-decoration="undefined" x="53" y="575.5" text-anchor="start" dominant-baseline="central" transform="matrix(1 0 0 1 -20 -22)">+eliminarContratoHistorico(contrato: File): Boolean</text></g></g><g><path fill="none" stroke="#000000" paint-order="fill stroke markers" d=" M 60 314 L 60 167" stroke-miterlimit="10" stroke-dasharray=""/></g><g><path fill="#FFFFFF" stroke="none" paint-order="stroke fill markers" d=" M 68.41903551203198 187.3253497152483 L 60 167 L 51.58096448796803 187.3253497152483"/></g><g><path fill="none" stroke="#000000" paint-order="fill stroke markers" d=" M 68.41903551203198 187.3253497152483 L 60 167 L 51.58096448796803 187.3253497152483 L 68.41903551203198 187.3253497152483" stroke-miterlimit="10" stroke-dasharray=""/></g><g><rect fill="#C0C0C0" stroke="none" x="55" y="743" width="167.51708984375" height="98" transform="matrix(1 0 0 1 -20 -22)" fill-opacity="0.2"/></g><g><rect fill="#ffffff" stroke="none" x="48" y="736" width="167.51708984375" height="98" transform="matrix(1 0 0 1 -20 -22)"/></g><g><path fill="none" stroke="#000000" paint-order="fill stroke markers" d=" M 28 714 L 195.51708984375 714 L 195.51708984375 812 L 28 812 L 28 714 Z Z" stroke-miterlimit="10" stroke-dasharray=""/></g><g><path fill="none" stroke="#000000" paint-order="fill stroke markers" d=" M 28 739 L 196.51708984375 739" stroke-miterlimit="10" stroke-dasharray=""/></g><g><path fill="none" stroke="#000000" paint-order="fill stroke markers" d=" M 28 792 L 196.51708984375 792" stroke-miterlimit="10" stroke-dasharray=""/></g><g><path fill="none" stroke="#000000" paint-order="fill stroke markers" d=" M 28 802 L 196.51708984375 802" stroke-miterlimit="10" stroke-dasharray=""/></g><g><g><path fill="none" stroke="none"/><text fill="#000000" stroke="none" font-family="Arial" font-size="13px" font-style="normal" font-weight="bold" text-decoration="undefined" x="132.258544921875" y="749.5" text-anchor="middle" dominant-baseline="central" transform="matrix(1 0 0 1 -20 -22)">Chat</text></g></g><g><g><path fill="none" stroke="none"/><text fill="#000000" stroke="none" font-family="Arial" font-size="13px" font-style="normal" font-weight="normal" text-decoration="undefined" x="53" y="772.5" text-anchor="start" dominant-baseline="central" transform="matrix(1 0 0 1 -20 -22)">-aAceptaChat: Bool</text></g></g><g><g><path fill="none" stroke="none"/><text fill="#000000" stroke="none" font-family="Arial" font-size="13px" font-style="normal" font-weight="normal" text-decoration="undefined" x="53" y="787.5" text-anchor="start" dominant-baseline="central" transform="matrix(1 0 0 1 -20 -22)">-cBloqueadoPorU: Usuario</text></g></g><g><g><path fill="none" stroke="none"/><text fill="#000000" stroke="none" font-family="Arial" font-size="13px" font-style="normal" font-weight="normal" text-decoration="undefined" x="53" y="802.5" text-anchor="start" dominant-baseline="central" transform="matrix(1 0 0 1 -20 -22)">-cArchivadoPorU: Usuario</text></g></g><g><rect fill="#C0C0C0" stroke="none" x="639" y="759" width="399.15576171875" height="133" transform="matrix(1 0 0 1 -20 -22)" fill-opacity="0.2"/></g><g><rect fill="#ffffff" stroke="none" x="632" y="752" width="399.15576171875" height="133" transform="matrix(1 0 0 1 -20 -22)"/></g><g><path fill="none" stroke="#000000" paint-order="fill stroke markers" d=" M 612 730 L 1011.15576171875 730 L 1011.15576171875 863 L 612 863 L 612 730 Z Z" stroke-miterlimit="10" stroke-dasharray=""/></g><g><path fill="none" stroke="#000000" paint-order="fill stroke markers" d=" M 612 755 L 1012.15576171875 755" stroke-miterlimit="10" stroke-dasharray=""/></g><g><path fill="none" stroke="#000000" paint-order="fill stroke markers" d=" M 612 765 L 1012.15576171875 765" stroke-miterlimit="10" stroke-dasharray=""/></g><g><g><path fill="none" stroke="none"/><text fill="#000000" stroke="none" font-family="Arial" font-size="13px" font-style="normal" font-weight="bold" text-decoration="undefined" x="832.077880859375" y="765.5" text-anchor="middle" dominant-baseline="central" transform="matrix(1 0 0 1 -20 -22)">Artista</text></g></g><g><g><path fill="none" stroke="none"/><text fill="#000000" stroke="none" font-family="Arial" font-size="13px" font-style="normal" font-weight="normal" text-decoration="undefined" x="637" y="798.5" text-anchor="start" dominant-baseline="central" transform="matrix(1 0 0 1 -20 -22)">+eliminarSolicitudChat(c: Chat): Boolean</text></g></g><g><g><path fill="none" stroke="none"/><text fill="#000000" stroke="none" font-family="Arial" font-size="13px" font-style="normal" font-weight="normal" text-decoration="undefined" x="637" y="813.5" text-anchor="start" dominant-baseline="central" transform="matrix(1 0 0 1 -20 -22)">+bloquearSolicitudChatArtista(c: Chat, bloquear: Boolean): Boolean</text></g></g><g><g><path fill="none" stroke="none"/><text fill="#000000" stroke="none" font-family="Arial" font-size="13px" font-style="normal" font-weight="normal" text-decoration="undefined" x="637" y="828.5" text-anchor="start" dominant-baseline="central" transform="matrix(1 0 0 1 -20 -22)">+autorizarChatArtista(c: Chat, autorizar: Boolean): Boolean</text></g></g><g><g><path fill="none" stroke="none"/><text fill="#000000" stroke="none" font-family="Arial" font-size="13px" font-style="normal" font-weight="normal" text-decoration="undefined" x="637" y="843.5" text-anchor="start" dominant-baseline="central" transform="matrix(1 0 0 1 -20 -22)">+archivarChat(c: Chat, archivar: Boolean): Boolean</text></g></g><g><g><path fill="none" stroke="none"/><text fill="#000000" stroke="none" font-family="Arial" font-size="13px" font-style="normal" font-weight="normal" text-decoration="undefined" x="637" y="858.5" text-anchor="start" dominant-baseline="central" transform="matrix(1 0 0 1 -20 -22)">+enviarMensajeChat(c: Chat, msg: String): Boolean</text></g></g><g><g><path fill="none" stroke="none"/><text fill="#000000" stroke="none" font-family="Arial" font-size="13px" font-style="normal" font-weight="normal" text-decoration="undefined" x="637" y="873.5" text-anchor="start" dominant-baseline="central" transform="matrix(1 0 0 1 -20 -22)">+bloquearChat(c: Chat, bloquear: Boolean): Boolean</text></g></g><g><rect fill="#C0C0C0" stroke="none" x="87" y="919" width="109.9375" height="88" transform="matrix(1 0 0 1 -20 -22)" fill-opacity="0.2"/></g><g><rect fill="#ffffff" stroke="none" x="80" y="912" width="109.9375" height="88" transform="matrix(1 0 0 1 -20 -22)"/></g><g><path fill="none" stroke="#000000" paint-order="fill stroke markers" d=" M 60 890 L 169.9375 890 L 169.9375 978 L 60 978 L 60 890 Z Z" stroke-miterlimit="10" stroke-dasharray=""/></g><g><path fill="none" stroke="#000000" paint-order="fill stroke markers" d=" M 60 915 L 170.9375 915" stroke-miterlimit="10" stroke-dasharray=""/></g><g><path fill="none" stroke="#000000" paint-order="fill stroke markers" d=" M 60 968 L 170.9375 968" stroke-miterlimit="10" stroke-dasharray=""/></g><g><g><path fill="none" stroke="none"/><text fill="#000000" stroke="none" font-family="Arial" font-size="13px" font-style="normal" font-weight="bold" text-decoration="undefined" x="135.46875" y="925.5" text-anchor="middle" dominant-baseline="central" transform="matrix(1 0 0 1 -20 -22)">Mensaje</text></g></g><g><g><path fill="none" stroke="none"/><text fill="#000000" stroke="none" font-family="Arial" font-size="13px" font-style="normal" font-weight="normal" text-decoration="undefined" x="85" y="948.5" text-anchor="start" dominant-baseline="central" transform="matrix(1 0 0 1 -20 -22)">-texto: String</text></g></g><g><g><path fill="none" stroke="none"/><text fill="#000000" stroke="none" font-family="Arial" font-size="13px" font-style="normal" font-weight="normal" text-decoration="undefined" x="85" y="963.5" text-anchor="start" dominant-baseline="central" transform="matrix(1 0 0 1 -20 -22)">-fechaHora: Time</text></g></g><g><g><path fill="none" stroke="none"/><text fill="#000000" stroke="none" font-family="Arial" font-size="13px" font-style="normal" font-weight="normal" text-decoration="undefined" x="85" y="978.5" text-anchor="start" dominant-baseline="central" transform="matrix(1 0 0 1 -20 -22)">-autor: Usuario</text></g></g><g><rect fill="#C0C0C0" stroke="none" x="615" y="399" width="208.7197265625" height="58" transform="matrix(1 0 0 1 -20 -22)" fill-opacity="0.2"/></g><g><rect fill="#ffffff" stroke="none" x="608" y="392" width="208.7197265625" height="58" transform="matrix(1 0 0 1 -20 -22)"/></g><g><path fill="none" stroke="#000000" paint-order="fill stroke markers" d=" M 588 370 L 796.7197265625 370 L 796.7197265625 428 L 588 428 L 588 370 Z Z" stroke-miterlimit="10" stroke-dasharray=""/></g><g><path fill="none" stroke="#000000" paint-order="fill stroke markers" d=" M 588 395 L 797.7197265625 395" stroke-miterlimit="10" stroke-dasharray=""/></g><g><path fill="none" stroke="#000000" paint-order="fill stroke markers" d=" M 588 405 L 797.7197265625 405" stroke-miterlimit="10" stroke-dasharray=""/></g><g><g><path fill="none" stroke="none"/><text fill="#000000" stroke="none" font-family="Arial" font-size="13px" font-style="normal" font-weight="bold" text-decoration="undefined" x="712.85986328125" y="405.5" text-anchor="middle" dominant-baseline="central" transform="matrix(1 0 0 1 -20 -22)">Influencer</text></g></g><g><path fill="none" stroke="#000000" paint-order="fill stroke markers" d=" M 467 396 L 588 396" stroke-miterlimit="10" stroke-dasharray=""/></g><g><path fill="none" stroke="#000000" paint-order="fill stroke markers" d=" M 577.8373251423759 400.209517756016 L 588 396 L 577.8373251423758 391.790482243984" stroke-miterlimit="10" stroke-dasharray=""/></g><g><rect fill="#ffffff" stroke="none" x="536" y="396" width="64.68896484375" height="13" transform="matrix(1 0 0 1 -20 -22)"/></g><g><g><path fill="none" stroke="none"/><text fill="#000000" stroke="none" font-family="Arial" font-size="13px" font-style="normal" font-weight="normal" text-decoration="undefined" x="568.344482421875" y="402.5" text-anchor="middle" dominant-baseline="central" transform="matrix(1 0 0 1 -20 -22)">-iSeguidos</text></g></g><g><rect fill="#ffffff" stroke="none" x="577" y="424" width="19.5126953125" height="13" transform="matrix(1 0 0 1 -20 -22)"/></g><g><g><path fill="none" stroke="none"/><text fill="#000000" stroke="none" font-family="Arial" font-size="13px" font-style="normal" font-weight="normal" text-decoration="undefined" x="586.75634765625" y="430.5" text-anchor="middle" dominant-baseline="central" transform="matrix(1 0 0 1 -20 -22)">0..*</text></g></g><g><path fill="none" stroke="#000000" paint-order="fill stroke markers" d=" M 668 428 L 668 730" stroke-miterlimit="10" stroke-dasharray=""/></g><g><path fill="none" stroke="#000000" paint-order="fill stroke markers" d=" M 663.790482243984 719.8373251423759 L 668 730 L 672.209517756016 719.8373251423759" stroke-miterlimit="10" stroke-dasharray=""/></g><g><rect fill="#ffffff" stroke="none" x="567" y="720" width="105.87890625" height="13" transform="matrix(1 0 0 1 -20 -22)"/></g><g><g><path fill="none" stroke="none"/><text fill="#000000" stroke="none" font-family="Arial" font-size="13px" font-style="normal" font-weight="normal" text-decoration="undefined" x="619.939453125" y="726.5" text-anchor="middle" dominant-baseline="central" transform="matrix(1 0 0 1 -20 -22)">-aRecomendados</text></g></g><g><rect fill="#ffffff" stroke="none" x="696" y="720" width="19.5126953125" height="13" transform="matrix(1 0 0 1 -20 -22)"/></g><g><g><path fill="none" stroke="none"/><text fill="#000000" stroke="none" font-family="Arial" font-size="13px" font-style="normal" font-weight="normal" text-decoration="undefined" x="705.75634765625" y="726.5" text-anchor="middle" dominant-baseline="central" transform="matrix(1 0 0 1 -20 -22)">0..*</text></g></g><g><rect fill="#C0C0C0" stroke="none" x="639" y="143" width="73.2353515625" height="58" transform="matrix(1 0 0 1 -20 -22)" fill-opacity="0.2"/></g><g><rect fill="#ffffff" stroke="none" x="632" y="136" width="73.2353515625" height="58" transform="matrix(1 0 0 1 -20 -22)"/></g><g><path fill="none" stroke="#000000" paint-order="fill stroke markers" d=" M 612 114 L 685.2353515625 114 L 685.2353515625 172 L 612 172 L 612 114 Z Z" stroke-miterlimit="10" stroke-dasharray=""/></g><g><path fill="none" stroke="#000000" paint-order="fill stroke markers" d=" M 612 139 L 686.2353515625 139" stroke-miterlimit="10" stroke-dasharray=""/></g><g><path fill="none" stroke="#000000" paint-order="fill stroke markers" d=" M 612 149 L 686.2353515625 149" stroke-miterlimit="10" stroke-dasharray=""/></g><g><g><path fill="none" stroke="none"/><text fill="#000000" stroke="none" font-family="Arial" font-size="13px" font-style="normal" font-weight="bold" text-decoration="undefined" x="669.11767578125" y="149.5" text-anchor="middle" dominant-baseline="central" transform="matrix(1 0 0 1 -20 -22)">Cancion</text></g></g><g><path fill="none" stroke="#000000" paint-order="fill stroke markers" d=" M 664 370 L 664 172" stroke-miterlimit="10" stroke-dasharray=""/></g><g><path fill="none" stroke="#000000" paint-order="fill stroke markers" d=" M 668.209517756016 182.16267485762415 L 664 172 L 659.790482243984 182.16267485762415" stroke-miterlimit="10" stroke-dasharray=""/></g><g><rect fill="#ffffff" stroke="none" x="563" y="207" width="105.14892578125" height="13" transform="matrix(1 0 0 1 -20 -22)"/></g><g><g><path fill="none" stroke="none"/><text fill="#000000" stroke="none" font-family="Arial" font-size="13px" font-style="normal" font-weight="normal" text-decoration="undefined" x="615.574462890625" y="213.5" text-anchor="middle" dominant-baseline="central" transform="matrix(1 0 0 1 -20 -22)">-cRecomendados</text></g></g><g><rect fill="#ffffff" stroke="none" x="700" y="208" width="19.5126953125" height="13" transform="matrix(1 0 0 1 -20 -22)"/></g><g><g><path fill="none" stroke="none"/><text fill="#000000" stroke="none" font-family="Arial" font-size="13px" font-style="normal" font-weight="normal" text-decoration="undefined" x="709.75634765625" y="214.5" text-anchor="middle" dominant-baseline="central" transform="matrix(1 0 0 1 -20 -22)">0..*</text></g></g><g><path fill="none" stroke="#000000" paint-order="fill stroke markers" d=" M 108 812 L 108 890" stroke-miterlimit="10" stroke-dasharray=""/></g><g><path fill="none" stroke="#000000" paint-order="fill stroke markers" d=" M 103.79048224398402 879.8373251423759 L 108 890 L 112.209517756016 879.8373251423759" stroke-miterlimit="10" stroke-dasharray=""/></g><g><rect fill="#ffffff" stroke="none" x="55" y="888" width="63.22900390625" height="13" transform="matrix(1 0 0 1 -20 -22)"/></g><g><g><path fill="none" stroke="none"/><text fill="#000000" stroke="none" font-family="Arial" font-size="13px" font-style="normal" font-weight="normal" text-decoration="undefined" x="86.614501953125" y="894.5" text-anchor="middle" dominant-baseline="central" transform="matrix(1 0 0 1 -20 -22)">-mensajes</text></g></g><g><rect fill="#ffffff" stroke="none" x="136" y="888" width="19.5126953125" height="13" transform="matrix(1 0 0 1 -20 -22)"/></g><g><g><path fill="none" stroke="none"/><text fill="#000000" stroke="none" font-family="Arial" font-size="13px" font-style="normal" font-weight="normal" text-decoration="undefined" x="145.75634765625" y="894.5" text-anchor="middle" dominant-baseline="central" transform="matrix(1 0 0 1 -20 -22)">0..*</text></g></g><g><path fill="none" stroke="#000000" paint-order="fill stroke markers" d=" M 664 172 L 664 302 L 828 302 L 828 730" stroke-miterlimit="10" stroke-dasharray=""/></g><g><path fill="none" stroke="#000000" paint-order="fill stroke markers" d=" M 823.790482243984 719.8373251423759 L 828 730 L 832.209517756016 719.8373251423759" stroke-miterlimit="10" stroke-dasharray=""/></g><g><rect fill="#ffffff" stroke="none" x="788" y="693" width="89.9716796875" height="13" transform="matrix(1 0 0 1 -20 -22)"/></g><g><g><path fill="none" stroke="none"/><text fill="#000000" stroke="none" font-family="Arial" font-size="13px" font-style="normal" font-weight="normal" text-decoration="undefined" x="832.98583984375" y="699.5" text-anchor="middle" dominant-baseline="central" transform="matrix(1 0 0 1 -20 -22)">-aParticipantes</text></g></g><g><rect fill="#ffffff" stroke="none" x="854" y="724" width="19.5126953125" height="13" transform="matrix(1 0 0 1 -20 -22)"/></g><g><g><path fill="none" stroke="none"/><text fill="#000000" stroke="none" font-family="Arial" font-size="13px" font-style="normal" font-weight="normal" text-decoration="undefined" x="863.75634765625" y="730.5" text-anchor="middle" dominant-baseline="central" transform="matrix(1 0 0 1 -20 -22)">1..*</text></g></g><g><path fill="#ffffff" stroke="none" paint-order="stroke fill markers" d=" M 316 178 L 521 178 L 531 188 L 531 273 L 316 273 L 316 178"/></g><g><path fill="none" stroke="#000000" paint-order="fill stroke markers" d=" M 316 178 L 521 178 L 531 188 L 531 273 L 316 273 L 316 178 L 316 178" stroke-miterlimit="10" stroke-dasharray=""/></g><g><path fill="none" stroke="#000000" paint-order="fill stroke markers" d=" M 521 178 L 521 188 L 531 188 L 521 178" stroke-miterlimit="10" stroke-dasharray=""/></g><g><g><path fill="none" stroke="none"/><text fill="#000000" stroke="none" font-family="Arial" font-size="13px" font-style="normal" font-weight="normal" text-decoration="undefined" x="341" y="205" text-anchor="start" dominant-baseline="text-before-edge" transform="matrix(1 0 0 1 -20 -22)">Si los Usuarios seguidos por el</text><text fill="#000000" stroke="none" font-family="Arial" font-size="13px" font-style="normal" font-weight="normal" text-decoration="undefined" x="341" y="218" text-anchor="start" dominant-baseline="text-before-edge" transform="matrix(1 0 0 1 -20 -22)">Usuario son Influencers, se añaden</text><text fill="#000000" stroke="none" font-family="Arial" font-size="13px" font-style="normal" font-weight="normal" text-decoration="undefined" x="341" y="231" text-anchor="start" dominant-baseline="text-before-edge" transform="matrix(1 0 0 1 -20 -22)">a la lista iSeguidos</text></g></g><g><path fill="none" stroke="#000000" paint-order="fill stroke markers" d=" M 527 396 L 500 396 L 500 274" stroke-miterlimit="10" stroke-dasharray="3"/></g><g><path fill="none" stroke="#000000" paint-order="fill stroke markers" d=" M 108 714 L 108 580" stroke-miterlimit="10" stroke-dasharray=""/></g><g><rect fill="#ffffff" stroke="none" x="30" y="712" width="86.34716796875" height="13" transform="matrix(1 0 0 1 -20 -22)"/></g><g><g><path fill="none" stroke="none"/><text fill="#000000" stroke="none" font-family="Arial" font-size="13px" font-style="normal" font-weight="normal" text-decoration="undefined" x="73.173583984375" y="718.5" text-anchor="middle" dominant-baseline="central" transform="matrix(1 0 0 1 -20 -22)">-historialChats</text></g></g><g><rect fill="#ffffff" stroke="none" x="136" y="712" width="19.5126953125" height="13" transform="matrix(1 0 0 1 -20 -22)"/></g><g><g><path fill="none" stroke="none"/><text fill="#000000" stroke="none" font-family="Arial" font-size="13px" font-style="normal" font-weight="normal" text-decoration="undefined" x="145.75634765625" y="718.5" text-anchor="middle" dominant-baseline="central" transform="matrix(1 0 0 1 -20 -22)">0..*</text></g></g><g><rect fill="#ffffff" stroke="none" x="39" y="610" width="83.4716796875" height="13" transform="matrix(1 0 0 1 -20 -22)"/></g><g><g><path fill="none" stroke="none"/><text fill="#000000" stroke="none" font-family="Arial" font-size="13px" font-style="normal" font-weight="normal" text-decoration="undefined" x="80.73583984375" y="616.5" text-anchor="middle" dominant-baseline="central" transform="matrix(1 0 0 1 -20 -22)">-pParticipante</text></g></g><g><rect fill="#ffffff" stroke="none" x="137" y="610" width="7.22998046875" height="13" transform="matrix(1 0 0 1 -20 -22)"/></g><g><g><path fill="none" stroke="none"/><text fill="#000000" stroke="none" font-family="Arial" font-size="13px" font-style="normal" font-weight="normal" text-decoration="undefined" x="140.614990234375" y="616.5" text-anchor="middle" dominant-baseline="central" transform="matrix(1 0 0 1 -20 -22)">1</text></g></g><g><path fill="none" stroke="#000000" paint-order="fill stroke markers" d=" M 196 762 L 612 762" stroke-miterlimit="10" stroke-dasharray=""/></g><g><rect fill="#ffffff" stroke="none" x="224" y="760" width="86.34716796875" height="13" transform="matrix(1 0 0 1 -20 -22)"/></g><g><g><path fill="none" stroke="none"/><text fill="#000000" stroke="none" font-family="Arial" font-size="13px" font-style="normal" font-weight="normal" text-decoration="undefined" x="267.173583984375" y="766.5" text-anchor="middle" dominant-baseline="central" transform="matrix(1 0 0 1 -20 -22)">-historialChats</text></g></g><g><rect fill="#ffffff" stroke="none" x="228" y="790" width="19.5126953125" height="13" transform="matrix(1 0 0 1 -20 -22)"/></g><g><g><path fill="none" stroke="none"/><text fill="#000000" stroke="none" font-family="Arial" font-size="13px" font-style="normal" font-weight="normal" text-decoration="undefined" x="237.75634765625" y="796.5" text-anchor="middle" dominant-baseline="central" transform="matrix(1 0 0 1 -20 -22)">0..*</text></g></g><g><rect fill="#ffffff" stroke="none" x="536" y="759" width="83.4716796875" height="13" transform="matrix(1 0 0 1 -20 -22)"/></g><g><g><path fill="none" stroke="none"/><text fill="#000000" stroke="none" font-family="Arial" font-size="13px" font-style="normal" font-weight="normal" text-decoration="undefined" x="577.73583984375" y="765.5" text-anchor="middle" dominant-baseline="central" transform="matrix(1 0 0 1 -20 -22)">-aParticipante</text></g></g><g><rect fill="#ffffff" stroke="none" x="607" y="790" width="7.22998046875" height="13" transform="matrix(1 0 0 1 -20 -22)"/></g><g><g><path fill="none" stroke="none"/><text fill="#000000" stroke="none" font-family="Arial" font-size="13px" font-style="normal" font-weight="normal" text-decoration="undefined" x="610.614990234375" y="796.5" text-anchor="middle" dominant-baseline="central" transform="matrix(1 0 0 1 -20 -22)">1</text></g></g><g><g><path fill="none" stroke="none"/><text fill="#000000" stroke="none" font-family="Helvetica" font-size="28px" font-style="normal" font-weight="normal" text-decoration="undefined" x="149" y="37" text-anchor="start" dominant-baseline="text-before-edge" transform="matrix(1 0 0 1 -20 -22)">Productor - Adrián Del Rio</text></g></g><g><rect fill="#C0C0C0" stroke="none" x="167" y="127" width="116.22802734375" height="96" transform="matrix(1 0 0 1 -20 -22)" fill-opacity="0.2"/></g><g><rect fill="#ffffff" stroke="none" x="160" y="120" width="116.22802734375" height="96" transform="matrix(1 0 0 1 -20 -22)"/></g><g><path fill="none" stroke="#000000" paint-order="fill stroke markers" d=" M 140 98 L 256.22802734375 98 L 256.22802734375 194 L 140 194 L 140 98 Z Z" stroke-miterlimit="10" stroke-dasharray=""/></g><g><path fill="none" stroke="#000000" paint-order="fill stroke markers" d=" M 140 136 L 257.22802734375 136" stroke-miterlimit="10" stroke-dasharray=""/></g><g><g><path fill="none" stroke="none"/><text fill="#000000" stroke="none" font-family="Arial" font-size="13px" font-style="normal" font-weight="normal" text-decoration="undefined" x="218.614013671875" y="131.5" text-anchor="middle" dominant-baseline="central" transform="matrix(1 0 0 1 -20 -22)">«enumeration»</text></g></g><g><g><path fill="none" stroke="none"/><text fill="#000000" stroke="none" font-family="Arial" font-size="13px" font-style="normal" font-weight="bold" text-decoration="undefined" x="218.614013671875" y="146.5" text-anchor="middle" dominant-baseline="central" transform="matrix(1 0 0 1 -20 -22)">EstadoProductor</text></g></g><g><g><path fill="none" stroke="none"/><text fill="#000000" stroke="none" font-family="Arial" font-size="13px" font-style="normal" font-weight="normal" text-decoration="undefined" x="165" y="169.5" text-anchor="start" dominant-baseline="central" transform="matrix(1 0 0 1 -20 -22)">sinVerificar</text></g></g><g><g><path fill="none" stroke="none"/><text fill="#000000" stroke="none" font-family="Arial" font-size="13px" font-style="normal" font-weight="normal" text-decoration="undefined" x="165" y="184.5" text-anchor="start" dominant-baseline="central" transform="matrix(1 0 0 1 -20 -22)">esperaVerificacion</text></g></g><g><g><path fill="none" stroke="none"/><text fill="#000000" stroke="none" font-family="Arial" font-size="13px" font-style="normal" font-weight="normal" text-decoration="undefined" x="165" y="199.5" text-anchor="start" dominant-baseline="central" transform="matrix(1 0 0 1 -20 -22)">verificado</text></g></g><g><path fill="none" stroke="#000000" paint-order="fill stroke markers" d=" M 196 314 L 196 194" stroke-miterlimit="10" stroke-dasharray=""/></g><g><path fill="none" stroke="#000000" paint-order="fill stroke markers" d=" M 200.209517756016 204.16267485762415 L 196 194 L 191.790482243984 204.16267485762415" stroke-miterlimit="10" stroke-dasharray=""/></g><g><rect fill="#ffffff" stroke="none" x="103" y="234" width="102.984375" height="13" transform="matrix(1 0 0 1 -20 -22)"/></g><g><g><path fill="none" stroke="none"/><text fill="#000000" stroke="none" font-family="Arial" font-size="13px" font-style="normal" font-weight="normal" text-decoration="undefined" x="154.4921875" y="240.5" text-anchor="middle" dominant-baseline="central" transform="matrix(1 0 0 1 -20 -22)">-estadoProductor</text></g></g><g><rect fill="#ffffff" stroke="none" x="232" y="231" width="7.22998046875" height="13" transform="matrix(1 0 0 1 -20 -22)"/></g><g><g><path fill="none" stroke="none"/><text fill="#000000" stroke="none" font-family="Arial" font-size="13px" font-style="normal" font-weight="normal" text-decoration="undefined" x="235.614990234375" y="237.5" text-anchor="middle" dominant-baseline="central" transform="matrix(1 0 0 1 -20 -22)">1</text></g></g><g><path fill="#ffffff" stroke="none" paint-order="stroke fill markers" d=" M 292 74 L 577 74 L 587 84 L 587 137 L 292 137 L 292 74"/></g><g><path fill="none" stroke="#000000" paint-order="fill stroke markers" d=" M 292 74 L 577 74 L 587 84 L 587 137 L 292 137 L 292 74 L 292 74" stroke-miterlimit="10" stroke-dasharray=""/></g><g><path fill="none" stroke="#000000" paint-order="fill stroke markers" d=" M 577 74 L 577 84 L 587 84 L 577 74" stroke-miterlimit="10" stroke-dasharray=""/></g><g><g><path fill="none" stroke="none"/><text fill="#000000" stroke="none" font-family="Arial" font-size="13px" font-style="normal" font-weight="normal" text-decoration="undefined" x="317" y="101" text-anchor="start" dominant-baseline="text-before-edge" transform="matrix(1 0 0 1 -20 -22)">La prioridad para que los Admin's verifiquen la</text><text fill="#000000" stroke="none" font-family="Arial" font-size="13px" font-style="normal" font-weight="normal" text-decoration="undefined" x="317" y="114" text-anchor="start" dominant-baseline="text-before-edge" transform="matrix(1 0 0 1 -20 -22)">documentación de Productor se basa en el</text><text fill="#000000" stroke="none" font-family="Arial" font-size="13px" font-style="normal" font-weight="normal" text-decoration="undefined" x="317" y="127" text-anchor="start" dominant-baseline="text-before-edge" transform="matrix(1 0 0 1 -20 -22)">numero de intentos de verificación (prioridad de</text><text fill="#000000" stroke="none" font-family="Arial" font-size="13px" font-style="normal" font-weight="normal" text-decoration="undefined" x="317" y="140" text-anchor="start" dominant-baseline="text-before-edge" transform="matrix(1 0 0 1 -20 -22)">menor a mayor)</text></g></g><g><path fill="none" stroke="#000000" paint-order="fill stroke markers" d=" M 268 314 L 268 98 L 292 98" stroke-miterlimit="10" stroke-dasharray="3"/></g></g></svg>