<svg version="1.1" xmlns="http://www.w3.org/2000/svg" xmlns:xlink="http://www.w3.org/1999/xlink" width="1637" height="1516"><defs/><g><g><rect fill="#C0C0C0" stroke="none" x="351" y="111" width="960" height="1448" transform="matrix(1 0 0 1 -38 -46)" fill-opacity="0.2"/></g><g><rect fill="#ffffff" stroke="none" x="344" y="104" width="960" height="1448" transform="matrix(1 0 0 1 -38 -46)"/></g><g><path fill="none" stroke="#000000" paint-order="fill stroke markers" d=" M 306 58 L 1266 58 L 1266 1506 L 306 1506 L 306 58 Z Z" stroke-miterlimit="10" stroke-dasharray=""/></g><g><g><path fill="none" stroke="none"/><text fill="#000000" stroke="none" font-family="Arial" font-size="13px" font-style="normal" font-weight="bold" text-decoration="undefined" x="824.5" y="117.5" text-anchor="middle" dominant-baseline="central" transform="matrix(1 0 0 1 -38 -46)">Gestionar productor</text></g></g><g><path fill="#ffffff" stroke="none" paint-order="stroke fill markers" d=" M 37.222255859375 635.85 C 37.222255859375 630.96227952 41.180058227375 627 46.062255859375 627 C 50.944453491375 627 54.902255859375 630.96227952 54.902255859375 635.85 C 54.902255859375 640.73772048 50.944453491375 644.7 46.062255859375 644.7 C 41.180058227375 644.7 37.222255859375 640.73772048 37.222255859375 635.85 Z"/></g><g><path fill="none" stroke="#000000" paint-order="fill stroke markers" d=" M 37.222255859375 635.85 C 37.222255859375 630.96227952 41.180058227375 627 46.062255859375 627 C 50.944453491375 627 54.902255859375 630.96227952 54.902255859375 635.85 C 54.902255859375 640.73772048 50.944453491375 644.7 46.062255859375 644.7 C 41.180058227375 644.7 37.222255859375 640.73772048 37.222255859375 635.85 Z" stroke-miterlimit="10" stroke-dasharray=""/></g><g><path fill="none" stroke="#000000" paint-order="fill stroke markers" d=" M 46.062255859375 644.7 L 46.062255859375 662.3" stroke-miterlimit="10" stroke-dasharray=""/></g><g><path fill="none" stroke="#000000" paint-order="fill stroke markers" d=" M 36.702255859375 651.3 L 55.422255859375 651.3" stroke-miterlimit="10" stroke-dasharray=""/></g><g><path fill="none" stroke="#000000" paint-order="fill stroke markers" d=" M 46.062255859375 662.3 L 33.062255859375 680" stroke-miterlimit="10" stroke-dasharray=""/></g><g><path fill="none" stroke="#000000" paint-order="fill stroke markers" d=" M 46.062255859375 662.3 L 59.062255859375 680" stroke-miterlimit="10" stroke-dasharray=""/></g><g><g><path fill="none" stroke="none"/><text fill="#000000" stroke="none" font-family="Arial" font-size="13px" font-style="normal" font-weight="bold" text-decoration="undefined" x="84.562255859375" y="740.5" text-anchor="middle" dominant-baseline="central" transform="matrix(1 0 0 1 -38 -46)">Productor</text></g></g><g><path fill="#C0C0C0" stroke="none" paint-order="stroke fill markers" d=" M 401 199 C 401 185.7451648 501.5120624 175 625.5 175 C 749.4879376 175 850 185.7451648 850 199 C 850 212.2548352 749.4879376 223 625.5 223 C 501.5120624 223 401 212.2548352 401 199 Z" fill-opacity="0.2"/></g><g><path fill="#ffffff" stroke="none" paint-order="stroke fill markers" d=" M 394 192 C 394 178.7451648 494.5120624 168 618.5 168 C 742.4879376 168 843 178.7451648 843 192 C 843 205.2548352 742.4879376 216 618.5 216 C 494.5120624 216 394 205.2548352 394 192 Z"/></g><g><path fill="none" stroke="#000000" paint-order="fill stroke markers" d=" M 394 192 C 394 178.7451648 494.5120624 168 618.5 168 C 742.4879376 168 843 178.7451648 843 192 C 843 205.2548352 742.4879376 216 618.5 216 C 494.5120624 216 394 205.2548352 394 192 Z" stroke-miterlimit="10" stroke-dasharray=""/></g><g><g><path fill="none" stroke="none"/><text fill="#000000" stroke="none" font-family="Arial" font-size="13px" font-style="normal" font-weight="bold" text-decoration="undefined" x="656.5" y="239" text-anchor="middle" dominant-baseline="central" transform="matrix(1 0 0 1 -38 -46)">Añadir documentación para verificar productor</text></g></g><g><path fill="#C0C0C0" stroke="none" paint-order="stroke fill markers" d=" M 401 1449 C 401 1435.7451648 482.9318816 1425 584 1425 C 685.0681184 1425 767 1435.7451648 767 1449 C 767 1462.2548352 685.0681184 1473 584 1473 C 482.9318816 1473 401 1462.2548352 401 1449 Z" fill-opacity="0.2"/></g><g><path fill="#ffffff" stroke="none" paint-order="stroke fill markers" d=" M 394 1442 C 394 1428.7451648 475.9318816 1418 577 1418 C 678.0681184 1418 760 1428.7451648 760 1442 C 760 1455.2548352 678.0681184 1466 577 1466 C 475.9318816 1466 394 1455.2548352 394 1442 Z"/></g><g><path fill="none" stroke="#000000" paint-order="fill stroke markers" d=" M 394 1442 C 394 1428.7451648 475.9318816 1418 577 1418 C 678.0681184 1418 760 1428.7451648 760 1442 C 760 1455.2548352 678.0681184 1466 577 1466 C 475.9318816 1466 394 1455.2548352 394 1442 Z" stroke-miterlimit="10" stroke-dasharray=""/></g><g><g><path fill="none" stroke="none"/><text fill="#000000" stroke="none" font-family="Arial" font-size="13px" font-style="normal" font-weight="bold" text-decoration="undefined" x="615" y="1489" text-anchor="middle" dominant-baseline="central" transform="matrix(1 0 0 1 -38 -46)">Ver canciones favoritas de un influencer</text></g></g><g><path fill="#C0C0C0" stroke="none" paint-order="stroke fill markers" d=" M 846 523 C 846 509.7451648 928.6034544 499 1030.5 499 C 1132.3965456 499 1215 509.7451648 1215 523 C 1215 536.2548352 1132.3965456 547 1030.5 547 C 928.6034544 547 846 536.2548352 846 523 Z" fill-opacity="0.2"/></g><g><path fill="#ffffff" stroke="none" paint-order="stroke fill markers" d=" M 839 516 C 839 502.7451648 921.6034544 492 1023.5 492 C 1125.3965456 492 1208 502.7451648 1208 516 C 1208 529.2548352 1125.3965456 540 1023.5 540 C 921.6034544 540 839 529.2548352 839 516 Z"/></g><g><path fill="none" stroke="#000000" paint-order="fill stroke markers" d=" M 839 516 C 839 502.7451648 921.6034544 492 1023.5 492 C 1125.3965456 492 1208 502.7451648 1208 516 C 1208 529.2548352 1125.3965456 540 1023.5 540 C 921.6034544 540 839 529.2548352 839 516 Z" stroke-miterlimit="10" stroke-dasharray=""/></g><g><g><path fill="none" stroke="none"/><text fill="#000000" stroke="none" font-family="Arial" font-size="13px" font-style="normal" font-weight="bold" text-decoration="undefined" x="1061.5" y="563" text-anchor="middle" dominant-baseline="central" transform="matrix(1 0 0 1 -38 -46)">Añadir solicitud de chat con un artista</text></g></g><g><path fill="#C0C0C0" stroke="none" paint-order="stroke fill markers" d=" M 397 822 C 397 808.7451648 450.2781088 798 516 798 C 581.7218912 798 635 808.7451648 635 822 C 635 835.2548352 581.7218912 846 516 846 C 450.2781088 846 397 835.2548352 397 822 Z" fill-opacity="0.2"/></g><g><path fill="#ffffff" stroke="none" paint-order="stroke fill markers" d=" M 390 815 C 390 801.7451648 443.2781088 791 509 791 C 574.7218912 791 628 801.7451648 628 815 C 628 828.2548352 574.7218912 839 509 839 C 443.2781088 839 390 828.2548352 390 815 Z"/></g><g><path fill="none" stroke="#000000" paint-order="fill stroke markers" d=" M 390 815 C 390 801.7451648 443.2781088 791 509 791 C 574.7218912 791 628 801.7451648 628 815 C 628 828.2548352 574.7218912 839 509 839 C 443.2781088 839 390 828.2548352 390 815 Z" stroke-miterlimit="10" stroke-dasharray=""/></g><g><g><path fill="none" stroke="none"/><text fill="#000000" stroke="none" font-family="Arial" font-size="13px" font-style="normal" font-weight="bold" text-decoration="undefined" x="547" y="862" text-anchor="middle" dominant-baseline="central" transform="matrix(1 0 0 1 -38 -46)">Enviar mensaje en el chat</text></g></g><g><path fill="#ffffff" stroke="none" paint-order="stroke fill markers" d=" M 1509.222255859375 603.85 C 1509.222255859375 598.96227952 1513.180058227375 595 1518.062255859375 595 C 1522.944453491375 595 1526.902255859375 598.96227952 1526.902255859375 603.85 C 1526.902255859375 608.73772048 1522.944453491375 612.7 1518.062255859375 612.7 C 1513.180058227375 612.7 1509.222255859375 608.73772048 1509.222255859375 603.85 Z"/></g><g><path fill="none" stroke="#000000" paint-order="fill stroke markers" d=" M 1509.222255859375 603.85 C 1509.222255859375 598.96227952 1513.180058227375 595 1518.062255859375 595 C 1522.944453491375 595 1526.902255859375 598.96227952 1526.902255859375 603.85 C 1526.902255859375 608.73772048 1522.944453491375 612.7 1518.062255859375 612.7 C 1513.180058227375 612.7 1509.222255859375 608.73772048 1509.222255859375 603.85 Z" stroke-miterlimit="10" stroke-dasharray=""/></g><g><path fill="none" stroke="#000000" paint-order="fill stroke markers" d=" M 1518.062255859375 612.7 L 1518.062255859375 630.3" stroke-miterlimit="10" stroke-dasharray=""/></g><g><path fill="none" stroke="#000000" paint-order="fill stroke markers" d=" M 1508.702255859375 619.3 L 1527.422255859375 619.3" stroke-miterlimit="10" stroke-dasharray=""/></g><g><path fill="none" stroke="#000000" paint-order="fill stroke markers" d=" M 1518.062255859375 630.3 L 1505.062255859375 648" stroke-miterlimit="10" stroke-dasharray=""/></g><g><path fill="none" stroke="#000000" paint-order="fill stroke markers" d=" M 1518.062255859375 630.3 L 1531.062255859375 648" stroke-miterlimit="10" stroke-dasharray=""/></g><g><g><path fill="none" stroke="none"/><text fill="#000000" stroke="none" font-family="Arial" font-size="13px" font-style="normal" font-weight="bold" text-decoration="undefined" x="1556.562255859375" y="708.5" text-anchor="middle" dominant-baseline="central" transform="matrix(1 0 0 1 -38 -46)">Artista</text></g></g><g><path fill="none" stroke="#000000" paint-order="fill stroke markers" d=" M 1481 672 L 1338 818 L 629 815" stroke-miterlimit="10" stroke-dasharray=""/></g><g><path fill="#ffffff" stroke="none" paint-order="stroke fill markers" d=" M 1493.222255859375 1291.85 C 1493.222255859375 1286.9622795199998 1497.180058227375 1283 1502.062255859375 1283 C 1506.944453491375 1283 1510.902255859375 1286.9622795199998 1510.902255859375 1291.85 C 1510.902255859375 1296.73772048 1506.944453491375 1300.7 1502.062255859375 1300.7 C 1497.180058227375 1300.7 1493.222255859375 1296.73772048 1493.222255859375 1291.85 Z"/></g><g><path fill="none" stroke="#000000" paint-order="fill stroke markers" d=" M 1493.222255859375 1291.85 C 1493.222255859375 1286.9622795199998 1497.180058227375 1283 1502.062255859375 1283 C 1506.944453491375 1283 1510.902255859375 1286.9622795199998 1510.902255859375 1291.85 C 1510.902255859375 1296.73772048 1506.944453491375 1300.7 1502.062255859375 1300.7 C 1497.180058227375 1300.7 1493.222255859375 1296.73772048 1493.222255859375 1291.85 Z" stroke-miterlimit="10" stroke-dasharray=""/></g><g><path fill="none" stroke="#000000" paint-order="fill stroke markers" d=" M 1502.062255859375 1300.7 L 1502.062255859375 1318.3" stroke-miterlimit="10" stroke-dasharray=""/></g><g><path fill="none" stroke="#000000" paint-order="fill stroke markers" d=" M 1492.702255859375 1307.3 L 1511.422255859375 1307.3" stroke-miterlimit="10" stroke-dasharray=""/></g><g><path fill="none" stroke="#000000" paint-order="fill stroke markers" d=" M 1502.062255859375 1318.3 L 1489.062255859375 1336" stroke-miterlimit="10" stroke-dasharray=""/></g><g><path fill="none" stroke="#000000" paint-order="fill stroke markers" d=" M 1502.062255859375 1318.3 L 1515.062255859375 1336" stroke-miterlimit="10" stroke-dasharray=""/></g><g><g><path fill="none" stroke="none"/><text fill="#000000" stroke="none" font-family="Arial" font-size="13px" font-style="normal" font-weight="bold" text-decoration="undefined" x="1540.562255859375" y="1396.5" text-anchor="middle" dominant-baseline="central" transform="matrix(1 0 0 1 -38 -46)">Influencer</text></g></g><g><path fill="#C0C0C0" stroke="none" paint-order="stroke fill markers" d=" M 849 1054 C 849 1040.7451648 930.9318816 1030 1032 1030 C 1133.0681184 1030 1215 1040.7451648 1215 1054 C 1215 1067.2548352 1133.0681184 1078 1032 1078 C 930.9318816 1078 849 1067.2548352 849 1054 Z" fill-opacity="0.2"/></g><g><path fill="#ffffff" stroke="none" paint-order="stroke fill markers" d=" M 842 1047 C 842 1033.7451648 923.9318816 1023 1025 1023 C 1126.0681184 1023 1208 1033.7451648 1208 1047 C 1208 1060.2548352 1126.0681184 1071 1025 1071 C 923.9318816 1071 842 1060.2548352 842 1047 Z"/></g><g><path fill="none" stroke="#000000" paint-order="fill stroke markers" d=" M 842 1047 C 842 1033.7451648 923.9318816 1023 1025 1023 C 1126.0681184 1023 1208 1033.7451648 1208 1047 C 1208 1060.2548352 1126.0681184 1071 1025 1071 C 923.9318816 1071 842 1060.2548352 842 1047 Z" stroke-miterlimit="10" stroke-dasharray=""/></g><g><g><path fill="none" stroke="none"/><text fill="#000000" stroke="none" font-family="Arial" font-size="13px" font-style="normal" font-weight="bold" text-decoration="undefined" x="1063" y="1094" text-anchor="middle" dominant-baseline="central" transform="matrix(1 0 0 1 -38 -46)">Añadir contrato al histórico</text></g></g><g><path fill="#C0C0C0" stroke="none" paint-order="stroke fill markers" d=" M 849 993 C 849 979.7451648000001 930.9318816 969 1032 969 C 1133.0681184 969 1215 979.7451648000001 1215 993 C 1215 1006.2548351999999 1133.0681184 1017 1032 1017 C 930.9318816 1017 849 1006.2548351999999 849 993 Z" fill-opacity="0.2"/></g><g><path fill="#ffffff" stroke="none" paint-order="stroke fill markers" d=" M 842 986 C 842 972.7451648 923.9318816 962 1025 962 C 1126.0681184 962 1208 972.7451648 1208 986 C 1208 999.2548351999999 1126.0681184 1010 1025 1010 C 923.9318816 1010 842 999.2548351999999 842 986 Z"/></g><g><path fill="none" stroke="#000000" paint-order="fill stroke markers" d=" M 842 986 C 842 972.7451648 923.9318816 962 1025 962 C 1126.0681184 962 1208 972.7451648 1208 986 C 1208 999.2548351999999 1126.0681184 1010 1025 1010 C 923.9318816 1010 842 999.2548351999999 842 986 Z" stroke-miterlimit="10" stroke-dasharray=""/></g><g><g><path fill="none" stroke="none"/><text fill="#000000" stroke="none" font-family="Arial" font-size="13px" font-style="normal" font-weight="bold" text-decoration="undefined" x="1063" y="1033" text-anchor="middle" dominant-baseline="central" transform="matrix(1 0 0 1 -38 -46)">Ver histórico de contratos</text></g></g><g><path fill="none" stroke="#000000" paint-order="fill stroke markers" d=" M 1489 675 L 1338 890 L 1107 961" stroke-miterlimit="10" stroke-dasharray=""/></g><g><path fill="#ffffff" stroke="none" paint-order="stroke fill markers" d=" M 1509.222255859375 835.85 C 1509.222255859375 830.96227952 1513.180058227375 827 1518.062255859375 827 C 1522.944453491375 827 1526.902255859375 830.96227952 1526.902255859375 835.85 C 1526.902255859375 840.73772048 1522.944453491375 844.7 1518.062255859375 844.7 C 1513.180058227375 844.7 1509.222255859375 840.73772048 1509.222255859375 835.85 Z"/></g><g><path fill="none" stroke="#000000" paint-order="fill stroke markers" d=" M 1509.222255859375 835.85 C 1509.222255859375 830.96227952 1513.180058227375 827 1518.062255859375 827 C 1522.944453491375 827 1526.902255859375 830.96227952 1526.902255859375 835.85 C 1526.902255859375 840.73772048 1522.944453491375 844.7 1518.062255859375 844.7 C 1513.180058227375 844.7 1509.222255859375 840.73772048 1509.222255859375 835.85 Z" stroke-miterlimit="10" stroke-dasharray=""/></g><g><path fill="none" stroke="#000000" paint-order="fill stroke markers" d=" M 1518.062255859375 844.7 L 1518.062255859375 862.3" stroke-miterlimit="10" stroke-dasharray=""/></g><g><path fill="none" stroke="#000000" paint-order="fill stroke markers" d=" M 1508.702255859375 851.3 L 1527.422255859375 851.3" stroke-miterlimit="10" stroke-dasharray=""/></g><g><path fill="none" stroke="#000000" paint-order="fill stroke markers" d=" M 1518.062255859375 862.3 L 1505.062255859375 880" stroke-miterlimit="10" stroke-dasharray=""/></g><g><path fill="none" stroke="#000000" paint-order="fill stroke markers" d=" M 1518.062255859375 862.3 L 1531.062255859375 880" stroke-miterlimit="10" stroke-dasharray=""/></g><g><g><path fill="none" stroke="none"/><text fill="#000000" stroke="none" font-family="Arial" font-size="13px" font-style="normal" font-weight="bold" text-decoration="undefined" x="1556.562255859375" y="940.5" text-anchor="middle" dominant-baseline="central" transform="matrix(1 0 0 1 -38 -46)">Admin</text></g></g><g><path fill="none" stroke="#000000" paint-order="fill stroke markers" d=" M 1481 891 L 1338 986 L 1209 986" stroke-miterlimit="10" stroke-dasharray=""/></g><g><path fill="#C0C0C0" stroke="none" paint-order="stroke fill markers" d=" M 397 875 C 397 861.7451648 450.2781088 851 516 851 C 581.7218912 851 635 861.7451648 635 875 C 635 888.2548352 581.7218912 899 516 899 C 450.2781088 899 397 888.2548352 397 875 Z" fill-opacity="0.2"/></g><g><path fill="#ffffff" stroke="none" paint-order="stroke fill markers" d=" M 390 868 C 390 854.7451648 443.2781088 844 509 844 C 574.7218912 844 628 854.7451648 628 868 C 628 881.2548352 574.7218912 892 509 892 C 443.2781088 892 390 881.2548352 390 868 Z"/></g><g><path fill="none" stroke="#000000" paint-order="fill stroke markers" d=" M 390 868 C 390 854.7451648 443.2781088 844 509 844 C 574.7218912 844 628 854.7451648 628 868 C 628 881.2548352 574.7218912 892 509 892 C 443.2781088 892 390 881.2548352 390 868 Z" stroke-miterlimit="10" stroke-dasharray=""/></g><g><g><path fill="none" stroke="none"/><text fill="#000000" stroke="none" font-family="Arial" font-size="13px" font-style="normal" font-weight="bold" text-decoration="undefined" x="547" y="915" text-anchor="middle" dominant-baseline="central" transform="matrix(1 0 0 1 -38 -46)">Bloquear chat</text></g></g><g><path fill="none" stroke="#000000" paint-order="fill stroke markers" d=" M 1485 675 L 1338 858 L 629 867" stroke-miterlimit="10" stroke-dasharray=""/></g><g><path fill="#C0C0C0" stroke="none" paint-order="stroke fill markers" d=" M 846 697 C 846 683.7451648 928.6034544 673 1030.5 673 C 1132.3965456 673 1215 683.7451648 1215 697 C 1215 710.2548352 1132.3965456 721 1030.5 721 C 928.6034544 721 846 710.2548352 846 697 Z" fill-opacity="0.2"/></g><g><path fill="#ffffff" stroke="none" paint-order="stroke fill markers" d=" M 839 690 C 839 676.7451648 921.6034544 666 1023.5 666 C 1125.3965456 666 1208 676.7451648 1208 690 C 1208 703.2548352 1125.3965456 714 1023.5 714 C 921.6034544 714 839 703.2548352 839 690 Z"/></g><g><path fill="none" stroke="#000000" paint-order="fill stroke markers" d=" M 839 690 C 839 676.7451648 921.6034544 666 1023.5 666 C 1125.3965456 666 1208 676.7451648 1208 690 C 1208 703.2548352 1125.3965456 714 1023.5 714 C 921.6034544 714 839 703.2548352 839 690 Z" stroke-miterlimit="10" stroke-dasharray=""/></g><g><g><path fill="none" stroke="none"/><text fill="#000000" stroke="none" font-family="Arial" font-size="13px" font-style="normal" font-weight="bold" text-decoration="undefined" x="1061.5" y="737" text-anchor="middle" dominant-baseline="central" transform="matrix(1 0 0 1 -38 -46)">Autorizar chat con artista</text></g></g><g><path fill="none" stroke="#000000" paint-order="fill stroke markers" d=" M 1481 646 L 1338 690 L 1209 690" stroke-miterlimit="10" stroke-dasharray=""/></g><g><g><path fill="none" stroke="none"/><text fill="#000000" stroke="none" font-family="Helvetica" font-size="28px" font-style="normal" font-weight="normal" text-decoration="undefined" x="613" y="61" text-anchor="start" dominant-baseline="text-before-edge" transform="matrix(1 0 0 1 -38 -46)">Gestión productores - Adrián Del Río</text></g></g><g><path fill="#C0C0C0" stroke="none" paint-order="stroke fill markers" d=" M 401 261 C 401 247.7451648 501.5120624 237 625.5 237 C 749.4879376 237 850 247.7451648 850 261 C 850 274.2548352 749.4879376 285 625.5 285 C 501.5120624 285 401 274.2548352 401 261 Z" fill-opacity="0.2"/></g><g><path fill="#ffffff" stroke="none" paint-order="stroke fill markers" d=" M 394 254 C 394 240.7451648 494.5120624 230 618.5 230 C 742.4879376 230 843 240.7451648 843 254 C 843 267.2548352 742.4879376 278 618.5 278 C 494.5120624 278 394 267.2548352 394 254 Z"/></g><g><path fill="none" stroke="#000000" paint-order="fill stroke markers" d=" M 394 254 C 394 240.7451648 494.5120624 230 618.5 230 C 742.4879376 230 843 240.7451648 843 254 C 843 267.2548352 742.4879376 278 618.5 278 C 494.5120624 278 394 267.2548352 394 254 Z" stroke-miterlimit="10" stroke-dasharray=""/></g><g><g><path fill="none" stroke="none"/><text fill="#000000" stroke="none" font-family="Arial" font-size="13px" font-style="normal" font-weight="bold" text-decoration="undefined" x="656.5" y="301" text-anchor="middle" dominant-baseline="central" transform="matrix(1 0 0 1 -38 -46)">Modificar documentación para verificar productor</text></g></g><g><path fill="#C0C0C0" stroke="none" paint-order="stroke fill markers" d=" M 401 323 C 401 309.7451648 501.5120624 299 625.5 299 C 749.4879376 299 850 309.7451648 850 323 C 850 336.2548352 749.4879376 347 625.5 347 C 501.5120624 347 401 336.2548352 401 323 Z" fill-opacity="0.2"/></g><g><path fill="#ffffff" stroke="none" paint-order="stroke fill markers" d=" M 394 316 C 394 302.7451648 494.5120624 292 618.5 292 C 742.4879376 292 843 302.7451648 843 316 C 843 329.2548352 742.4879376 340 618.5 340 C 494.5120624 340 394 329.2548352 394 316 Z"/></g><g><path fill="none" stroke="#000000" paint-order="fill stroke markers" d=" M 394 316 C 394 302.7451648 494.5120624 292 618.5 292 C 742.4879376 292 843 302.7451648 843 316 C 843 329.2548352 742.4879376 340 618.5 340 C 494.5120624 340 394 329.2548352 394 316 Z" stroke-miterlimit="10" stroke-dasharray=""/></g><g><g><path fill="none" stroke="none"/><text fill="#000000" stroke="none" font-family="Arial" font-size="13px" font-style="normal" font-weight="bold" text-decoration="undefined" x="656.5" y="363" text-anchor="middle" dominant-baseline="central" transform="matrix(1 0 0 1 -38 -46)">Eliminar documentación para verificar productor</text></g></g><g><path fill="#C0C0C0" stroke="none" paint-order="stroke fill markers" d=" M 401 137 C 401 123.7451648 501.5120624 113 625.5 113 C 749.4879376 113 850 123.7451648 850 137 C 850 150.2548352 749.4879376 161 625.5 161 C 501.5120624 161 401 150.2548352 401 137 Z" fill-opacity="0.2"/></g><g><path fill="#ffffff" stroke="none" paint-order="stroke fill markers" d=" M 394 130 C 394 116.7451648 494.5120624 106 618.5 106 C 742.4879376 106 843 116.7451648 843 130 C 843 143.2548352 742.4879376 154 618.5 154 C 494.5120624 154 394 143.2548352 394 130 Z"/></g><g><path fill="none" stroke="#000000" paint-order="fill stroke markers" d=" M 394 130 C 394 116.7451648 494.5120624 106 618.5 106 C 742.4879376 106 843 116.7451648 843 130 C 843 143.2548352 742.4879376 154 618.5 154 C 494.5120624 154 394 143.2548352 394 130 Z" stroke-miterlimit="10" stroke-dasharray=""/></g><g><g><path fill="none" stroke="none"/><text fill="#000000" stroke="none" font-family="Arial" font-size="13px" font-style="normal" font-weight="bold" text-decoration="undefined" x="656.5" y="177" text-anchor="middle" dominant-baseline="central" transform="matrix(1 0 0 1 -38 -46)">Verificar documentación de productor</text></g></g><g><path fill="#C0C0C0" stroke="none" paint-order="stroke fill markers" d=" M 846 581 C 846 567.7451648 928.6034544 557 1030.5 557 C 1132.3965456 557 1215 567.7451648 1215 581 C 1215 594.2548352 1132.3965456 605 1030.5 605 C 928.6034544 605 846 594.2548352 846 581 Z" fill-opacity="0.2"/></g><g><path fill="#ffffff" stroke="none" paint-order="stroke fill markers" d=" M 839 574 C 839 560.7451648 921.6034544 550 1023.5 550 C 1125.3965456 550 1208 560.7451648 1208 574 C 1208 587.2548352 1125.3965456 598 1023.5 598 C 921.6034544 598 839 587.2548352 839 574 Z"/></g><g><path fill="none" stroke="#000000" paint-order="fill stroke markers" d=" M 839 574 C 839 560.7451648 921.6034544 550 1023.5 550 C 1125.3965456 550 1208 560.7451648 1208 574 C 1208 587.2548352 1125.3965456 598 1023.5 598 C 921.6034544 598 839 587.2548352 839 574 Z" stroke-miterlimit="10" stroke-dasharray=""/></g><g><g><path fill="none" stroke="none"/><text fill="#000000" stroke="none" font-family="Arial" font-size="13px" font-style="normal" font-weight="bold" text-decoration="undefined" x="1061.5" y="621" text-anchor="middle" dominant-baseline="central" transform="matrix(1 0 0 1 -38 -46)">Eliminar solicitud de chat con un artista</text></g></g><g><path fill="#C0C0C0" stroke="none" paint-order="stroke fill markers" d=" M 849 1176 C 849 1162.7451648 930.9318816 1152 1032 1152 C 1133.0681184 1152 1215 1162.7451648 1215 1176 C 1215 1189.2548352 1133.0681184 1200 1032 1200 C 930.9318816 1200 849 1189.2548352 849 1176 Z" fill-opacity="0.2"/></g><g><path fill="#ffffff" stroke="none" paint-order="stroke fill markers" d=" M 842 1169 C 842 1155.7451648 923.9318816 1145 1025 1145 C 1126.0681184 1145 1208 1155.7451648 1208 1169 C 1208 1182.2548352 1126.0681184 1193 1025 1193 C 923.9318816 1193 842 1182.2548352 842 1169 Z"/></g><g><path fill="none" stroke="#000000" paint-order="fill stroke markers" d=" M 842 1169 C 842 1155.7451648 923.9318816 1145 1025 1145 C 1126.0681184 1145 1208 1155.7451648 1208 1169 C 1208 1182.2548352 1126.0681184 1193 1025 1193 C 923.9318816 1193 842 1182.2548352 842 1169 Z" stroke-miterlimit="10" stroke-dasharray=""/></g><g><g><path fill="none" stroke="none"/><text fill="#000000" stroke="none" font-family="Arial" font-size="13px" font-style="normal" font-weight="bold" text-decoration="undefined" x="1063" y="1216" text-anchor="middle" dominant-baseline="central" transform="matrix(1 0 0 1 -38 -46)">Eliminar contrato del histórico</text></g></g><g><path fill="#C0C0C0" stroke="none" paint-order="stroke fill markers" d=" M 849 1115 C 849 1101.7451648 930.9318816 1091 1032 1091 C 1133.0681184 1091 1215 1101.7451648 1215 1115 C 1215 1128.2548352 1133.0681184 1139 1032 1139 C 930.9318816 1139 849 1128.2548352 849 1115 Z" fill-opacity="0.2"/></g><g><path fill="#ffffff" stroke="none" paint-order="stroke fill markers" d=" M 842 1108 C 842 1094.7451648 923.9318816 1084 1025 1084 C 1126.0681184 1084 1208 1094.7451648 1208 1108 C 1208 1121.2548352 1126.0681184 1132 1025 1132 C 923.9318816 1132 842 1121.2548352 842 1108 Z"/></g><g><path fill="none" stroke="#000000" paint-order="fill stroke markers" d=" M 842 1108 C 842 1094.7451648 923.9318816 1084 1025 1084 C 1126.0681184 1084 1208 1094.7451648 1208 1108 C 1208 1121.2548352 1126.0681184 1132 1025 1132 C 923.9318816 1132 842 1121.2548352 842 1108 Z" stroke-miterlimit="10" stroke-dasharray=""/></g><g><g><path fill="none" stroke="none"/><text fill="#000000" stroke="none" font-family="Arial" font-size="13px" font-style="normal" font-weight="bold" text-decoration="undefined" x="1063" y="1155" text-anchor="middle" dominant-baseline="central" transform="matrix(1 0 0 1 -38 -46)">Modificar contrato del histórico</text></g></g><g><path fill="#C0C0C0" stroke="none" paint-order="stroke fill markers" d=" M 846 639 C 846 625.7451648 928.6034544 615 1030.5 615 C 1132.3965456 615 1215 625.7451648 1215 639 C 1215 652.2548352 1132.3965456 663 1030.5 663 C 928.6034544 663 846 652.2548352 846 639 Z" fill-opacity="0.2"/></g><g><path fill="#ffffff" stroke="none" paint-order="stroke fill markers" d=" M 839 632 C 839 618.7451648 921.6034544 608 1023.5 608 C 1125.3965456 608 1208 618.7451648 1208 632 C 1208 645.2548352 1125.3965456 656 1023.5 656 C 921.6034544 656 839 645.2548352 839 632 Z"/></g><g><path fill="none" stroke="#000000" paint-order="fill stroke markers" d=" M 839 632 C 839 618.7451648 921.6034544 608 1023.5 608 C 1125.3965456 608 1208 618.7451648 1208 632 C 1208 645.2548352 1125.3965456 656 1023.5 656 C 921.6034544 656 839 645.2548352 839 632 Z" stroke-miterlimit="10" stroke-dasharray=""/></g><g><g><path fill="none" stroke="none"/><text fill="#000000" stroke="none" font-family="Arial" font-size="13px" font-style="normal" font-weight="bold" text-decoration="undefined" x="1061.5" y="679" text-anchor="middle" dominant-baseline="central" transform="matrix(1 0 0 1 -38 -46)">Bloquear solicitud de chat con un artista</text></g></g><g><path fill="none" stroke="#000000" paint-order="fill stroke markers" d=" M 1209 633 L 1338 634 L 1481 634" stroke-miterlimit="10" stroke-dasharray=""/></g><g><path fill="none" stroke="#000000" paint-order="fill stroke markers" d=" M 1209 572 L 1338 570 L 1481 621" stroke-miterlimit="10" stroke-dasharray=""/></g><g><path fill="none" stroke="#000000" paint-order="fill stroke markers" d=" M 83 692 L 250 810 L 389 813" stroke-miterlimit="10" stroke-dasharray=""/></g><g><path fill="none" stroke="#000000" paint-order="fill stroke markers" d=" M 83 702 L 250 866 L 389 867" stroke-miterlimit="10" stroke-dasharray=""/></g><g><path fill="none" stroke="#000000" paint-order="fill stroke markers" d=" M 64 625 L 250 194 L 393 193" stroke-miterlimit="10" stroke-dasharray=""/></g><g><path fill="none" stroke="#000000" paint-order="fill stroke markers" d=" M 66 625 L 250 250 L 393 252" stroke-miterlimit="10" stroke-dasharray=""/></g><g><path fill="none" stroke="#000000" paint-order="fill stroke markers" d=" M 70 625 L 250 314 L 393 315" stroke-miterlimit="10" stroke-dasharray=""/></g><g><path fill="none" stroke="#000000" paint-order="fill stroke markers" d=" M 83 638 L 250 514 L 838 516" stroke-miterlimit="10" stroke-dasharray=""/></g><g><path fill="none" stroke="#000000" paint-order="fill stroke markers" d=" M 83 649 L 250 570 L 838 573" stroke-miterlimit="10" stroke-dasharray=""/></g><g><path fill="none" stroke="#000000" paint-order="fill stroke markers" d=" M 844 130 L 1626 130 L 1626 866 L 1555 866" stroke-miterlimit="10" stroke-dasharray=""/></g><g><path fill="none" stroke="#000000" paint-order="fill stroke markers" d=" M 72 707 L 250 986 L 841 986" stroke-miterlimit="10" stroke-dasharray=""/></g><g><path fill="none" stroke="#000000" paint-order="fill stroke markers" d=" M 68 707 L 250 1050 L 841 1048" stroke-miterlimit="10" stroke-dasharray=""/></g><g><path fill="none" stroke="#000000" paint-order="fill stroke markers" d=" M 65 707 L 250 1106 L 841 1108" stroke-miterlimit="10" stroke-dasharray=""/></g><g><path fill="none" stroke="#000000" paint-order="fill stroke markers" d=" M 63 707 L 250 1162 L 841 1167" stroke-miterlimit="10" stroke-dasharray=""/></g><g><path fill="none" stroke="#000000" paint-order="fill stroke markers" d=" M 1494 907 L 1338 1170 L 1209 1170" stroke-miterlimit="10" stroke-dasharray=""/></g><g><path fill="#C0C0C0" stroke="none" paint-order="stroke fill markers" d=" M 401 1337 C 401 1323.7451648 482.9318816 1313 584 1313 C 685.0681184 1313 767 1323.7451648 767 1337 C 767 1350.2548352 685.0681184 1361 584 1361 C 482.9318816 1361 401 1350.2548352 401 1337 Z" fill-opacity="0.2"/></g><g><path fill="#ffffff" stroke="none" paint-order="stroke fill markers" d=" M 394 1330 C 394 1316.7451648 475.9318816 1306 577 1306 C 678.0681184 1306 760 1316.7451648 760 1330 C 760 1343.2548352 678.0681184 1354 577 1354 C 475.9318816 1354 394 1343.2548352 394 1330 Z"/></g><g><path fill="none" stroke="#000000" paint-order="fill stroke markers" d=" M 394 1330 C 394 1316.7451648 475.9318816 1306 577 1306 C 678.0681184 1306 760 1316.7451648 760 1330 C 760 1343.2548352 678.0681184 1354 577 1354 C 475.9318816 1354 394 1343.2548352 394 1330 Z" stroke-miterlimit="10" stroke-dasharray=""/></g><g><g><path fill="none" stroke="none"/><text fill="#000000" stroke="none" font-family="Arial" font-size="13px" font-style="normal" font-weight="bold" text-decoration="undefined" x="615" y="1377" text-anchor="middle" dominant-baseline="central" transform="matrix(1 0 0 1 -38 -46)">Ver artistas seguidos por un influencer</text></g></g><g><path fill="#C0C0C0" stroke="none" paint-order="stroke fill markers" d=" M 401 1233 C 401 1219.7451648 482.9318816 1209 584 1209 C 685.0681184 1209 767 1219.7451648 767 1233 C 767 1246.2548352 685.0681184 1257 584 1257 C 482.9318816 1257 401 1246.2548352 401 1233 Z" fill-opacity="0.2"/></g><g><path fill="#ffffff" stroke="none" paint-order="stroke fill markers" d=" M 394 1226 C 394 1212.7451648 475.9318816 1202 577 1202 C 678.0681184 1202 760 1212.7451648 760 1226 C 760 1239.2548352 678.0681184 1250 577 1250 C 475.9318816 1250 394 1239.2548352 394 1226 Z"/></g><g><path fill="none" stroke="#000000" paint-order="fill stroke markers" d=" M 394 1226 C 394 1212.7451648 475.9318816 1202 577 1202 C 678.0681184 1202 760 1212.7451648 760 1226 C 760 1239.2548352 678.0681184 1250 577 1250 C 475.9318816 1250 394 1239.2548352 394 1226 Z" stroke-miterlimit="10" stroke-dasharray=""/></g><g><g><path fill="none" stroke="none"/><text fill="#000000" stroke="none" font-family="Arial" font-size="13px" font-style="normal" font-weight="bold" text-decoration="undefined" x="615" y="1273" text-anchor="middle" dominant-baseline="central" transform="matrix(1 0 0 1 -38 -46)">Ver listado influencers seguidos</text></g></g><g><path fill="none" stroke="#000000" paint-order="fill stroke markers" d=" M 61 707 L 250 1226 L 393 1226" stroke-miterlimit="10" stroke-dasharray=""/></g><g><path fill="none" stroke="#000000" paint-order="fill stroke markers" d=" M 761 1226 L 1330 1226 L 1465 1301" stroke-miterlimit="10" stroke-dasharray=""/></g><g><path fill="none" stroke="#000000" paint-order="fill stroke markers" d=" M 761 1328 L 1465 1322" stroke-miterlimit="10" stroke-dasharray=""/></g><g><path fill="none" stroke="#000000" paint-order="fill stroke markers" d=" M 761 1442 L 1338 1442 L 1465 1349" stroke-miterlimit="10" stroke-dasharray=""/></g><g><path fill="none" stroke="#000000" paint-order="fill stroke markers" d=" M 59 707 L 250 1322 L 393 1325" stroke-miterlimit="10" stroke-dasharray=""/></g><g><path fill="none" stroke="#000000" paint-order="fill stroke markers" d=" M 57 707 L 250 1442 L 393 1442" stroke-miterlimit="10" stroke-dasharray=""/></g><g><path fill="#C0C0C0" stroke="none" paint-order="stroke fill markers" d=" M 401 385 C 401 371.7451648 501.5120624 361 625.5 361 C 749.4879376 361 850 371.7451648 850 385 C 850 398.2548352 749.4879376 409 625.5 409 C 501.5120624 409 401 398.2548352 401 385 Z" fill-opacity="0.2"/></g><g><path fill="#ffffff" stroke="none" paint-order="stroke fill markers" d=" M 394 378 C 394 364.7451648 494.5120624 354 618.5 354 C 742.4879376 354 843 364.7451648 843 378 C 843 391.2548352 742.4879376 402 618.5 402 C 494.5120624 402 394 391.2548352 394 378 Z"/></g><g><path fill="none" stroke="#000000" paint-order="fill stroke markers" d=" M 394 378 C 394 364.7451648 494.5120624 354 618.5 354 C 742.4879376 354 843 364.7451648 843 378 C 843 391.2548352 742.4879376 402 618.5 402 C 494.5120624 402 394 391.2548352 394 378 Z" stroke-miterlimit="10" stroke-dasharray=""/></g><g><g><path fill="none" stroke="none"/><text fill="#000000" stroke="none" font-family="Arial" font-size="13px" font-style="normal" font-weight="bold" text-decoration="undefined" x="656.5" y="425" text-anchor="middle" dominant-baseline="central" transform="matrix(1 0 0 1 -38 -46)">Ver documentación para verificar productor</text></g></g><g><path fill="#C0C0C0" stroke="none" paint-order="stroke fill markers" d=" M 846 465 C 846 451.7451648 928.6034544 441 1030.5 441 C 1132.3965456 441 1215 451.7451648 1215 465 C 1215 478.2548352 1132.3965456 489 1030.5 489 C 928.6034544 489 846 478.2548352 846 465 Z" fill-opacity="0.2"/></g><g><path fill="#ffffff" stroke="none" paint-order="stroke fill markers" d=" M 839 458 C 839 444.7451648 921.6034544 434 1023.5 434 C 1125.3965456 434 1208 444.7451648 1208 458 C 1208 471.2548352 1125.3965456 482 1023.5 482 C 921.6034544 482 839 471.2548352 839 458 Z"/></g><g><path fill="none" stroke="#000000" paint-order="fill stroke markers" d=" M 839 458 C 839 444.7451648 921.6034544 434 1023.5 434 C 1125.3965456 434 1208 444.7451648 1208 458 C 1208 471.2548352 1125.3965456 482 1023.5 482 C 921.6034544 482 839 471.2548352 839 458 Z" stroke-miterlimit="10" stroke-dasharray=""/></g><g><g><path fill="none" stroke="none"/><text fill="#000000" stroke="none" font-family="Arial" font-size="13px" font-style="normal" font-weight="bold" text-decoration="undefined" x="1061.5" y="505" text-anchor="middle" dominant-baseline="central" transform="matrix(1 0 0 1 -38 -46)">Ver solicitud de chat</text></g></g><g><path fill="#C0C0C0" stroke="none" paint-order="stroke fill markers" d=" M 397 752 C 397 743.715728 450.2781088 737 516 737 C 581.7218912 737 635 743.715728 635 752 C 635 760.284272 581.7218912 767 516 767 C 450.2781088 767 397 760.284272 397 752 Z" fill-opacity="0.2"/></g><g><path fill="#ffffff" stroke="none" paint-order="stroke fill markers" d=" M 390 745 C 390 736.715728 443.2781088 730 509 730 C 574.7218912 730 628 736.715728 628 745 C 628 753.284272 574.7218912 760 509 760 C 443.2781088 760 390 753.284272 390 745 Z"/></g><g><path fill="none" stroke="#000000" paint-order="fill stroke markers" d=" M 390 745 C 390 736.715728 443.2781088 730 509 730 C 574.7218912 730 628 736.715728 628 745 C 628 753.284272 574.7218912 760 509 760 C 443.2781088 760 390 753.284272 390 745 Z" stroke-miterlimit="10" stroke-dasharray=""/></g><g><path fill="none" stroke="#000000" paint-order="fill stroke markers" d=" M 390 765 L 628 765" stroke-miterlimit="10" stroke-dasharray=""/></g><g><g><path fill="none" stroke="none"/><text fill="#000000" stroke="none" font-family="Arial" font-size="13px" font-style="normal" font-weight="bold" text-decoration="undefined" x="547" y="794.5" text-anchor="middle" dominant-baseline="central" transform="matrix(1 0 0 1 -38 -46)">Ver chat</text></g></g><g><g><path fill="none" stroke="none"/><text fill="#000000" stroke="none" font-family="Arial" font-size="13px" font-style="normal" font-weight="normal" text-decoration="undefined" x="433" y="822.5" text-anchor="start" dominant-baseline="central" transform="matrix(1 0 0 1 -38 -46)">Archivado</text></g></g><g><path fill="none" stroke="#000000" paint-order="fill stroke markers" d=" M 75 625 L 250 378 L 393 378" stroke-miterlimit="10" stroke-dasharray=""/></g><g><path fill="none" stroke="#000000" paint-order="fill stroke markers" d=" M 83 628 L 250 458 L 838 458" stroke-miterlimit="10" stroke-dasharray=""/></g><g><path fill="none" stroke="#000000" paint-order="fill stroke markers" d=" M 756 403 L 882 426 L 1338 426 L 1483 593" stroke-miterlimit="10" stroke-dasharray=""/></g><g><path fill="none" stroke="#000000" paint-order="fill stroke markers" d=" M 756 353 L 882 330 L 1594 330 L 1594 842 L 1555 854" stroke-miterlimit="10" stroke-dasharray=""/></g><g><path fill="none" stroke="#000000" paint-order="fill stroke markers" d=" M 1209 458 L 1338 458 L 1481 598" stroke-miterlimit="10" stroke-dasharray=""/></g><g><path fill="none" stroke="#000000" paint-order="fill stroke markers" d=" M 83 682 L 250 754 L 389 757" stroke-miterlimit="10" stroke-dasharray=""/></g><g><path fill="none" stroke="#000000" paint-order="fill stroke markers" d=" M 629 759 L 1338 762 L 1481 660" stroke-miterlimit="10" stroke-dasharray=""/></g><g><path fill="#C0C0C0" stroke="none" paint-order="stroke fill markers" d=" M 397 928 C 397 914.7451648 450.2781088 904 516 904 C 581.7218912 904 635 914.7451648 635 928 C 635 941.2548352 581.7218912 952 516 952 C 450.2781088 952 397 941.2548352 397 928 Z" fill-opacity="0.2"/></g><g><path fill="#ffffff" stroke="none" paint-order="stroke fill markers" d=" M 390 921 C 390 907.7451648 443.2781088 897 509 897 C 574.7218912 897 628 907.7451648 628 921 C 628 934.2548352 574.7218912 945 509 945 C 443.2781088 945 390 934.2548352 390 921 Z"/></g><g><path fill="none" stroke="#000000" paint-order="fill stroke markers" d=" M 390 921 C 390 907.7451648 443.2781088 897 509 897 C 574.7218912 897 628 907.7451648 628 921 C 628 934.2548352 574.7218912 945 509 945 C 443.2781088 945 390 934.2548352 390 921 Z" stroke-miterlimit="10" stroke-dasharray=""/></g><g><g><path fill="none" stroke="none"/><text fill="#000000" stroke="none" font-family="Arial" font-size="13px" font-style="normal" font-weight="bold" text-decoration="undefined" x="547" y="968" text-anchor="middle" dominant-baseline="central" transform="matrix(1 0 0 1 -38 -46)">Eliminar chat</text></g></g><g><path fill="none" stroke="#000000" paint-order="fill stroke markers" d=" M 629 921 L 1338 922 L 1481 878" stroke-miterlimit="10" stroke-dasharray=""/></g><g><path fill="#C0C0C0" stroke="none" paint-order="stroke fill markers" d=" M 937 1385 C 937 1371.7451648 980.4283743999999 1361 1034 1361 C 1087.5716256 1361 1131 1371.7451648 1131 1385 C 1131 1398.2548352 1087.5716256 1409 1034 1409 C 980.4283743999999 1409 937 1398.2548352 937 1385 Z" fill-opacity="0.2"/></g><g><path fill="#ffffff" stroke="none" paint-order="stroke fill markers" d=" M 930 1378 C 930 1364.7451648 973.4283743999999 1354 1027 1354 C 1080.5716256 1354 1124 1364.7451648 1124 1378 C 1124 1391.2548352 1080.5716256 1402 1027 1402 C 973.4283743999999 1402 930 1391.2548352 930 1378 Z"/></g><g><path fill="none" stroke="#000000" paint-order="fill stroke markers" d=" M 930 1378 C 930 1364.7451648 973.4283743999999 1354 1027 1354 C 1080.5716256 1354 1124 1364.7451648 1124 1378 C 1124 1391.2548352 1080.5716256 1402 1027 1402 C 973.4283743999999 1402 930 1391.2548352 930 1378 Z" stroke-miterlimit="10" stroke-dasharray=""/></g><g><g><path fill="none" stroke="none"/><text fill="#000000" stroke="none" font-family="Arial" font-size="13px" font-style="normal" font-weight="bold" text-decoration="undefined" x="1065" y="1425" text-anchor="middle" dominant-baseline="central" transform="matrix(1 0 0 1 -38 -46)">Identificar influencer</text></g></g><g><path fill="none" stroke="#000000" paint-order="fill stroke markers" d=" M 761 1350 L 929 1368" stroke-miterlimit="10" stroke-dasharray="3"/></g><g><path fill="none" stroke="#000000" paint-order="fill stroke markers" d=" M 918.4467062852113 1371.1029005413325 L 929 1368 L 919.3436124362959 1362.7317764645431" stroke-miterlimit="10" stroke-dasharray=""/></g><g><rect fill="#ffffff" stroke="none" x="855" y="1383" width="55.65625" height="13" transform="matrix(1 0 0 1 -38 -46)"/></g><g><g><path fill="none" stroke="none"/><text fill="#000000" stroke="none" font-family="Arial" font-size="13px" font-style="normal" font-weight="normal" text-decoration="undefined" x="882.828125" y="1389.5" text-anchor="middle" dominant-baseline="central" transform="matrix(1 0 0 1 -38 -46)">«include»</text></g></g><g><path fill="none" stroke="#000000" paint-order="fill stroke markers" d=" M 753 1417 L 929 1392" stroke-miterlimit="10" stroke-dasharray="3"/></g><g><path fill="none" stroke="#000000" paint-order="fill stroke markers" d=" M 919.5303253018878 1397.59689745412 L 929 1392 L 918.3463246619202 1389.2615329487483" stroke-miterlimit="10" stroke-dasharray=""/></g><g><rect fill="#ffffff" stroke="none" x="856" y="1424" width="55.65625" height="13" transform="matrix(1 0 0 1 -38 -46)"/></g><g><g><path fill="none" stroke="none"/><text fill="#000000" stroke="none" font-family="Arial" font-size="13px" font-style="normal" font-weight="normal" text-decoration="undefined" x="883.828125" y="1430.5" text-anchor="middle" dominant-baseline="central" transform="matrix(1 0 0 1 -38 -46)">«include»</text></g></g><g><path fill="#C0C0C0" stroke="none" paint-order="stroke fill markers" d=" M 449 625 C 449 611.7451648 478.3253456 601 514.5 601 C 550.6746544 601 580 611.7451648 580 625 C 580 638.2548352 550.6746544 649 514.5 649 C 478.3253456 649 449 638.2548352 449 625 Z" fill-opacity="0.2"/></g><g><path fill="#ffffff" stroke="none" paint-order="stroke fill markers" d=" M 442 618 C 442 604.7451648 471.3253456 594 507.5 594 C 543.6746544 594 573 604.7451648 573 618 C 573 631.2548352 543.6746544 642 507.5 642 C 471.3253456 642 442 631.2548352 442 618 Z"/></g><g><path fill="none" stroke="#000000" paint-order="fill stroke markers" d=" M 442 618 C 442 604.7451648 471.3253456 594 507.5 594 C 543.6746544 594 573 604.7451648 573 618 C 573 631.2548352 543.6746544 642 507.5 642 C 471.3253456 642 442 631.2548352 442 618 Z" stroke-miterlimit="10" stroke-dasharray=""/></g><g><g><path fill="none" stroke="none"/><text fill="#000000" stroke="none" font-family="Arial" font-size="13px" font-style="normal" font-weight="bold" text-decoration="undefined" x="545.5" y="665" text-anchor="middle" dominant-baseline="central" transform="matrix(1 0 0 1 -38 -46)">Archivar chat</text></g></g><g><path fill="#ffffff" stroke="none" paint-order="stroke fill markers" d=" M 170.748623046875 635.85 C 170.748623046875 630.96227952 174.70642541487499 627 179.588623046875 627 C 184.47082067887501 627 188.428623046875 630.96227952 188.428623046875 635.85 C 188.428623046875 640.73772048 184.47082067887501 644.7 179.588623046875 644.7 C 174.70642541487499 644.7 170.748623046875 640.73772048 170.748623046875 635.85 Z"/></g><g><path fill="none" stroke="#000000" paint-order="fill stroke markers" d=" M 170.748623046875 635.85 C 170.748623046875 630.96227952 174.70642541487499 627 179.588623046875 627 C 184.47082067887501 627 188.428623046875 630.96227952 188.428623046875 635.85 C 188.428623046875 640.73772048 184.47082067887501 644.7 179.588623046875 644.7 C 174.70642541487499 644.7 170.748623046875 640.73772048 170.748623046875 635.85 Z" stroke-miterlimit="10" stroke-dasharray=""/></g><g><path fill="none" stroke="#000000" paint-order="fill stroke markers" d=" M 179.588623046875 644.7 L 179.588623046875 662.3" stroke-miterlimit="10" stroke-dasharray=""/></g><g><path fill="none" stroke="#000000" paint-order="fill stroke markers" d=" M 170.228623046875 651.3 L 188.948623046875 651.3" stroke-miterlimit="10" stroke-dasharray=""/></g><g><path fill="none" stroke="#000000" paint-order="fill stroke markers" d=" M 179.588623046875 662.3 L 166.588623046875 680" stroke-miterlimit="10" stroke-dasharray=""/></g><g><path fill="none" stroke="#000000" paint-order="fill stroke markers" d=" M 179.588623046875 662.3 L 192.588623046875 680" stroke-miterlimit="10" stroke-dasharray=""/></g><g><g><path fill="none" stroke="none"/><text fill="#000000" stroke="none" font-family="Arial" font-size="13px" font-style="normal" font-weight="bold" text-decoration="undefined" x="218.088623046875" y="740.5" text-anchor="middle" dominant-baseline="central" transform="matrix(1 0 0 1 -38 -46)">Time</text></g></g><g><path fill="none" stroke="#000000" paint-order="fill stroke markers" d=" M 206 648 L 250 618 L 441 618" stroke-miterlimit="10" stroke-dasharray=""/></g><g><path fill="none" stroke="#000000" paint-order="fill stroke markers" d=" M 507 643 L 509 729" stroke-miterlimit="10" stroke-dasharray="3"/></g><g><path fill="none" stroke="#000000" paint-order="fill stroke markers" d=" M 504.5553427141674 718.9379414824056 L 509 729 L 512.9721025036246 718.7422028826506" stroke-miterlimit="10" stroke-dasharray=""/></g><g><rect fill="#ffffff" stroke="none" x="479" y="725" width="53.49169921875" height="13" transform="matrix(1 0 0 1 -38 -46)"/></g><g><g><path fill="none" stroke="none"/><text fill="#000000" stroke="none" font-family="Arial" font-size="13px" font-style="normal" font-weight="normal" text-decoration="undefined" x="505.745849609375" y="731.5" text-anchor="middle" dominant-baseline="central" transform="matrix(1 0 0 1 -38 -46)">«extend»</text></g></g><g><path fill="#ffffff" stroke="none" paint-order="stroke fill markers" d=" M 610 602 L 807 602 L 817 612 L 817 721 L 610 721 L 610 602"/></g><g><path fill="none" stroke="#000000" paint-order="fill stroke markers" d=" M 610 602 L 807 602 L 817 612 L 817 721 L 610 721 L 610 602 L 610 602" stroke-miterlimit="10" stroke-dasharray=""/></g><g><path fill="none" stroke="#000000" paint-order="fill stroke markers" d=" M 807 602 L 807 612 L 817 612 L 807 602" stroke-miterlimit="10" stroke-dasharray=""/></g><g><g><path fill="none" stroke="none"/><text fill="#000000" stroke="none" font-family="Arial" font-size="13px" font-style="normal" font-weight="normal" text-decoration="undefined" x="653" y="653" text-anchor="start" dominant-baseline="text-before-edge" transform="matrix(1 0 0 1 -38 -46)">Condition:</text></g></g><g><g><path fill="none" stroke="none"/><text fill="#000000" stroke="none" font-family="Arial" font-size="13px" font-style="normal" font-weight="normal" text-decoration="undefined" x="653" y="668" text-anchor="start" dominant-baseline="text-before-edge" transform="matrix(1 0 0 1 -38 -46)">Despues de 1 año sin contacto se</text><text fill="#000000" stroke="none" font-family="Arial" font-size="13px" font-style="normal" font-weight="normal" text-decoration="undefined" x="653" y="681" text-anchor="start" dominant-baseline="text-before-edge" transform="matrix(1 0 0 1 -38 -46)">archiva el contacto.</text></g></g><g><g><path fill="none" stroke="none"/><text fill="#000000" stroke="none" font-family="Arial" font-size="13px" font-style="normal" font-weight="normal" text-decoration="undefined" x="653" y="696" text-anchor="start" dominant-baseline="text-before-edge" transform="matrix(1 0 0 1 -38 -46)">Extension Point:</text></g></g><g><g><path fill="none" stroke="none"/><text fill="#000000" stroke="none" font-family="Arial" font-size="13px" font-style="normal" font-weight="normal" text-decoration="undefined" x="653" y="711" text-anchor="start" dominant-baseline="text-before-edge" transform="matrix(1 0 0 1 -38 -46)">Archivado</text></g></g><g><path fill="none" stroke="#000000" paint-order="fill stroke markers" d=" M 508 686 L 609 674" stroke-miterlimit="10" stroke-dasharray="3"/></g><g><path fill="none" stroke="#000000" paint-order="fill stroke markers" d=" M 83 678 L 250 730 L 450 643" stroke-miterlimit="10" stroke-dasharray=""/></g><g><path fill="none" stroke="#000000" paint-order="fill stroke markers" d=" M 1481 654 L 1338 730 L 602 730 L 528 643" stroke-miterlimit="10" stroke-dasharray=""/></g></g></svg>