<svg version="1.1" xmlns="http://www.w3.org/2000/svg" xmlns:xlink="http://www.w3.org/1999/xlink" width="773.43994140625" height="508"><defs/><g><g><rect fill="#C0C0C0" stroke="none" x="55" y="263" width="120" height="96" transform="matrix(1 0 0 1 -38 -38)" fill-opacity="0.2"/></g><g><rect fill="#ffffff" stroke="none" x="48" y="256" width="120" height="96" transform="matrix(1 0 0 1 -38 -38)"/></g><g><path fill="none" stroke="#000000" paint-order="fill stroke markers" d=" M 10 218 L 130 218 L 130 314 L 10 314 L 10 218 Z Z" stroke-miterlimit="10" stroke-dasharray=""/></g><g><path fill="none" stroke="#000000" paint-order="fill stroke markers" d=" M 10 243 L 131 243" stroke-miterlimit="10" stroke-dasharray=""/></g><g><path fill="none" stroke="#000000" paint-order="fill stroke markers" d=" M 10 253 L 131 253" stroke-miterlimit="10" stroke-dasharray=""/></g><g><g><path fill="none" stroke="none"/><text fill="#000000" stroke="none" font-family="Arial" font-size="13px" font-style="normal" font-weight="bold" text-decoration="undefined" x="108.5" y="269.5" text-anchor="middle" dominant-baseline="central" transform="matrix(1 0 0 1 -38 -38)">Oyentes</text></g></g><g><rect fill="#C0C0C0" stroke="none" x="375" y="287" width="101.76171875" height="60" transform="matrix(1 0 0 1 -38 -38)" fill-opacity="0.2"/></g><g><rect fill="#ffffff" stroke="none" x="368" y="280" width="101.76171875" height="60" transform="matrix(1 0 0 1 -38 -38)"/></g><g><path fill="none" stroke="#000000" paint-order="fill stroke markers" d=" M 330 242 L 431.76171875 242 L 431.76171875 302 L 330 302 L 330 242 Z Z" stroke-miterlimit="10" stroke-dasharray=""/></g><g><path fill="none" stroke="#000000" paint-order="fill stroke markers" d=" M 330 267 L 432.76171875 267" stroke-miterlimit="10" stroke-dasharray=""/></g><g><path fill="none" stroke="#000000" paint-order="fill stroke markers" d=" M 330 292 L 432.76171875 292" stroke-miterlimit="10" stroke-dasharray=""/></g><g><g><path fill="none" stroke="none"/><text fill="#000000" stroke="none" font-family="Arial" font-size="13px" font-style="normal" font-weight="bold" text-decoration="undefined" x="419.380859375" y="293.5" text-anchor="middle" dominant-baseline="central" transform="matrix(1 0 0 1 -38 -38)">Cesta</text></g></g><g><g><path fill="none" stroke="none"/><text fill="#000000" stroke="none" font-family="Arial" font-size="13px" font-style="normal" font-weight="normal" text-decoration="undefined" x="373" y="318.5" text-anchor="start" dominant-baseline="central" transform="matrix(1 0 0 1 -38 -38)">-/precioTotal: int</text></g></g><g><rect fill="#C0C0C0" stroke="none" x="687" y="207" width="112" height="103" transform="matrix(1 0 0 1 -38 -38)" fill-opacity="0.2"/></g><g><rect fill="#ffffff" stroke="none" x="680" y="200" width="112" height="103" transform="matrix(1 0 0 1 -38 -38)"/></g><g><path fill="none" stroke="#000000" paint-order="fill stroke markers" d=" M 642 162 L 754 162 L 754 265 L 642 265 L 642 162 Z Z" stroke-miterlimit="10" stroke-dasharray=""/></g><g><path fill="none" stroke="#000000" paint-order="fill stroke markers" d=" M 642 187 L 755 187" stroke-miterlimit="10" stroke-dasharray=""/></g><g><path fill="none" stroke="#000000" paint-order="fill stroke markers" d=" M 642 255 L 755 255" stroke-miterlimit="10" stroke-dasharray=""/></g><g><g><path fill="none" stroke="none"/><text fill="#000000" stroke="none" font-family="Arial" font-size="13px" font-style="normal" font-weight="bold" text-decoration="undefined" x="736.5" y="213.5" text-anchor="middle" dominant-baseline="central" transform="matrix(1 0 0 1 -38 -38)">Compra</text></g></g><g><g><path fill="none" stroke="none"/><text fill="#000000" stroke="none" font-family="Arial" font-size="13px" font-style="normal" font-weight="normal" text-decoration="undefined" x="685" y="236.5" text-anchor="start" dominant-baseline="central" transform="matrix(1 0 0 1 -38 -38)">-id: int</text></g></g><g><g><path fill="none" stroke="none"/><text fill="#000000" stroke="none" font-family="Arial" font-size="13px" font-style="normal" font-weight="normal" text-decoration="undefined" x="685" y="251.5" text-anchor="start" dominant-baseline="central" transform="matrix(1 0 0 1 -38 -38)">-fecha: date</text></g></g><g><g><path fill="none" stroke="none"/><text fill="#000000" stroke="none" font-family="Arial" font-size="13px" font-style="normal" font-weight="normal" text-decoration="undefined" x="685" y="266.5" text-anchor="start" dominant-baseline="central" transform="matrix(1 0 0 1 -38 -38)">-hora: time</text></g></g><g><g><path fill="none" stroke="none"/><text fill="#000000" stroke="none" font-family="Arial" font-size="13px" font-style="normal" font-weight="normal" text-decoration="undefined" x="685" y="281.5" text-anchor="start" dominant-baseline="central" transform="matrix(1 0 0 1 -38 -38)">-coste: int</text></g></g><g><rect fill="#C0C0C0" stroke="none" x="55" y="439" width="120" height="104" transform="matrix(1 0 0 1 -38 -38)" fill-opacity="0.2"/></g><g><rect fill="#ffffff" stroke="none" x="48" y="432" width="120" height="104" transform="matrix(1 0 0 1 -38 -38)"/></g><g><path fill="none" stroke="#000000" paint-order="fill stroke markers" d=" M 10 394 L 130 394 L 130 498 L 10 498 L 10 394 Z Z" stroke-miterlimit="10" stroke-dasharray=""/></g><g><path fill="none" stroke="#000000" paint-order="fill stroke markers" d=" M 10 419 L 131 419" stroke-miterlimit="10" stroke-dasharray=""/></g><g><path fill="none" stroke="#000000" paint-order="fill stroke markers" d=" M 10 429 L 131 429" stroke-miterlimit="10" stroke-dasharray=""/></g><g><g><path fill="none" stroke="none"/><text fill="#000000" stroke="none" font-family="Arial" font-size="13px" font-style="normal" font-weight="bold" text-decoration="undefined" x="108.5" y="445.5" text-anchor="middle" dominant-baseline="central" transform="matrix(1 0 0 1 -38 -38)">Artista</text></g></g><g><rect fill="#C0C0C0" stroke="none" x="279" y="439" width="121.26806640625" height="104" transform="matrix(1 0 0 1 -38 -38)" fill-opacity="0.2"/></g><g><rect fill="#ffffff" stroke="none" x="272" y="432" width="121.26806640625" height="104" transform="matrix(1 0 0 1 -38 -38)"/></g><g><path fill="none" stroke="#000000" paint-order="fill stroke markers" d=" M 234 394 L 355.26806640625 394 L 355.26806640625 498 L 234 498 L 234 394 Z Z" stroke-miterlimit="10" stroke-dasharray=""/></g><g><path fill="none" stroke="#000000" paint-order="fill stroke markers" d=" M 234 419 L 356.26806640625 419" stroke-miterlimit="10" stroke-dasharray=""/></g><g><path fill="none" stroke="#000000" paint-order="fill stroke markers" d=" M 234 457 L 356.26806640625 457" stroke-miterlimit="10" stroke-dasharray=""/></g><g><g><path fill="none" stroke="none"/><text fill="#000000" stroke="none" font-family="Arial" font-size="13px" font-style="normal" font-weight="bold" text-decoration="undefined" x="333.134033203125" y="445.5" text-anchor="middle" dominant-baseline="central" transform="matrix(1 0 0 1 -38 -38)">Tienda</text></g></g><g><g><path fill="none" stroke="none"/><text fill="#000000" stroke="none" font-family="Arial" font-size="13px" font-style="normal" font-weight="normal" text-decoration="undefined" x="277" y="468.5" text-anchor="start" dominant-baseline="central" transform="matrix(1 0 0 1 -38 -38)">-nombre: String</text></g></g><g><g><path fill="none" stroke="none"/><text fill="#000000" stroke="none" font-family="Arial" font-size="13px" font-style="normal" font-weight="normal" text-decoration="undefined" x="277" y="483.5" text-anchor="start" dominant-baseline="central" transform="matrix(1 0 0 1 -38 -38)">-descripcion: String</text></g></g><g><rect fill="#C0C0C0" stroke="none" x="575" y="439" width="155.25341796875" height="104" transform="matrix(1 0 0 1 -38 -38)" fill-opacity="0.2"/></g><g><rect fill="#ffffff" stroke="none" x="568" y="432" width="155.25341796875" height="104" transform="matrix(1 0 0 1 -38 -38)"/></g><g><path fill="none" stroke="#000000" paint-order="fill stroke markers" d=" M 530 394 L 685.25341796875 394 L 685.25341796875 498 L 530 498 L 530 394 Z Z" stroke-miterlimit="10" stroke-dasharray=""/></g><g><path fill="none" stroke="#000000" paint-order="fill stroke markers" d=" M 530 419 L 686.25341796875 419" stroke-miterlimit="10" stroke-dasharray=""/></g><g><path fill="none" stroke="#000000" paint-order="fill stroke markers" d=" M 530 487 L 686.25341796875 487" stroke-miterlimit="10" stroke-dasharray=""/></g><g><g><path fill="none" stroke="none"/><text fill="#000000" stroke="none" font-family="Arial" font-size="13px" font-style="normal" font-weight="bold" text-decoration="undefined" x="646.126708984375" y="445.5" text-anchor="middle" dominant-baseline="central" transform="matrix(1 0 0 1 -38 -38)">Producto</text></g></g><g><g><path fill="none" stroke="none"/><text fill="#000000" stroke="none" font-family="Arial" font-size="13px" font-style="normal" font-weight="normal" text-decoration="undefined" x="573" y="468.5" text-anchor="start" dominant-baseline="central" transform="matrix(1 0 0 1 -38 -38)">-id: int</text></g></g><g><g><path fill="none" stroke="none"/><text fill="#000000" stroke="none" font-family="Arial" font-size="13px" font-style="normal" font-weight="normal" text-decoration="undefined" x="573" y="483.5" text-anchor="start" dominant-baseline="central" transform="matrix(1 0 0 1 -38 -38)">-nombre: String</text></g></g><g><g><path fill="none" stroke="none"/><text fill="#000000" stroke="none" font-family="Arial" font-size="13px" font-style="normal" font-weight="normal" text-decoration="undefined" x="573" y="498.5" text-anchor="start" dominant-baseline="central" transform="matrix(1 0 0 1 -38 -38)">-precio: int</text></g></g><g><g><path fill="none" stroke="none"/><text fill="#000000" stroke="none" font-family="Arial" font-size="13px" font-style="normal" font-weight="normal" text-decoration="undefined" x="573" y="513.5" text-anchor="start" dominant-baseline="central" transform="matrix(1 0 0 1 -38 -38)">-unidadesDisponibles: int</text></g></g><g><path fill="#ffffff" stroke="none" paint-order="stroke fill markers" d=" M 314 122 L 439 122 L 449 132 L 449 205 L 314 205 L 314 122"/></g><g><path fill="none" stroke="#000000" paint-order="fill stroke markers" d=" M 314 122 L 439 122 L 449 132 L 449 205 L 314 205 L 314 122 L 314 122" stroke-miterlimit="10" stroke-dasharray=""/></g><g><path fill="none" stroke="#000000" paint-order="fill stroke markers" d=" M 439 122 L 439 132 L 449 132 L 439 122" stroke-miterlimit="10" stroke-dasharray=""/></g><g><g><path fill="none" stroke="none"/><text fill="#000000" stroke="none" font-family="Arial" font-size="12px" font-style="normal" font-weight="normal" text-decoration="undefined" x="357" y="165" text-anchor="start" dominant-baseline="text-before-edge" transform="matrix(1 0 0 1 -38 -38)">\precioTotal se calcula</text><text fill="#000000" stroke="none" font-family="Arial" font-size="12px" font-style="normal" font-weight="normal" text-decoration="undefined" x="357" y="177" text-anchor="start" dominant-baseline="text-before-edge" transform="matrix(1 0 0 1 -38 -38)">a partir de la suma de</text><text fill="#000000" stroke="none" font-family="Arial" font-size="12px" font-style="normal" font-weight="normal" text-decoration="undefined" x="357" y="189" text-anchor="start" dominant-baseline="text-before-edge" transform="matrix(1 0 0 1 -38 -38)">los precios de todos los</text><text fill="#000000" stroke="none" font-family="Arial" font-size="12px" font-style="normal" font-weight="normal" text-decoration="undefined" x="357" y="201" text-anchor="start" dominant-baseline="text-before-edge" transform="matrix(1 0 0 1 -38 -38)">productos de la cesta.</text></g></g><g><path fill="none" stroke="#000000" paint-order="fill stroke markers" d=" M 381 241 L 381 207" stroke-miterlimit="10" stroke-dasharray="3"/></g><g><path fill="none" stroke="#000000" paint-order="fill stroke markers" d=" M 70 393 L 70 315" stroke-miterlimit="10" stroke-dasharray=""/></g><g><path fill="#FFFFFF" stroke="none" paint-order="stroke fill markers" d=" M 78.41903551203198 335.3253497152483 L 70 315 L 61.58096448796803 335.3253497152483"/></g><g><path fill="none" stroke="#000000" paint-order="fill stroke markers" d=" M 78.41903551203198 335.3253497152483 L 70 315 L 61.58096448796803 335.3253497152483 L 78.41903551203198 335.3253497152483" stroke-miterlimit="10" stroke-dasharray=""/></g><g><path fill="none" stroke="#000000" paint-order="fill stroke markers" d=" M 131 446 L 233 446" stroke-miterlimit="10" stroke-dasharray=""/></g><g><path fill="none" stroke="#000000" paint-order="fill stroke markers" d=" M 222.83732514237585 450.209517756016 L 233 446 L 222.83732514237585 441.790482243984" stroke-miterlimit="10" stroke-dasharray=""/></g><g><rect fill="#ffffff" stroke="none" x="224" y="464" width="43.01171875" height="13" transform="matrix(1 0 0 1 -38 -38)"/></g><g><g><path fill="none" stroke="none"/><text fill="#000000" stroke="none" font-family="Arial" font-size="13px" font-style="normal" font-weight="normal" text-decoration="undefined" x="245.505859375" y="470.5" text-anchor="middle" dominant-baseline="central" transform="matrix(1 0 0 1 -38 -38)">-tienda</text></g></g><g><rect fill="#ffffff" stroke="none" x="246" y="490" width="7.22998046875" height="13" transform="matrix(1 0 0 1 -38 -38)"/></g><g><g><path fill="none" stroke="none"/><text fill="#000000" stroke="none" font-family="Arial" font-size="13px" font-style="normal" font-weight="normal" text-decoration="undefined" x="249.614990234375" y="496.5" text-anchor="middle" dominant-baseline="central" transform="matrix(1 0 0 1 -38 -38)">1</text></g></g><g><path fill="none" stroke="#000000" paint-order="fill stroke markers" d=" M 420 303 L 538 393" stroke-miterlimit="10" stroke-dasharray=""/></g><g><rect fill="#ffffff" stroke="none" x="476" y="334" width="38.66357421875" height="13" transform="matrix(1 0 0 1 -38 -38)"/></g><g><g><path fill="none" stroke="none"/><text fill="#000000" stroke="none" font-family="Arial" font-size="13px" font-style="normal" font-weight="normal" text-decoration="undefined" x="495.331787109375" y="340.5" text-anchor="middle" dominant-baseline="central" transform="matrix(1 0 0 1 -38 -38)">-cesta</text></g></g><g><rect fill="#ffffff" stroke="none" x="458" y="358" width="19.5126953125" height="13" transform="matrix(1 0 0 1 -38 -38)"/></g><g><g><path fill="none" stroke="none"/><text fill="#000000" stroke="none" font-family="Arial" font-size="13px" font-style="normal" font-weight="normal" text-decoration="undefined" x="467.75634765625" y="364.5" text-anchor="middle" dominant-baseline="central" transform="matrix(1 0 0 1 -38 -38)">0..*</text></g></g><g><rect fill="#ffffff" stroke="none" x="551" y="395" width="64.6826171875" height="13" transform="matrix(1 0 0 1 -38 -38)"/></g><g><g><path fill="none" stroke="none"/><text fill="#000000" stroke="none" font-family="Arial" font-size="13px" font-style="normal" font-weight="normal" text-decoration="undefined" x="583.34130859375" y="401.5" text-anchor="middle" dominant-baseline="central" transform="matrix(1 0 0 1 -38 -38)">-productos</text></g></g><g><rect fill="#ffffff" stroke="none" x="542" y="421" width="19.5126953125" height="13" transform="matrix(1 0 0 1 -38 -38)"/></g><g><g><path fill="none" stroke="none"/><text fill="#000000" stroke="none" font-family="Arial" font-size="13px" font-style="normal" font-weight="normal" text-decoration="undefined" x="551.75634765625" y="427.5" text-anchor="middle" dominant-baseline="central" transform="matrix(1 0 0 1 -38 -38)">0..*</text></g></g><g><path fill="none" stroke="#000000" paint-order="fill stroke markers" d=" M 677 266 L 628 393" stroke-miterlimit="10" stroke-dasharray=""/></g><g><rect fill="#ffffff" stroke="none" x="717" y="306" width="57.43994140625" height="13" transform="matrix(1 0 0 1 -38 -38)"/></g><g><g><path fill="none" stroke="none"/><text fill="#000000" stroke="none" font-family="Arial" font-size="13px" font-style="normal" font-weight="normal" text-decoration="undefined" x="745.719970703125" y="312.5" text-anchor="middle" dominant-baseline="central" transform="matrix(1 0 0 1 -38 -38)">-compras</text></g></g><g><rect fill="#ffffff" stroke="none" x="677" y="313" width="19.5126953125" height="13" transform="matrix(1 0 0 1 -38 -38)"/></g><g><g><path fill="none" stroke="none"/><text fill="#000000" stroke="none" font-family="Arial" font-size="13px" font-style="normal" font-weight="normal" text-decoration="undefined" x="686.75634765625" y="319.5" text-anchor="middle" dominant-baseline="central" transform="matrix(1 0 0 1 -38 -38)">0..*</text></g></g><g><rect fill="#ffffff" stroke="none" x="680" y="411" width="64.6826171875" height="13" transform="matrix(1 0 0 1 -38 -38)"/></g><g><g><path fill="none" stroke="none"/><text fill="#000000" stroke="none" font-family="Arial" font-size="13px" font-style="normal" font-weight="normal" text-decoration="undefined" x="712.34130859375" y="417.5" text-anchor="middle" dominant-baseline="central" transform="matrix(1 0 0 1 -38 -38)">-productos</text></g></g><g><rect fill="#ffffff" stroke="none" x="653" y="400" width="19.5126953125" height="13" transform="matrix(1 0 0 1 -38 -38)"/></g><g><g><path fill="none" stroke="none"/><text fill="#000000" stroke="none" font-family="Arial" font-size="13px" font-style="normal" font-weight="normal" text-decoration="undefined" x="662.75634765625" y="406.5" text-anchor="middle" dominant-baseline="central" transform="matrix(1 0 0 1 -38 -38)">1..*</text></g></g><g><path fill="none" stroke="#000000" paint-order="fill stroke markers" d=" M 356 446 L 529 446" stroke-miterlimit="10" stroke-dasharray=""/></g><g><rect fill="#ffffff" stroke="none" x="496" y="464" width="64.6826171875" height="13" transform="matrix(1 0 0 1 -38 -38)"/></g><g><g><path fill="none" stroke="none"/><text fill="#000000" stroke="none" font-family="Arial" font-size="13px" font-style="normal" font-weight="normal" text-decoration="undefined" x="528.34130859375" y="470.5" text-anchor="middle" dominant-baseline="central" transform="matrix(1 0 0 1 -38 -38)">-productos</text></g></g><g><rect fill="#ffffff" stroke="none" x="395" y="464" width="49.51171875" height="13" transform="matrix(1 0 0 1 -38 -38)"/></g><g><g><path fill="none" stroke="none"/><text fill="#000000" stroke="none" font-family="Arial" font-size="13px" font-style="normal" font-weight="normal" text-decoration="undefined" x="419.755859375" y="470.5" text-anchor="middle" dominant-baseline="central" transform="matrix(1 0 0 1 -38 -38)">-tiendas</text></g></g><g><rect fill="#ffffff" stroke="none" x="401" y="488" width="19.5126953125" height="13" transform="matrix(1 0 0 1 -38 -38)"/></g><g><g><path fill="none" stroke="none"/><text fill="#000000" stroke="none" font-family="Arial" font-size="13px" font-style="normal" font-weight="normal" text-decoration="undefined" x="410.75634765625" y="494.5" text-anchor="middle" dominant-baseline="central" transform="matrix(1 0 0 1 -38 -38)">0..*</text></g></g><g><rect fill="#ffffff" stroke="none" x="544" y="490" width="19.5126953125" height="13" transform="matrix(1 0 0 1 -38 -38)"/></g><g><g><path fill="none" stroke="none"/><text fill="#000000" stroke="none" font-family="Arial" font-size="13px" font-style="normal" font-weight="normal" text-decoration="undefined" x="553.75634765625" y="496.5" text-anchor="middle" dominant-baseline="central" transform="matrix(1 0 0 1 -38 -38)">0..*</text></g></g><g><path fill="none" stroke="#000000" paint-order="fill stroke markers" d=" M 131 267 L 329 271" stroke-miterlimit="10" stroke-dasharray=""/></g><g><path fill="none" stroke="#000000" paint-order="fill stroke markers" d=" M 318.7543748969122 275.0033943406786 L 329 271 L 318.9244217260538 266.5860762981692" stroke-miterlimit="10" stroke-dasharray=""/></g><g><rect fill="#ffffff" stroke="none" x="322" y="287" width="38.66357421875" height="13" transform="matrix(1 0 0 1 -38 -38)"/></g><g><g><path fill="none" stroke="none"/><text fill="#000000" stroke="none" font-family="Arial" font-size="13px" font-style="normal" font-weight="normal" text-decoration="undefined" x="341.331787109375" y="293.5" text-anchor="middle" dominant-baseline="central" transform="matrix(1 0 0 1 -38 -38)">-cesta</text></g></g><g><rect fill="#ffffff" stroke="none" x="342" y="315" width="7.22998046875" height="13" transform="matrix(1 0 0 1 -38 -38)"/></g><g><g><path fill="none" stroke="none"/><text fill="#000000" stroke="none" font-family="Arial" font-size="13px" font-style="normal" font-weight="normal" text-decoration="undefined" x="345.614990234375" y="321.5" text-anchor="middle" dominant-baseline="central" transform="matrix(1 0 0 1 -38 -38)">1</text></g></g><g><path fill="none" stroke="#000000" paint-order="fill stroke markers" d=" M 69 217 L 66 90 L 698 90 L 698 161" stroke-miterlimit="10" stroke-dasharray=""/></g><g><path fill="none" stroke="#000000" paint-order="fill stroke markers" d=" M 693.790482243984 150.83732514237585 L 698 161 L 702.209517756016 150.83732514237585" stroke-miterlimit="10" stroke-dasharray=""/></g><g><rect fill="#ffffff" stroke="none" x="744" y="175" width="57.43994140625" height="13" transform="matrix(1 0 0 1 -38 -38)"/></g><g><g><path fill="none" stroke="none"/><text fill="#000000" stroke="none" font-family="Arial" font-size="13px" font-style="normal" font-weight="normal" text-decoration="undefined" x="772.719970703125" y="181.5" text-anchor="middle" dominant-baseline="central" transform="matrix(1 0 0 1 -38 -38)">-compras</text></g></g><g><rect fill="#ffffff" stroke="none" x="696" y="175" width="19.5126953125" height="13" transform="matrix(1 0 0 1 -38 -38)"/></g><g><g><path fill="none" stroke="none"/><text fill="#000000" stroke="none" font-family="Arial" font-size="13px" font-style="normal" font-weight="normal" text-decoration="undefined" x="705.75634765625" y="181.5" text-anchor="middle" dominant-baseline="central" transform="matrix(1 0 0 1 -38 -38)">0..*</text></g></g><g><g><path fill="none" stroke="none"/><text fill="#000000" stroke="none" font-family="Helvetica" font-size="28px" font-style="normal" font-weight="normal" text-decoration="undefined" x="229" y="53" text-anchor="start" dominant-baseline="text-before-edge" transform="matrix(1 0 0 1 -38 -38)">Compras - Adrián González</text></g></g></g></svg>