<svg version="1.1" xmlns="http://www.w3.org/2000/svg" xmlns:xlink="http://www.w3.org/1999/xlink" width="252.45703125" height="196"><defs/><g><g><rect fill="#C0C0C0" stroke="none" x="71" y="47" width="231.45703125" height="176" transform="matrix(1 0 0 1 -54 -30)" fill-opacity="0.2"/></g><g><rect fill="#ffffff" stroke="none" x="64" y="40" width="231.45703125" height="176" transform="matrix(1 0 0 1 -54 -30)"/></g><g><path fill="none" stroke="#000000" paint-order="fill stroke markers" d=" M 10 10 L 241.45703125 10 L 241.45703125 186 L 10 186 L 10 10 Z Z" stroke-miterlimit="10" stroke-dasharray=""/></g><g><path fill="none" stroke="#000000" paint-order="fill stroke markers" d=" M 10 35 L 242.45703125 35" stroke-miterlimit="10" stroke-dasharray=""/></g><g><path fill="none" stroke="#000000" paint-order="fill stroke markers" d=" M 10 58 L 242.45703125 58" stroke-miterlimit="10" stroke-dasharray=""/></g><g><g><path fill="none" stroke="none"/><text fill="#000000" stroke="none" font-family="Arial" font-size="13px" font-style="normal" font-weight="bold" text-decoration="undefined" x="180.228515625" y="53.5" text-anchor="middle" dominant-baseline="central" transform="matrix(1 0 0 1 -54 -30)">Chat</text></g></g><g><g><path fill="none" stroke="none"/><text fill="#000000" stroke="none" font-family="Arial" font-size="13px" font-style="normal" font-weight="normal" text-decoration="undefined" x="69" y="76.5" text-anchor="start" dominant-baseline="central" transform="matrix(1 0 0 1 -54 -30)">+msgPrevisualizacion: Mensaje</text></g></g><g><g><path fill="none" stroke="none"/><text fill="#000000" stroke="none" font-family="Arial" font-size="13px" font-style="normal" font-weight="normal" text-decoration="undefined" x="69" y="99.5" text-anchor="start" dominant-baseline="central" transform="matrix(1 0 0 1 -54 -30)">+autorizarChat(): boolean</text></g></g><g><g><path fill="none" stroke="none"/><text fill="#000000" stroke="none" font-family="Arial" font-size="13px" font-style="normal" font-weight="normal" text-decoration="undefined" x="69" y="114.5" text-anchor="start" dominant-baseline="central" transform="matrix(1 0 0 1 -54 -30)">+desautorizarChat(): boolean</text></g></g><g><g><path fill="none" stroke="none"/><text fill="#000000" stroke="none" font-family="Arial" font-size="13px" font-style="normal" font-weight="normal" text-decoration="undefined" x="69" y="129.5" text-anchor="start" dominant-baseline="central" transform="matrix(1 0 0 1 -54 -30)">+bloquearChat(): boolean</text></g></g><g><g><path fill="none" stroke="none"/><text fill="#000000" stroke="none" font-family="Arial" font-size="13px" font-style="normal" font-weight="normal" text-decoration="undefined" x="69" y="144.5" text-anchor="start" dominant-baseline="central" transform="matrix(1 0 0 1 -54 -30)">+desbloquearChat(): boolean</text></g></g><g><g><path fill="none" stroke="none"/><text fill="#000000" stroke="none" font-family="Arial" font-size="13px" font-style="normal" font-weight="normal" text-decoration="undefined" x="69" y="159.5" text-anchor="start" dominant-baseline="central" transform="matrix(1 0 0 1 -54 -30)">+archivarChat(): boolean</text></g></g><g><g><path fill="none" stroke="none"/><text fill="#000000" stroke="none" font-family="Arial" font-size="13px" font-style="normal" font-weight="normal" text-decoration="undefined" x="69" y="174.5" text-anchor="start" dominant-baseline="central" transform="matrix(1 0 0 1 -54 -30)">+desarchivarChat(): boolean</text></g></g><g><g><path fill="none" stroke="none"/><text fill="#000000" stroke="none" font-family="Arial" font-size="13px" font-style="normal" font-weight="normal" text-decoration="undefined" x="69" y="189.5" text-anchor="start" dominant-baseline="central" transform="matrix(1 0 0 1 -54 -30)">+guardarMsg(): boolean</text></g></g><g><g><path fill="none" stroke="none"/><text fill="#000000" stroke="none" font-family="Arial" font-size="13px" font-style="normal" font-weight="normal" text-decoration="undefined" x="69" y="204.5" text-anchor="start" dominant-baseline="central" transform="matrix(1 0 0 1 -54 -30)">+notificaChatArchivado(): boolean</text></g></g></g></svg>