<svg version="1.1" xmlns="http://www.w3.org/2000/svg" xmlns:xlink="http://www.w3.org/1999/xlink" width="1805" height="797"><defs/><g><g><path fill="#C0C0C0" stroke="none" paint-order="stroke fill markers" d=" M 113 74 C 113 60.7451648 123.7451648 50 137 50 C 150.2548352 50 161 60.7451648 161 74 C 161 87.2548352 150.2548352 98 137 98 C 123.7451648 98 113 87.2548352 113 74 Z" fill-opacity="0.2"/></g><g><path fill="#000000" stroke="none" paint-order="stroke fill markers" d=" M 106 67 C 106 53.7451648 116.7451648 43 130 43 C 143.2548352 43 154 53.7451648 154 67 C 154 80.2548352 143.2548352 91 130 91 C 116.7451648 91 106 80.2548352 106 67 Z"/></g><g><path fill="#C0C0C0" stroke="none" paint-order="stroke fill markers" d=" M 27 290 L 239 290 Q 249 290 249 300 L 249 368 Q 249 378 239 378 L 27 378 Q 17 378 17 368 L 17 300 Q 17 290 27 290 Z" fill-opacity="0.2"/></g><g><path fill="#ffffff" stroke="none" paint-order="stroke fill markers" d=" M 20 283 L 232 283 Q 242 283 242 293 L 242 361 Q 242 371 232 371 L 20 371 Q 10 371 10 361 L 10 293 Q 10 283 20 283 Z"/></g><g><path fill="none" stroke="#000000" paint-order="fill stroke markers" d=" M 20 283 L 232 283 Q 242 283 242 293 L 242 361 Q 242 371 232 371 L 20 371 Q 10 371 10 361 L 10 293 Q 10 283 20 283 Z" stroke-miterlimit="10" stroke-dasharray=""/></g><g><g><path fill="none" stroke="none"/><text fill="#000000" stroke="none" font-family="Arial" font-size="13px" font-style="normal" font-weight="bold" text-decoration="undefined" x="228.5" y="357.5" text-anchor="middle" dominant-baseline="central" transform="matrix(1 0 0 1 -102 -61)">Inhabilitado</text></g></g><g><path fill="none" stroke="#000000" paint-order="fill stroke markers" d=" M 130 92 L 127 282" stroke-miterlimit="10" stroke-dasharray=""/></g><g><path fill="none" stroke="#000000" paint-order="fill stroke markers" d=" M 122.951450166636 271.7721339348441 L 127 282 L 131.3694364105962 271.9050495071171" stroke-miterlimit="10" stroke-dasharray=""/></g><g><path fill="#C0C0C0" stroke="none" paint-order="stroke fill markers" d=" M 643 290 L 847 290 Q 857 290 857 300 L 857 360 Q 857 370 847 370 L 643 370 Q 633 370 633 360 L 633 300 Q 633 290 643 290 Z" fill-opacity="0.2"/></g><g><path fill="#ffffff" stroke="none" paint-order="stroke fill markers" d=" M 636 283 L 840 283 Q 850 283 850 293 L 850 353 Q 850 363 840 363 L 636 363 Q 626 363 626 353 L 626 293 Q 626 283 636 283 Z"/></g><g><path fill="none" stroke="#000000" paint-order="fill stroke markers" d=" M 636 283 L 840 283 Q 850 283 850 293 L 850 353 Q 850 363 840 363 L 636 363 Q 626 363 626 353 L 626 293 Q 626 283 636 283 Z" stroke-miterlimit="10" stroke-dasharray=""/></g><g><g><path fill="none" stroke="none"/><text fill="#000000" stroke="none" font-family="Arial" font-size="13px" font-style="normal" font-weight="bold" text-decoration="undefined" x="840.5" y="357.5" text-anchor="middle" dominant-baseline="central" transform="matrix(1 0 0 1 -102 -61)">Habilitado</text></g></g><g><path fill="none" stroke="#000000" paint-order="fill stroke markers" d=" M 243 311 L 442 283 L 625 308" stroke-miterlimit="10" stroke-dasharray=""/></g><g><path fill="none" stroke="#000000" paint-order="fill stroke markers" d=" M 614.3610718197182 310.7952114722871 L 625 308 L 615.5006287522614 302.45365472607074" stroke-miterlimit="10" stroke-dasharray=""/></g><g><rect fill="#ffffff" stroke="none" x="503" y="323" width="86.6962890625" height="13" transform="matrix(1 0 0 1 -102 -61)"/></g><g><g><path fill="none" stroke="none"/><text fill="#000000" stroke="none" font-family="Arial" font-size="13px" font-style="normal" font-weight="normal" text-decoration="undefined" x="546.34814453125" y="329.5" text-anchor="middle" dominant-baseline="central" transform="matrix(1 0 0 1 -102 -61)">autorizarChat()</text></g></g><g><path fill="none" stroke="#000000" paint-order="fill stroke markers" d=" M 625 344 L 394 387 L 243 353" stroke-miterlimit="10" stroke-dasharray=""/></g><g><path fill="none" stroke="#000000" paint-order="fill stroke markers" d=" M 253.83914070933247 351.12569247899614 L 243 353 L 251.98976545593496 359.33909433967335" stroke-miterlimit="10" stroke-dasharray=""/></g><g><rect fill="#ffffff" stroke="none" x="439" y="456" width="107.65625" height="13" transform="matrix(1 0 0 1 -102 -61)"/></g><g><g><path fill="none" stroke="none"/><text fill="#000000" stroke="none" font-family="Arial" font-size="13px" font-style="normal" font-weight="normal" text-decoration="undefined" x="492.828125" y="462.5" text-anchor="middle" dominant-baseline="central" transform="matrix(1 0 0 1 -102 -61)">desautorizarChat()</text></g></g><g><path fill="none" stroke="#000000" paint-order="fill stroke markers" d=" M 682 363 L 682 475 L 786 475 L 786 363" stroke-miterlimit="10" stroke-dasharray=""/></g><g><path fill="none" stroke="#000000" paint-order="fill stroke markers" d=" M 790.209517756016 373.16267485762415 L 786 363 L 781.790482243984 373.16267485762415" stroke-miterlimit="10" stroke-dasharray=""/></g><g><rect fill="#ffffff" stroke="none" x="592" y="544" width="295.8642578125" height="13" transform="matrix(1 0 0 1 -102 -61)"/></g><g><g><path fill="none" stroke="none"/><text fill="#000000" stroke="none" font-family="Arial" font-size="13px" font-style="normal" font-weight="normal" text-decoration="undefined" x="739.93212890625" y="550.5" text-anchor="middle" dominant-baseline="central" transform="matrix(1 0 0 1 -102 -61)">guardarMensaje(msg) / msgPrevisualizacion:= msg</text></g></g><g><path fill="#C0C0C0" stroke="none" paint-order="stroke fill markers" d=" M 1203 162 L 1295 162 Q 1305 162 1305 172 L 1305 216 Q 1305 226 1295 226 L 1203 226 Q 1193 226 1193 216 L 1193 172 Q 1193 162 1203 162 Z" fill-opacity="0.2"/></g><g><path fill="#ffffff" stroke="none" paint-order="stroke fill markers" d=" M 1196 155 L 1288 155 Q 1298 155 1298 165 L 1298 209 Q 1298 219 1288 219 L 1196 219 Q 1186 219 1186 209 L 1186 165 Q 1186 155 1196 155 Z"/></g><g><path fill="none" stroke="#000000" paint-order="fill stroke markers" d=" M 1196 155 L 1288 155 Q 1298 155 1298 165 L 1298 209 Q 1298 219 1288 219 L 1196 219 Q 1186 219 1186 209 L 1186 165 Q 1186 155 1196 155 Z" stroke-miterlimit="10" stroke-dasharray=""/></g><g><g><path fill="none" stroke="none"/><text fill="#000000" stroke="none" font-family="Arial" font-size="13px" font-style="normal" font-weight="bold" text-decoration="undefined" x="1344.5" y="229.5" text-anchor="middle" dominant-baseline="central" transform="matrix(1 0 0 1 -102 -61)">Bloqueado</text></g></g><g><path fill="#C0C0C0" stroke="none" paint-order="stroke fill markers" d=" M 1203 490 L 1295 490 Q 1305 490 1305 500 L 1305 544 Q 1305 554 1295 554 L 1203 554 Q 1193 554 1193 544 L 1193 500 Q 1193 490 1203 490 Z" fill-opacity="0.2"/></g><g><path fill="#ffffff" stroke="none" paint-order="stroke fill markers" d=" M 1196 483 L 1288 483 Q 1298 483 1298 493 L 1298 537 Q 1298 547 1288 547 L 1196 547 Q 1186 547 1186 537 L 1186 493 Q 1186 483 1196 483 Z"/></g><g><path fill="none" stroke="#000000" paint-order="fill stroke markers" d=" M 1196 483 L 1288 483 Q 1298 483 1298 493 L 1298 537 Q 1298 547 1288 547 L 1196 547 Q 1186 547 1186 537 L 1186 493 Q 1186 483 1196 483 Z" stroke-miterlimit="10" stroke-dasharray=""/></g><g><g><path fill="none" stroke="none"/><text fill="#000000" stroke="none" font-family="Arial" font-size="13px" font-style="normal" font-weight="bold" text-decoration="undefined" x="1344.5" y="557.5" text-anchor="middle" dominant-baseline="central" transform="matrix(1 0 0 1 -102 -61)">Archivado</text></g></g><g><path fill="none" stroke="#000000" paint-order="fill stroke markers" d=" M 807 282 L 954 195 L 1185 189" stroke-miterlimit="10" stroke-dasharray=""/></g><g><path fill="none" stroke="#000000" paint-order="fill stroke markers" d=" M 1174.9500527928878 193.47197508202552 L 1185 189 L 1174.7314502734866 185.05577808508164" stroke-miterlimit="10" stroke-dasharray=""/></g><g><rect fill="#ffffff" stroke="none" x="1012" y="235" width="86.71533203125" height="13" transform="matrix(1 0 0 1 -102 -61)"/></g><g><g><path fill="none" stroke="none"/><text fill="#000000" stroke="none" font-family="Arial" font-size="13px" font-style="normal" font-weight="normal" text-decoration="undefined" x="1055.357666015625" y="241.5" text-anchor="middle" dominant-baseline="central" transform="matrix(1 0 0 1 -102 -61)">bloquearChat()</text></g></g><g><path fill="none" stroke="#000000" paint-order="fill stroke markers" d=" M 1185 214 L 1026 291 L 851 310" stroke-miterlimit="10" stroke-dasharray=""/></g><g><path fill="none" stroke="#000000" paint-order="fill stroke markers" d=" M 860.6489384503984 304.7181455169209 L 851 310 L 861.5576649317542 313.08799468730257" stroke-miterlimit="10" stroke-dasharray=""/></g><g><rect fill="#ffffff" stroke="none" x="1076" y="360" width="107.67529296875" height="13" transform="matrix(1 0 0 1 -102 -61)"/></g><g><g><path fill="none" stroke="none"/><text fill="#000000" stroke="none" font-family="Arial" font-size="13px" font-style="normal" font-weight="normal" text-decoration="undefined" x="1129.837646484375" y="366.5" text-anchor="middle" dominant-baseline="central" transform="matrix(1 0 0 1 -102 -61)">desbloquearChat()</text></g></g><g><path fill="none" stroke="#000000" paint-order="fill stroke markers" d=" M 851 339 L 1026 363 L 1195 482" stroke-miterlimit="10" stroke-dasharray=""/></g><g><path fill="none" stroke="#000000" paint-order="fill stroke markers" d=" M 1184.2670551662836 479.5908725238371 L 1195 482 L 1189.1141723011156 472.70715155084054" stroke-miterlimit="10" stroke-dasharray=""/></g><g><rect fill="#ffffff" stroke="none" x="1080" y="400" width="243.12158203125" height="13" transform="matrix(1 0 0 1 -102 -61)"/></g><g><g><path fill="none" stroke="none"/><text fill="#000000" stroke="none" font-family="Arial" font-size="13px" font-style="normal" font-weight="normal" text-decoration="undefined" x="1201.560791015625" y="406.5" text-anchor="middle" dominant-baseline="central" transform="matrix(1 0 0 1 -102 -61)">archivarChat() / msgPrevisualizacion:=null</text></g></g><g><path fill="none" stroke="#000000" paint-order="fill stroke markers" d=" M 1185 504 L 962 459 L 806 364" stroke-miterlimit="10" stroke-dasharray=""/></g><g><path fill="none" stroke="#000000" paint-order="fill stroke markers" d=" M 816.8693245775396 365.69049792312626 L 806 364 L 812.4904105706714 372.8811356607202" stroke-miterlimit="10" stroke-dasharray=""/></g><g><rect fill="#ffffff" stroke="none" x="1000" y="536" width="103.314453125" height="13" transform="matrix(1 0 0 1 -102 -61)"/></g><g><g><path fill="none" stroke="none"/><text fill="#000000" stroke="none" font-family="Arial" font-size="13px" font-style="normal" font-weight="normal" text-decoration="undefined" x="1051.6572265625" y="542.5" text-anchor="middle" dominant-baseline="central" transform="matrix(1 0 0 1 -102 -61)">desarchivarChat()</text></g></g><g><path fill="none" stroke="#000000" paint-order="fill stroke markers" d=" M 1242 547 L 1242 595 L 802 595 L 802 363" stroke-miterlimit="10" stroke-dasharray=""/></g><g><path fill="none" stroke="#000000" paint-order="fill stroke markers" d=" M 806.209517756016 373.16267485762415 L 802 363 L 797.790482243984 373.16267485762415" stroke-miterlimit="10" stroke-dasharray=""/></g><g><rect fill="#ffffff" stroke="none" x="891" y="664" width="493.0986328125" height="13" transform="matrix(1 0 0 1 -102 -61)"/></g><g><g><path fill="none" stroke="none"/><text fill="#000000" stroke="none" font-family="Arial" font-size="13px" font-style="normal" font-weight="normal" text-decoration="undefined" x="1137.54931640625" y="670.5" text-anchor="middle" dominant-baseline="central" transform="matrix(1 0 0 1 -102 -61)">guardarMensaje(msg) / msgPrevisualizacion:=msg</text></g></g><g><path fill="none" stroke="#000000" paint-order="fill stroke markers" d=" M 1242 220 L 1242 482" stroke-miterlimit="10" stroke-dasharray=""/></g><g><path fill="none" stroke="#000000" paint-order="fill stroke markers" d=" M 1237.7904822439841 471.8373251423759 L 1242 482 L 1246.2095177560159 471.8373251423759" stroke-miterlimit="10" stroke-dasharray=""/></g><g><rect fill="#ffffff" stroke="none" x="1360" y="344" width="522.716796875" height="13" transform="matrix(1 0 0 1 -102 -61)"/></g><g><g><path fill="none" stroke="none"/><text fill="#000000" stroke="none" font-family="Arial" font-size="13px" font-style="normal" font-weight="normal" text-decoration="undefined" x="1621.3583984375" y="350.5" text-anchor="middle" dominant-baseline="central" transform="matrix(1 0 0 1 -102 -61)">after(1 año) / archivarChat(), msgPrevisualizacion:=null, notificaChatArchivado(): boolean</text></g></g><g><path fill="none" stroke="#000000" paint-order="fill stroke markers" d=" M 738 282 L 738 43 L 1722 43 L 1794 291 L 1722 507 L 1299 514" stroke-miterlimit="10" stroke-dasharray=""/></g><g><path fill="none" stroke="#000000" paint-order="fill stroke markers" d=" M 1309.0916320968802 509.6229048878033 L 1299 514 L 1309.2309351246765 518.0407878532111" stroke-miterlimit="10" stroke-dasharray=""/></g><g><rect fill="#ffffff" stroke="none" x="1280" y="71" width="522.716796875" height="13" transform="matrix(1 0 0 1 -102 -61)"/></g><g><g><path fill="none" stroke="none"/><text fill="#000000" stroke="none" font-family="Arial" font-size="13px" font-style="normal" font-weight="normal" text-decoration="undefined" x="1541.3583984375" y="77.5" text-anchor="middle" dominant-baseline="central" transform="matrix(1 0 0 1 -102 -61)">after(1 año) / archivarChat(), msgPrevisualizacion:=null, notificaChatArchivado(): boolean</text></g></g><g><path fill="#ffffff" stroke="none" paint-order="stroke fill markers" d=" M 1362 91 L 1607 91 L 1617 101 L 1617 234 L 1362 234 L 1362 91"/></g><g><path fill="none" stroke="#000000" paint-order="fill stroke markers" d=" M 1362 91 L 1607 91 L 1617 101 L 1617 234 L 1362 234 L 1362 91 L 1362 91" stroke-miterlimit="10" stroke-dasharray=""/></g><g><path fill="none" stroke="#000000" paint-order="fill stroke markers" d=" M 1607 91 L 1607 101 L 1617 101 L 1607 91" stroke-miterlimit="10" stroke-dasharray=""/></g><g><g><path fill="none" stroke="none"/><text fill="#000000" stroke="none" font-family="Arial" font-size="13px" font-style="normal" font-weight="normal" text-decoration="undefined" x="1469" y="157" text-anchor="start" dominant-baseline="text-before-edge" transform="matrix(1 0 0 1 -102 -61)">msgPrevisualizacion: Contiene el ultimo</text><text fill="#000000" stroke="none" font-family="Arial" font-size="13px" font-style="normal" font-weight="normal" text-decoration="undefined" x="1469" y="170" text-anchor="start" dominant-baseline="text-before-edge" transform="matrix(1 0 0 1 -102 -61)">Mensaje del Chat para mostrar como</text><text fill="#000000" stroke="none" font-family="Arial" font-size="13px" font-style="normal" font-weight="normal" text-decoration="undefined" x="1469" y="183" text-anchor="start" dominant-baseline="text-before-edge" transform="matrix(1 0 0 1 -102 -61)">previsualización antes de entrar al Chat. O</text><text fill="#000000" stroke="none" font-family="Arial" font-size="13px" font-style="normal" font-weight="normal" text-decoration="undefined" x="1469" y="196" text-anchor="start" dominant-baseline="text-before-edge" transform="matrix(1 0 0 1 -102 -61)">no contiene nada cuando el Chat es</text><text fill="#000000" stroke="none" font-family="Arial" font-size="13px" font-style="normal" font-weight="normal" text-decoration="undefined" x="1469" y="209" text-anchor="start" dominant-baseline="text-before-edge" transform="matrix(1 0 0 1 -102 -61)">Archivado.</text></g></g><g><g><path fill="none" stroke="none"/></g></g><g><g><path fill="none" stroke="none"/><text fill="#000000" stroke="none" font-family="Arial" font-size="13px" font-style="normal" font-weight="normal" text-decoration="undefined" x="1469" y="226" text-anchor="start" dominant-baseline="text-before-edge" transform="matrix(1 0 0 1 -102 -61)">notificaChatArchivado(): Informa a los</text><text fill="#000000" stroke="none" font-family="Arial" font-size="13px" font-style="normal" font-weight="normal" text-decoration="undefined" x="1469" y="239" text-anchor="start" dominant-baseline="text-before-edge" transform="matrix(1 0 0 1 -102 -61)">participantes del Chat que su</text><text fill="#000000" stroke="none" font-family="Arial" font-size="13px" font-style="normal" font-weight="normal" text-decoration="undefined" x="1469" y="252" text-anchor="start" dominant-baseline="text-before-edge" transform="matrix(1 0 0 1 -102 -61)">conversación ha sido archivada despues</text><text fill="#000000" stroke="none" font-family="Arial" font-size="13px" font-style="normal" font-weight="normal" text-decoration="undefined" x="1469" y="265" text-anchor="start" dominant-baseline="text-before-edge" transform="matrix(1 0 0 1 -102 -61)">de un año sin interación.</text></g></g><g><path fill="none" stroke="#000000" paint-order="fill stroke markers" d=" M 1619 165 L 1758 167" stroke-miterlimit="10" stroke-dasharray="3"/></g><g><g><path fill="none" stroke="none"/><text fill="#000000" stroke="none" font-family="Arial" font-size="26px" font-style="normal" font-weight="normal" text-decoration="undefined" x="965" y="765" text-anchor="start" dominant-baseline="text-before-edge" transform="matrix(1 0 0 1 -102 -61)">Lucia Fernández</text></g></g><g><g><path fill="none" stroke="none"/><text fill="#000000" stroke="none" font-family="Arial" font-size="26px" font-style="normal" font-weight="normal" text-decoration="undefined" x="965" y="793" text-anchor="start" dominant-baseline="text-before-edge" transform="matrix(1 0 0 1 -102 -61)">Adrián Del Rio</text></g></g></g></svg>