<svg version="1.1" xmlns="http://www.w3.org/2000/svg" xmlns:xlink="http://www.w3.org/1999/xlink" width="813" height="796"><defs/><g><g><rect fill="#C0C0C0" stroke="none" x="199" y="399" width="790.736328125" height="152" transform="matrix(1 0 0 1 -182 -118)" fill-opacity="0.2"/></g><g><rect fill="#ffffff" stroke="none" x="192" y="392" width="790.736328125" height="152" transform="matrix(1 0 0 1 -182 -118)"/></g><g><path fill="none" stroke="#000000" paint-order="fill stroke markers" d=" M 10 274 L 800.736328125 274 L 800.736328125 426 L 10 426 L 10 274 Z Z" stroke-miterlimit="10" stroke-dasharray=""/></g><g><path fill="none" stroke="#000000" paint-order="fill stroke markers" d=" M 10 312 L 801.736328125 312" stroke-miterlimit="10" stroke-dasharray=""/></g><g><g><path fill="none" stroke="none"/><text fill="#000000" stroke="none" font-family="Arial" font-size="13px" font-style="normal" font-weight="normal" text-decoration="undefined" x="587.8681640625" y="403.5" text-anchor="middle" dominant-baseline="central" transform="matrix(1 0 0 1 -182 -118)">«interface»</text></g></g><g><g><path fill="none" stroke="none"/><text fill="#000000" stroke="none" font-family="Arial" font-size="13px" font-style="normal" font-weight="bold" text-decoration="undefined" x="587.8681640625" y="418.5" text-anchor="middle" dominant-baseline="central" transform="matrix(1 0 0 1 -182 -118)">DAOChats</text></g></g><g><g><path fill="none" stroke="none"/><text fill="#000000" stroke="none" font-family="Arial" font-size="13px" font-style="normal" font-weight="normal" text-decoration="undefined" x="197" y="441.5" text-anchor="start" dominant-baseline="central" transform="matrix(1 0 0 1 -182 -118)">+obtenerChats(): Chat[*]</text></g></g><g><g><path fill="none" stroke="none"/><text fill="#000000" stroke="none" font-family="Arial" font-size="13px" font-style="normal" font-weight="normal" text-decoration="undefined" x="197" y="456.5" text-anchor="start" dominant-baseline="central" transform="matrix(1 0 0 1 -182 -118)">+obtenerChat(id: String): Chat</text></g></g><g><g><path fill="none" stroke="none"/><text fill="#000000" stroke="none" font-family="Arial" font-size="13px" font-style="normal" font-weight="normal" text-decoration="undefined" x="197" y="471.5" text-anchor="start" dominant-baseline="central" transform="matrix(1 0 0 1 -182 -118)">+crearChat(c: Chat): Chat</text></g></g><g><g><path fill="none" stroke="none"/><text fill="#000000" stroke="none" font-family="Arial" font-size="13px" font-style="normal" font-weight="normal" text-decoration="undefined" x="197" y="486.5" text-anchor="start" dominant-baseline="central" transform="matrix(1 0 0 1 -182 -118)">+modificarChat(c: Chat): Boolean</text></g></g><g><g><path fill="none" stroke="none"/><text fill="#000000" stroke="none" font-family="Arial" font-size="13px" font-style="normal" font-weight="normal" text-decoration="undefined" x="197" y="501.5" text-anchor="start" dominant-baseline="central" transform="matrix(1 0 0 1 -182 -118)">+eliminarChat(id: String): Boolean</text></g></g><g><rect fill="#C0C0C0" stroke="none" x="199" y="191" width="790.736328125" height="184" transform="matrix(1 0 0 1 -182 -118)" fill-opacity="0.2"/></g><g><rect fill="#ffffff" stroke="none" x="192" y="184" width="790.736328125" height="184" transform="matrix(1 0 0 1 -182 -118)"/></g><g><path fill="none" stroke="#000000" paint-order="fill stroke markers" d=" M 10 66 L 800.736328125 66 L 800.736328125 250 L 10 250 L 10 66 Z Z" stroke-miterlimit="10" stroke-dasharray=""/></g><g><path fill="none" stroke="#000000" paint-order="fill stroke markers" d=" M 10 104 L 801.736328125 104" stroke-miterlimit="10" stroke-dasharray=""/></g><g><g><path fill="none" stroke="none"/><text fill="#000000" stroke="none" font-family="Arial" font-size="13px" font-style="normal" font-weight="normal" text-decoration="undefined" x="587.8681640625" y="195.5" text-anchor="middle" dominant-baseline="central" transform="matrix(1 0 0 1 -182 -118)">«interface»</text></g></g><g><g><path fill="none" stroke="none"/><text fill="#000000" stroke="none" font-family="Arial" font-size="13px" font-style="normal" font-weight="bold" text-decoration="undefined" x="587.8681640625" y="210.5" text-anchor="middle" dominant-baseline="central" transform="matrix(1 0 0 1 -182 -118)">iGestionChats</text></g></g><g><g><path fill="none" stroke="none"/><text fill="#000000" stroke="none" font-family="Arial" font-size="13px" font-style="normal" font-weight="normal" text-decoration="undefined" x="197" y="233.5" text-anchor="start" dominant-baseline="central" transform="matrix(1 0 0 1 -182 -118)">+verSolicitudChat(idUsuarioSolicitante: String, idUsuarioSolicitado: String, idChat: String): Boolean</text></g></g><g><g><path fill="none" stroke="none"/><text fill="#000000" stroke="none" font-family="Arial" font-size="13px" font-style="normal" font-weight="normal" text-decoration="undefined" x="197" y="248.5" text-anchor="start" dominant-baseline="central" transform="matrix(1 0 0 1 -182 -118)">+anhadirSolicitudChatArtista(idProductorSolicitante: String, idArtistaSolicitado: String, idChat: String, msgSolicitud: String): Boolean</text></g></g><g><g><path fill="none" stroke="none"/><text fill="#000000" stroke="none" font-family="Arial" font-size="13px" font-style="normal" font-weight="normal" text-decoration="undefined" x="197" y="263.5" text-anchor="start" dominant-baseline="central" transform="matrix(1 0 0 1 -182 -118)">+eliminarSolicitudChatArtista(idUsuarioSolicitante: String, idUsuarioSolicitado: String, idChat: String): Boolean</text></g></g><g><g><path fill="none" stroke="none"/><text fill="#000000" stroke="none" font-family="Arial" font-size="13px" font-style="normal" font-weight="normal" text-decoration="undefined" x="197" y="278.5" text-anchor="start" dominant-baseline="central" transform="matrix(1 0 0 1 -182 -118)">+verChat(idUsuarioSolicitante: String, idUsuarioSolicitado: String, idChat: String): Chat</text></g></g><g><g><path fill="none" stroke="none"/><text fill="#000000" stroke="none" font-family="Arial" font-size="13px" font-style="normal" font-weight="normal" text-decoration="undefined" x="197" y="293.5" text-anchor="start" dominant-baseline="central" transform="matrix(1 0 0 1 -182 -118)">+archivarChat(idUsuarioSolicitante: String, idUsuarioSolicitado: String, idChat: String, archivar: Boolean): Boolean</text></g></g><g><g><path fill="none" stroke="none"/><text fill="#000000" stroke="none" font-family="Arial" font-size="13px" font-style="normal" font-weight="normal" text-decoration="undefined" x="197" y="308.5" text-anchor="start" dominant-baseline="central" transform="matrix(1 0 0 1 -182 -118)">+enviarMensajeChat(idUsuarioSolicitante: String, idUsuarioSolicitado: String, idChat: String, msg: String): Boolean</text></g></g><g><g><path fill="none" stroke="none"/><text fill="#000000" stroke="none" font-family="Arial" font-size="13px" font-style="normal" font-weight="normal" text-decoration="undefined" x="197" y="323.5" text-anchor="start" dominant-baseline="central" transform="matrix(1 0 0 1 -182 -118)">+bloquearChat(idUsuarioSolicitante: String, idUsuarioSolicitado: String, idChat: String, bloquear: Boolean): Boolean</text></g></g><g><g><path fill="none" stroke="none"/><text fill="#000000" stroke="none" font-family="Arial" font-size="22px" font-style="normal" font-weight="normal" text-decoration="undefined" x="445" y="133" text-anchor="start" dominant-baseline="text-before-edge" transform="matrix(1 0 0 1 -182 -118)">Descripción - Adrián Del Río</text></g></g><g><rect fill="#C0C0C0" stroke="none" x="199" y="583" width="792" height="152" transform="matrix(1 0 0 1 -182 -118)" fill-opacity="0.2"/></g><g><rect fill="#ffffff" stroke="none" x="192" y="576" width="792" height="152" transform="matrix(1 0 0 1 -182 -118)"/></g><g><path fill="none" stroke="#000000" paint-order="fill stroke markers" d=" M 10 458 L 802 458 L 802 610 L 10 610 L 10 458 Z Z" stroke-miterlimit="10" stroke-dasharray=""/></g><g><path fill="none" stroke="#000000" paint-order="fill stroke markers" d=" M 10 496 L 803 496" stroke-miterlimit="10" stroke-dasharray=""/></g><g><g><path fill="none" stroke="none"/><text fill="#000000" stroke="none" font-family="Arial" font-size="13px" font-style="normal" font-weight="normal" text-decoration="undefined" x="588.5" y="587.5" text-anchor="middle" dominant-baseline="central" transform="matrix(1 0 0 1 -182 -118)">«interface»</text></g></g><g><g><path fill="none" stroke="none"/><text fill="#000000" stroke="none" font-family="Arial" font-size="13px" font-style="normal" font-weight="bold" text-decoration="undefined" x="588.5" y="602.5" text-anchor="middle" dominant-baseline="central" transform="matrix(1 0 0 1 -182 -118)">DAOProductores</text></g></g><g><g><path fill="none" stroke="none"/><text fill="#000000" stroke="none" font-family="Arial" font-size="13px" font-style="normal" font-weight="normal" text-decoration="undefined" x="197" y="625.5" text-anchor="start" dominant-baseline="central" transform="matrix(1 0 0 1 -182 -118)">+obtenerProductores(): Productor[*]</text></g></g><g><g><path fill="none" stroke="none"/><text fill="#000000" stroke="none" font-family="Arial" font-size="13px" font-style="normal" font-weight="normal" text-decoration="undefined" x="197" y="640.5" text-anchor="start" dominant-baseline="central" transform="matrix(1 0 0 1 -182 -118)">+obtenerProductor(id: String): Productor</text></g></g><g><g><path fill="none" stroke="none"/><text fill="#000000" stroke="none" font-family="Arial" font-size="13px" font-style="normal" font-weight="normal" text-decoration="undefined" x="197" y="655.5" text-anchor="start" dominant-baseline="central" transform="matrix(1 0 0 1 -182 -118)">+crearProductor(p: Productor): Productor</text></g></g><g><g><path fill="none" stroke="none"/><text fill="#000000" stroke="none" font-family="Arial" font-size="13px" font-style="normal" font-weight="normal" text-decoration="undefined" x="197" y="670.5" text-anchor="start" dominant-baseline="central" transform="matrix(1 0 0 1 -182 -118)">+modificarProductor(p: Productor): Boolean</text></g></g><g><g><path fill="none" stroke="none"/><text fill="#000000" stroke="none" font-family="Arial" font-size="13px" font-style="normal" font-weight="normal" text-decoration="undefined" x="197" y="685.5" text-anchor="start" dominant-baseline="central" transform="matrix(1 0 0 1 -182 -118)">+eliminarProductor(id: String): Boolean</text></g></g><g><rect fill="#C0C0C0" stroke="none" x="199" y="759" width="792" height="152" transform="matrix(1 0 0 1 -182 -118)" fill-opacity="0.2"/></g><g><rect fill="#ffffff" stroke="none" x="192" y="752" width="792" height="152" transform="matrix(1 0 0 1 -182 -118)"/></g><g><path fill="none" stroke="#000000" paint-order="fill stroke markers" d=" M 10 634 L 802 634 L 802 786 L 10 786 L 10 634 Z Z" stroke-miterlimit="10" stroke-dasharray=""/></g><g><path fill="none" stroke="#000000" paint-order="fill stroke markers" d=" M 10 672 L 803 672" stroke-miterlimit="10" stroke-dasharray=""/></g><g><g><path fill="none" stroke="none"/><text fill="#000000" stroke="none" font-family="Arial" font-size="13px" font-style="normal" font-weight="normal" text-decoration="undefined" x="588.5" y="763.5" text-anchor="middle" dominant-baseline="central" transform="matrix(1 0 0 1 -182 -118)">«interface»</text></g></g><g><g><path fill="none" stroke="none"/><text fill="#000000" stroke="none" font-family="Arial" font-size="13px" font-style="normal" font-weight="bold" text-decoration="undefined" x="588.5" y="778.5" text-anchor="middle" dominant-baseline="central" transform="matrix(1 0 0 1 -182 -118)">DAOArtistas</text></g></g><g><g><path fill="none" stroke="none"/><text fill="#000000" stroke="none" font-family="Arial" font-size="13px" font-style="normal" font-weight="normal" text-decoration="undefined" x="197" y="801.5" text-anchor="start" dominant-baseline="central" transform="matrix(1 0 0 1 -182 -118)">+obtenerArtistas(): Artistas[*]</text></g></g><g><g><path fill="none" stroke="none"/><text fill="#000000" stroke="none" font-family="Arial" font-size="13px" font-style="normal" font-weight="normal" text-decoration="undefined" x="197" y="816.5" text-anchor="start" dominant-baseline="central" transform="matrix(1 0 0 1 -182 -118)">+obtenerArtista(id: String): Artista</text></g></g><g><g><path fill="none" stroke="none"/><text fill="#000000" stroke="none" font-family="Arial" font-size="13px" font-style="normal" font-weight="normal" text-decoration="undefined" x="197" y="831.5" text-anchor="start" dominant-baseline="central" transform="matrix(1 0 0 1 -182 -118)">+crearArtista(a: Artista): Artista</text></g></g><g><g><path fill="none" stroke="none"/><text fill="#000000" stroke="none" font-family="Arial" font-size="13px" font-style="normal" font-weight="normal" text-decoration="undefined" x="197" y="846.5" text-anchor="start" dominant-baseline="central" transform="matrix(1 0 0 1 -182 -118)">+modificarArtista(a: Artista): Boolean</text></g></g><g><g><path fill="none" stroke="none"/><text fill="#000000" stroke="none" font-family="Arial" font-size="13px" font-style="normal" font-weight="normal" text-decoration="undefined" x="197" y="861.5" text-anchor="start" dominant-baseline="central" transform="matrix(1 0 0 1 -182 -118)">+eliminarArtista(id: String): Boolean</text></g></g></g></svg>