<svg version="1.1" xmlns="http://www.w3.org/2000/svg" xmlns:xlink="http://www.w3.org/1999/xlink" width="1436" height="1180"><defs/><g><g><path fill="none" stroke="#000000" paint-order="fill stroke markers" d=" M 226 10 L 1426 10 L 1426 1170 L 226 1170 L 226 10" stroke-miterlimit="10" stroke-dasharray=""/></g><g><path fill="#ffffff" stroke="none" paint-order="stroke fill markers" d=" M 226 10 L 226 33 L 551.53076171875 33 L 563.03076171875 21.5 L 563.03076171875 10 L 226 10"/></g><g><path fill="none" stroke="#000000" paint-order="fill stroke markers" d=" M 226 10 L 226 33 L 551.53076171875 33 L 563.03076171875 21.5 L 563.03076171875 10 L 226 10 L 226 10" stroke-miterlimit="10" stroke-dasharray=""/></g><g><g><path fill="none" stroke="none"/><text fill="#000000" stroke="none" font-family="Arial" font-size="13px" font-style="normal" font-weight="normal" text-decoration="undefined" x="486.436279296875" y="115.5" text-anchor="middle" dominant-baseline="central" transform="matrix(1 0 0 1 -86 -94)">añadirProducto (p : Producto , t : Tienda) : boolean</text></g></g><g><g><path fill="none" stroke="none"/><text fill="#000000" stroke="none" font-family="Arial" font-size="13px" font-style="normal" font-weight="bold" text-decoration="undefined" x="325.6708984375" y="115.5" text-anchor="middle" dominant-baseline="central" transform="matrix(1 0 0 1 -86 -94)">act</text></g></g><g><rect fill="#C0C0C0" stroke="none" x="199" y="311" width="209.28076171875" height="25" transform="matrix(1 0 0 1 -86 -94)" fill-opacity="0.2"/></g><g><rect fill="#ffffff" stroke="none" x="192" y="304" width="209.28076171875" height="25" transform="matrix(1 0 0 1 -86 -94)"/></g><g><path fill="none" stroke="#000000" paint-order="fill stroke markers" d=" M 106 210 L 315.28076171875 210 L 315.28076171875 235 L 106 235 L 106 210 Z Z" stroke-miterlimit="10" stroke-dasharray=""/></g><g><rect fill="#ffffff" stroke="none" x="192" y="304" width="209.28076171875" height="25" transform="matrix(1 0 0 1 -86 -94)"/></g><g><path fill="none" stroke="#000000" paint-order="fill stroke markers" d=" M 106 210 L 315.28076171875 210 L 315.28076171875 235 L 106 235 L 106 210 Z Z" stroke-miterlimit="10" stroke-dasharray=""/></g><g><g><path fill="none" stroke="none"/><text fill="#000000" stroke="none" font-family="Arial" font-size="13px" font-style="normal" font-weight="bold" text-decoration="undefined" x="297.140380859375" y="317.5" text-anchor="middle" dominant-baseline="central" transform="matrix(1 0 0 1 -86 -94)">in p: Producto</text></g></g><g><rect fill="#C0C0C0" stroke="none" x="199" y="407" width="208.287109375" height="25" transform="matrix(1 0 0 1 -86 -94)" fill-opacity="0.2"/></g><g><rect fill="#ffffff" stroke="none" x="192" y="400" width="208.287109375" height="25" transform="matrix(1 0 0 1 -86 -94)"/></g><g><path fill="none" stroke="#000000" paint-order="fill stroke markers" d=" M 106 306 L 314.287109375 306 L 314.287109375 331 L 106 331 L 106 306 Z Z" stroke-miterlimit="10" stroke-dasharray=""/></g><g><rect fill="#ffffff" stroke="none" x="192" y="400" width="208.287109375" height="25" transform="matrix(1 0 0 1 -86 -94)"/></g><g><path fill="none" stroke="#000000" paint-order="fill stroke markers" d=" M 106 306 L 314.287109375 306 L 314.287109375 331 L 106 331 L 106 306 Z Z" stroke-miterlimit="10" stroke-dasharray=""/></g><g><g><path fill="none" stroke="none"/><text fill="#000000" stroke="none" font-family="Arial" font-size="13px" font-style="normal" font-weight="bold" text-decoration="undefined" x="296.6435546875" y="413.5" text-anchor="middle" dominant-baseline="central" transform="matrix(1 0 0 1 -86 -94)">in t: Tienda</text></g></g><g><path fill="#C0C0C0" stroke="none" paint-order="stroke fill markers" d=" M 881 131 C 881 125.47715199999999 885.477152 121 891 121 C 896.522848 121 901 125.47715199999999 901 131 C 901 136.522848 896.522848 141 891 141 C 885.477152 141 881 136.522848 881 131 Z" fill-opacity="0.2"/></g><g><path fill="#000000" stroke="none" paint-order="stroke fill markers" d=" M 874 124 C 874 118.47715199999999 878.477152 114 884 114 C 889.522848 114 894 118.47715199999999 894 124 C 894 129.522848 889.522848 134 884 134 C 878.477152 134 874 129.522848 874 124 Z"/></g><g><path fill="#C0C0C0" stroke="none" paint-order="stroke fill markers" d=" M 905 934 C 905 926.8202976 910.8202976 921 918 921 C 925.1797024 921 931 926.8202976 931 934 C 931 941.1797024 925.1797024 947 918 947 C 910.8202976 947 905 941.1797024 905 934 Z" fill-opacity="0.2"/></g><g><path fill="none" stroke="#000000" paint-order="fill stroke markers" d=" M 898 927 C 898 919.8202976 903.8202976 914 911 914 C 918.1797024 914 924 919.8202976 924 927 C 924 934.1797024 918.1797024 940 911 940 C 903.8202976 940 898 934.1797024 898 927 Z" stroke-miterlimit="10" stroke-dasharray=""/></g><g><path fill="#000000" stroke="none" paint-order="stroke fill markers" d=" M 903 927 C 903 922.5817216 906.5817216 919 911 919 C 915.4182784 919 919 922.5817216 919 927 C 919 931.4182784 915.4182784 935 911 935 C 906.5817216 935 903 931.4182784 903 927 Z"/></g><g><path fill="#C0C0C0" stroke="none" paint-order="stroke fill markers" d=" M 763 217 L 1026.7744140625 217 Q 1036.7744140625 217 1036.7744140625 227 L 1036.7744140625 248 Q 1036.7744140625 258 1026.7744140625 258 L 763 258 Q 753 258 753 248 L 753 227 Q 753 217 763 217 Z" fill-opacity="0.2"/></g><g><path fill="#ffffff" stroke="none" paint-order="stroke fill markers" d=" M 756 210 L 1019.7744140625 210 Q 1029.7744140625 210 1029.7744140625 220 L 1029.7744140625 241 Q 1029.7744140625 251 1019.7744140625 251 L 756 251 Q 746 251 746 241 L 746 220 Q 746 210 756 210 Z"/></g><g><path fill="none" stroke="#000000" paint-order="fill stroke markers" d=" M 756 210 L 1019.7744140625 210 Q 1029.7744140625 210 1029.7744140625 220 L 1029.7744140625 241 Q 1029.7744140625 251 1019.7744140625 251 L 756 251 Q 746 251 746 241 L 746 220 Q 746 210 756 210 Z" stroke-miterlimit="10" stroke-dasharray=""/></g><g><g><path fill="none" stroke="none"/><text fill="#000000" stroke="none" font-family="Arial" font-size="13px" font-style="normal" font-weight="bold" text-decoration="undefined" x="974.38720703125" y="317.5" text-anchor="middle" dominant-baseline="central" transform="matrix(1 0 0 1 -86 -94)">comprobar que el producto esta en la tienda</text></g></g><g><path fill="#C0C0C0" stroke="none" paint-order="stroke fill markers" d=" M 428 121 L 654 121 Q 657 121 657 124 L 657 124 Q 657 127 654 127 L 428 127 Q 425 127 425 124 L 425 124 Q 425 121 428 121 Z" fill-opacity="0.2"/></g><g><path fill="#000000" stroke="none" paint-order="stroke fill markers" d=" M 421 114 L 647 114 Q 650 114 650 117 L 650 117 Q 650 120 647 120 L 421 120 Q 418 120 418 117 L 418 117 Q 418 114 421 114 Z"/></g><g><path fill="#C0C0C0" stroke="none" paint-order="stroke fill markers" d=" M 1180 121 L 1382 121 Q 1385 121 1385 124 L 1385 124 Q 1385 127 1382 127 L 1180 127 Q 1177 127 1177 124 L 1177 124 Q 1177 121 1180 121 Z" fill-opacity="0.2"/></g><g><path fill="#000000" stroke="none" paint-order="stroke fill markers" d=" M 1173 114 L 1375 114 Q 1378 114 1378 117 L 1378 117 Q 1378 120 1375 120 L 1173 120 Q 1170 120 1170 117 L 1170 117 Q 1170 114 1173 114 Z"/></g><g><path fill="none" stroke="#000000" paint-order="fill stroke markers" d=" M 315 222 L 386 222 L 386 222 A 8 8 0 0 0 394 214 L 394 98 L 394 98 A 8 8 0 0 1 402 90 L 498 90 L 498 90 A 8 8 0 0 1 506 98 L 506 114" stroke-miterlimit="10" stroke-dasharray=""/></g><g><path fill="none" stroke="#000000" paint-order="fill stroke markers" d=" M 501.790482243984 103.83732514237585 L 506 114 L 510.209517756016 103.83732514237585" stroke-miterlimit="10" stroke-dasharray=""/></g><g><path fill="none" stroke="#000000" paint-order="fill stroke markers" d=" M 314 318 L 338 318 L 338 318 A 8 8 0 0 0 346 310 L 346 74 L 346 74 A 8 8 0 0 1 354 66 L 1250 66 L 1250 66 A 8 8 0 0 1 1258 74 L 1258 114" stroke-miterlimit="10" stroke-dasharray=""/></g><g><path fill="none" stroke="#000000" paint-order="fill stroke markers" d=" M 1253.7904822439841 103.83732514237585 L 1258 114 L 1262.2095177560159 103.83732514237585" stroke-miterlimit="10" stroke-dasharray=""/></g><g><rect fill="#ffffff" stroke="none" x="815" y="312" width="18" height="18" transform="matrix(1 0 0 1 -86 -94)"/></g><g><path fill="none" stroke="#000000" paint-order="fill stroke markers" d=" M 729 218 L 747 218 L 747 236 L 729 236 L 729 218 Z Z" stroke-miterlimit="10" stroke-dasharray=""/></g><g><path fill="none" stroke="#000000" paint-order="fill stroke markers" d=" M 731 227 L 745 227" stroke-miterlimit="10" stroke-dasharray=""/></g><g><path fill="none" stroke="#000000" paint-order="fill stroke markers" d=" M 745 227 L 742 224" stroke-miterlimit="10" stroke-dasharray=""/></g><g><path fill="none" stroke="#000000" paint-order="fill stroke markers" d=" M 745 227 L 742 230" stroke-miterlimit="10" stroke-dasharray=""/></g><g><rect fill="#ffffff" stroke="none" x="807.766845703125" y="293.5" width="24.46630859375" height="13" transform="matrix(1 0 0 1 -86 -94)"/></g><g><g><path fill="none" stroke="none"/><text fill="#000000" stroke="none" font-family="Arial" font-size="13px" font-style="normal" font-weight="normal" text-decoration="undefined" x="820" y="300" text-anchor="middle" dominant-baseline="central" transform="matrix(1 0 0 1 -86 -94)">p</text></g></g><g><rect fill="#ffffff" stroke="none" x="1115.7744140625" y="312" width="18" height="18" transform="matrix(1 0 0 1 -86 -94)"/></g><g><path fill="none" stroke="#000000" paint-order="fill stroke markers" d=" M 1029.7744140625 218 L 1047.7744140625 218 L 1047.7744140625 236 L 1029.7744140625 236 L 1029.7744140625 218 Z Z" stroke-miterlimit="10" stroke-dasharray=""/></g><g><path fill="none" stroke="#000000" paint-order="fill stroke markers" d=" M 1031.7744140625 227 L 1045.7744140625 227" stroke-miterlimit="10" stroke-dasharray=""/></g><g><path fill="none" stroke="#000000" paint-order="fill stroke markers" d=" M 1031.7744140625 227 L 1034.7744140625 224" stroke-miterlimit="10" stroke-dasharray=""/></g><g><path fill="none" stroke="#000000" paint-order="fill stroke markers" d=" M 1031.7744140625 227 L 1034.7744140625 230" stroke-miterlimit="10" stroke-dasharray=""/></g><g><rect fill="#ffffff" stroke="none" x="1120.154052734375" y="298.5" width="17.24072265625" height="13" transform="matrix(1 0 0 1 -86 -94)"/></g><g><g><path fill="none" stroke="none"/><text fill="#000000" stroke="none" font-family="Arial" font-size="13px" font-style="normal" font-weight="normal" text-decoration="undefined" x="1128.7744140625" y="305" text-anchor="middle" dominant-baseline="central" transform="matrix(1 0 0 1 -86 -94)">t</text></g></g><g><path fill="none" stroke="#000000" paint-order="fill stroke markers" d=" M 594 120 L 594 219 L 594 219 A 8 8 0 0 0 602 227 L 729 227" stroke-miterlimit="10" stroke-dasharray=""/></g><g><path fill="none" stroke="#000000" paint-order="fill stroke markers" d=" M 718.8373251423759 231.209517756016 L 729 227 L 718.8373251423758 222.790482243984" stroke-miterlimit="10" stroke-dasharray=""/></g><g><path fill="none" stroke="#000000" paint-order="fill stroke markers" d=" M 1194 120 L 1194 214 L 1194 214 A 8 8 0 0 1 1186 222 L 1048 222" stroke-miterlimit="10" stroke-dasharray=""/></g><g><path fill="none" stroke="#000000" paint-order="fill stroke markers" d=" M 1058.162674857624 217.790482243984 L 1048 222 L 1058.162674857624 226.209517756016" stroke-miterlimit="10" stroke-dasharray=""/></g><g><path fill="#C0C0C0" stroke="none" paint-order="stroke fill markers" d=" M 723 385 L 1068.38623046875 385 Q 1078.38623046875 385 1078.38623046875 395 L 1078.38623046875 416 Q 1078.38623046875 426 1068.38623046875 426 L 723 426 Q 713 426 713 416 L 713 395 Q 713 385 723 385 Z" fill-opacity="0.2"/></g><g><path fill="#ffffff" stroke="none" paint-order="stroke fill markers" d=" M 716 378 L 1061.38623046875 378 Q 1071.38623046875 378 1071.38623046875 388 L 1071.38623046875 409 Q 1071.38623046875 419 1061.38623046875 419 L 716 419 Q 706 419 706 409 L 706 388 Q 706 378 716 378 Z"/></g><g><path fill="none" stroke="#000000" paint-order="fill stroke markers" d=" M 716 378 L 1061.38623046875 378 Q 1071.38623046875 378 1071.38623046875 388 L 1071.38623046875 409 Q 1071.38623046875 419 1061.38623046875 419 L 716 419 Q 706 419 706 409 L 706 388 Q 706 378 716 378 Z" stroke-miterlimit="10" stroke-dasharray=""/></g><g><g><path fill="none" stroke="none"/><text fill="#000000" stroke="none" font-family="Arial" font-size="13px" font-style="normal" font-weight="bold" text-decoration="undefined" x="975.193115234375" y="485.5" text-anchor="middle" dominant-baseline="central" transform="matrix(1 0 0 1 -86 -94)">comprabar q el producto de la tienda tiene udsDiponibles</text></g></g><g><path fill="#C0C0C0" stroke="none" paint-order="stroke fill markers" d=" M 715 545 L 1086.43701171875 545 Q 1096.43701171875 545 1096.43701171875 555 L 1096.43701171875 576 Q 1096.43701171875 586 1086.43701171875 586 L 715 586 Q 705 586 705 576 L 705 555 Q 705 545 715 545 Z" fill-opacity="0.2"/></g><g><path fill="#ffffff" stroke="none" paint-order="stroke fill markers" d=" M 708 538 L 1079.43701171875 538 Q 1089.43701171875 538 1089.43701171875 548 L 1089.43701171875 569 Q 1089.43701171875 579 1079.43701171875 579 L 708 579 Q 698 579 698 569 L 698 548 Q 698 538 708 538 Z"/></g><g><path fill="none" stroke="#000000" paint-order="fill stroke markers" d=" M 708 538 L 1079.43701171875 538 Q 1089.43701171875 538 1089.43701171875 548 L 1089.43701171875 569 Q 1089.43701171875 579 1079.43701171875 579 L 708 579 Q 698 579 698 569 L 698 548 Q 698 538 708 538 Z" stroke-miterlimit="10" stroke-dasharray=""/></g><g><g><path fill="none" stroke="none"/><text fill="#000000" stroke="none" font-family="Arial" font-size="13px" font-style="normal" font-weight="bold" text-decoration="undefined" x="980.218505859375" y="645.5" text-anchor="middle" dominant-baseline="central" transform="matrix(1 0 0 1 -86 -94)">comprobar que el producto de la tienda no esta ya en la cesta</text></g></g><g><rect fill="#ffffff" stroke="none" x="775" y="480" width="18" height="18" transform="matrix(1 0 0 1 -86 -94)"/></g><g><path fill="none" stroke="#000000" paint-order="fill stroke markers" d=" M 689 386 L 707 386 L 707 404 L 689 404 L 689 386 Z Z" stroke-miterlimit="10" stroke-dasharray=""/></g><g><path fill="none" stroke="#000000" paint-order="fill stroke markers" d=" M 691 395 L 705 395" stroke-miterlimit="10" stroke-dasharray=""/></g><g><path fill="none" stroke="#000000" paint-order="fill stroke markers" d=" M 705 395 L 702 392" stroke-miterlimit="10" stroke-dasharray=""/></g><g><path fill="none" stroke="#000000" paint-order="fill stroke markers" d=" M 705 395 L 702 398" stroke-miterlimit="10" stroke-dasharray=""/></g><g><rect fill="#ffffff" stroke="none" x="775.766845703125" y="462.5" width="10.46630859375" height="13" transform="matrix(1 0 0 1 -86 -94)"/></g><g><g><path fill="none" stroke="none"/><text fill="#000000" stroke="none" font-family="Arial" font-size="13px" font-style="normal" font-weight="normal" text-decoration="undefined" x="781" y="469" text-anchor="middle" dominant-baseline="central" transform="matrix(1 0 0 1 -86 -94)">p</text></g></g><g><rect fill="#ffffff" stroke="none" x="1157.38623046875" y="480" width="18" height="18" transform="matrix(1 0 0 1 -86 -94)"/></g><g><path fill="none" stroke="#000000" paint-order="fill stroke markers" d=" M 1071.38623046875 386 L 1089.38623046875 386 L 1089.38623046875 404 L 1071.38623046875 404 L 1071.38623046875 386 Z Z" stroke-miterlimit="10" stroke-dasharray=""/></g><g><path fill="none" stroke="#000000" paint-order="fill stroke markers" d=" M 1073.38623046875 395 L 1087.38623046875 395" stroke-miterlimit="10" stroke-dasharray=""/></g><g><path fill="none" stroke="#000000" paint-order="fill stroke markers" d=" M 1073.38623046875 395 L 1076.38623046875 392" stroke-miterlimit="10" stroke-dasharray=""/></g><g><path fill="none" stroke="#000000" paint-order="fill stroke markers" d=" M 1073.38623046875 395 L 1076.38623046875 398" stroke-miterlimit="10" stroke-dasharray=""/></g><g><rect fill="#ffffff" stroke="none" x="1159.9599609375" y="464.5" width="10.8525390625" height="13" transform="matrix(1 0 0 1 -86 -94)"/></g><g><g><path fill="none" stroke="none"/><text fill="#000000" stroke="none" font-family="Arial" font-size="13px" font-style="normal" font-weight="normal" text-decoration="undefined" x="1165.38623046875" y="471" text-anchor="middle" dominant-baseline="central" transform="matrix(1 0 0 1 -86 -94)">t</text></g></g><g><rect fill="#ffffff" stroke="none" x="768" y="640" width="18" height="18" transform="matrix(1 0 0 1 -86 -94)"/></g><g><path fill="none" stroke="#000000" paint-order="fill stroke markers" d=" M 682 546 L 700 546 L 700 564 L 682 564 L 682 546 Z Z" stroke-miterlimit="10" stroke-dasharray=""/></g><g><path fill="none" stroke="#000000" paint-order="fill stroke markers" d=" M 684 555 L 698 555" stroke-miterlimit="10" stroke-dasharray=""/></g><g><path fill="none" stroke="#000000" paint-order="fill stroke markers" d=" M 698 555 L 695 552" stroke-miterlimit="10" stroke-dasharray=""/></g><g><path fill="none" stroke="#000000" paint-order="fill stroke markers" d=" M 698 555 L 695 558" stroke-miterlimit="10" stroke-dasharray=""/></g><g><rect fill="#ffffff" stroke="none" x="767.266845703125" y="626.5" width="9.46630859375" height="13" transform="matrix(1 0 0 1 -86 -94)"/></g><g><g><path fill="none" stroke="none"/><text fill="#000000" stroke="none" font-family="Arial" font-size="13px" font-style="normal" font-weight="normal" text-decoration="undefined" x="772" y="633" text-anchor="middle" dominant-baseline="central" transform="matrix(1 0 0 1 -86 -94)">p</text></g></g><g><rect fill="#ffffff" stroke="none" x="1175.43701171875" y="640" width="18" height="18" transform="matrix(1 0 0 1 -86 -94)"/></g><g><path fill="none" stroke="#000000" paint-order="fill stroke markers" d=" M 1089.43701171875 546 L 1107.43701171875 546 L 1107.43701171875 564 L 1089.43701171875 564 L 1089.43701171875 546 Z Z" stroke-miterlimit="10" stroke-dasharray=""/></g><g><path fill="none" stroke="#000000" paint-order="fill stroke markers" d=" M 1091.43701171875 555 L 1105.43701171875 555" stroke-miterlimit="10" stroke-dasharray=""/></g><g><path fill="none" stroke="#000000" paint-order="fill stroke markers" d=" M 1091.43701171875 555 L 1094.43701171875 552" stroke-miterlimit="10" stroke-dasharray=""/></g><g><path fill="none" stroke="#000000" paint-order="fill stroke markers" d=" M 1091.43701171875 555 L 1094.43701171875 558" stroke-miterlimit="10" stroke-dasharray=""/></g><g><rect fill="#ffffff" stroke="none" x="1176.2525634765625" y="622.5" width="8.368896484375" height="13" transform="matrix(1 0 0 1 -86 -94)"/></g><g><g><path fill="none" stroke="none"/><text fill="#000000" stroke="none" font-family="Arial" font-size="13px" font-style="normal" font-weight="normal" text-decoration="undefined" x="1180.43701171875" y="629" text-anchor="middle" dominant-baseline="central" transform="matrix(1 0 0 1 -86 -94)">t</text></g></g><g><path fill="#C0C0C0" stroke="none" paint-order="stroke fill markers" d=" M 635 913 L 744.9453125 913 Q 754.9453125 913 754.9453125 923 L 754.9453125 944 Q 754.9453125 954 744.9453125 954 L 635 954 Q 625 954 625 944 L 625 923 Q 625 913 635 913 Z" fill-opacity="0.2"/></g><g><path fill="#ffffff" stroke="none" paint-order="stroke fill markers" d=" M 628 906 L 737.9453125 906 Q 747.9453125 906 747.9453125 916 L 747.9453125 937 Q 747.9453125 947 737.9453125 947 L 628 947 Q 618 947 618 937 L 618 916 Q 618 906 628 906 Z"/></g><g><path fill="none" stroke="#000000" paint-order="fill stroke markers" d=" M 628 906 L 737.9453125 906 Q 747.9453125 906 747.9453125 916 L 747.9453125 937 Q 747.9453125 947 737.9453125 947 L 628 947 Q 618 947 618 937 L 618 916 Q 618 906 628 906 Z" stroke-miterlimit="10" stroke-dasharray=""/></g><g><g><path fill="none" stroke="none"/><text fill="#000000" stroke="none" font-family="Arial" font-size="13px" font-style="normal" font-weight="bold" text-decoration="undefined" x="769.47265625" y="1013.5" text-anchor="middle" dominant-baseline="central" transform="matrix(1 0 0 1 -86 -94)">devolver true</text></g></g><g><path fill="#C0C0C0" stroke="none" paint-order="stroke fill markers" d=" M 1107 913 L 1207 913 Q 1217 913 1217 923 L 1217 944 Q 1217 954 1207 954 L 1107 954 Q 1097 954 1097 944 L 1097 923 Q 1097 913 1107 913 Z" fill-opacity="0.2"/></g><g><path fill="#ffffff" stroke="none" paint-order="stroke fill markers" d=" M 1100 906 L 1200 906 Q 1210 906 1210 916 L 1210 937 Q 1210 947 1200 947 L 1100 947 Q 1090 947 1090 937 L 1090 916 Q 1090 906 1100 906 Z"/></g><g><path fill="none" stroke="#000000" paint-order="fill stroke markers" d=" M 1100 906 L 1200 906 Q 1210 906 1210 916 L 1210 937 Q 1210 947 1200 947 L 1100 947 Q 1090 947 1090 937 L 1090 916 Q 1090 906 1100 906 Z" stroke-miterlimit="10" stroke-dasharray=""/></g><g><g><path fill="none" stroke="none"/><text fill="#000000" stroke="none" font-family="Arial" font-size="13px" font-style="normal" font-weight="bold" text-decoration="undefined" x="1236.5" y="1013.5" text-anchor="middle" dominant-baseline="central" transform="matrix(1 0 0 1 -86 -94)">devolver false</text></g></g><g><path fill="none" stroke="#000000" paint-order="fill stroke markers" d=" M 749 926 L 897 927" stroke-miterlimit="10" stroke-dasharray=""/></g><g><path fill="none" stroke="#000000" paint-order="fill stroke markers" d=" M 886.8091150782969 931.1407565145278 L 897 927 L 886.865999154907 922.7219131762371" stroke-miterlimit="10" stroke-dasharray=""/></g><g><path fill="none" stroke="#000000" paint-order="fill stroke markers" d=" M 1089 926 L 925 927" stroke-miterlimit="10" stroke-dasharray=""/></g><g><path fill="none" stroke="#000000" paint-order="fill stroke markers" d=" M 935.136818623456 922.7285941195952 L 925 927 L 935.1881532515381 931.1474731250694" stroke-miterlimit="10" stroke-dasharray=""/></g><g><rect fill="#C0C0C0" stroke="none" x="199" y="1071" width="200" height="32" transform="matrix(1 0 0 1 -86 -94)" fill-opacity="0.2"/></g><g><rect fill="#ffffff" stroke="none" x="192" y="1064" width="200" height="32" transform="matrix(1 0 0 1 -86 -94)"/></g><g><path fill="none" stroke="#000000" paint-order="fill stroke markers" d=" M 106 970 L 306 970 L 306 1002 L 106 1002 L 106 970 Z Z" stroke-miterlimit="10" stroke-dasharray=""/></g><g><rect fill="#ffffff" stroke="none" x="192" y="1064" width="200" height="32" transform="matrix(1 0 0 1 -86 -94)"/></g><g><path fill="none" stroke="#000000" paint-order="fill stroke markers" d=" M 106 970 L 306 970 L 306 1002 L 106 1002 L 106 970 Z Z" stroke-miterlimit="10" stroke-dasharray=""/></g><g><g><path fill="none" stroke="none"/><text fill="#000000" stroke="none" font-family="Arial" font-size="13px" font-style="normal" font-weight="bold" text-decoration="undefined" x="292.5" y="1077.5" text-anchor="middle" dominant-baseline="central" transform="matrix(1 0 0 1 -86 -94)">return resultado : boolean</text></g></g><g><path fill="none" stroke="#000000" paint-order="fill stroke markers" d=" M 530 120 L 530 387 L 530 387 A 8 8 0 0 0 538 395 L 689 395" stroke-miterlimit="10" stroke-dasharray=""/></g><g><path fill="none" stroke="#000000" paint-order="fill stroke markers" d=" M 678.8373251423759 399.209517756016 L 689 395 L 678.8373251423758 390.790482243984" stroke-miterlimit="10" stroke-dasharray=""/></g><g><path fill="none" stroke="#000000" paint-order="fill stroke markers" d=" M 466 120 L 466 547 L 466 547 A 8 8 0 0 0 474 555 L 682 555" stroke-miterlimit="10" stroke-dasharray=""/></g><g><path fill="none" stroke="#000000" paint-order="fill stroke markers" d=" M 671.8373251423759 559.209517756016 L 682 555 L 671.8373251423758 550.790482243984" stroke-miterlimit="10" stroke-dasharray=""/></g><g><path fill="none" stroke="#000000" paint-order="fill stroke markers" d=" M 1226 120 L 1226 387 L 1226 387 A 8 8 0 0 1 1218 395 L 1089 395" stroke-miterlimit="10" stroke-dasharray=""/></g><g><path fill="none" stroke="#000000" paint-order="fill stroke markers" d=" M 1099.162674857624 390.790482243984 L 1089 395 L 1099.162674857624 399.209517756016" stroke-miterlimit="10" stroke-dasharray=""/></g><g><path fill="none" stroke="#000000" paint-order="fill stroke markers" d=" M 1258 120 L 1258 547 L 1258 547 A 8 8 0 0 1 1250 555 L 1107 555" stroke-miterlimit="10" stroke-dasharray=""/></g><g><path fill="none" stroke="#000000" paint-order="fill stroke markers" d=" M 1117.162674857624 550.790482243984 L 1107 555 L 1117.162674857624 559.209517756016" stroke-miterlimit="10" stroke-dasharray=""/></g><g><rect fill="#ffffff" stroke="none" x="960" y="345" width="18" height="18" transform="matrix(1 0 0 1 -86 -94)"/></g><g><path fill="none" stroke="#000000" paint-order="fill stroke markers" d=" M 874 251 L 892 251 L 892 269 L 874 269 L 874 251 Z Z" stroke-miterlimit="10" stroke-dasharray=""/></g><g><path fill="none" stroke="#000000" paint-order="fill stroke markers" d=" M 883 267 L 883 253" stroke-miterlimit="10" stroke-dasharray=""/></g><g><path fill="none" stroke="#000000" paint-order="fill stroke markers" d=" M 883 267 L 880 264" stroke-miterlimit="10" stroke-dasharray=""/></g><g><path fill="none" stroke="#000000" paint-order="fill stroke markers" d=" M 883 267 L 886 264" stroke-miterlimit="10" stroke-dasharray=""/></g><g><rect fill="#ffffff" stroke="none" x="986.477783203125" y="350.5" width="65.04443359375" height="13" transform="matrix(1 0 0 1 -86 -94)"/></g><g><g><path fill="none" stroke="none"/><text fill="#000000" stroke="none" font-family="Arial" font-size="13px" font-style="normal" font-weight="normal" text-decoration="undefined" x="1019" y="357" text-anchor="middle" dominant-baseline="central" transform="matrix(1 0 0 1 -86 -94)">resultado</text></g></g><g><path fill="#C0C0C0" stroke="none" paint-order="stroke fill markers" d=" M 881 322.5 L 892.5 313 L 904 322.5 L 892.5 332 L 881 322.5" fill-opacity="0.2"/></g><g><path fill="#ffffff" stroke="none" paint-order="stroke fill markers" d=" M 874 315.5 L 885.5 306 L 897 315.5 L 885.5 325 L 874 315.5"/></g><g><path fill="none" stroke="#000000" paint-order="fill stroke markers" d=" M 874 315.5 L 885.5 306 L 897 315.5 L 885.5 325 L 874 315.5 L 874 315.5" stroke-miterlimit="10" stroke-dasharray=""/></g><g><path fill="none" stroke="#000000" paint-order="fill stroke markers" d=" M 884 134 L 884 210" stroke-miterlimit="10" stroke-dasharray=""/></g><g><path fill="none" stroke="#000000" paint-order="fill stroke markers" d=" M 879.790482243984 199.83732514237585 L 884 210 L 888.209517756016 199.83732514237585" stroke-miterlimit="10" stroke-dasharray=""/></g><g><rect fill="#ffffff" stroke="none" x="968" y="513" width="18" height="18" transform="matrix(1 0 0 1 -86 -94)"/></g><g><path fill="none" stroke="#000000" paint-order="fill stroke markers" d=" M 882 419 L 900 419 L 900 437 L 882 437 L 882 419 Z Z" stroke-miterlimit="10" stroke-dasharray=""/></g><g><path fill="none" stroke="#000000" paint-order="fill stroke markers" d=" M 891 435 L 891 421" stroke-miterlimit="10" stroke-dasharray=""/></g><g><path fill="none" stroke="#000000" paint-order="fill stroke markers" d=" M 891 435 L 888 432" stroke-miterlimit="10" stroke-dasharray=""/></g><g><path fill="none" stroke="#000000" paint-order="fill stroke markers" d=" M 891 435 L 894 432" stroke-miterlimit="10" stroke-dasharray=""/></g><g><rect fill="#ffffff" stroke="none" x="991.477783203125" y="518.5" width="65.04443359375" height="13" transform="matrix(1 0 0 1 -86 -94)"/></g><g><g><path fill="none" stroke="none"/><text fill="#000000" stroke="none" font-family="Arial" font-size="13px" font-style="normal" font-weight="normal" text-decoration="undefined" x="1024" y="525" text-anchor="middle" dominant-baseline="central" transform="matrix(1 0 0 1 -86 -94)">resultado</text></g></g><g><rect fill="#ffffff" stroke="none" x="968" y="673" width="18" height="18" transform="matrix(1 0 0 1 -86 -94)"/></g><g><path fill="none" stroke="#000000" paint-order="fill stroke markers" d=" M 882 579 L 900 579 L 900 597 L 882 597 L 882 579 Z Z" stroke-miterlimit="10" stroke-dasharray=""/></g><g><path fill="none" stroke="#000000" paint-order="fill stroke markers" d=" M 891 595 L 891 581" stroke-miterlimit="10" stroke-dasharray=""/></g><g><path fill="none" stroke="#000000" paint-order="fill stroke markers" d=" M 891 595 L 888 592" stroke-miterlimit="10" stroke-dasharray=""/></g><g><path fill="none" stroke="#000000" paint-order="fill stroke markers" d=" M 891 595 L 894 592" stroke-miterlimit="10" stroke-dasharray=""/></g><g><rect fill="#ffffff" stroke="none" x="992.477783203125" y="678.5" width="65.04443359375" height="13" transform="matrix(1 0 0 1 -86 -94)"/></g><g><g><path fill="none" stroke="none"/><text fill="#000000" stroke="none" font-family="Arial" font-size="13px" font-style="normal" font-weight="normal" text-decoration="undefined" x="1025" y="685" text-anchor="middle" dominant-baseline="central" transform="matrix(1 0 0 1 -86 -94)">resultado</text></g></g><g><path fill="#C0C0C0" stroke="none" paint-order="stroke fill markers" d=" M 889 490.5 L 900.5 481 L 912 490.5 L 900.5 500 L 889 490.5" fill-opacity="0.2"/></g><g><path fill="#ffffff" stroke="none" paint-order="stroke fill markers" d=" M 882 483.5 L 893.5 474 L 905 483.5 L 893.5 493 L 882 483.5"/></g><g><path fill="none" stroke="#000000" paint-order="fill stroke markers" d=" M 882 483.5 L 893.5 474 L 905 483.5 L 893.5 493 L 882 483.5 L 882 483.5" stroke-miterlimit="10" stroke-dasharray=""/></g><g><path fill="#C0C0C0" stroke="none" paint-order="stroke fill markers" d=" M 889 714.5 L 900.5 705 L 912 714.5 L 900.5 724 L 889 714.5" fill-opacity="0.2"/></g><g><path fill="#ffffff" stroke="none" paint-order="stroke fill markers" d=" M 882 707.5 L 893.5 698 L 905 707.5 L 893.5 717 L 882 707.5"/></g><g><path fill="none" stroke="#000000" paint-order="fill stroke markers" d=" M 882 707.5 L 893.5 698 L 905 707.5 L 893.5 717 L 882 707.5 L 882 707.5" stroke-miterlimit="10" stroke-dasharray=""/></g><g><path fill="#C0C0C0" stroke="none" paint-order="stroke fill markers" d=" M 1289 802.5 L 1300.5 793 L 1312 802.5 L 1300.5 812 L 1289 802.5" fill-opacity="0.2"/></g><g><path fill="#ffffff" stroke="none" paint-order="stroke fill markers" d=" M 1282 795.5 L 1293.5 786 L 1305 795.5 L 1293.5 805 L 1282 795.5"/></g><g><path fill="none" stroke="#000000" paint-order="fill stroke markers" d=" M 1282 795.5 L 1293.5 786 L 1305 795.5 L 1293.5 805 L 1282 795.5 L 1282 795.5" stroke-miterlimit="10" stroke-dasharray=""/></g><g><path fill="none" stroke="#000000" paint-order="fill stroke markers" d=" M 1298 805 L 1298 914 L 1298 914 A 8 8 0 0 1 1290 922 L 1210 922" stroke-miterlimit="10" stroke-dasharray=""/></g><g><path fill="none" stroke="#000000" paint-order="fill stroke markers" d=" M 1220.162674857624 917.790482243984 L 1210 922 L 1220.162674857624 926.209517756016" stroke-miterlimit="10" stroke-dasharray=""/></g><g><path fill="none" stroke="#000000" paint-order="fill stroke markers" d=" M 897 315 L 1282 315 L 1282 315 A 8 8 0 0 1 1290 323 L 1290 786" stroke-miterlimit="10" stroke-dasharray=""/></g><g><path fill="none" stroke="#000000" paint-order="fill stroke markers" d=" M 1285.7904822439841 775.8373251423759 L 1290 786 L 1294.2095177560159 775.8373251423759" stroke-miterlimit="10" stroke-dasharray=""/></g><g><rect fill="#ffffff" stroke="none" x="1104" y="391" width="38.29541015625" height="13" transform="matrix(1 0 0 1 -86 -94)"/></g><g><g><path fill="none" stroke="none"/><text fill="#000000" stroke="none" font-family="Arial" font-size="13px" font-style="normal" font-weight="normal" text-decoration="undefined" x="1123.147705078125" y="397.5" text-anchor="middle" dominant-baseline="central" transform="matrix(1 0 0 1 -86 -94)"> [false]</text></g></g><g><path fill="none" stroke="#000000" paint-order="fill stroke markers" d=" M 905 483 L 1314 483 L 1314 483 A 8 8 0 0 1 1322 491 L 1322 787 L 1322 787 A 8 8 0 0 1 1314 795 L 1305 795" stroke-miterlimit="10" stroke-dasharray=""/></g><g><path fill="none" stroke="#000000" paint-order="fill stroke markers" d=" M 1315.162674857624 790.790482243984 L 1305 795 L 1315.162674857624 799.209517756016" stroke-miterlimit="10" stroke-dasharray=""/></g><g><rect fill="#ffffff" stroke="none" x="1096" y="560" width="38.29541015625" height="13" transform="matrix(1 0 0 1 -86 -94)"/></g><g><g><path fill="none" stroke="none"/><text fill="#000000" stroke="none" font-family="Arial" font-size="13px" font-style="normal" font-weight="normal" text-decoration="undefined" x="1115.147705078125" y="566.5" text-anchor="middle" dominant-baseline="central" transform="matrix(1 0 0 1 -86 -94)"> [false]</text></g></g><g><path fill="none" stroke="#000000" paint-order="fill stroke markers" d=" M 893 717 L 893 786 L 893 786 A 8 8 0 0 0 901 794 L 1282 794" stroke-miterlimit="10" stroke-dasharray=""/></g><g><path fill="none" stroke="#000000" paint-order="fill stroke markers" d=" M 1271.837325142376 798.209517756016 L 1282 794 L 1271.837325142376 789.790482243984" stroke-miterlimit="10" stroke-dasharray=""/></g><g><rect fill="#ffffff" stroke="none" x="1104" y="866" width="38.29541015625" height="13" transform="matrix(1 0 0 1 -86 -94)"/></g><g><g><path fill="none" stroke="none"/><text fill="#000000" stroke="none" font-family="Arial" font-size="13px" font-style="normal" font-weight="normal" text-decoration="undefined" x="1123.147705078125" y="872.5" text-anchor="middle" dominant-baseline="central" transform="matrix(1 0 0 1 -86 -94)"> [false]</text></g></g><g><path fill="none" stroke="#000000" paint-order="fill stroke markers" d=" M 883 269 L 883 306" stroke-miterlimit="10" stroke-dasharray=""/></g><g><path fill="none" stroke="#000000" paint-order="fill stroke markers" d=" M 878.790482243984 295.83732514237585 L 883 306 L 887.209517756016 295.83732514237585" stroke-miterlimit="10" stroke-dasharray=""/></g><g><path fill="none" stroke="#000000" paint-order="fill stroke markers" d=" M 885 325 L 885 378" stroke-miterlimit="10" stroke-dasharray=""/></g><g><path fill="none" stroke="#000000" paint-order="fill stroke markers" d=" M 880.790482243984 367.83732514237585 L 885 378 L 889.209517756016 367.83732514237585" stroke-miterlimit="10" stroke-dasharray=""/></g><g><rect fill="#ffffff" stroke="none" x="983" y="439" width="33.236328125" height="13" transform="matrix(1 0 0 1 -86 -94)"/></g><g><g><path fill="none" stroke="none"/><text fill="#000000" stroke="none" font-family="Arial" font-size="13px" font-style="normal" font-weight="normal" text-decoration="undefined" x="999.6181640625" y="445.5" text-anchor="middle" dominant-baseline="central" transform="matrix(1 0 0 1 -86 -94)"> [true]</text></g></g><g><path fill="none" stroke="#000000" paint-order="fill stroke markers" d=" M 891 437 L 891 474" stroke-miterlimit="10" stroke-dasharray=""/></g><g><path fill="none" stroke="#000000" paint-order="fill stroke markers" d=" M 886.790482243984 463.8373251423759 L 891 474 L 895.209517756016 463.8373251423759" stroke-miterlimit="10" stroke-dasharray=""/></g><g><path fill="none" stroke="#000000" paint-order="fill stroke markers" d=" M 893 493 L 893 538" stroke-miterlimit="10" stroke-dasharray=""/></g><g><path fill="none" stroke="#000000" paint-order="fill stroke markers" d=" M 888.790482243984 527.8373251423759 L 893 538 L 897.209517756016 527.8373251423759" stroke-miterlimit="10" stroke-dasharray=""/></g><g><rect fill="#ffffff" stroke="none" x="992" y="602" width="33.236328125" height="13" transform="matrix(1 0 0 1 -86 -94)"/></g><g><g><path fill="none" stroke="none"/><text fill="#000000" stroke="none" font-family="Arial" font-size="13px" font-style="normal" font-weight="normal" text-decoration="undefined" x="1008.6181640625" y="608.5" text-anchor="middle" dominant-baseline="central" transform="matrix(1 0 0 1 -86 -94)"> [true]</text></g></g><g><path fill="none" stroke="#000000" paint-order="fill stroke markers" d=" M 891 597 L 891 698" stroke-miterlimit="10" stroke-dasharray=""/></g><g><path fill="none" stroke="#000000" paint-order="fill stroke markers" d=" M 886.790482243984 687.8373251423759 L 891 698 L 895.209517756016 687.8373251423759" stroke-miterlimit="10" stroke-dasharray=""/></g><g><rect fill="#ffffff" stroke="none" x="752" y="1041" width="18" height="18" transform="matrix(1 0 0 1 -86 -94)"/></g><g><path fill="none" stroke="#000000" paint-order="fill stroke markers" d=" M 666 947 L 684 947 L 684 965 L 666 965 L 666 947 Z Z" stroke-miterlimit="10" stroke-dasharray=""/></g><g><path fill="none" stroke="#000000" paint-order="fill stroke markers" d=" M 675 963 L 675 949" stroke-miterlimit="10" stroke-dasharray=""/></g><g><path fill="none" stroke="#000000" paint-order="fill stroke markers" d=" M 675 963 L 672 960" stroke-miterlimit="10" stroke-dasharray=""/></g><g><path fill="none" stroke="#000000" paint-order="fill stroke markers" d=" M 675 963 L 678 960" stroke-miterlimit="10" stroke-dasharray=""/></g><g><rect fill="#ffffff" stroke="none" x="783.8694458007812" y="1044.5" width="32.2611083984375" height="13" transform="matrix(1 0 0 1 -86 -94)"/></g><g><g><path fill="none" stroke="none"/><text fill="#000000" stroke="none" font-family="Arial" font-size="13px" font-style="normal" font-weight="normal" text-decoration="undefined" x="800" y="1051" text-anchor="middle" dominant-baseline="central" transform="matrix(1 0 0 1 -86 -94)">true</text></g></g><g><rect fill="#ffffff" stroke="none" x="1229" y="1041" width="18" height="18" transform="matrix(1 0 0 1 -86 -94)"/></g><g><path fill="none" stroke="#000000" paint-order="fill stroke markers" d=" M 1143 947 L 1161 947 L 1161 965 L 1143 965 L 1143 947 Z Z" stroke-miterlimit="10" stroke-dasharray=""/></g><g><path fill="none" stroke="#000000" paint-order="fill stroke markers" d=" M 1152 963 L 1152 949" stroke-miterlimit="10" stroke-dasharray=""/></g><g><path fill="none" stroke="#000000" paint-order="fill stroke markers" d=" M 1152 963 L 1149 960" stroke-miterlimit="10" stroke-dasharray=""/></g><g><path fill="none" stroke="#000000" paint-order="fill stroke markers" d=" M 1152 963 L 1155 960" stroke-miterlimit="10" stroke-dasharray=""/></g><g><rect fill="#ffffff" stroke="none" x="1263.7388916015625" y="1045.5" width="32.522216796875" height="13" transform="matrix(1 0 0 1 -86 -94)"/></g><g><g><path fill="none" stroke="none"/><text fill="#000000" stroke="none" font-family="Arial" font-size="13px" font-style="normal" font-weight="normal" text-decoration="undefined" x="1280" y="1052" text-anchor="middle" dominant-baseline="central" transform="matrix(1 0 0 1 -86 -94)">false</text></g></g><g><path fill="none" stroke="#000000" paint-order="fill stroke markers" d=" M 675 965 L 675 978 L 675 978 A 8 8 0 0 1 667 986 L 306 986" stroke-miterlimit="10" stroke-dasharray=""/></g><g><path fill="none" stroke="#000000" paint-order="fill stroke markers" d=" M 316.16267485762415 981.7904822439841 L 306 986 L 316.16267485762415 990.2095177560159" stroke-miterlimit="10" stroke-dasharray=""/></g><g><path fill="none" stroke="#000000" paint-order="fill stroke markers" d=" M 1152 965 L 1152 1018 L 1152 1018 A 8 8 0 0 1 1144 1026 L 298 1026 L 298 1026 A 8 8 0 0 1 290 1018 L 290 1002" stroke-miterlimit="10" stroke-dasharray=""/></g><g><path fill="none" stroke="#000000" paint-order="fill stroke markers" d=" M 294.209517756016 1012.1626748576241 L 290 1002 L 285.790482243984 1012.1626748576241" stroke-miterlimit="10" stroke-dasharray=""/></g><g><path fill="#C0C0C0" stroke="none" paint-order="stroke fill markers" d=" M 315 745 L 568.67529296875 745 Q 578.67529296875 745 578.67529296875 755 L 578.67529296875 776 Q 578.67529296875 786 568.67529296875 786 L 315 786 Q 305 786 305 776 L 305 755 Q 305 745 315 745 Z" fill-opacity="0.2"/></g><g><path fill="#ffffff" stroke="none" paint-order="stroke fill markers" d=" M 308 738 L 561.67529296875 738 Q 571.67529296875 738 571.67529296875 748 L 571.67529296875 769 Q 571.67529296875 779 561.67529296875 779 L 308 779 Q 298 779 298 769 L 298 748 Q 298 738 308 738 Z"/></g><g><path fill="none" stroke="#000000" paint-order="fill stroke markers" d=" M 308 738 L 561.67529296875 738 Q 571.67529296875 738 571.67529296875 748 L 571.67529296875 769 Q 571.67529296875 779 561.67529296875 779 L 308 779 Q 298 779 298 769 L 298 748 Q 298 738 308 738 Z" stroke-miterlimit="10" stroke-dasharray=""/></g><g><g><path fill="none" stroke="none"/><text fill="#000000" stroke="none" font-family="Arial" font-size="13px" font-style="normal" font-weight="bold" text-decoration="undefined" x="521.337646484375" y="845.5" text-anchor="middle" dominant-baseline="central" transform="matrix(1 0 0 1 -86 -94)">depositar producto de la tienda en la cesta</text></g></g><g><path fill="#C0C0C0" stroke="none" paint-order="stroke fill markers" d=" M 331 849 L 551 849 Q 561 849 561 859 L 561 880 Q 561 890 551 890 L 331 890 Q 321 890 321 880 L 321 859 Q 321 849 331 849 Z" fill-opacity="0.2"/></g><g><path fill="#ffffff" stroke="none" paint-order="stroke fill markers" d=" M 324 842 L 544 842 Q 554 842 554 852 L 554 873 Q 554 883 544 883 L 324 883 Q 314 883 314 873 L 314 852 Q 314 842 324 842 Z"/></g><g><path fill="none" stroke="#000000" paint-order="fill stroke markers" d=" M 324 842 L 544 842 Q 554 842 554 852 L 554 873 Q 554 883 544 883 L 324 883 Q 314 883 314 873 L 314 852 Q 314 842 324 842 Z" stroke-miterlimit="10" stroke-dasharray=""/></g><g><g><path fill="none" stroke="none"/><text fill="#000000" stroke="none" font-family="Arial" font-size="13px" font-style="normal" font-weight="bold" text-decoration="undefined" x="520.5" y="949.5" text-anchor="middle" dominant-baseline="central" transform="matrix(1 0 0 1 -86 -94)">recalcular precio de la cesta</text></g></g><g><path fill="none" stroke="#000000" paint-order="fill stroke markers" d=" M 434 780 L 434 841" stroke-miterlimit="10" stroke-dasharray=""/></g><g><path fill="none" stroke="#000000" paint-order="fill stroke markers" d=" M 429.790482243984 830.8373251423759 L 434 841 L 438.209517756016 830.8373251423759" stroke-miterlimit="10" stroke-dasharray=""/></g><g><path fill="none" stroke="#000000" paint-order="fill stroke markers" d=" M 434 883 L 434 922 L 434 922 A 8 8 0 0 0 442 930 L 618 930" stroke-miterlimit="10" stroke-dasharray=""/></g><g><path fill="none" stroke="#000000" paint-order="fill stroke markers" d=" M 607.8373251423759 934.2095177560159 L 618 930 L 607.8373251423758 925.790482243984" stroke-miterlimit="10" stroke-dasharray=""/></g><g><path fill="none" stroke="#000000" paint-order="fill stroke markers" d=" M 882 707 L 442 707 L 442 707 A 8 8 0 0 0 434 715 L 434 738" stroke-miterlimit="10" stroke-dasharray=""/></g><g><path fill="none" stroke="#000000" paint-order="fill stroke markers" d=" M 429.790482243984 727.8373251423759 L 434 738 L 438.209517756016 727.8373251423759" stroke-miterlimit="10" stroke-dasharray=""/></g><g><rect fill="#ffffff" stroke="none" x="824" y="784" width="33.236328125" height="13" transform="matrix(1 0 0 1 -86 -94)"/></g><g><g><path fill="none" stroke="none"/><text fill="#000000" stroke="none" font-family="Arial" font-size="13px" font-style="normal" font-weight="normal" text-decoration="undefined" x="840.6181640625" y="790.5" text-anchor="middle" dominant-baseline="central" transform="matrix(1 0 0 1 -86 -94)"> [true]</text></g></g><g><g><path fill="none" stroke="none"/><text fill="#000000" stroke="none" font-family="Arial" font-size="24px" font-style="normal" font-weight="normal" text-decoration="undefined" x="101" y="147" text-anchor="start" dominant-baseline="text-before-edge" transform="matrix(1 0 0 1 -86 -94)">ADRIAN</text><text fill="#000000" stroke="none" font-family="Arial" font-size="24px" font-style="normal" font-weight="normal" text-decoration="undefined" x="101" y="171" text-anchor="start" dominant-baseline="text-before-edge" transform="matrix(1 0 0 1 -86 -94)">GONZALEZ</text><text fill="#000000" stroke="none" font-family="Arial" font-size="24px" font-style="normal" font-weight="normal" text-decoration="undefined" x="101" y="195" text-anchor="start" dominant-baseline="text-before-edge" transform="matrix(1 0 0 1 -86 -94)">CARRANCEDO</text></g></g><g><rect fill="#ffffff" stroke="none" x="367" y="840" width="18" height="18" transform="matrix(1 0 0 1 -86 -94)"/></g><g><path fill="none" stroke="#000000" paint-order="fill stroke markers" d=" M 281 746 L 299 746 L 299 764 L 281 764 L 281 746 Z Z" stroke-miterlimit="10" stroke-dasharray=""/></g><g><path fill="none" stroke="#000000" paint-order="fill stroke markers" d=" M 283 755 L 297 755" stroke-miterlimit="10" stroke-dasharray=""/></g><g><path fill="none" stroke="#000000" paint-order="fill stroke markers" d=" M 297 755 L 294 752" stroke-miterlimit="10" stroke-dasharray=""/></g><g><path fill="none" stroke="#000000" paint-order="fill stroke markers" d=" M 297 755 L 294 758" stroke-miterlimit="10" stroke-dasharray=""/></g><g><rect fill="#ffffff" stroke="none" x="367.766845703125" y="823.5" width="18.46630859375" height="13" transform="matrix(1 0 0 1 -86 -94)"/></g><g><g><path fill="none" stroke="none"/><text fill="#000000" stroke="none" font-family="Arial" font-size="13px" font-style="normal" font-weight="normal" text-decoration="undefined" x="377" y="830" text-anchor="middle" dominant-baseline="central" transform="matrix(1 0 0 1 -86 -94)">p</text></g></g><g><rect fill="#ffffff" stroke="none" x="657.67529296875" y="840" width="18" height="18" transform="matrix(1 0 0 1 -86 -94)"/></g><g><path fill="none" stroke="#000000" paint-order="fill stroke markers" d=" M 571.67529296875 746 L 589.67529296875 746 L 589.67529296875 764 L 571.67529296875 764 L 571.67529296875 746 Z Z" stroke-miterlimit="10" stroke-dasharray=""/></g><g><path fill="none" stroke="#000000" paint-order="fill stroke markers" d=" M 573.67529296875 755 L 587.67529296875 755" stroke-miterlimit="10" stroke-dasharray=""/></g><g><path fill="none" stroke="#000000" paint-order="fill stroke markers" d=" M 573.67529296875 755 L 576.67529296875 752" stroke-miterlimit="10" stroke-dasharray=""/></g><g><path fill="none" stroke="#000000" paint-order="fill stroke markers" d=" M 573.67529296875 755 L 576.67529296875 758" stroke-miterlimit="10" stroke-dasharray=""/></g><g><rect fill="#ffffff" stroke="none" x="655.77978515625" y="826.5" width="15.791015625" height="13" transform="matrix(1 0 0 1 -86 -94)"/></g><g><g><path fill="none" stroke="none"/><text fill="#000000" stroke="none" font-family="Arial" font-size="13px" font-style="normal" font-weight="normal" text-decoration="undefined" x="663.67529296875" y="833" text-anchor="middle" dominant-baseline="central" transform="matrix(1 0 0 1 -86 -94)">t</text></g></g><g><path fill="none" stroke="#000000" paint-order="fill stroke markers" d=" M 442 120 L 442 458 L 442 458 A 8 8 0 0 1 434 466 L 258 466 L 258 466 A 8 8 0 0 0 250 474 L 250 746 L 250 746 A 8 8 0 0 0 258 754 L 281 754" stroke-miterlimit="10" stroke-dasharray=""/></g><g><path fill="none" stroke="#000000" paint-order="fill stroke markers" d=" M 270.83732514237585 758.209517756016 L 281 754 L 270.83732514237585 749.790482243984" stroke-miterlimit="10" stroke-dasharray=""/></g><g><path fill="none" stroke="#000000" paint-order="fill stroke markers" d=" M 1354 120 L 1354 747 L 1354 747 A 8 8 0 0 1 1346 755 L 590 755" stroke-miterlimit="10" stroke-dasharray=""/></g><g><path fill="none" stroke="#000000" paint-order="fill stroke markers" d=" M 600.1626748576241 750.790482243984 L 590 755 L 600.1626748576241 759.209517756016" stroke-miterlimit="10" stroke-dasharray=""/></g><g><path fill="none" stroke="#000000" paint-order="fill stroke markers" d=" M 1274 114 L 1274 94 L 1408 94 L 1408 117 L 1378 117" stroke-miterlimit="10" stroke-dasharray=""/></g><g><path fill="none" stroke="#000000" paint-order="fill stroke markers" d=" M 1388.162674857624 112.790482243984 L 1378 117 L 1388.162674857624 121.209517756016" stroke-miterlimit="10" stroke-dasharray=""/></g></g></svg>