<svg version="1.1" xmlns="http://www.w3.org/2000/svg" xmlns:xlink="http://www.w3.org/1999/xlink" width="1228.236328125" height="972"><defs/><g><g><path fill="none" stroke="#000000" paint-order="fill stroke markers" d=" M 10 10 L 1058 10 L 1058 962 L 10 962 L 10 10" stroke-miterlimit="10" stroke-dasharray=""/></g><g><path fill="#ffffff" stroke="none" paint-order="stroke fill markers" d=" M 10 10 L 10 33 L 193.1591796875 33 L 204.6591796875 21.5 L 204.6591796875 10 L 10 10"/></g><g><path fill="none" stroke="#000000" paint-order="fill stroke markers" d=" M 10 10 L 10 33 L 193.1591796875 33 L 204.6591796875 21.5 L 204.6591796875 10 L 10 10 L 10 10" stroke-miterlimit="10" stroke-dasharray=""/></g><g><g><path fill="none" stroke="none"/><text fill="#000000" stroke="none" font-family="Arial" font-size="13px" font-style="normal" font-weight="normal" text-decoration="undefined" x="109.444580078125" y="19.5" text-anchor="middle" dominant-baseline="central" transform="matrix(1 0 0 1 2 2)">eliminarProductoDeTienda</text></g></g><g><g><path fill="none" stroke="none"/><text fill="#000000" stroke="none" font-family="Arial" font-size="13px" font-style="normal" font-weight="bold" text-decoration="undefined" x="19.864990234375" y="19.5" text-anchor="middle" dominant-baseline="central" transform="matrix(1 0 0 1 2 2)">sd</text></g></g><g><rect fill="#C0C0C0" stroke="none" x="71" y="47" width="155.56689453125" height="40" transform="matrix(1 0 0 1 2 2)" fill-opacity="0.2"/></g><g><rect fill="#ffffff" stroke="none" x="64" y="40" width="155.56689453125" height="40" transform="matrix(1 0 0 1 2 2)"/></g><g><path fill="none" stroke="#000000" paint-order="fill stroke markers" d=" M 66 42 L 221.56689453125 42 L 221.56689453125 82 L 66 82 L 66 42 Z Z" stroke-miterlimit="10" stroke-dasharray=""/></g><g><g><path fill="none" stroke="none"/><text fill="#000000" stroke="none" font-family="Arial" font-size="13px" font-style="normal" font-weight="bold" text-decoration="undefined" x="142.283447265625" y="53.5" text-anchor="middle" dominant-baseline="central" transform="matrix(1 0 0 1 2 2)">: Vista Admin</text></g></g><g><path fill="none" stroke="#000000" paint-order="fill stroke markers" d=" M 144.5 83 L 144.5 938" stroke-miterlimit="10" stroke-dasharray="3"/></g><g><rect fill="#C0C0C0" stroke="none" x="287" y="47" width="197.814453125" height="40" transform="matrix(1 0 0 1 2 2)" fill-opacity="0.2"/></g><g><rect fill="#ffffff" stroke="none" x="280" y="40" width="197.814453125" height="40" transform="matrix(1 0 0 1 2 2)"/></g><g><path fill="none" stroke="#000000" paint-order="fill stroke markers" d=" M 282 42 L 479.814453125 42 L 479.814453125 82 L 282 82 L 282 42 Z Z" stroke-miterlimit="10" stroke-dasharray=""/></g><g><g><path fill="none" stroke="none"/><text fill="#000000" stroke="none" font-family="Arial" font-size="13px" font-style="normal" font-weight="bold" text-decoration="undefined" x="379.4072265625" y="53.5" text-anchor="middle" dominant-baseline="central" transform="matrix(1 0 0 1 2 2)">: Gestión de Compras</text></g></g><g><path fill="none" stroke="#000000" paint-order="fill stroke markers" d=" M 381.5 83 L 381.5 938" stroke-miterlimit="10" stroke-dasharray="3"/></g><g><rect fill="#C0C0C0" stroke="none" x="599" y="47" width="185.5380859375" height="40" transform="matrix(1 0 0 1 2 2)" fill-opacity="0.2"/></g><g><rect fill="#ffffff" stroke="none" x="592" y="40" width="185.5380859375" height="40" transform="matrix(1 0 0 1 2 2)"/></g><g><path fill="none" stroke="#000000" paint-order="fill stroke markers" d=" M 594 42 L 779.5380859375 42 L 779.5380859375 82 L 594 82 L 594 42 Z Z" stroke-miterlimit="10" stroke-dasharray=""/></g><g><g><path fill="none" stroke="none"/><text fill="#000000" stroke="none" font-family="Arial" font-size="13px" font-style="normal" font-weight="bold" text-decoration="undefined" x="685.26904296875" y="53.5" text-anchor="middle" dominant-baseline="central" transform="matrix(1 0 0 1 2 2)">: Datos de Compras</text></g></g><g><path fill="none" stroke="#000000" paint-order="fill stroke markers" d=" M 687.5 83 L 687.5 938" stroke-miterlimit="10" stroke-dasharray="3"/></g><g><rect fill="#C0C0C0" stroke="none" x="847" y="47" width="185.53173828125" height="40" transform="matrix(1 0 0 1 2 2)" fill-opacity="0.2"/></g><g><rect fill="#ffffff" stroke="none" x="840" y="40" width="185.53173828125" height="40" transform="matrix(1 0 0 1 2 2)"/></g><g><path fill="none" stroke="#000000" paint-order="fill stroke markers" d=" M 842 42 L 1027.53173828125 42 L 1027.53173828125 82 L 842 82 L 842 42 Z Z" stroke-miterlimit="10" stroke-dasharray=""/></g><g><g><path fill="none" stroke="none"/><text fill="#000000" stroke="none" font-family="Arial" font-size="13px" font-style="normal" font-weight="bold" text-decoration="undefined" x="933.265869140625" y="53.5" text-anchor="middle" dominant-baseline="central" transform="matrix(1 0 0 1 2 2)">: Datos de Usuarios</text></g></g><g><path fill="none" stroke="#000000" paint-order="fill stroke markers" d=" M 935.5 83 L 935.5 946" stroke-miterlimit="10" stroke-dasharray="3"/></g><g><g><path fill="none" stroke="none"/><text fill="#000000" stroke="none" font-family="Arial" font-size="20px" font-style="normal" font-weight="normal" text-decoration="undefined" x="1069" y="21" text-anchor="start" dominant-baseline="text-before-edge" transform="matrix(1 0 0 1 2 2)">ADRIAN</text><text fill="#000000" stroke="none" font-family="Arial" font-size="20px" font-style="normal" font-weight="normal" text-decoration="undefined" x="1069" y="41" text-anchor="start" dominant-baseline="text-before-edge" transform="matrix(1 0 0 1 2 2)">GONZÁLEZ</text><text fill="#000000" stroke="none" font-family="Arial" font-size="20px" font-style="normal" font-weight="normal" text-decoration="undefined" x="1069" y="61" text-anchor="start" dominant-baseline="text-before-edge" transform="matrix(1 0 0 1 2 2)">CARRANCEDO</text></g></g><g><path fill="#ffffff" stroke="none" paint-order="stroke fill markers" d=" M 450 434 L 639 434 L 649 444 L 649 537 L 450 537 L 450 434"/></g><g><path fill="none" stroke="#000000" paint-order="fill stroke markers" d=" M 450 434 L 639 434 L 649 444 L 649 537 L 450 537 L 450 434 L 450 434" stroke-miterlimit="10" stroke-dasharray=""/></g><g><path fill="none" stroke="#000000" paint-order="fill stroke markers" d=" M 639 434 L 639 444 L 649 444 L 639 434" stroke-miterlimit="10" stroke-dasharray=""/></g><g><g><path fill="none" stroke="none"/><text fill="#000000" stroke="none" font-family="Arial" font-size="13px" font-style="normal" font-weight="normal" text-decoration="undefined" x="453" y="437" text-anchor="start" dominant-baseline="text-before-edge" transform="matrix(1 0 0 1 2 2)">El producto solo se elimina de la</text><text fill="#000000" stroke="none" font-family="Arial" font-size="13px" font-style="normal" font-weight="normal" text-decoration="undefined" x="453" y="450" text-anchor="start" dominant-baseline="text-before-edge" transform="matrix(1 0 0 1 2 2)">tienda de 1 artista en concreto,</text><text fill="#000000" stroke="none" font-family="Arial" font-size="13px" font-style="normal" font-weight="normal" text-decoration="undefined" x="453" y="463" text-anchor="start" dominant-baseline="text-before-edge" transform="matrix(1 0 0 1 2 2)">el artista cuyo id es pasado por</text><text fill="#000000" stroke="none" font-family="Arial" font-size="13px" font-style="normal" font-weight="normal" text-decoration="undefined" x="453" y="476" text-anchor="start" dominant-baseline="text-before-edge" transform="matrix(1 0 0 1 2 2)">parametro. Del resto de tiendas</text><text fill="#000000" stroke="none" font-family="Arial" font-size="13px" font-style="normal" font-weight="normal" text-decoration="undefined" x="453" y="489" text-anchor="start" dominant-baseline="text-before-edge" transform="matrix(1 0 0 1 2 2)">de otros artistas no se elimina</text><text fill="#000000" stroke="none" font-family="Arial" font-size="13px" font-style="normal" font-weight="normal" text-decoration="undefined" x="453" y="502" text-anchor="start" dominant-baseline="text-before-edge" transform="matrix(1 0 0 1 2 2)">este producto.</text></g></g><g><path fill="none" stroke="#000000" paint-order="fill stroke markers" d=" M 145 122 L 374 122" stroke-miterlimit="10" stroke-dasharray=""/></g><g><path fill="#000000" stroke="none" paint-order="stroke fill markers" d=" M 363.83732514237585 126.20951775601598 L 374 122 L 363.83732514237585 117.79048224398402"/></g><g><path fill="none" stroke="#000000" paint-order="fill stroke markers" d=" M 363.83732514237585 126.20951775601598 L 374 122 L 363.83732514237585 117.79048224398402 L 363.83732514237585 126.20951775601598" stroke-miterlimit="10" stroke-dasharray=""/></g><g><rect fill="#ffffff" stroke="none" x="39" y="104" width="436.68701171875" height="13" transform="matrix(1 0 0 1 2 2)"/></g><g><g><path fill="none" stroke="none"/><text fill="#000000" stroke="none" font-family="Arial" font-size="13px" font-style="normal" font-weight="normal" text-decoration="undefined" x="257.343505859375" y="110.5" text-anchor="middle" dominant-baseline="central" transform="matrix(1 0 0 1 2 2)">1 : eliminarProductoDeTienda(idProducto: String, idUsuario: String):boolean</text></g></g><g><rect fill="#ffffff" stroke="none" x="372" y="120" width="14" height="776" transform="matrix(1 0 0 1 2 2)"/></g><g><path fill="none" stroke="#000000" paint-order="fill stroke markers" d=" M 374 122 L 388 122 L 388 898 L 374 898 L 374 122 Z Z" stroke-miterlimit="10" stroke-dasharray=""/></g><g><path fill="none" stroke="#000000" paint-order="fill stroke markers" d=" M 388 154 L 680 154" stroke-miterlimit="10" stroke-dasharray=""/></g><g><path fill="#000000" stroke="none" paint-order="stroke fill markers" d=" M 669.8373251423759 158.209517756016 L 680 154 L 669.8373251423758 149.790482243984"/></g><g><path fill="none" stroke="#000000" paint-order="fill stroke markers" d=" M 669.8373251423759 158.209517756016 L 680 154 L 669.8373251423758 149.790482243984 L 669.8373251423759 158.209517756016" stroke-miterlimit="10" stroke-dasharray=""/></g><g><rect fill="#ffffff" stroke="none" x="418" y="136" width="229.79150390625" height="13" transform="matrix(1 0 0 1 2 2)"/></g><g><g><path fill="none" stroke="none"/><text fill="#000000" stroke="none" font-family="Arial" font-size="13px" font-style="normal" font-weight="normal" text-decoration="undefined" x="532.895751953125" y="142.5" text-anchor="middle" dominant-baseline="central" transform="matrix(1 0 0 1 2 2)">2 : obtenerProducto(id: String):Producto</text></g></g><g><rect fill="#ffffff" stroke="none" x="678" y="152" width="14" height="28" transform="matrix(1 0 0 1 2 2)"/></g><g><path fill="none" stroke="#000000" paint-order="fill stroke markers" d=" M 680 154 L 694 154 L 694 182 L 680 182 L 680 154 Z Z" stroke-miterlimit="10" stroke-dasharray=""/></g><g><path fill="none" stroke="#000000" paint-order="fill stroke markers" d=" M 680 178 L 388 178" stroke-miterlimit="10" stroke-dasharray="3"/></g><g><path fill="none" stroke="#000000" paint-order="fill stroke markers" d=" M 398.16267485762415 173.790482243984 L 388 178 L 398.16267485762415 182.209517756016" stroke-miterlimit="10" stroke-dasharray=""/></g><g><rect fill="#ffffff" stroke="none" x="519" y="180" width="25.29541015625" height="13" transform="matrix(1 0 0 1 2 2)"/></g><g><g><path fill="none" stroke="none"/><text fill="#000000" stroke="none" font-family="Arial" font-size="13px" font-style="normal" font-weight="normal" text-decoration="undefined" x="531.647705078125" y="186.5" text-anchor="middle" dominant-baseline="central" transform="matrix(1 0 0 1 2 2)">3 : p</text></g></g><g><path fill="none" stroke="#000000" paint-order="fill stroke markers" d=" M 388 226 L 928 226" stroke-miterlimit="10" stroke-dasharray=""/></g><g><path fill="#000000" stroke="none" paint-order="stroke fill markers" d=" M 917.8373251423759 230.209517756016 L 928 226 L 917.8373251423758 221.790482243984"/></g><g><path fill="none" stroke="#000000" paint-order="fill stroke markers" d=" M 917.8373251423759 230.209517756016 L 928 226 L 917.8373251423758 221.790482243984 L 917.8373251423759 230.209517756016" stroke-miterlimit="10" stroke-dasharray=""/></g><g><rect fill="#ffffff" stroke="none" x="526" y="208" width="260.1142578125" height="13" transform="matrix(1 0 0 1 2 2)"/></g><g><g><path fill="none" stroke="none"/><text fill="#000000" stroke="none" font-family="Arial" font-size="13px" font-style="normal" font-weight="normal" text-decoration="undefined" x="656.05712890625" y="214.5" text-anchor="middle" dominant-baseline="central" transform="matrix(1 0 0 1 2 2)">4 : obtenerUsuario(idUsuario: String):Usuario</text></g></g><g><rect fill="#ffffff" stroke="none" x="926" y="224" width="14" height="28" transform="matrix(1 0 0 1 2 2)"/></g><g><path fill="none" stroke="#000000" paint-order="fill stroke markers" d=" M 928 226 L 942 226 L 942 254 L 928 254 L 928 226 Z Z" stroke-miterlimit="10" stroke-dasharray=""/></g><g><path fill="none" stroke="#000000" paint-order="fill stroke markers" d=" M 928 250 L 388 250" stroke-miterlimit="10" stroke-dasharray="3"/></g><g><path fill="none" stroke="#000000" paint-order="fill stroke markers" d=" M 398.16267485762415 245.790482243984 L 388 250 L 398.16267485762415 254.209517756016" stroke-miterlimit="10" stroke-dasharray=""/></g><g><rect fill="#ffffff" stroke="none" x="643" y="252" width="25.29541015625" height="13" transform="matrix(1 0 0 1 2 2)"/></g><g><g><path fill="none" stroke="none"/><text fill="#000000" stroke="none" font-family="Arial" font-size="13px" font-style="normal" font-weight="normal" text-decoration="undefined" x="655.647705078125" y="258.5" text-anchor="middle" dominant-baseline="central" transform="matrix(1 0 0 1 2 2)">5 : u</text></g></g><g><path fill="none" stroke="#000000" paint-order="fill stroke markers" d=" M 374 338 L 145 338" stroke-miterlimit="10" stroke-dasharray="3"/></g><g><path fill="none" stroke="#000000" paint-order="fill stroke markers" d=" M 155.16267485762415 333.790482243984 L 145 338 L 155.16267485762415 342.209517756016" stroke-miterlimit="10" stroke-dasharray=""/></g><g><rect fill="#ffffff" stroke="none" x="234" y="340" width="45.525390625" height="13" transform="matrix(1 0 0 1 2 2)"/></g><g><g><path fill="none" stroke="none"/><text fill="#000000" stroke="none" font-family="Arial" font-size="13px" font-style="normal" font-weight="normal" text-decoration="undefined" x="256.7626953125" y="346.5" text-anchor="middle" dominant-baseline="central" transform="matrix(1 0 0 1 2 2)">6 : false</text></g></g><g><path fill="none" stroke="#000000" paint-order="fill stroke markers" d=" M 388 394 L 418 394 L 418 414 L 395 414" stroke-miterlimit="10" stroke-dasharray=""/></g><g><path fill="#000000" stroke="none" paint-order="stroke fill markers" d=" M 405.16267485762415 409.790482243984 L 395 414 L 405.16267485762415 418.209517756016"/></g><g><path fill="none" stroke="#000000" paint-order="fill stroke markers" d=" M 405.16267485762415 409.790482243984 L 395 414 L 405.16267485762415 418.209517756016 L 405.16267485762415 409.790482243984" stroke-miterlimit="10" stroke-dasharray=""/></g><g><rect fill="#ffffff" stroke="none" x="424" y="395" width="218.2197265625" height="13" transform="matrix(1 0 0 1 2 2)"/></g><g><g><path fill="none" stroke="none"/><text fill="#000000" stroke="none" font-family="Arial" font-size="13px" font-style="normal" font-weight="normal" text-decoration="undefined" x="533.10986328125" y="401.5" text-anchor="middle" dominant-baseline="central" transform="matrix(1 0 0 1 2 2)">7 : u.tiendaArtista.producto.remove(p)</text></g></g><g><rect fill="#ffffff" stroke="none" x="379" y="412" width="14" height="28" transform="matrix(1 0 0 1 2 2)"/></g><g><path fill="none" stroke="#000000" paint-order="fill stroke markers" d=" M 381 414 L 395 414 L 395 442 L 381 442 L 381 414 Z Z" stroke-miterlimit="10" stroke-dasharray=""/></g><g><path fill="none" stroke="#000000" paint-order="fill stroke markers" d=" M 388 586 L 418 586 L 418 606 L 395 606" stroke-miterlimit="10" stroke-dasharray=""/></g><g><path fill="#000000" stroke="none" paint-order="stroke fill markers" d=" M 405.16267485762415 601.790482243984 L 395 606 L 405.16267485762415 610.209517756016"/></g><g><path fill="none" stroke="#000000" paint-order="fill stroke markers" d=" M 405.16267485762415 601.790482243984 L 395 606 L 405.16267485762415 610.209517756016 L 405.16267485762415 601.790482243984" stroke-miterlimit="10" stroke-dasharray=""/></g><g><rect fill="#ffffff" stroke="none" x="399" y="608" width="136.220703125" height="13" transform="matrix(1 0 0 1 2 2)"/></g><g><g><path fill="none" stroke="none"/><text fill="#000000" stroke="none" font-family="Arial" font-size="13px" font-style="normal" font-weight="normal" text-decoration="undefined" x="467.1103515625" y="614.5" text-anchor="middle" dominant-baseline="central" transform="matrix(1 0 0 1 2 2)">8 : u.tiendaArtista = null</text></g></g><g><rect fill="#ffffff" stroke="none" x="379" y="604" width="14" height="28" transform="matrix(1 0 0 1 2 2)"/></g><g><path fill="none" stroke="#000000" paint-order="fill stroke markers" d=" M 381 606 L 395 606 L 395 634 L 381 634 L 381 606 Z Z" stroke-miterlimit="10" stroke-dasharray=""/></g><g><path fill="none" stroke="#000000" paint-order="fill stroke markers" d=" M 388 739 L 680 739" stroke-miterlimit="10" stroke-dasharray=""/></g><g><path fill="#000000" stroke="none" paint-order="stroke fill markers" d=" M 669.8373251423759 743.209517756016 L 680 739 L 669.8373251423758 734.790482243984"/></g><g><path fill="none" stroke="#000000" paint-order="fill stroke markers" d=" M 669.8373251423759 743.209517756016 L 680 739 L 669.8373251423758 734.790482243984 L 669.8373251423759 743.209517756016" stroke-miterlimit="10" stroke-dasharray=""/></g><g><rect fill="#ffffff" stroke="none" x="409" y="721" width="247.85693359375" height="13" transform="matrix(1 0 0 1 2 2)"/></g><g><g><path fill="none" stroke="none"/><text fill="#000000" stroke="none" font-family="Arial" font-size="13px" font-style="normal" font-weight="normal" text-decoration="undefined" x="532.928466796875" y="727.5" text-anchor="middle" dominant-baseline="central" transform="matrix(1 0 0 1 2 2)">9 : modificarProducto(p: Producto):boolean</text></g></g><g><rect fill="#ffffff" stroke="none" x="678" y="737" width="14" height="28" transform="matrix(1 0 0 1 2 2)"/></g><g><path fill="none" stroke="#000000" paint-order="fill stroke markers" d=" M 680 739 L 694 739 L 694 767 L 680 767 L 680 739 Z Z" stroke-miterlimit="10" stroke-dasharray=""/></g><g><path fill="none" stroke="#000000" paint-order="fill stroke markers" d=" M 388 794 L 928 794" stroke-miterlimit="10" stroke-dasharray=""/></g><g><path fill="#000000" stroke="none" paint-order="stroke fill markers" d=" M 917.8373251423759 798.209517756016 L 928 794 L 917.8373251423758 789.790482243984"/></g><g><path fill="none" stroke="#000000" paint-order="fill stroke markers" d=" M 917.8373251423759 798.209517756016 L 928 794 L 917.8373251423758 789.790482243984 L 917.8373251423759 798.209517756016" stroke-miterlimit="10" stroke-dasharray=""/></g><g><rect fill="#ffffff" stroke="none" x="536" y="776" width="240.6142578125" height="13" transform="matrix(1 0 0 1 2 2)"/></g><g><g><path fill="none" stroke="none"/><text fill="#000000" stroke="none" font-family="Arial" font-size="13px" font-style="normal" font-weight="normal" text-decoration="undefined" x="656.30712890625" y="782.5" text-anchor="middle" dominant-baseline="central" transform="matrix(1 0 0 1 2 2)">10 : modificarUsuario(u: Usuario):boolean</text></g></g><g><rect fill="#ffffff" stroke="none" x="926" y="792" width="14" height="28" transform="matrix(1 0 0 1 2 2)"/></g><g><path fill="none" stroke="#000000" paint-order="fill stroke markers" d=" M 928 794 L 942 794 L 942 822 L 928 822 L 928 794 Z Z" stroke-miterlimit="10" stroke-dasharray=""/></g><g><path fill="none" stroke="#000000" paint-order="fill stroke markers" d=" M 374 851 L 145 851" stroke-miterlimit="10" stroke-dasharray="3"/></g><g><path fill="none" stroke="#000000" paint-order="fill stroke markers" d=" M 155.16267485762415 846.790482243984 L 145 851 L 155.16267485762415 855.209517756016" stroke-miterlimit="10" stroke-dasharray=""/></g><g><rect fill="#ffffff" stroke="none" x="233" y="853" width="46.7314453125" height="13" transform="matrix(1 0 0 1 2 2)"/></g><g><g><path fill="none" stroke="none"/><text fill="#000000" stroke="none" font-family="Arial" font-size="13px" font-style="normal" font-weight="normal" text-decoration="undefined" x="256.36572265625" y="859.5" text-anchor="middle" dominant-baseline="central" transform="matrix(1 0 0 1 2 2)">11 : true</text></g></g><g><path fill="none" stroke="#000000" paint-order="fill stroke markers" d=" M 42 274 L 578 274 L 578 378 L 42 378 L 42 274" stroke-miterlimit="10" stroke-dasharray=""/></g><g><path fill="#ffffff" stroke="none" paint-order="stroke fill markers" d=" M 42 274 L 42 297 L 180.8525390625 297 L 192.3525390625 285.5 L 192.3525390625 274 L 42 274"/></g><g><path fill="none" stroke="#000000" paint-order="fill stroke markers" d=" M 42 274 L 42 297 L 180.8525390625 297 L 192.3525390625 285.5 L 192.3525390625 274 L 42 274 L 42 274" stroke-miterlimit="10" stroke-dasharray=""/></g><g><g><path fill="none" stroke="none"/><text fill="#000000" stroke="none" font-family="Arial" font-size="13px" font-style="normal" font-weight="normal" text-decoration="undefined" x="121.462158203125" y="283.5" text-anchor="middle" dominant-baseline="central" transform="matrix(1 0 0 1 2 2)">gestion de errores</text></g></g><g><g><path fill="none" stroke="none"/><text fill="#000000" stroke="none" font-family="Arial" font-size="13px" font-style="normal" font-weight="bold" text-decoration="undefined" x="54.035888671875" y="283.5" text-anchor="middle" dominant-baseline="central" transform="matrix(1 0 0 1 2 2)">opt</text></g></g><g><g><path fill="none" stroke="none"/><text fill="#000000" stroke="none" font-family="Arial" font-size="13px" font-style="normal" font-weight="normal" text-decoration="undefined" x="307.203125" y="316.5" text-anchor="middle" dominant-baseline="central" transform="matrix(1 0 0 1 2 2)">[u.tiendaArtista = null || u.tipo != Artista || u.tiendaArtista.productos.contains(p) = false]</text></g></g><g><path fill="none" stroke="#000000" paint-order="fill stroke markers" d=" M 130 554 L 546 554 L 546 714 L 130 714 L 130 554" stroke-miterlimit="10" stroke-dasharray=""/></g><g><path fill="#ffffff" stroke="none" paint-order="stroke fill markers" d=" M 130 554 L 130 577 L 290.5361328125 577 L 302.0361328125 565.5 L 302.0361328125 554 L 130 554"/></g><g><path fill="none" stroke="#000000" paint-order="fill stroke markers" d=" M 130 554 L 130 577 L 290.5361328125 577 L 302.0361328125 565.5 L 302.0361328125 554 L 130 554 L 130 554" stroke-miterlimit="10" stroke-dasharray=""/></g><g><g><path fill="none" stroke="none"/><text fill="#000000" stroke="none" font-family="Arial" font-size="13px" font-style="normal" font-weight="normal" text-decoration="undefined" x="220.303955078125" y="563.5" text-anchor="middle" dominant-baseline="central" transform="matrix(1 0 0 1 2 2)">tienda de artista vacia</text></g></g><g><g><path fill="none" stroke="none"/><text fill="#000000" stroke="none" font-family="Arial" font-size="13px" font-style="normal" font-weight="bold" text-decoration="undefined" x="142.035888671875" y="563.5" text-anchor="middle" dominant-baseline="central" transform="matrix(1 0 0 1 2 2)">opt</text></g></g><g><g><path fill="none" stroke="none"/><text fill="#000000" stroke="none" font-family="Arial" font-size="13px" font-style="normal" font-weight="normal" text-decoration="undefined" x="217.55126953125" y="596.5" text-anchor="middle" dominant-baseline="central" transform="matrix(1 0 0 1 2 2)">[u.tiendaArtista.size = 0]</text></g></g></g></svg>