<svg version="1.1" xmlns="http://www.w3.org/2000/svg" xmlns:xlink="http://www.w3.org/1999/xlink" width="1151.44091796875" height="1332"><defs/><g><g><rect fill="#C0C0C0" stroke="none" x="599" y="95" width="464" height="1256" transform="matrix(1 0 0 1 -246 -22)" fill-opacity="0.2"/></g><g><rect fill="#ffffff" stroke="none" x="592" y="88" width="464" height="1256" transform="matrix(1 0 0 1 -246 -22)"/></g><g><path fill="none" stroke="#000000" paint-order="fill stroke markers" d=" M 346 66 L 810 66 L 810 1322 L 346 1322 L 346 66 Z Z" stroke-miterlimit="10" stroke-dasharray=""/></g><g><g><path fill="none" stroke="none"/><text fill="#000000" stroke="none" font-family="Arial" font-size="13px" font-style="normal" font-weight="bold" text-decoration="undefined" x="824.5" y="101.5" text-anchor="middle" dominant-baseline="central" transform="matrix(1 0 0 1 -246 -22)">Gestión Youtify</text></g></g><g><path fill="#C0C0C0" stroke="none" paint-order="stroke fill markers" d=" M 471 149 C 471 133.5360256 520.4725296 121 581.5 121 C 642.5274704 121 692 133.5360256 692 149 C 692 164.4639744 642.5274704 177 581.5 177 C 520.4725296 177 471 164.4639744 471 149 Z" fill-opacity="0.2"/></g><g><path fill="#ffffff" stroke="none" paint-order="stroke fill markers" d=" M 464 142 C 464 126.53602559999999 513.4725296 114 574.5 114 C 635.5274704 114 685 126.53602559999999 685 142 C 685 157.4639744 635.5274704 170 574.5 170 C 513.4725296 170 464 157.4639744 464 142 Z"/></g><g><path fill="none" stroke="#000000" paint-order="fill stroke markers" d=" M 464 142 C 464 126.53602559999999 513.4725296 114 574.5 114 C 635.5274704 114 685 126.53602559999999 685 142 C 685 157.4639744 635.5274704 170 574.5 170 C 513.4725296 170 464 157.4639744 464 142 Z" stroke-miterlimit="10" stroke-dasharray=""/></g><g><g><path fill="none" stroke="none"/><text fill="#000000" stroke="none" font-family="Arial" font-size="13px" font-style="normal" font-weight="bold" text-decoration="undefined" x="820.5" y="165" text-anchor="middle" dominant-baseline="central" transform="matrix(1 0 0 1 -246 -22)">Gestión Usuarios</text></g></g><g><path fill="#C0C0C0" stroke="none" paint-order="stroke fill markers" d=" M 471 307 C 471 291.5360256 520.4725296 279 581.5 279 C 642.5274704 279 692 291.5360256 692 307 C 692 322.4639744 642.5274704 335 581.5 335 C 520.4725296 335 471 322.4639744 471 307 Z" fill-opacity="0.2"/></g><g><path fill="#ffffff" stroke="none" paint-order="stroke fill markers" d=" M 464 300 C 464 284.5360256 513.4725296 272 574.5 272 C 635.5274704 272 685 284.5360256 685 300 C 685 315.4639744 635.5274704 328 574.5 328 C 513.4725296 328 464 315.4639744 464 300 Z"/></g><g><path fill="none" stroke="#000000" paint-order="fill stroke markers" d=" M 464 300 C 464 284.5360256 513.4725296 272 574.5 272 C 635.5274704 272 685 284.5360256 685 300 C 685 315.4639744 635.5274704 328 574.5 328 C 513.4725296 328 464 315.4639744 464 300 Z" stroke-miterlimit="10" stroke-dasharray=""/></g><g><g><path fill="none" stroke="none"/><text fill="#000000" stroke="none" font-family="Arial" font-size="13px" font-style="normal" font-weight="bold" text-decoration="undefined" x="820.5" y="323" text-anchor="middle" dominant-baseline="central" transform="matrix(1 0 0 1 -246 -22)">Gestión Oyentes</text></g></g><g><path fill="#C0C0C0" stroke="none" paint-order="stroke fill markers" d=" M 471 623 C 471 607.5360256 520.4725296 595 581.5 595 C 642.5274704 595 692 607.5360256 692 623 C 692 638.4639744 642.5274704 651 581.5 651 C 520.4725296 651 471 638.4639744 471 623 Z" fill-opacity="0.2"/></g><g><path fill="#ffffff" stroke="none" paint-order="stroke fill markers" d=" M 464 616 C 464 600.5360256 513.4725296 588 574.5 588 C 635.5274704 588 685 600.5360256 685 616 C 685 631.4639744 635.5274704 644 574.5 644 C 513.4725296 644 464 631.4639744 464 616 Z"/></g><g><path fill="none" stroke="#000000" paint-order="fill stroke markers" d=" M 464 616 C 464 600.5360256 513.4725296 588 574.5 588 C 635.5274704 588 685 600.5360256 685 616 C 685 631.4639744 635.5274704 644 574.5 644 C 513.4725296 644 464 631.4639744 464 616 Z" stroke-miterlimit="10" stroke-dasharray=""/></g><g><g><path fill="none" stroke="none"/><text fill="#000000" stroke="none" font-family="Arial" font-size="13px" font-style="normal" font-weight="bold" text-decoration="undefined" x="820.5" y="639" text-anchor="middle" dominant-baseline="central" transform="matrix(1 0 0 1 -246 -22)">Gestión Compras</text></g></g><g><path fill="#C0C0C0" stroke="none" paint-order="stroke fill markers" d=" M 471 781 C 471 765.5360256 520.4725296 753 581.5 753 C 642.5274704 753 692 765.5360256 692 781 C 692 796.4639744 642.5274704 809 581.5 809 C 520.4725296 809 471 796.4639744 471 781 Z" fill-opacity="0.2"/></g><g><path fill="#ffffff" stroke="none" paint-order="stroke fill markers" d=" M 464 774 C 464 758.5360256 513.4725296 746 574.5 746 C 635.5274704 746 685 758.5360256 685 774 C 685 789.4639744 635.5274704 802 574.5 802 C 513.4725296 802 464 789.4639744 464 774 Z"/></g><g><path fill="none" stroke="#000000" paint-order="fill stroke markers" d=" M 464 774 C 464 758.5360256 513.4725296 746 574.5 746 C 635.5274704 746 685 758.5360256 685 774 C 685 789.4639744 635.5274704 802 574.5 802 C 513.4725296 802 464 789.4639744 464 774 Z" stroke-miterlimit="10" stroke-dasharray=""/></g><g><g><path fill="none" stroke="none"/><text fill="#000000" stroke="none" font-family="Arial" font-size="13px" font-style="normal" font-weight="bold" text-decoration="undefined" x="820.5" y="797" text-anchor="middle" dominant-baseline="central" transform="matrix(1 0 0 1 -246 -22)">Gestión Eventos</text></g></g><g><path fill="#C0C0C0" stroke="none" paint-order="stroke fill markers" d=" M 471 1097 C 471 1081.5360256 520.4725296 1069 581.5 1069 C 642.5274704 1069 692 1081.5360256 692 1097 C 692 1112.4639744 642.5274704 1125 581.5 1125 C 520.4725296 1125 471 1112.4639744 471 1097 Z" fill-opacity="0.2"/></g><g><path fill="#ffffff" stroke="none" paint-order="stroke fill markers" d=" M 464 1090 C 464 1074.5360256 513.4725296 1062 574.5 1062 C 635.5274704 1062 685 1074.5360256 685 1090 C 685 1105.4639744 635.5274704 1118 574.5 1118 C 513.4725296 1118 464 1105.4639744 464 1090 Z"/></g><g><path fill="none" stroke="#000000" paint-order="fill stroke markers" d=" M 464 1090 C 464 1074.5360256 513.4725296 1062 574.5 1062 C 635.5274704 1062 685 1074.5360256 685 1090 C 685 1105.4639744 635.5274704 1118 574.5 1118 C 513.4725296 1118 464 1105.4639744 464 1090 Z" stroke-miterlimit="10" stroke-dasharray=""/></g><g><g><path fill="none" stroke="none"/><text fill="#000000" stroke="none" font-family="Arial" font-size="13px" font-style="normal" font-weight="bold" text-decoration="undefined" x="820.5" y="1113" text-anchor="middle" dominant-baseline="central" transform="matrix(1 0 0 1 -246 -22)">Gestión Productores</text></g></g><g><path fill="#C0C0C0" stroke="none" paint-order="stroke fill markers" d=" M 471 939 C 471 923.5360256 520.4725296 911 581.5 911 C 642.5274704 911 692 923.5360256 692 939 C 692 954.4639744 642.5274704 967 581.5 967 C 520.4725296 967 471 954.4639744 471 939 Z" fill-opacity="0.2"/></g><g><path fill="#ffffff" stroke="none" paint-order="stroke fill markers" d=" M 464 932 C 464 916.5360256 513.4725296 904 574.5 904 C 635.5274704 904 685 916.5360256 685 932 C 685 947.4639744 635.5274704 960 574.5 960 C 513.4725296 960 464 947.4639744 464 932 Z"/></g><g><path fill="none" stroke="#000000" paint-order="fill stroke markers" d=" M 464 932 C 464 916.5360256 513.4725296 904 574.5 904 C 635.5274704 904 685 916.5360256 685 932 C 685 947.4639744 635.5274704 960 574.5 960 C 513.4725296 960 464 947.4639744 464 932 Z" stroke-miterlimit="10" stroke-dasharray=""/></g><g><g><path fill="none" stroke="none"/><text fill="#000000" stroke="none" font-family="Arial" font-size="13px" font-style="normal" font-weight="bold" text-decoration="undefined" x="820.5" y="955" text-anchor="middle" dominant-baseline="central" transform="matrix(1 0 0 1 -246 -22)">Gestión Artistas</text></g></g><g><path fill="#C0C0C0" stroke="none" paint-order="stroke fill markers" d=" M 471 1255 C 471 1239.5360256 520.4725296 1227 581.5 1227 C 642.5274704 1227 692 1239.5360256 692 1255 C 692 1270.4639744 642.5274704 1283 581.5 1283 C 520.4725296 1283 471 1270.4639744 471 1255 Z" fill-opacity="0.2"/></g><g><path fill="#ffffff" stroke="none" paint-order="stroke fill markers" d=" M 464 1248 C 464 1232.5360256 513.4725296 1220 574.5 1220 C 635.5274704 1220 685 1232.5360256 685 1248 C 685 1263.4639744 635.5274704 1276 574.5 1276 C 513.4725296 1276 464 1263.4639744 464 1248 Z"/></g><g><path fill="none" stroke="#000000" paint-order="fill stroke markers" d=" M 464 1248 C 464 1232.5360256 513.4725296 1220 574.5 1220 C 635.5274704 1220 685 1232.5360256 685 1248 C 685 1263.4639744 635.5274704 1276 574.5 1276 C 513.4725296 1276 464 1263.4639744 464 1248 Z" stroke-miterlimit="10" stroke-dasharray=""/></g><g><g><path fill="none" stroke="none"/><text fill="#000000" stroke="none" font-family="Arial" font-size="13px" font-style="normal" font-weight="bold" text-decoration="undefined" x="820.5" y="1271" text-anchor="middle" dominant-baseline="central" transform="matrix(1 0 0 1 -246 -22)">Gestión Influencer</text></g></g><g><path fill="none" stroke="#000000" paint-order="fill stroke markers" d=" M 179 417 L 322 138 L 463 140" stroke-miterlimit="10" stroke-dasharray=""/></g><g><path fill="#C0C0C0" stroke="none" paint-order="stroke fill markers" d=" M 471 465 C 471 449.5360256 520.4725296 437 581.5 437 C 642.5274704 437 692 449.5360256 692 465 C 692 480.4639744 642.5274704 493 581.5 493 C 520.4725296 493 471 480.4639744 471 465 Z" fill-opacity="0.2"/></g><g><path fill="#ffffff" stroke="none" paint-order="stroke fill markers" d=" M 464 458 C 464 442.5360256 513.4725296 430 574.5 430 C 635.5274704 430 685 442.5360256 685 458 C 685 473.4639744 635.5274704 486 574.5 486 C 513.4725296 486 464 473.4639744 464 458 Z"/></g><g><path fill="none" stroke="#000000" paint-order="fill stroke markers" d=" M 464 458 C 464 442.5360256 513.4725296 430 574.5 430 C 635.5274704 430 685 442.5360256 685 458 C 685 473.4639744 635.5274704 486 574.5 486 C 513.4725296 486 464 473.4639744 464 458 Z" stroke-miterlimit="10" stroke-dasharray=""/></g><g><g><path fill="none" stroke="none"/><text fill="#000000" stroke="none" font-family="Arial" font-size="13px" font-style="normal" font-weight="bold" text-decoration="undefined" x="820.5" y="481" text-anchor="middle" dominant-baseline="central" transform="matrix(1 0 0 1 -246 -22)">Gestión Recompensas</text></g></g><g><path fill="none" stroke="#000000" paint-order="fill stroke markers" d=" M 195 458 L 314 458 L 463 458" stroke-miterlimit="10" stroke-dasharray=""/></g><g><path fill="none" stroke="#000000" paint-order="fill stroke markers" d=" M 195 486 L 536 745" stroke-miterlimit="10" stroke-dasharray=""/></g><g><path fill="#ffffff" stroke="none" paint-order="stroke fill markers" d=" M 149.22225585937503 427.85 C 149.22225585937503 422.96227952000004 153.180058227375 419 158.062255859375 419 C 162.944453491375 419 166.90225585937497 422.96227952000004 166.90225585937497 427.85 C 166.90225585937497 432.73772048 162.944453491375 436.7 158.062255859375 436.7 C 153.180058227375 436.7 149.22225585937503 432.73772048 149.22225585937503 427.85 Z"/></g><g><path fill="none" stroke="#000000" paint-order="fill stroke markers" d=" M 149.22225585937503 427.85 C 149.22225585937503 422.96227952000004 153.180058227375 419 158.062255859375 419 C 162.944453491375 419 166.90225585937497 422.96227952000004 166.90225585937497 427.85 C 166.90225585937497 432.73772048 162.944453491375 436.7 158.062255859375 436.7 C 153.180058227375 436.7 149.22225585937503 432.73772048 149.22225585937503 427.85 Z" stroke-miterlimit="10" stroke-dasharray=""/></g><g><path fill="none" stroke="#000000" paint-order="fill stroke markers" d=" M 158.062255859375 436.7 L 158.062255859375 454.3" stroke-miterlimit="10" stroke-dasharray=""/></g><g><path fill="none" stroke="#000000" paint-order="fill stroke markers" d=" M 148.702255859375 443.3 L 167.422255859375 443.3" stroke-miterlimit="10" stroke-dasharray=""/></g><g><path fill="none" stroke="#000000" paint-order="fill stroke markers" d=" M 158.062255859375 454.3 L 145.062255859375 472" stroke-miterlimit="10" stroke-dasharray=""/></g><g><path fill="none" stroke="#000000" paint-order="fill stroke markers" d=" M 158.062255859375 454.3 L 171.062255859375 472" stroke-miterlimit="10" stroke-dasharray=""/></g><g><g><path fill="none" stroke="none"/><text fill="#000000" stroke="none" font-family="Arial" font-size="13px" font-style="normal" font-weight="bold" text-decoration="undefined" x="404.562255859375" y="508.5" text-anchor="middle" dominant-baseline="central" transform="matrix(1 0 0 1 -246 -22)">Usuario</text></g></g><g><path fill="#ffffff" stroke="none" paint-order="stroke fill markers" d=" M 149.22225585937503 955.85 C 149.22225585937503 950.96227952 153.180058227375 947 158.062255859375 947 C 162.944453491375 947 166.90225585937497 950.96227952 166.90225585937497 955.85 C 166.90225585937497 960.73772048 162.944453491375 964.7 158.062255859375 964.7 C 153.180058227375 964.7 149.22225585937503 960.73772048 149.22225585937503 955.85 Z"/></g><g><path fill="none" stroke="#000000" paint-order="fill stroke markers" d=" M 149.22225585937503 955.85 C 149.22225585937503 950.96227952 153.180058227375 947 158.062255859375 947 C 162.944453491375 947 166.90225585937497 950.96227952 166.90225585937497 955.85 C 166.90225585937497 960.73772048 162.944453491375 964.7 158.062255859375 964.7 C 153.180058227375 964.7 149.22225585937503 960.73772048 149.22225585937503 955.85 Z" stroke-miterlimit="10" stroke-dasharray=""/></g><g><path fill="none" stroke="#000000" paint-order="fill stroke markers" d=" M 158.062255859375 964.7 L 158.062255859375 982.3" stroke-miterlimit="10" stroke-dasharray=""/></g><g><path fill="none" stroke="#000000" paint-order="fill stroke markers" d=" M 148.702255859375 971.3 L 167.422255859375 971.3" stroke-miterlimit="10" stroke-dasharray=""/></g><g><path fill="none" stroke="#000000" paint-order="fill stroke markers" d=" M 158.062255859375 982.3 L 145.062255859375 1000" stroke-miterlimit="10" stroke-dasharray=""/></g><g><path fill="none" stroke="#000000" paint-order="fill stroke markers" d=" M 158.062255859375 982.3 L 171.062255859375 1000" stroke-miterlimit="10" stroke-dasharray=""/></g><g><g><path fill="none" stroke="none"/><text fill="#000000" stroke="none" font-family="Arial" font-size="13px" font-style="normal" font-weight="bold" text-decoration="undefined" x="404.562255859375" y="1036.5" text-anchor="middle" dominant-baseline="central" transform="matrix(1 0 0 1 -246 -22)">Oyente</text></g></g><g><path fill="#ffffff" stroke="none" paint-order="stroke fill markers" d=" M 149.22225585937503 619.85 C 149.22225585937503 614.96227952 153.180058227375 611 158.062255859375 611 C 162.944453491375 611 166.90225585937497 614.96227952 166.90225585937497 619.85 C 166.90225585937497 624.73772048 162.944453491375 628.7 158.062255859375 628.7 C 153.180058227375 628.7 149.22225585937503 624.73772048 149.22225585937503 619.85 Z"/></g><g><path fill="none" stroke="#000000" paint-order="fill stroke markers" d=" M 149.22225585937503 619.85 C 149.22225585937503 614.96227952 153.180058227375 611 158.062255859375 611 C 162.944453491375 611 166.90225585937497 614.96227952 166.90225585937497 619.85 C 166.90225585937497 624.73772048 162.944453491375 628.7 158.062255859375 628.7 C 153.180058227375 628.7 149.22225585937503 624.73772048 149.22225585937503 619.85 Z" stroke-miterlimit="10" stroke-dasharray=""/></g><g><path fill="none" stroke="#000000" paint-order="fill stroke markers" d=" M 158.062255859375 628.7 L 158.062255859375 646.3" stroke-miterlimit="10" stroke-dasharray=""/></g><g><path fill="none" stroke="#000000" paint-order="fill stroke markers" d=" M 148.702255859375 635.3 L 167.422255859375 635.3" stroke-miterlimit="10" stroke-dasharray=""/></g><g><path fill="none" stroke="#000000" paint-order="fill stroke markers" d=" M 158.062255859375 646.3 L 145.062255859375 664" stroke-miterlimit="10" stroke-dasharray=""/></g><g><path fill="none" stroke="#000000" paint-order="fill stroke markers" d=" M 158.062255859375 646.3 L 171.062255859375 664" stroke-miterlimit="10" stroke-dasharray=""/></g><g><g><path fill="none" stroke="none"/><text fill="#000000" stroke="none" font-family="Arial" font-size="13px" font-style="normal" font-weight="bold" text-decoration="undefined" x="404.562255859375" y="700.5" text-anchor="middle" dominant-baseline="central" transform="matrix(1 0 0 1 -246 -22)">Artista</text></g></g><g><path fill="#ffffff" stroke="none" paint-order="stroke fill markers" d=" M 149.22225585937503 803.85 C 149.22225585937503 798.96227952 153.180058227375 795 158.062255859375 795 C 162.944453491375 795 166.90225585937497 798.96227952 166.90225585937497 803.85 C 166.90225585937497 808.73772048 162.944453491375 812.7 158.062255859375 812.7 C 153.180058227375 812.7 149.22225585937503 808.73772048 149.22225585937503 803.85 Z"/></g><g><path fill="none" stroke="#000000" paint-order="fill stroke markers" d=" M 149.22225585937503 803.85 C 149.22225585937503 798.96227952 153.180058227375 795 158.062255859375 795 C 162.944453491375 795 166.90225585937497 798.96227952 166.90225585937497 803.85 C 166.90225585937497 808.73772048 162.944453491375 812.7 158.062255859375 812.7 C 153.180058227375 812.7 149.22225585937503 808.73772048 149.22225585937503 803.85 Z" stroke-miterlimit="10" stroke-dasharray=""/></g><g><path fill="none" stroke="#000000" paint-order="fill stroke markers" d=" M 158.062255859375 812.7 L 158.062255859375 830.3" stroke-miterlimit="10" stroke-dasharray=""/></g><g><path fill="none" stroke="#000000" paint-order="fill stroke markers" d=" M 148.702255859375 819.3 L 167.422255859375 819.3" stroke-miterlimit="10" stroke-dasharray=""/></g><g><path fill="none" stroke="#000000" paint-order="fill stroke markers" d=" M 158.062255859375 830.3 L 145.062255859375 848" stroke-miterlimit="10" stroke-dasharray=""/></g><g><path fill="none" stroke="#000000" paint-order="fill stroke markers" d=" M 158.062255859375 830.3 L 171.062255859375 848" stroke-miterlimit="10" stroke-dasharray=""/></g><g><g><path fill="none" stroke="none"/><text fill="#000000" stroke="none" font-family="Arial" font-size="13px" font-style="normal" font-weight="bold" text-decoration="undefined" x="404.562255859375" y="884.5" text-anchor="middle" dominant-baseline="central" transform="matrix(1 0 0 1 -246 -22)">Productor</text></g></g><g><path fill="#ffffff" stroke="none" paint-order="stroke fill markers" d=" M 149.22225585937503 1123.85 C 149.22225585937503 1118.9622795199998 153.180058227375 1115 158.062255859375 1115 C 162.944453491375 1115 166.90225585937497 1118.9622795199998 166.90225585937497 1123.85 C 166.90225585937497 1128.73772048 162.944453491375 1132.7 158.062255859375 1132.7 C 153.180058227375 1132.7 149.22225585937503 1128.73772048 149.22225585937503 1123.85 Z"/></g><g><path fill="none" stroke="#000000" paint-order="fill stroke markers" d=" M 149.22225585937503 1123.85 C 149.22225585937503 1118.9622795199998 153.180058227375 1115 158.062255859375 1115 C 162.944453491375 1115 166.90225585937497 1118.9622795199998 166.90225585937497 1123.85 C 166.90225585937497 1128.73772048 162.944453491375 1132.7 158.062255859375 1132.7 C 153.180058227375 1132.7 149.22225585937503 1128.73772048 149.22225585937503 1123.85 Z" stroke-miterlimit="10" stroke-dasharray=""/></g><g><path fill="none" stroke="#000000" paint-order="fill stroke markers" d=" M 158.062255859375 1132.7 L 158.062255859375 1150.3" stroke-miterlimit="10" stroke-dasharray=""/></g><g><path fill="none" stroke="#000000" paint-order="fill stroke markers" d=" M 148.702255859375 1139.3 L 167.422255859375 1139.3" stroke-miterlimit="10" stroke-dasharray=""/></g><g><path fill="none" stroke="#000000" paint-order="fill stroke markers" d=" M 158.062255859375 1150.3 L 145.062255859375 1168" stroke-miterlimit="10" stroke-dasharray=""/></g><g><path fill="none" stroke="#000000" paint-order="fill stroke markers" d=" M 158.062255859375 1150.3 L 171.062255859375 1168" stroke-miterlimit="10" stroke-dasharray=""/></g><g><g><path fill="none" stroke="none"/><text fill="#000000" stroke="none" font-family="Arial" font-size="13px" font-style="normal" font-weight="bold" text-decoration="undefined" x="404.562255859375" y="1204.5" text-anchor="middle" dominant-baseline="central" transform="matrix(1 0 0 1 -246 -22)">Influencer</text></g></g><g><path fill="none" stroke="#000000" paint-order="fill stroke markers" d=" M 121 986 L 10 986 L 10 458 L 121 458" stroke-miterlimit="10" stroke-dasharray=""/></g><g><path fill="#FFFFFF" stroke="none" paint-order="stroke fill markers" d=" M 100.67465028475169 466.419035512032 L 121 458 L 100.67465028475169 449.580964487968"/></g><g><path fill="none" stroke="#000000" paint-order="fill stroke markers" d=" M 100.67465028475169 466.419035512032 L 121 458 L 100.67465028475169 449.580964487968 L 100.67465028475169 466.419035512032" stroke-miterlimit="10" stroke-dasharray=""/></g><g><path fill="none" stroke="#000000" paint-order="fill stroke markers" d=" M 121 834 L 10 834 L 10 458 L 121 458" stroke-miterlimit="10" stroke-dasharray=""/></g><g><path fill="#FFFFFF" stroke="none" paint-order="stroke fill markers" d=" M 100.67465028475169 466.419035512032 L 121 458 L 100.67465028475169 449.580964487968"/></g><g><path fill="none" stroke="#000000" paint-order="fill stroke markers" d=" M 100.67465028475169 466.419035512032 L 121 458 L 100.67465028475169 449.580964487968 L 100.67465028475169 466.419035512032" stroke-miterlimit="10" stroke-dasharray=""/></g><g><path fill="none" stroke="#000000" paint-order="fill stroke markers" d=" M 121 650 L 10 650 L 10 458 L 121 458" stroke-miterlimit="10" stroke-dasharray=""/></g><g><path fill="#FFFFFF" stroke="none" paint-order="stroke fill markers" d=" M 100.67465028475169 466.419035512032 L 121 458 L 100.67465028475169 449.580964487968"/></g><g><path fill="none" stroke="#000000" paint-order="fill stroke markers" d=" M 100.67465028475169 466.419035512032 L 121 458 L 100.67465028475169 449.580964487968 L 100.67465028475169 466.419035512032" stroke-miterlimit="10" stroke-dasharray=""/></g><g><path fill="none" stroke="#000000" paint-order="fill stroke markers" d=" M 158 1113 L 158 1027" stroke-miterlimit="10" stroke-dasharray=""/></g><g><path fill="#FFFFFF" stroke="none" paint-order="stroke fill markers" d=" M 166.419035512032 1047.3253497152482 L 158 1027 L 149.580964487968 1047.3253497152482"/></g><g><path fill="none" stroke="#000000" paint-order="fill stroke markers" d=" M 166.419035512032 1047.3253497152482 L 158 1027 L 149.580964487968 1047.3253497152482 L 166.419035512032 1047.3253497152482" stroke-miterlimit="10" stroke-dasharray=""/></g><g><path fill="none" stroke="#000000" paint-order="fill stroke markers" d=" M 195 420 L 314 298 L 463 299" stroke-miterlimit="10" stroke-dasharray=""/></g><g><path fill="none" stroke="#000000" paint-order="fill stroke markers" d=" M 195 472 L 498 587" stroke-miterlimit="10" stroke-dasharray=""/></g><g><path fill="#ffffff" stroke="none" paint-order="stroke fill markers" d=" M 1106.380458984375 955.85 C 1106.380458984375 950.96227952 1110.338261352375 947 1115.220458984375 947 C 1120.102656616375 947 1124.060458984375 950.96227952 1124.060458984375 955.85 C 1124.060458984375 960.73772048 1120.102656616375 964.7 1115.220458984375 964.7 C 1110.338261352375 964.7 1106.380458984375 960.73772048 1106.380458984375 955.85 Z"/></g><g><path fill="none" stroke="#000000" paint-order="fill stroke markers" d=" M 1106.380458984375 955.85 C 1106.380458984375 950.96227952 1110.338261352375 947 1115.220458984375 947 C 1120.102656616375 947 1124.060458984375 950.96227952 1124.060458984375 955.85 C 1124.060458984375 960.73772048 1120.102656616375 964.7 1115.220458984375 964.7 C 1110.338261352375 964.7 1106.380458984375 960.73772048 1106.380458984375 955.85 Z" stroke-miterlimit="10" stroke-dasharray=""/></g><g><path fill="none" stroke="#000000" paint-order="fill stroke markers" d=" M 1115.220458984375 964.7 L 1115.220458984375 982.3" stroke-miterlimit="10" stroke-dasharray=""/></g><g><path fill="none" stroke="#000000" paint-order="fill stroke markers" d=" M 1105.860458984375 971.3 L 1124.580458984375 971.3" stroke-miterlimit="10" stroke-dasharray=""/></g><g><path fill="none" stroke="#000000" paint-order="fill stroke markers" d=" M 1115.220458984375 982.3 L 1102.220458984375 1000" stroke-miterlimit="10" stroke-dasharray=""/></g><g><path fill="none" stroke="#000000" paint-order="fill stroke markers" d=" M 1115.220458984375 982.3 L 1128.220458984375 1000" stroke-miterlimit="10" stroke-dasharray=""/></g><g><g><path fill="none" stroke="none"/><text fill="#000000" stroke="none" font-family="Arial" font-size="13px" font-style="normal" font-weight="bold" text-decoration="undefined" x="1361.720458984375" y="1036.5" text-anchor="middle" dominant-baseline="central" transform="matrix(1 0 0 1 -246 -22)">Time</text></g></g><g><path fill="none" stroke="#000000" paint-order="fill stroke markers" d=" M 195 1162 L 463 1223" stroke-miterlimit="10" stroke-dasharray=""/></g><g><path fill="none" stroke="#000000" paint-order="fill stroke markers" d=" M 195 857 L 527 1061" stroke-miterlimit="10" stroke-dasharray=""/></g><g><path fill="#ffffff" stroke="none" paint-order="stroke fill markers" d=" M 1106.380458984375 659.85 C 1106.380458984375 654.96227952 1110.338261352375 651 1115.220458984375 651 C 1120.102656616375 651 1124.060458984375 654.96227952 1124.060458984375 659.85 C 1124.060458984375 664.73772048 1120.102656616375 668.7 1115.220458984375 668.7 C 1110.338261352375 668.7 1106.380458984375 664.73772048 1106.380458984375 659.85 Z"/></g><g><path fill="none" stroke="#000000" paint-order="fill stroke markers" d=" M 1106.380458984375 659.85 C 1106.380458984375 654.96227952 1110.338261352375 651 1115.220458984375 651 C 1120.102656616375 651 1124.060458984375 654.96227952 1124.060458984375 659.85 C 1124.060458984375 664.73772048 1120.102656616375 668.7 1115.220458984375 668.7 C 1110.338261352375 668.7 1106.380458984375 664.73772048 1106.380458984375 659.85 Z" stroke-miterlimit="10" stroke-dasharray=""/></g><g><path fill="none" stroke="#000000" paint-order="fill stroke markers" d=" M 1115.220458984375 668.7 L 1115.220458984375 686.3" stroke-miterlimit="10" stroke-dasharray=""/></g><g><path fill="none" stroke="#000000" paint-order="fill stroke markers" d=" M 1105.860458984375 675.3 L 1124.580458984375 675.3" stroke-miterlimit="10" stroke-dasharray=""/></g><g><path fill="none" stroke="#000000" paint-order="fill stroke markers" d=" M 1115.220458984375 686.3 L 1102.220458984375 704" stroke-miterlimit="10" stroke-dasharray=""/></g><g><path fill="none" stroke="#000000" paint-order="fill stroke markers" d=" M 1115.220458984375 686.3 L 1128.220458984375 704" stroke-miterlimit="10" stroke-dasharray=""/></g><g><g><path fill="none" stroke="none"/><text fill="#000000" stroke="none" font-family="Arial" font-size="13px" font-style="normal" font-weight="bold" text-decoration="undefined" x="1361.720458984375" y="740.5" text-anchor="middle" dominant-baseline="central" transform="matrix(1 0 0 1 -246 -22)">Admin</text></g></g><g><path fill="none" stroke="#000000" paint-order="fill stroke markers" d=" M 1094 649 L 834 138 L 686 140" stroke-miterlimit="10" stroke-dasharray=""/></g><g><path fill="none" stroke="#000000" paint-order="fill stroke markers" d=" M 1089 653 L 842 298 L 686 299" stroke-miterlimit="10" stroke-dasharray=""/></g><g><path fill="none" stroke="#000000" paint-order="fill stroke markers" d=" M 1089 683 L 842 618 L 686 617" stroke-miterlimit="10" stroke-dasharray=""/></g><g><path fill="none" stroke="#000000" paint-order="fill stroke markers" d=" M 1089 669 L 834 458 L 686 458" stroke-miterlimit="10" stroke-dasharray=""/></g><g><path fill="none" stroke="#000000" paint-order="fill stroke markers" d=" M 1089 698 L 842 778 L 686 776" stroke-miterlimit="10" stroke-dasharray=""/></g><g><path fill="none" stroke="#000000" paint-order="fill stroke markers" d=" M 1094 731 L 826 1250 L 686 1249" stroke-miterlimit="10" stroke-dasharray=""/></g><g><path fill="none" stroke="#000000" paint-order="fill stroke markers" d=" M 1089 713 L 842 930 L 686 931" stroke-miterlimit="10" stroke-dasharray=""/></g><g><path fill="none" stroke="#000000" paint-order="fill stroke markers" d=" M 1089 726 L 826 1090 L 686 1090" stroke-miterlimit="10" stroke-dasharray=""/></g><g><path fill="none" stroke="#000000" paint-order="fill stroke markers" d=" M 1089 983 L 686 943" stroke-miterlimit="10" stroke-dasharray=""/></g><g><g><path fill="none" stroke="none"/><text fill="#000000" stroke="none" font-family="Helvetica" font-size="28px" font-style="normal" font-weight="normal" text-decoration="undefined" x="693" y="37" text-anchor="start" dominant-baseline="text-before-edge" transform="matrix(1 0 0 1 -246 -22)">Casos de uso - Completo</text></g></g><g><path fill="none" stroke="#000000" paint-order="fill stroke markers" d=" M 195 1148 L 463 1107" stroke-miterlimit="10" stroke-dasharray=""/></g><g><path fill="none" stroke="#000000" paint-order="fill stroke markers" d=" M 195 689 L 547 1061" stroke-miterlimit="10" stroke-dasharray=""/></g><g><path fill="none" stroke="#000000" paint-order="fill stroke markers" d=" M 194 499 L 549 903" stroke-miterlimit="10" stroke-dasharray=""/></g><g><path fill="none" stroke="#000000" paint-order="fill stroke markers" d=" M 1089 991 L 686 1068" stroke-miterlimit="10" stroke-dasharray=""/></g></g></svg>