<svg version="1.1" xmlns="http://www.w3.org/2000/svg" xmlns:xlink="http://www.w3.org/1999/xlink" width="1573.287109375" height="1844"><defs/><g><g><path fill="none" stroke="#000000" paint-order="fill stroke markers" d=" M 82 10 L 1474 10 L 1474 1834 L 82 1834 L 82 10" stroke-miterlimit="10" stroke-dasharray=""/></g><g><path fill="#ffffff" stroke="none" paint-order="stroke fill markers" d=" M 82 10 L 82 33 L 409.4794921875 33 L 420.9794921875 21.5 L 420.9794921875 10 L 82 10"/></g><g><path fill="none" stroke="#000000" paint-order="fill stroke markers" d=" M 82 10 L 82 33 L 409.4794921875 33 L 420.9794921875 21.5 L 420.9794921875 10 L 82 10 L 82 10" stroke-miterlimit="10" stroke-dasharray=""/></g><g><g><path fill="none" stroke="none"/><text fill="#000000" stroke="none" font-family="Arial" font-size="13px" font-style="normal" font-weight="normal" text-decoration="undefined" x="303.41064453125" y="107.5" text-anchor="middle" dominant-baseline="central" transform="matrix(1 0 0 1 -46 -86)">apuntarseAEvento (u: usuario, e: evento) : boolean</text></g></g><g><g><path fill="none" stroke="none"/><text fill="#000000" stroke="none" font-family="Arial" font-size="13px" font-style="normal" font-weight="bold" text-decoration="undefined" x="141.6708984375" y="107.5" text-anchor="middle" dominant-baseline="central" transform="matrix(1 0 0 1 -46 -86)">act</text></g></g><g><path fill="#C0C0C0" stroke="none" paint-order="stroke fill markers" d=" M 753 81 C 753 72.16344319999999 760.1634432 65 769 65 C 777.8365568 65 785 72.16344319999999 785 81 C 785 89.83655680000001 777.8365568 97 769 97 C 760.1634432 97 753 89.83655680000001 753 81 Z" fill-opacity="0.2"/></g><g><path fill="#000000" stroke="none" paint-order="stroke fill markers" d=" M 746 74 C 746 65.16344319999999 753.1634432 58 762 58 C 770.8365568 58 778 65.16344319999999 778 74 C 778 82.83655680000001 770.8365568 90 762 90 C 753.1634432 90 746 82.83655680000001 746 74 Z"/></g><g><path fill="#C0C0C0" stroke="none" paint-order="stroke fill markers" d=" M 667 161 L 871 161 Q 881 161 881 171 L 881 215 Q 881 225 871 225 L 667 225 Q 657 225 657 215 L 657 171 Q 657 161 667 161 Z" fill-opacity="0.2"/></g><g><path fill="#ffffff" stroke="none" paint-order="stroke fill markers" d=" M 660 154 L 864 154 Q 874 154 874 164 L 874 208 Q 874 218 864 218 L 660 218 Q 650 218 650 208 L 650 164 Q 650 154 660 154 Z"/></g><g><path fill="none" stroke="#000000" paint-order="fill stroke markers" d=" M 660 154 L 864 154 Q 874 154 874 164 L 874 208 Q 874 218 864 218 L 660 218 Q 650 218 650 208 L 650 164 Q 650 154 660 154 Z" stroke-miterlimit="10" stroke-dasharray=""/></g><g><g><path fill="none" stroke="none"/><text fill="#000000" stroke="none" font-family="Arial" font-size="13px" font-style="normal" font-weight="bold" text-decoration="undefined" x="808.5" y="253.5" text-anchor="middle" dominant-baseline="central" transform="matrix(1 0 0 1 -46 -86)">ver si está completo.</text></g></g><g><path fill="#C0C0C0" stroke="none" paint-order="stroke fill markers" d=" M 667 513 L 871 513 Q 881 513 881 523 L 881 567 Q 881 577 871 577 L 667 577 Q 657 577 657 567 L 657 523 Q 657 513 667 513 Z" fill-opacity="0.2"/></g><g><path fill="#ffffff" stroke="none" paint-order="stroke fill markers" d=" M 660 506 L 864 506 Q 874 506 874 516 L 874 560 Q 874 570 864 570 L 660 570 Q 650 570 650 560 L 650 516 Q 650 506 660 506 Z"/></g><g><path fill="none" stroke="#000000" paint-order="fill stroke markers" d=" M 660 506 L 864 506 Q 874 506 874 516 L 874 560 Q 874 570 864 570 L 660 570 Q 650 570 650 560 L 650 516 Q 650 506 660 506 Z" stroke-miterlimit="10" stroke-dasharray=""/></g><g><g><path fill="none" stroke="none"/><text fill="#000000" stroke="none" font-family="Arial" font-size="13px" font-style="normal" font-weight="bold" text-decoration="undefined" x="808.5" y="605.5" text-anchor="middle" dominant-baseline="central" transform="matrix(1 0 0 1 -46 -86)">ver si ya está apuntado al evento.</text></g></g><g><path fill="#C0C0C0" stroke="none" paint-order="stroke fill markers" d=" M 667 865 L 871 865 Q 881 865 881 875 L 881 919 Q 881 929 871 929 L 667 929 Q 657 929 657 919 L 657 875 Q 657 865 667 865 Z" fill-opacity="0.2"/></g><g><path fill="#ffffff" stroke="none" paint-order="stroke fill markers" d=" M 660 858 L 864 858 Q 874 858 874 868 L 874 912 Q 874 922 864 922 L 660 922 Q 650 922 650 912 L 650 868 Q 650 858 660 858 Z"/></g><g><path fill="none" stroke="#000000" paint-order="fill stroke markers" d=" M 660 858 L 864 858 Q 874 858 874 868 L 874 912 Q 874 922 864 922 L 660 922 Q 650 922 650 912 L 650 868 Q 650 858 660 858 Z" stroke-miterlimit="10" stroke-dasharray=""/></g><g><g><path fill="none" stroke="none"/><text fill="#000000" stroke="none" font-family="Arial" font-size="13px" font-style="normal" font-weight="bold" text-decoration="undefined" x="808.5" y="957.5" text-anchor="middle" dominant-baseline="central" transform="matrix(1 0 0 1 -46 -86)">ver si ya ha empezado el evento.</text></g></g><g><path fill="none" stroke="#000000" paint-order="fill stroke markers" d=" M 762 90 L 762 154" stroke-miterlimit="10" stroke-dasharray=""/></g><g><path fill="none" stroke="#000000" paint-order="fill stroke markers" d=" M 757.790482243984 143.83732514237585 L 762 154 L 766.209517756016 143.83732514237585" stroke-miterlimit="10" stroke-dasharray=""/></g><g><path fill="#C0C0C0" stroke="none" paint-order="stroke fill markers" d=" M 753 369 L 769 357 L 785 369 L 769 381 L 753 369" fill-opacity="0.2"/></g><g><path fill="#ffffff" stroke="none" paint-order="stroke fill markers" d=" M 746 362 L 762 350 L 778 362 L 762 374 L 746 362"/></g><g><path fill="none" stroke="#000000" paint-order="fill stroke markers" d=" M 746 362 L 762 350 L 778 362 L 762 374 L 746 362 L 746 362" stroke-miterlimit="10" stroke-dasharray=""/></g><g><path fill="#C0C0C0" stroke="none" paint-order="stroke fill markers" d=" M 753 721 L 769 709 L 785 721 L 769 733 L 753 721" fill-opacity="0.2"/></g><g><path fill="#ffffff" stroke="none" paint-order="stroke fill markers" d=" M 746 714 L 762 702 L 778 714 L 762 726 L 746 714"/></g><g><path fill="none" stroke="#000000" paint-order="fill stroke markers" d=" M 746 714 L 762 702 L 778 714 L 762 726 L 746 714 L 746 714" stroke-miterlimit="10" stroke-dasharray=""/></g><g><path fill="#C0C0C0" stroke="none" paint-order="stroke fill markers" d=" M 275 1153 L 479 1153 Q 489 1153 489 1163 L 489 1207 Q 489 1217 479 1217 L 275 1217 Q 265 1217 265 1207 L 265 1163 Q 265 1153 275 1153 Z" fill-opacity="0.2"/></g><g><path fill="#ffffff" stroke="none" paint-order="stroke fill markers" d=" M 268 1146 L 472 1146 Q 482 1146 482 1156 L 482 1200 Q 482 1210 472 1210 L 268 1210 Q 258 1210 258 1200 L 258 1156 Q 258 1146 268 1146 Z"/></g><g><path fill="none" stroke="#000000" paint-order="fill stroke markers" d=" M 268 1146 L 472 1146 Q 482 1146 482 1156 L 482 1200 Q 482 1210 472 1210 L 268 1210 Q 258 1210 258 1200 L 258 1156 Q 258 1146 268 1146 Z" stroke-miterlimit="10" stroke-dasharray=""/></g><g><g><path fill="none" stroke="none"/><text fill="#000000" stroke="none" font-family="Arial" font-size="13px" font-style="normal" font-weight="bold" text-decoration="undefined" x="416.5" y="1245.5" text-anchor="middle" dominant-baseline="central" transform="matrix(1 0 0 1 -46 -86)">añadir usuario a asistentes.</text></g></g><g><path fill="#C0C0C0" stroke="none" paint-order="stroke fill markers" d=" M 275 1325 L 479 1325 Q 489 1325 489 1335 L 489 1379 Q 489 1389 479 1389 L 275 1389 Q 265 1389 265 1379 L 265 1335 Q 265 1325 275 1325 Z" fill-opacity="0.2"/></g><g><path fill="#ffffff" stroke="none" paint-order="stroke fill markers" d=" M 268 1318 L 472 1318 Q 482 1318 482 1328 L 482 1372 Q 482 1382 472 1382 L 268 1382 Q 258 1382 258 1372 L 258 1328 Q 258 1318 268 1318 Z"/></g><g><path fill="none" stroke="#000000" paint-order="fill stroke markers" d=" M 268 1318 L 472 1318 Q 482 1318 482 1328 L 482 1372 Q 482 1382 472 1382 L 268 1382 Q 258 1382 258 1372 L 258 1328 Q 258 1318 268 1318 Z" stroke-miterlimit="10" stroke-dasharray=""/></g><g><g><path fill="none" stroke="none"/><text fill="#000000" stroke="none" font-family="Arial" font-size="13px" font-style="normal" font-weight="bold" text-decoration="undefined" x="416.5" y="1417.5" text-anchor="middle" dominant-baseline="central" transform="matrix(1 0 0 1 -46 -86)">añadir evento a eventos asistidos.</text></g></g><g><path fill="#C0C0C0" stroke="none" paint-order="stroke fill markers" d=" M 275 1489 L 479 1489 Q 489 1489 489 1499 L 489 1543 Q 489 1553 479 1553 L 275 1553 Q 265 1553 265 1543 L 265 1499 Q 265 1489 275 1489 Z" fill-opacity="0.2"/></g><g><path fill="#ffffff" stroke="none" paint-order="stroke fill markers" d=" M 268 1482 L 472 1482 Q 482 1482 482 1492 L 482 1536 Q 482 1546 472 1546 L 268 1546 Q 258 1546 258 1536 L 258 1492 Q 258 1482 268 1482 Z"/></g><g><path fill="none" stroke="#000000" paint-order="fill stroke markers" d=" M 268 1482 L 472 1482 Q 482 1482 482 1492 L 482 1536 Q 482 1546 472 1546 L 268 1546 Q 258 1546 258 1536 L 258 1492 Q 258 1482 268 1482 Z" stroke-miterlimit="10" stroke-dasharray=""/></g><g><g><path fill="none" stroke="none"/><text fill="#000000" stroke="none" font-family="Arial" font-size="13px" font-style="normal" font-weight="bold" text-decoration="undefined" x="416.5" y="1581.5" text-anchor="middle" dominant-baseline="central" transform="matrix(1 0 0 1 -46 -86)">actualizar aforo evento.</text></g></g><g><path fill="#C0C0C0" stroke="none" paint-order="stroke fill markers" d=" M 555 1625 L 759 1625 Q 769 1625 769 1635 L 769 1679 Q 769 1689 759 1689 L 555 1689 Q 545 1689 545 1679 L 545 1635 Q 545 1625 555 1625 Z" fill-opacity="0.2"/></g><g><path fill="#ffffff" stroke="none" paint-order="stroke fill markers" d=" M 548 1618 L 752 1618 Q 762 1618 762 1628 L 762 1672 Q 762 1682 752 1682 L 548 1682 Q 538 1682 538 1672 L 538 1628 Q 538 1618 548 1618 Z"/></g><g><path fill="none" stroke="#000000" paint-order="fill stroke markers" d=" M 548 1618 L 752 1618 Q 762 1618 762 1628 L 762 1672 Q 762 1682 752 1682 L 548 1682 Q 538 1682 538 1672 L 538 1628 Q 538 1618 548 1618 Z" stroke-miterlimit="10" stroke-dasharray=""/></g><g><g><path fill="none" stroke="none"/><text fill="#000000" stroke="none" font-family="Arial" font-size="13px" font-style="normal" font-weight="bold" text-decoration="undefined" x="696.5" y="1717.5" text-anchor="middle" dominant-baseline="central" transform="matrix(1 0 0 1 -46 -86)">escribir verdadero.</text></g></g><g><path fill="#C0C0C0" stroke="none" paint-order="stroke fill markers" d=" M 963 1625 L 1167 1625 Q 1177 1625 1177 1635 L 1177 1679 Q 1177 1689 1167 1689 L 963 1689 Q 953 1689 953 1679 L 953 1635 Q 953 1625 963 1625 Z" fill-opacity="0.2"/></g><g><path fill="#ffffff" stroke="none" paint-order="stroke fill markers" d=" M 956 1618 L 1160 1618 Q 1170 1618 1170 1628 L 1170 1672 Q 1170 1682 1160 1682 L 956 1682 Q 946 1682 946 1672 L 946 1628 Q 946 1618 956 1618 Z"/></g><g><path fill="none" stroke="#000000" paint-order="fill stroke markers" d=" M 956 1618 L 1160 1618 Q 1170 1618 1170 1628 L 1170 1672 Q 1170 1682 1160 1682 L 956 1682 Q 946 1682 946 1672 L 946 1628 Q 946 1618 956 1618 Z" stroke-miterlimit="10" stroke-dasharray=""/></g><g><g><path fill="none" stroke="none"/><text fill="#000000" stroke="none" font-family="Arial" font-size="13px" font-style="normal" font-weight="bold" text-decoration="undefined" x="1104.5" y="1717.5" text-anchor="middle" dominant-baseline="central" transform="matrix(1 0 0 1 -46 -86)">escribir falso.</text></g></g><g><path fill="#C0C0C0" stroke="none" paint-order="stroke fill markers" d=" M 841 1654 C 841 1646.8202976 846.8202976 1641 854 1641 C 861.1797024 1641 867 1646.8202976 867 1654 C 867 1661.1797024 861.1797024 1667 854 1667 C 846.8202976 1667 841 1661.1797024 841 1654 Z" fill-opacity="0.2"/></g><g><path fill="none" stroke="#000000" paint-order="fill stroke markers" d=" M 834 1647 C 834 1639.8202976 839.8202976 1634 847 1634 C 854.1797024 1634 860 1639.8202976 860 1647 C 860 1654.1797024 854.1797024 1660 847 1660 C 839.8202976 1660 834 1654.1797024 834 1647 Z" stroke-miterlimit="10" stroke-dasharray=""/></g><g><path fill="#000000" stroke="none" paint-order="stroke fill markers" d=" M 839 1647 C 839 1642.5817216 842.5817216 1639 847 1639 C 851.4182784 1639 855 1642.5817216 855 1647 C 855 1651.4182784 851.4182784 1655 847 1655 C 842.5817216 1655 839 1651.4182784 839 1647 Z"/></g><g><rect fill="#ffffff" stroke="none" x="288" y="1424" width="18" height="18" transform="matrix(1 0 0 1 -46 -86)"/></g><g><path fill="none" stroke="#000000" paint-order="fill stroke markers" d=" M 242 1338 L 260 1338 L 260 1356 L 242 1356 L 242 1338 Z Z" stroke-miterlimit="10" stroke-dasharray=""/></g><g><path fill="none" stroke="#000000" paint-order="fill stroke markers" d=" M 244 1347 L 258 1347" stroke-miterlimit="10" stroke-dasharray=""/></g><g><path fill="none" stroke="#000000" paint-order="fill stroke markers" d=" M 258 1347 L 255 1344" stroke-miterlimit="10" stroke-dasharray=""/></g><g><path fill="none" stroke="#000000" paint-order="fill stroke markers" d=" M 258 1347 L 255 1350" stroke-miterlimit="10" stroke-dasharray=""/></g><g><rect fill="#ffffff" stroke="none" x="287.385009765625" y="1406.5" width="7.22998046875" height="13" transform="matrix(1 0 0 1 -46 -86)"/></g><g><g><path fill="none" stroke="none"/><text fill="#000000" stroke="none" font-family="Arial" font-size="13px" font-style="normal" font-weight="normal" text-decoration="undefined" x="291" y="1413" text-anchor="middle" dominant-baseline="central" transform="matrix(1 0 0 1 -46 -86)">u</text></g></g><g><rect fill="#C0C0C0" stroke="none" x="63" y="263" width="160.287109375" height="25" transform="matrix(1 0 0 1 -46 -86)" fill-opacity="0.2"/></g><g><rect fill="#ffffff" stroke="none" x="56" y="256" width="160.287109375" height="25" transform="matrix(1 0 0 1 -46 -86)"/></g><g><path fill="none" stroke="#000000" paint-order="fill stroke markers" d=" M 10 170 L 170.287109375 170 L 170.287109375 195 L 10 195 L 10 170 Z Z" stroke-miterlimit="10" stroke-dasharray=""/></g><g><rect fill="#ffffff" stroke="none" x="56" y="256" width="160.287109375" height="25" transform="matrix(1 0 0 1 -46 -86)"/></g><g><path fill="none" stroke="#000000" paint-order="fill stroke markers" d=" M 10 170 L 170.287109375 170 L 170.287109375 195 L 10 195 L 10 170 Z Z" stroke-miterlimit="10" stroke-dasharray=""/></g><g><g><path fill="none" stroke="none"/><text fill="#000000" stroke="none" font-family="Arial" font-size="13px" font-style="normal" font-weight="bold" text-decoration="undefined" x="136.6435546875" y="269.5" text-anchor="middle" dominant-baseline="central" transform="matrix(1 0 0 1 -46 -86)">in u: Usuario</text></g></g><g><rect fill="#C0C0C0" stroke="none" x="1455" y="1871" width="160.287109375" height="25" transform="matrix(1 0 0 1 -46 -86)" fill-opacity="0.2"/></g><g><rect fill="#ffffff" stroke="none" x="1448" y="1864" width="160.287109375" height="25" transform="matrix(1 0 0 1 -46 -86)"/></g><g><path fill="none" stroke="#000000" paint-order="fill stroke markers" d=" M 1402 1778 L 1562.287109375 1778 L 1562.287109375 1803 L 1402 1803 L 1402 1778 Z Z" stroke-miterlimit="10" stroke-dasharray=""/></g><g><rect fill="#ffffff" stroke="none" x="1448" y="1864" width="160.287109375" height="25" transform="matrix(1 0 0 1 -46 -86)"/></g><g><path fill="none" stroke="#000000" paint-order="fill stroke markers" d=" M 1402 1778 L 1562.287109375 1778 L 1562.287109375 1803 L 1402 1803 L 1402 1778 Z Z" stroke-miterlimit="10" stroke-dasharray=""/></g><g><g><path fill="none" stroke="none"/><text fill="#000000" stroke="none" font-family="Arial" font-size="13px" font-style="normal" font-weight="bold" text-decoration="undefined" x="1528.6435546875" y="1877.5" text-anchor="middle" dominant-baseline="central" transform="matrix(1 0 0 1 -46 -86)">resultado: boolean</text></g></g><g><rect fill="#C0C0C0" stroke="none" x="1447" y="615" width="160.287109375" height="25" transform="matrix(1 0 0 1 -46 -86)" fill-opacity="0.2"/></g><g><rect fill="#ffffff" stroke="none" x="1440" y="608" width="160.287109375" height="25" transform="matrix(1 0 0 1 -46 -86)"/></g><g><path fill="none" stroke="#000000" paint-order="fill stroke markers" d=" M 1394 522 L 1554.287109375 522 L 1554.287109375 547 L 1394 547 L 1394 522 Z Z" stroke-miterlimit="10" stroke-dasharray=""/></g><g><rect fill="#ffffff" stroke="none" x="1440" y="608" width="160.287109375" height="25" transform="matrix(1 0 0 1 -46 -86)"/></g><g><path fill="none" stroke="#000000" paint-order="fill stroke markers" d=" M 1394 522 L 1554.287109375 522 L 1554.287109375 547 L 1394 547 L 1394 522 Z Z" stroke-miterlimit="10" stroke-dasharray=""/></g><g><g><path fill="none" stroke="none"/><text fill="#000000" stroke="none" font-family="Arial" font-size="13px" font-style="normal" font-weight="bold" text-decoration="undefined" x="1520.6435546875" y="621.5" text-anchor="middle" dominant-baseline="central" transform="matrix(1 0 0 1 -46 -86)">in e: Evento</text></g></g><g><path fill="none" stroke="#000000" paint-order="fill stroke markers" d=" M 762 218 L 762 350" stroke-miterlimit="10" stroke-dasharray=""/></g><g><path fill="none" stroke="#000000" paint-order="fill stroke markers" d=" M 757.790482243984 339.83732514237585 L 762 350 L 766.209517756016 339.83732514237585" stroke-miterlimit="10" stroke-dasharray=""/></g><g><path fill="none" stroke="#000000" paint-order="fill stroke markers" d=" M 762 374 L 762 506" stroke-miterlimit="10" stroke-dasharray=""/></g><g><path fill="none" stroke="#000000" paint-order="fill stroke markers" d=" M 757.790482243984 495.8373251423759 L 762 506 L 766.209517756016 495.8373251423759" stroke-miterlimit="10" stroke-dasharray=""/></g><g><rect fill="#ffffff" stroke="none" x="815" y="520" width="38.29541015625" height="13" transform="matrix(1 0 0 1 -46 -86)"/></g><g><g><path fill="none" stroke="none"/><text fill="#000000" stroke="none" font-family="Arial" font-size="13px" font-style="normal" font-weight="normal" text-decoration="undefined" x="834.147705078125" y="526.5" text-anchor="middle" dominant-baseline="central" transform="matrix(1 0 0 1 -46 -86)"> [false]</text></g></g><g><path fill="none" stroke="#000000" paint-order="fill stroke markers" d=" M 762 570 L 762 702" stroke-miterlimit="10" stroke-dasharray=""/></g><g><path fill="none" stroke="#000000" paint-order="fill stroke markers" d=" M 757.790482243984 691.8373251423759 L 762 702 L 766.209517756016 691.8373251423759" stroke-miterlimit="10" stroke-dasharray=""/></g><g><path fill="none" stroke="#000000" paint-order="fill stroke markers" d=" M 762 726 L 762 858" stroke-miterlimit="10" stroke-dasharray=""/></g><g><path fill="none" stroke="#000000" paint-order="fill stroke markers" d=" M 757.790482243984 847.8373251423759 L 762 858 L 766.209517756016 847.8373251423759" stroke-miterlimit="10" stroke-dasharray=""/></g><g><rect fill="#ffffff" stroke="none" x="815" y="872" width="38.29541015625" height="13" transform="matrix(1 0 0 1 -46 -86)"/></g><g><g><path fill="none" stroke="none"/><text fill="#000000" stroke="none" font-family="Arial" font-size="13px" font-style="normal" font-weight="normal" text-decoration="undefined" x="834.147705078125" y="878.5" text-anchor="middle" dominant-baseline="central" transform="matrix(1 0 0 1 -46 -86)"> [false]</text></g></g><g><rect fill="#ffffff" stroke="none" x="800" y="304" width="18" height="18" transform="matrix(1 0 0 1 -46 -86)"/></g><g><path fill="none" stroke="#000000" paint-order="fill stroke markers" d=" M 754 218 L 772 218 L 772 236 L 754 236 L 754 218 Z Z" stroke-miterlimit="10" stroke-dasharray=""/></g><g><path fill="none" stroke="#000000" paint-order="fill stroke markers" d=" M 763 234 L 763 220" stroke-miterlimit="10" stroke-dasharray=""/></g><g><path fill="none" stroke="#000000" paint-order="fill stroke markers" d=" M 763 234 L 760 231" stroke-miterlimit="10" stroke-dasharray=""/></g><g><path fill="none" stroke="#000000" paint-order="fill stroke markers" d=" M 763 234 L 766 231" stroke-miterlimit="10" stroke-dasharray=""/></g><g><rect fill="#ffffff" stroke="none" x="823.477783203125" y="310.5" width="65.04443359375" height="13" transform="matrix(1 0 0 1 -46 -86)"/></g><g><g><path fill="none" stroke="none"/><text fill="#000000" stroke="none" font-family="Arial" font-size="13px" font-style="normal" font-weight="normal" text-decoration="undefined" x="856" y="317" text-anchor="middle" dominant-baseline="central" transform="matrix(1 0 0 1 -46 -86)">resultado</text></g></g><g><rect fill="#ffffff" stroke="none" x="800" y="656" width="18" height="18" transform="matrix(1 0 0 1 -46 -86)"/></g><g><path fill="none" stroke="#000000" paint-order="fill stroke markers" d=" M 754 570 L 772 570 L 772 588 L 754 588 L 754 570 Z Z" stroke-miterlimit="10" stroke-dasharray=""/></g><g><path fill="none" stroke="#000000" paint-order="fill stroke markers" d=" M 763 586 L 763 572" stroke-miterlimit="10" stroke-dasharray=""/></g><g><path fill="none" stroke="#000000" paint-order="fill stroke markers" d=" M 763 586 L 760 583" stroke-miterlimit="10" stroke-dasharray=""/></g><g><path fill="none" stroke="#000000" paint-order="fill stroke markers" d=" M 763 586 L 766 583" stroke-miterlimit="10" stroke-dasharray=""/></g><g><rect fill="#ffffff" stroke="none" x="823.477783203125" y="662.5" width="65.04443359375" height="13" transform="matrix(1 0 0 1 -46 -86)"/></g><g><g><path fill="none" stroke="none"/><text fill="#000000" stroke="none" font-family="Arial" font-size="13px" font-style="normal" font-weight="normal" text-decoration="undefined" x="856" y="669" text-anchor="middle" dominant-baseline="central" transform="matrix(1 0 0 1 -46 -86)">resultado</text></g></g><g><rect fill="#ffffff" stroke="none" x="800" y="1008" width="18" height="18" transform="matrix(1 0 0 1 -46 -86)"/></g><g><path fill="none" stroke="#000000" paint-order="fill stroke markers" d=" M 754 922 L 772 922 L 772 940 L 754 940 L 754 922 Z Z" stroke-miterlimit="10" stroke-dasharray=""/></g><g><path fill="none" stroke="#000000" paint-order="fill stroke markers" d=" M 763 938 L 763 924" stroke-miterlimit="10" stroke-dasharray=""/></g><g><path fill="none" stroke="#000000" paint-order="fill stroke markers" d=" M 763 938 L 760 935" stroke-miterlimit="10" stroke-dasharray=""/></g><g><path fill="none" stroke="#000000" paint-order="fill stroke markers" d=" M 763 938 L 766 935" stroke-miterlimit="10" stroke-dasharray=""/></g><g><rect fill="#ffffff" stroke="none" x="823.477783203125" y="1014.5" width="65.04443359375" height="13" transform="matrix(1 0 0 1 -46 -86)"/></g><g><g><path fill="none" stroke="none"/><text fill="#000000" stroke="none" font-family="Arial" font-size="13px" font-style="normal" font-weight="normal" text-decoration="undefined" x="856" y="1021" text-anchor="middle" dominant-baseline="central" transform="matrix(1 0 0 1 -46 -86)">resultado</text></g></g><g><path fill="#C0C0C0" stroke="none" paint-order="stroke fill markers" d=" M 753 1069 L 769 1057 L 785 1069 L 769 1081 L 753 1069" fill-opacity="0.2"/></g><g><path fill="#ffffff" stroke="none" paint-order="stroke fill markers" d=" M 746 1062 L 762 1050 L 778 1062 L 762 1074 L 746 1062"/></g><g><path fill="none" stroke="#000000" paint-order="fill stroke markers" d=" M 746 1062 L 762 1050 L 778 1062 L 762 1074 L 746 1062 L 746 1062" stroke-miterlimit="10" stroke-dasharray=""/></g><g><path fill="none" stroke="#000000" paint-order="fill stroke markers" d=" M 762 922 L 762 1050" stroke-miterlimit="10" stroke-dasharray=""/></g><g><path fill="none" stroke="#000000" paint-order="fill stroke markers" d=" M 757.790482243984 1039.837325142376 L 762 1050 L 766.209517756016 1039.837325142376" stroke-miterlimit="10" stroke-dasharray=""/></g><g><path fill="#C0C0C0" stroke="none" paint-order="stroke fill markers" d=" M 1244 465 L 1244 465 Q 1247 465 1247 468 L 1247 734 Q 1247 737 1244 737 L 1244 737 Q 1241 737 1241 734 L 1241 468 Q 1241 465 1244 465 Z" fill-opacity="0.2"/></g><g><path fill="#000000" stroke="none" paint-order="stroke fill markers" d=" M 1237 458 L 1237 458 Q 1240 458 1240 461 L 1240 727 Q 1240 730 1237 730 L 1237 730 Q 1234 730 1234 727 L 1234 461 Q 1234 458 1237 458 Z"/></g><g><path fill="none" stroke="#000000" paint-order="fill stroke markers" d=" M 1394 538 L 1240 538" stroke-miterlimit="10" stroke-dasharray=""/></g><g><path fill="none" stroke="#000000" paint-order="fill stroke markers" d=" M 1250.162674857624 533.790482243984 L 1240 538 L 1250.162674857624 542.209517756016" stroke-miterlimit="10" stroke-dasharray=""/></g><g><path fill="#C0C0C0" stroke="none" paint-order="stroke fill markers" d=" M 332 369 L 502 369 Q 505 369 505 372 L 505 372 Q 505 375 502 375 L 332 375 Q 329 375 329 372 L 329 372 Q 329 369 332 369 Z" fill-opacity="0.2"/></g><g><path fill="#000000" stroke="none" paint-order="stroke fill markers" d=" M 325 362 L 495 362 Q 498 362 498 365 L 498 365 Q 498 368 495 368 L 325 368 Q 322 368 322 365 L 322 365 Q 322 362 325 362 Z"/></g><g><path fill="none" stroke="#000000" paint-order="fill stroke markers" d=" M 170 186 L 402 186 L 402 186 A 8 8 0 0 1 410 194 L 410 362" stroke-miterlimit="10" stroke-dasharray=""/></g><g><path fill="none" stroke="#000000" paint-order="fill stroke markers" d=" M 405.790482243984 351.83732514237585 L 410 362 L 414.209517756016 351.83732514237585" stroke-miterlimit="10" stroke-dasharray=""/></g><g><rect fill="#ffffff" stroke="none" x="680" y="616" width="18" height="18" transform="matrix(1 0 0 1 -46 -86)"/></g><g><path fill="none" stroke="#000000" paint-order="fill stroke markers" d=" M 634 530 L 652 530 L 652 548 L 634 548 L 634 530 Z Z" stroke-miterlimit="10" stroke-dasharray=""/></g><g><path fill="none" stroke="#000000" paint-order="fill stroke markers" d=" M 636 539 L 650 539" stroke-miterlimit="10" stroke-dasharray=""/></g><g><path fill="none" stroke="#000000" paint-order="fill stroke markers" d=" M 650 539 L 647 536" stroke-miterlimit="10" stroke-dasharray=""/></g><g><path fill="none" stroke="#000000" paint-order="fill stroke markers" d=" M 650 539 L 647 542" stroke-miterlimit="10" stroke-dasharray=""/></g><g><rect fill="#ffffff" stroke="none" x="679.385009765625" y="598.5" width="7.22998046875" height="13" transform="matrix(1 0 0 1 -46 -86)"/></g><g><g><path fill="none" stroke="none"/><text fill="#000000" stroke="none" font-family="Arial" font-size="13px" font-style="normal" font-weight="normal" text-decoration="undefined" x="683" y="605" text-anchor="middle" dominant-baseline="central" transform="matrix(1 0 0 1 -46 -86)">u</text></g></g><g><rect fill="#ffffff" stroke="none" x="920" y="616" width="18" height="18" transform="matrix(1 0 0 1 -46 -86)"/></g><g><path fill="none" stroke="#000000" paint-order="fill stroke markers" d=" M 874 530 L 892 530 L 892 548 L 874 548 L 874 530 Z Z" stroke-miterlimit="10" stroke-dasharray=""/></g><g><path fill="none" stroke="#000000" paint-order="fill stroke markers" d=" M 876 539 L 890 539" stroke-miterlimit="10" stroke-dasharray=""/></g><g><path fill="none" stroke="#000000" paint-order="fill stroke markers" d=" M 876 539 L 879 536" stroke-miterlimit="10" stroke-dasharray=""/></g><g><path fill="none" stroke="#000000" paint-order="fill stroke markers" d=" M 876 539 L 879 542" stroke-miterlimit="10" stroke-dasharray=""/></g><g><rect fill="#ffffff" stroke="none" x="927.385009765625" y="599.5" width="7.22998046875" height="13" transform="matrix(1 0 0 1 -46 -86)"/></g><g><g><path fill="none" stroke="none"/><text fill="#000000" stroke="none" font-family="Arial" font-size="13px" font-style="normal" font-weight="normal" text-decoration="undefined" x="931" y="606" text-anchor="middle" dominant-baseline="central" transform="matrix(1 0 0 1 -46 -86)">e</text></g></g><g><rect fill="#ffffff" stroke="none" x="920" y="263" width="18" height="18" transform="matrix(1 0 0 1 -46 -86)"/></g><g><path fill="none" stroke="#000000" paint-order="fill stroke markers" d=" M 874 177 L 892 177 L 892 195 L 874 195 L 874 177 Z Z" stroke-miterlimit="10" stroke-dasharray=""/></g><g><path fill="none" stroke="#000000" paint-order="fill stroke markers" d=" M 876 186 L 890 186" stroke-miterlimit="10" stroke-dasharray=""/></g><g><path fill="none" stroke="#000000" paint-order="fill stroke markers" d=" M 876 186 L 879 183" stroke-miterlimit="10" stroke-dasharray=""/></g><g><path fill="none" stroke="#000000" paint-order="fill stroke markers" d=" M 876 186 L 879 189" stroke-miterlimit="10" stroke-dasharray=""/></g><g><rect fill="#ffffff" stroke="none" x="927.385009765625" y="247.5" width="7.22998046875" height="13" transform="matrix(1 0 0 1 -46 -86)"/></g><g><g><path fill="none" stroke="none"/><text fill="#000000" stroke="none" font-family="Arial" font-size="13px" font-style="normal" font-weight="normal" text-decoration="undefined" x="931" y="254" text-anchor="middle" dominant-baseline="central" transform="matrix(1 0 0 1 -46 -86)">e</text></g></g><g><rect fill="#ffffff" stroke="none" x="920" y="968" width="18" height="18" transform="matrix(1 0 0 1 -46 -86)"/></g><g><path fill="none" stroke="#000000" paint-order="fill stroke markers" d=" M 874 882 L 892 882 L 892 900 L 874 900 L 874 882 Z Z" stroke-miterlimit="10" stroke-dasharray=""/></g><g><path fill="none" stroke="#000000" paint-order="fill stroke markers" d=" M 876 891 L 890 891" stroke-miterlimit="10" stroke-dasharray=""/></g><g><path fill="none" stroke="#000000" paint-order="fill stroke markers" d=" M 876 891 L 879 888" stroke-miterlimit="10" stroke-dasharray=""/></g><g><path fill="none" stroke="#000000" paint-order="fill stroke markers" d=" M 876 891 L 879 894" stroke-miterlimit="10" stroke-dasharray=""/></g><g><rect fill="#ffffff" stroke="none" x="927.385009765625" y="951.5" width="7.22998046875" height="13" transform="matrix(1 0 0 1 -46 -86)"/></g><g><g><path fill="none" stroke="none"/><text fill="#000000" stroke="none" font-family="Arial" font-size="13px" font-style="normal" font-weight="normal" text-decoration="undefined" x="931" y="958" text-anchor="middle" dominant-baseline="central" transform="matrix(1 0 0 1 -46 -86)">e</text></g></g><g><path fill="none" stroke="#000000" paint-order="fill stroke markers" d=" M 1234 498 L 1122 498 L 1122 498 A 8 8 0 0 1 1114 490 L 1114 194 L 1114 194 A 8 8 0 0 0 1106 186 L 892 186" stroke-miterlimit="10" stroke-dasharray=""/></g><g><path fill="none" stroke="#000000" paint-order="fill stroke markers" d=" M 902.1626748576241 181.790482243984 L 892 186 L 902.1626748576241 190.209517756016" stroke-miterlimit="10" stroke-dasharray=""/></g><g><path fill="none" stroke="#000000" paint-order="fill stroke markers" d=" M 1234 539 L 892 539" stroke-miterlimit="10" stroke-dasharray=""/></g><g><path fill="none" stroke="#000000" paint-order="fill stroke markers" d=" M 902.1626748576241 534.790482243984 L 892 539 L 902.1626748576241 543.209517756016" stroke-miterlimit="10" stroke-dasharray=""/></g><g><path fill="none" stroke="#000000" paint-order="fill stroke markers" d=" M 1234 578 L 1122 578 L 1122 578 A 8 8 0 0 0 1114 586 L 1114 882 L 1114 882 A 8 8 0 0 1 1106 890 L 892 890" stroke-miterlimit="10" stroke-dasharray=""/></g><g><path fill="none" stroke="#000000" paint-order="fill stroke markers" d=" M 902.1626748576241 885.790482243984 L 892 890 L 902.1626748576241 894.209517756016" stroke-miterlimit="10" stroke-dasharray=""/></g><g><path fill="none" stroke="#000000" paint-order="fill stroke markers" d=" M 458 368 L 458 531 L 458 531 A 8 8 0 0 0 466 539 L 634 539" stroke-miterlimit="10" stroke-dasharray=""/></g><g><path fill="none" stroke="#000000" paint-order="fill stroke markers" d=" M 623.8373251423759 543.209517756016 L 634 539 L 623.8373251423758 534.790482243984" stroke-miterlimit="10" stroke-dasharray=""/></g><g><path fill="#C0C0C0" stroke="none" paint-order="stroke fill markers" d=" M 1041 1205 L 1065 1185 L 1089 1205 L 1065 1225 L 1041 1205" fill-opacity="0.2"/></g><g><path fill="#ffffff" stroke="none" paint-order="stroke fill markers" d=" M 1034 1198 L 1058 1178 L 1082 1198 L 1058 1218 L 1034 1198"/></g><g><path fill="none" stroke="#000000" paint-order="fill stroke markers" d=" M 1034 1198 L 1058 1178 L 1082 1198 L 1058 1218 L 1034 1198 L 1034 1198" stroke-miterlimit="10" stroke-dasharray=""/></g><g><path fill="none" stroke="#000000" paint-order="fill stroke markers" d=" M 778 714 L 994 714 L 994 714 A 8 8 0 0 1 1002 722 L 1002 1178 L 1002 1178 A 8 8 0 0 0 1010 1186 L 1034 1186" stroke-miterlimit="10" stroke-dasharray=""/></g><g><path fill="none" stroke="#000000" paint-order="fill stroke markers" d=" M 1023.8373251423759 1190.2095177560159 L 1034 1186 L 1023.8373251423759 1181.7904822439841" stroke-miterlimit="10" stroke-dasharray=""/></g><g><rect fill="#ffffff" stroke="none" x="896" y="783" width="33.236328125" height="13" transform="matrix(1 0 0 1 -46 -86)"/></g><g><g><path fill="none" stroke="none"/><text fill="#000000" stroke="none" font-family="Arial" font-size="13px" font-style="normal" font-weight="normal" text-decoration="undefined" x="912.6181640625" y="789.5" text-anchor="middle" dominant-baseline="central" transform="matrix(1 0 0 1 -46 -86)"> [true]</text></g></g><g><path fill="none" stroke="#000000" paint-order="fill stroke markers" d=" M 778 1066 L 946 1066 L 946 1066 A 8 8 0 0 1 954 1074 L 954 1202 L 954 1202 A 8 8 0 0 0 962 1210 L 1034 1210" stroke-miterlimit="10" stroke-dasharray=""/></g><g><path fill="none" stroke="#000000" paint-order="fill stroke markers" d=" M 1023.8373251423759 1214.2095177560159 L 1034 1210 L 1023.8373251423759 1205.7904822439841" stroke-miterlimit="10" stroke-dasharray=""/></g><g><rect fill="#ffffff" stroke="none" x="896" y="1133" width="33.236328125" height="13" transform="matrix(1 0 0 1 -46 -86)"/></g><g><g><path fill="none" stroke="none"/><text fill="#000000" stroke="none" font-family="Arial" font-size="13px" font-style="normal" font-weight="normal" text-decoration="undefined" x="912.6181640625" y="1139.5" text-anchor="middle" dominant-baseline="central" transform="matrix(1 0 0 1 -46 -86)"> [true]</text></g></g><g><path fill="none" stroke="#000000" paint-order="fill stroke markers" d=" M 778 362 L 1050 362 L 1050 362 A 8 8 0 0 1 1058 370 L 1058 1178" stroke-miterlimit="10" stroke-dasharray=""/></g><g><path fill="none" stroke="#000000" paint-order="fill stroke markers" d=" M 1053.7904822439841 1167.837325142376 L 1058 1178 L 1062.2095177560159 1167.837325142376" stroke-miterlimit="10" stroke-dasharray=""/></g><g><rect fill="#ffffff" stroke="none" x="912" y="431" width="33.236328125" height="13" transform="matrix(1 0 0 1 -46 -86)"/></g><g><g><path fill="none" stroke="none"/><text fill="#000000" stroke="none" font-family="Arial" font-size="13px" font-style="normal" font-weight="normal" text-decoration="undefined" x="928.6181640625" y="437.5" text-anchor="middle" dominant-baseline="central" transform="matrix(1 0 0 1 -46 -86)"> [true]</text></g></g><g><path fill="none" stroke="#000000" paint-order="fill stroke markers" d=" M 746 1066 L 378 1066 L 378 1066 A 8 8 0 0 0 370 1074 L 370 1146" stroke-miterlimit="10" stroke-dasharray=""/></g><g><path fill="none" stroke="#000000" paint-order="fill stroke markers" d=" M 365.790482243984 1135.837325142376 L 370 1146 L 374.209517756016 1135.837325142376" stroke-miterlimit="10" stroke-dasharray=""/></g><g><rect fill="#ffffff" stroke="none" x="680" y="1136" width="38.29541015625" height="13" transform="matrix(1 0 0 1 -46 -86)"/></g><g><g><path fill="none" stroke="none"/><text fill="#000000" stroke="none" font-family="Arial" font-size="13px" font-style="normal" font-weight="normal" text-decoration="undefined" x="699.147705078125" y="1142.5" text-anchor="middle" dominant-baseline="central" transform="matrix(1 0 0 1 -46 -86)"> [false]</text></g></g><g><rect fill="#ffffff" stroke="none" x="288" y="1256" width="18" height="18" transform="matrix(1 0 0 1 -46 -86)"/></g><g><path fill="none" stroke="#000000" paint-order="fill stroke markers" d=" M 242 1170 L 260 1170 L 260 1188 L 242 1188 L 242 1170 Z Z" stroke-miterlimit="10" stroke-dasharray=""/></g><g><path fill="none" stroke="#000000" paint-order="fill stroke markers" d=" M 244 1179 L 258 1179" stroke-miterlimit="10" stroke-dasharray=""/></g><g><path fill="none" stroke="#000000" paint-order="fill stroke markers" d=" M 258 1179 L 255 1176" stroke-miterlimit="10" stroke-dasharray=""/></g><g><path fill="none" stroke="#000000" paint-order="fill stroke markers" d=" M 258 1179 L 255 1182" stroke-miterlimit="10" stroke-dasharray=""/></g><g><rect fill="#ffffff" stroke="none" x="287.385009765625" y="1238.5" width="7.22998046875" height="13" transform="matrix(1 0 0 1 -46 -86)"/></g><g><g><path fill="none" stroke="none"/><text fill="#000000" stroke="none" font-family="Arial" font-size="13px" font-style="normal" font-weight="normal" text-decoration="undefined" x="291" y="1245" text-anchor="middle" dominant-baseline="central" transform="matrix(1 0 0 1 -46 -86)">u</text></g></g><g><rect fill="#ffffff" stroke="none" x="528" y="1256" width="18" height="18" transform="matrix(1 0 0 1 -46 -86)"/></g><g><path fill="none" stroke="#000000" paint-order="fill stroke markers" d=" M 482 1170 L 500 1170 L 500 1188 L 482 1188 L 482 1170 Z Z" stroke-miterlimit="10" stroke-dasharray=""/></g><g><path fill="none" stroke="#000000" paint-order="fill stroke markers" d=" M 484 1179 L 498 1179" stroke-miterlimit="10" stroke-dasharray=""/></g><g><path fill="none" stroke="#000000" paint-order="fill stroke markers" d=" M 484 1179 L 487 1176" stroke-miterlimit="10" stroke-dasharray=""/></g><g><path fill="none" stroke="#000000" paint-order="fill stroke markers" d=" M 484 1179 L 487 1182" stroke-miterlimit="10" stroke-dasharray=""/></g><g><rect fill="#ffffff" stroke="none" x="535.385009765625" y="1238.5" width="7.22998046875" height="13" transform="matrix(1 0 0 1 -46 -86)"/></g><g><g><path fill="none" stroke="none"/><text fill="#000000" stroke="none" font-family="Arial" font-size="13px" font-style="normal" font-weight="normal" text-decoration="undefined" x="539" y="1245" text-anchor="middle" dominant-baseline="central" transform="matrix(1 0 0 1 -46 -86)">e</text></g></g><g><rect fill="#ffffff" stroke="none" x="528" y="1424" width="18" height="18" transform="matrix(1 0 0 1 -46 -86)"/></g><g><path fill="none" stroke="#000000" paint-order="fill stroke markers" d=" M 482 1338 L 500 1338 L 500 1356 L 482 1356 L 482 1338 Z Z" stroke-miterlimit="10" stroke-dasharray=""/></g><g><path fill="none" stroke="#000000" paint-order="fill stroke markers" d=" M 484 1347 L 498 1347" stroke-miterlimit="10" stroke-dasharray=""/></g><g><path fill="none" stroke="#000000" paint-order="fill stroke markers" d=" M 484 1347 L 487 1344" stroke-miterlimit="10" stroke-dasharray=""/></g><g><path fill="none" stroke="#000000" paint-order="fill stroke markers" d=" M 484 1347 L 487 1350" stroke-miterlimit="10" stroke-dasharray=""/></g><g><rect fill="#ffffff" stroke="none" x="535.385009765625" y="1407.5" width="7.22998046875" height="13" transform="matrix(1 0 0 1 -46 -86)"/></g><g><g><path fill="none" stroke="none"/><text fill="#000000" stroke="none" font-family="Arial" font-size="13px" font-style="normal" font-weight="normal" text-decoration="undefined" x="539" y="1414" text-anchor="middle" dominant-baseline="central" transform="matrix(1 0 0 1 -46 -86)">e</text></g></g><g><rect fill="#ffffff" stroke="none" x="528" y="1592" width="18" height="18" transform="matrix(1 0 0 1 -46 -86)"/></g><g><path fill="none" stroke="#000000" paint-order="fill stroke markers" d=" M 482 1506 L 500 1506 L 500 1524 L 482 1524 L 482 1506 Z Z" stroke-miterlimit="10" stroke-dasharray=""/></g><g><path fill="none" stroke="#000000" paint-order="fill stroke markers" d=" M 484 1515 L 498 1515" stroke-miterlimit="10" stroke-dasharray=""/></g><g><path fill="none" stroke="#000000" paint-order="fill stroke markers" d=" M 484 1515 L 487 1512" stroke-miterlimit="10" stroke-dasharray=""/></g><g><path fill="none" stroke="#000000" paint-order="fill stroke markers" d=" M 484 1515 L 487 1518" stroke-miterlimit="10" stroke-dasharray=""/></g><g><rect fill="#ffffff" stroke="none" x="535.385009765625" y="1575.5" width="7.22998046875" height="13" transform="matrix(1 0 0 1 -46 -86)"/></g><g><g><path fill="none" stroke="none"/><text fill="#000000" stroke="none" font-family="Arial" font-size="13px" font-style="normal" font-weight="normal" text-decoration="undefined" x="539" y="1582" text-anchor="middle" dominant-baseline="central" transform="matrix(1 0 0 1 -46 -86)">e</text></g></g><g><path fill="none" stroke="#000000" paint-order="fill stroke markers" d=" M 418 368 L 418 602 L 418 602 A 8 8 0 0 1 410 610 L 202 610 L 202 610 A 8 8 0 0 0 194 618 L 194 1179 L 194 1179 A 8 8 0 0 0 202 1187 L 242 1187" stroke-miterlimit="10" stroke-dasharray=""/></g><g><path fill="none" stroke="#000000" paint-order="fill stroke markers" d=" M 231.83732514237585 1191.2095177560159 L 242 1187 L 231.83732514237585 1182.7904822439841" stroke-miterlimit="10" stroke-dasharray=""/></g><g><path fill="none" stroke="#000000" paint-order="fill stroke markers" d=" M 370 368 L 370 538 L 370 538 A 8 8 0 0 1 362 546 L 154 546 L 154 546 A 8 8 0 0 0 146 554 L 146 1338 L 146 1338 A 8 8 0 0 0 154 1346 L 242 1346" stroke-miterlimit="10" stroke-dasharray=""/></g><g><path fill="none" stroke="#000000" paint-order="fill stroke markers" d=" M 231.83732514237585 1350.2095177560159 L 242 1346 L 231.83732514237585 1341.7904822439841" stroke-miterlimit="10" stroke-dasharray=""/></g><g><path fill="none" stroke="#000000" paint-order="fill stroke markers" d=" M 1058 1218 L 1058 1618" stroke-miterlimit="10" stroke-dasharray=""/></g><g><path fill="none" stroke="#000000" paint-order="fill stroke markers" d=" M 1053.7904822439841 1607.837325142376 L 1058 1618 L 1062.2095177560159 1607.837325142376" stroke-miterlimit="10" stroke-dasharray=""/></g><g><path fill="none" stroke="#000000" paint-order="fill stroke markers" d=" M 650 1682 L 650 1786 L 650 1786 A 8 8 0 0 0 658 1794 L 1402 1794" stroke-miterlimit="10" stroke-dasharray=""/></g><g><path fill="none" stroke="#000000" paint-order="fill stroke markers" d=" M 1391.837325142376 1798.2095177560159 L 1402 1794 L 1391.837325142376 1789.7904822439841" stroke-miterlimit="10" stroke-dasharray=""/></g><g><path fill="none" stroke="#000000" paint-order="fill stroke markers" d=" M 1058 1682 L 1058 1778 L 1058 1778 A 8 8 0 0 0 1066 1786 L 1402 1786" stroke-miterlimit="10" stroke-dasharray=""/></g><g><path fill="none" stroke="#000000" paint-order="fill stroke markers" d=" M 1391.837325142376 1790.2095177560159 L 1402 1786 L 1391.837325142376 1781.7904822439841" stroke-miterlimit="10" stroke-dasharray=""/></g><g><path fill="none" stroke="#000000" paint-order="fill stroke markers" d=" M 1234 618 L 1154 618 L 1154 618 A 8 8 0 0 0 1146 626 L 1146 1266 L 1146 1266 A 8 8 0 0 1 1138 1274 L 546 1274 L 546 1274 A 8 8 0 0 1 538 1266 L 538 1194 L 538 1194 A 8 8 0 0 0 530 1186 L 500 1186" stroke-miterlimit="10" stroke-dasharray=""/></g><g><path fill="none" stroke="#000000" paint-order="fill stroke markers" d=" M 510.1626748576241 1181.7904822439841 L 500 1186 L 510.1626748576241 1190.2095177560159" stroke-miterlimit="10" stroke-dasharray=""/></g><g><path fill="none" stroke="#000000" paint-order="fill stroke markers" d=" M 1234 666 L 1186 666 L 1186 666 A 8 8 0 0 0 1178 674 L 1178 1338 L 1178 1338 A 8 8 0 0 1 1170 1346 L 500 1346" stroke-miterlimit="10" stroke-dasharray=""/></g><g><path fill="none" stroke="#000000" paint-order="fill stroke markers" d=" M 510.1626748576241 1341.7904822439841 L 500 1346 L 510.1626748576241 1350.2095177560159" stroke-miterlimit="10" stroke-dasharray=""/></g><g><path fill="none" stroke="#000000" paint-order="fill stroke markers" d=" M 1234 714 L 1218 714 L 1218 714 A 8 8 0 0 0 1210 722 L 1210 1410 L 1210 1410 A 8 8 0 0 1 1202 1418 L 546 1418 L 546 1418 A 8 8 0 0 0 538 1426 L 538 1506 L 538 1506 A 8 8 0 0 1 530 1514 L 500 1514" stroke-miterlimit="10" stroke-dasharray=""/></g><g><path fill="none" stroke="#000000" paint-order="fill stroke markers" d=" M 510.1626748576241 1509.7904822439841 L 500 1514 L 510.1626748576241 1518.2095177560159" stroke-miterlimit="10" stroke-dasharray=""/></g><g><path fill="none" stroke="#000000" paint-order="fill stroke markers" d=" M 370 1211 L 370 1317" stroke-miterlimit="10" stroke-dasharray=""/></g><g><path fill="none" stroke="#000000" paint-order="fill stroke markers" d=" M 365.790482243984 1306.837325142376 L 370 1317 L 374.209517756016 1306.837325142376" stroke-miterlimit="10" stroke-dasharray=""/></g><g><path fill="none" stroke="#000000" paint-order="fill stroke markers" d=" M 370 1383 L 370 1481" stroke-miterlimit="10" stroke-dasharray=""/></g><g><path fill="none" stroke="#000000" paint-order="fill stroke markers" d=" M 365.790482243984 1470.837325142376 L 370 1481 L 374.209517756016 1470.837325142376" stroke-miterlimit="10" stroke-dasharray=""/></g><g><path fill="none" stroke="#000000" paint-order="fill stroke markers" d=" M 370 1546 L 370 1642 L 370 1642 A 8 8 0 0 0 378 1650 L 538 1650" stroke-miterlimit="10" stroke-dasharray=""/></g><g><path fill="none" stroke="#000000" paint-order="fill stroke markers" d=" M 527.8373251423759 1654.2095177560159 L 538 1650 L 527.8373251423758 1645.7904822439841" stroke-miterlimit="10" stroke-dasharray=""/></g><g><path fill="none" stroke="#000000" paint-order="fill stroke markers" d=" M 762 1648 L 834 1648" stroke-miterlimit="10" stroke-dasharray=""/></g><g><path fill="none" stroke="#000000" paint-order="fill stroke markers" d=" M 823.8373251423759 1652.2095177560159 L 834 1648 L 823.8373251423758 1643.7904822439841" stroke-miterlimit="10" stroke-dasharray=""/></g><g><path fill="none" stroke="#000000" paint-order="fill stroke markers" d=" M 946 1648 L 860 1648" stroke-miterlimit="10" stroke-dasharray=""/></g><g><path fill="none" stroke="#000000" paint-order="fill stroke markers" d=" M 870.1626748576241 1643.7904822439841 L 860 1648 L 870.1626748576241 1652.2095177560159" stroke-miterlimit="10" stroke-dasharray=""/></g><g><rect fill="#ffffff" stroke="none" x="688" y="1768" width="18" height="18" transform="matrix(1 0 0 1 -46 -86)"/></g><g><path fill="none" stroke="#000000" paint-order="fill stroke markers" d=" M 642 1682 L 660 1682 L 660 1700 L 642 1700 L 642 1682 Z Z" stroke-miterlimit="10" stroke-dasharray=""/></g><g><path fill="none" stroke="#000000" paint-order="fill stroke markers" d=" M 651 1698 L 651 1684" stroke-miterlimit="10" stroke-dasharray=""/></g><g><path fill="none" stroke="#000000" paint-order="fill stroke markers" d=" M 651 1698 L 648 1695" stroke-miterlimit="10" stroke-dasharray=""/></g><g><path fill="none" stroke="#000000" paint-order="fill stroke markers" d=" M 651 1698 L 654 1695" stroke-miterlimit="10" stroke-dasharray=""/></g><g><rect fill="#ffffff" stroke="none" x="655.799560546875" y="1775.5" width="22.40087890625" height="13" transform="matrix(1 0 0 1 -46 -86)"/></g><g><g><path fill="none" stroke="none"/><text fill="#000000" stroke="none" font-family="Arial" font-size="13px" font-style="normal" font-weight="normal" text-decoration="undefined" x="667" y="1782" text-anchor="middle" dominant-baseline="central" transform="matrix(1 0 0 1 -46 -86)">true</text></g></g><g><rect fill="#ffffff" stroke="none" x="1096" y="1768" width="18" height="18" transform="matrix(1 0 0 1 -46 -86)"/></g><g><path fill="none" stroke="#000000" paint-order="fill stroke markers" d=" M 1050 1682 L 1068 1682 L 1068 1700 L 1050 1700 L 1050 1682 Z Z" stroke-miterlimit="10" stroke-dasharray=""/></g><g><path fill="none" stroke="#000000" paint-order="fill stroke markers" d=" M 1059 1698 L 1059 1684" stroke-miterlimit="10" stroke-dasharray=""/></g><g><path fill="none" stroke="#000000" paint-order="fill stroke markers" d=" M 1059 1698 L 1056 1695" stroke-miterlimit="10" stroke-dasharray=""/></g><g><path fill="none" stroke="#000000" paint-order="fill stroke markers" d=" M 1059 1698 L 1062 1695" stroke-miterlimit="10" stroke-dasharray=""/></g><g><rect fill="#ffffff" stroke="none" x="1119.27001953125" y="1774.5" width="27.4599609375" height="13" transform="matrix(1 0 0 1 -46 -86)"/></g><g><g><path fill="none" stroke="none"/><text fill="#000000" stroke="none" font-family="Arial" font-size="13px" font-style="normal" font-weight="normal" text-decoration="undefined" x="1133" y="1781" text-anchor="middle" dominant-baseline="central" transform="matrix(1 0 0 1 -46 -86)">false</text></g></g><g><g><path fill="none" stroke="none"/><text fill="#000000" stroke="none" font-family="Arial" font-size="26px" font-style="normal" font-weight="normal" text-decoration="undefined" x="1357" y="1005" text-anchor="start" dominant-baseline="text-before-edge" transform="matrix(1 0 0 1 -46 -86)">Gabriel</text><text fill="#000000" stroke="none" font-family="Arial" font-size="26px" font-style="normal" font-weight="normal" text-decoration="undefined" x="1357" y="1031" text-anchor="start" dominant-baseline="text-before-edge" transform="matrix(1 0 0 1 -46 -86)">Gómez</text><text fill="#000000" stroke="none" font-family="Arial" font-size="26px" font-style="normal" font-weight="normal" text-decoration="undefined" x="1357" y="1057" text-anchor="start" dominant-baseline="text-before-edge" transform="matrix(1 0 0 1 -46 -86)">García</text></g></g></g></svg>