<svg version="1.1" xmlns="http://www.w3.org/2000/svg" xmlns:xlink="http://www.w3.org/1999/xlink" width="455.29638671875" height="488"><defs/><g><g><rect fill="#C0C0C0" stroke="none" x="439" y="575" width="434.29638671875" height="196" transform="matrix(1 0 0 1 -422 -286)" fill-opacity="0.2"/></g><g><rect fill="#ffffff" stroke="none" x="432" y="568" width="434.29638671875" height="196" transform="matrix(1 0 0 1 -422 -286)"/></g><g><path fill="none" stroke="#000000" paint-order="fill stroke markers" d=" M 10 282 L 444.29638671875 282 L 444.29638671875 478 L 10 478 L 10 282 Z Z" stroke-miterlimit="10" stroke-dasharray=""/></g><g><path fill="none" stroke="#000000" paint-order="fill stroke markers" d=" M 10 320 L 445.29638671875 320" stroke-miterlimit="10" stroke-dasharray=""/></g><g><g><path fill="none" stroke="none"/><text fill="#000000" stroke="none" font-family="Arial" font-size="13px" font-style="normal" font-weight="normal" text-decoration="undefined" x="649.648193359375" y="579.5" text-anchor="middle" dominant-baseline="central" transform="matrix(1 0 0 1 -422 -286)">«interface»</text></g></g><g><g><path fill="none" stroke="none"/><text fill="#000000" stroke="none" font-family="Arial" font-size="13px" font-style="normal" font-weight="bold" text-decoration="undefined" x="649.648193359375" y="594.5" text-anchor="middle" dominant-baseline="central" transform="matrix(1 0 0 1 -422 -286)">DAOEventos</text></g></g><g><g><path fill="none" stroke="none"/><text fill="#000000" stroke="none" font-family="Arial" font-size="13px" font-style="normal" font-weight="normal" text-decoration="undefined" x="437" y="617.5" text-anchor="start" dominant-baseline="central" transform="matrix(1 0 0 1 -422 -286)">+obtenerEventos(): Evento[*]</text></g></g><g><g><path fill="none" stroke="none"/><text fill="#000000" stroke="none" font-family="Arial" font-size="13px" font-style="normal" font-weight="normal" text-decoration="undefined" x="437" y="632.5" text-anchor="start" dominant-baseline="central" transform="matrix(1 0 0 1 -422 -286)">+obtenerEvento(idEvento: String): Evento</text></g></g><g><g><path fill="none" stroke="none"/><text fill="#000000" stroke="none" font-family="Arial" font-size="13px" font-style="normal" font-weight="normal" text-decoration="undefined" x="437" y="647.5" text-anchor="start" dominant-baseline="central" transform="matrix(1 0 0 1 -422 -286)">+crearEvento(E: evento): boolean</text></g></g><g><g><path fill="none" stroke="none"/><text fill="#000000" stroke="none" font-family="Arial" font-size="13px" font-style="normal" font-weight="normal" text-decoration="undefined" x="437" y="662.5" text-anchor="start" dominant-baseline="central" transform="matrix(1 0 0 1 -422 -286)">+modificarEvento(eventoModificado: Evento): boolean</text></g></g><g><g><path fill="none" stroke="none"/><text fill="#000000" stroke="none" font-family="Arial" font-size="13px" font-style="normal" font-weight="normal" text-decoration="undefined" x="437" y="677.5" text-anchor="start" dominant-baseline="central" transform="matrix(1 0 0 1 -422 -286)">+eliminarEvento(idEvento: String): boolean</text></g></g><g><rect fill="#C0C0C0" stroke="none" x="439" y="343" width="434.29638671875" height="196" transform="matrix(1 0 0 1 -422 -286)" fill-opacity="0.2"/></g><g><rect fill="#ffffff" stroke="none" x="432" y="336" width="434.29638671875" height="196" transform="matrix(1 0 0 1 -422 -286)"/></g><g><path fill="none" stroke="#000000" paint-order="fill stroke markers" d=" M 10 50 L 444.29638671875 50 L 444.29638671875 246 L 10 246 L 10 50 Z Z" stroke-miterlimit="10" stroke-dasharray=""/></g><g><path fill="none" stroke="#000000" paint-order="fill stroke markers" d=" M 10 88 L 445.29638671875 88" stroke-miterlimit="10" stroke-dasharray=""/></g><g><g><path fill="none" stroke="none"/><text fill="#000000" stroke="none" font-family="Arial" font-size="13px" font-style="normal" font-weight="normal" text-decoration="undefined" x="649.648193359375" y="347.5" text-anchor="middle" dominant-baseline="central" transform="matrix(1 0 0 1 -422 -286)">«interface»</text></g></g><g><g><path fill="none" stroke="none"/><text fill="#000000" stroke="none" font-family="Arial" font-size="13px" font-style="normal" font-weight="bold" text-decoration="undefined" x="649.648193359375" y="362.5" text-anchor="middle" dominant-baseline="central" transform="matrix(1 0 0 1 -422 -286)">IGestionTienda</text></g></g><g><g><path fill="none" stroke="none"/><text fill="#000000" stroke="none" font-family="Arial" font-size="13px" font-style="normal" font-weight="normal" text-decoration="undefined" x="437" y="385.5" text-anchor="start" dominant-baseline="central" transform="matrix(1 0 0 1 -422 -286)">+crearTienda(idArtista: String, t: Tienda): boolean</text></g></g><g><g><path fill="none" stroke="none"/><text fill="#000000" stroke="none" font-family="Arial" font-size="13px" font-style="normal" font-weight="normal" text-decoration="undefined" x="437" y="400.5" text-anchor="start" dominant-baseline="central" transform="matrix(1 0 0 1 -422 -286)">+eliminarTienda(idTienda: String): boolean</text></g></g><g><g><path fill="none" stroke="none"/><text fill="#000000" stroke="none" font-family="Arial" font-size="13px" font-style="normal" font-weight="normal" text-decoration="undefined" x="437" y="415.5" text-anchor="start" dominant-baseline="central" transform="matrix(1 0 0 1 -422 -286)">+añadirProductoATienda(idProducto: String, idTienda: String): boolean</text></g></g><g><g><path fill="none" stroke="none"/><text fill="#000000" stroke="none" font-family="Arial" font-size="13px" font-style="normal" font-weight="normal" text-decoration="undefined" x="437" y="430.5" text-anchor="start" dominant-baseline="central" transform="matrix(1 0 0 1 -422 -286)">+eliminarProductoDeTienda(idProducto: String, idTienda: String): boolean</text></g></g><g><g><path fill="none" stroke="none"/><text fill="#000000" stroke="none" font-family="Arial" font-size="13px" font-style="normal" font-weight="normal" text-decoration="undefined" x="437" y="445.5" text-anchor="start" dominant-baseline="central" transform="matrix(1 0 0 1 -422 -286)">+verSolicitudCreacionTienda(): SolicitudTienda[*]</text></g></g><g><g><path fill="none" stroke="none"/><text fill="#000000" stroke="none" font-family="Arial" font-size="13px" font-style="normal" font-weight="normal" text-decoration="undefined" x="437" y="460.5" text-anchor="start" dominant-baseline="central" transform="matrix(1 0 0 1 -422 -286)">+verSolicitudCambioProducto(): SolicitudProducto[*]</text></g></g><g><g><path fill="none" stroke="none"/><text fill="#000000" stroke="none" font-family="Arial" font-size="13px" font-style="normal" font-weight="normal" text-decoration="undefined" x="437" y="475.5" text-anchor="start" dominant-baseline="central" transform="matrix(1 0 0 1 -422 -286)">+aprobarSolicitudDeTienda(idSolicitud: String): boolean</text></g></g><g><g><path fill="none" stroke="none"/><text fill="#000000" stroke="none" font-family="Arial" font-size="13px" font-style="normal" font-weight="normal" text-decoration="undefined" x="437" y="490.5" text-anchor="start" dominant-baseline="central" transform="matrix(1 0 0 1 -422 -286)">+denegarSolicitudDeTienda(idSolicitud: String): boolean</text></g></g><g><g><path fill="none" stroke="none"/><text fill="#000000" stroke="none" font-family="Arial" font-size="13px" font-style="normal" font-weight="normal" text-decoration="undefined" x="437" y="505.5" text-anchor="start" dominant-baseline="central" transform="matrix(1 0 0 1 -422 -286)">+aprobarSolicitudDeProducto(idSolicitud: String): boolean</text></g></g><g><g><path fill="none" stroke="none"/><text fill="#000000" stroke="none" font-family="Arial" font-size="13px" font-style="normal" font-weight="normal" text-decoration="undefined" x="437" y="520.5" text-anchor="start" dominant-baseline="central" transform="matrix(1 0 0 1 -422 -286)">+denegarSolicitudDeProducto(idSolicitud: String): boolean</text></g></g><g><g><path fill="none" stroke="none"/><text fill="#000000" stroke="none" font-family="Arial" font-size="22px" font-style="normal" font-weight="normal" text-decoration="undefined" x="493" y="301" text-anchor="start" dominant-baseline="text-before-edge" transform="matrix(1 0 0 1 -422 -286)">Descripción - Adrián González</text></g></g></g></svg>