<svg version="1.1" xmlns="http://www.w3.org/2000/svg" xmlns:xlink="http://www.w3.org/1999/xlink" width="1093" height="785"><defs/><g><g><rect fill="#C0C0C0" stroke="none" x="55" y="255" width="120" height="96" transform="matrix(1 0 0 1 -14 -38)" fill-opacity="0.2"/></g><g><rect fill="#ffffff" stroke="none" x="48" y="248" width="120" height="96" transform="matrix(1 0 0 1 -14 -38)"/></g><g><path fill="none" stroke="#000000" paint-order="fill stroke markers" d=" M 34 210 L 154 210 L 154 306 L 34 306 L 34 210 Z Z" stroke-miterlimit="10" stroke-dasharray=""/></g><g><path fill="none" stroke="#000000" paint-order="fill stroke markers" d=" M 34 235 L 155 235" stroke-miterlimit="10" stroke-dasharray=""/></g><g><path fill="none" stroke="#000000" paint-order="fill stroke markers" d=" M 34 245 L 155 245" stroke-miterlimit="10" stroke-dasharray=""/></g><g><g><path fill="none" stroke="none"/><text fill="#000000" stroke="none" font-family="Arial" font-size="13px" font-style="normal" font-weight="bold" text-decoration="undefined" x="108.5" y="261.5" text-anchor="middle" dominant-baseline="central" transform="matrix(1 0 0 1 -14 -38)">Oyentes</text></g></g><g><rect fill="#C0C0C0" stroke="none" x="311" y="239" width="329.9853515625" height="133" transform="matrix(1 0 0 1 -14 -38)" fill-opacity="0.2"/></g><g><rect fill="#ffffff" stroke="none" x="304" y="232" width="329.9853515625" height="133" transform="matrix(1 0 0 1 -14 -38)"/></g><g><path fill="none" stroke="#000000" paint-order="fill stroke markers" d=" M 290 194 L 619.9853515625 194 L 619.9853515625 327 L 290 327 L 290 194 Z Z" stroke-miterlimit="10" stroke-dasharray=""/></g><g><path fill="none" stroke="#000000" paint-order="fill stroke markers" d=" M 290 219 L 620.9853515625 219" stroke-miterlimit="10" stroke-dasharray=""/></g><g><path fill="none" stroke="#000000" paint-order="fill stroke markers" d=" M 290 244 L 620.9853515625 244" stroke-miterlimit="10" stroke-dasharray=""/></g><g><g><path fill="none" stroke="none"/><text fill="#000000" stroke="none" font-family="Arial" font-size="13px" font-style="normal" font-weight="bold" text-decoration="undefined" x="469.49267578125" y="245.5" text-anchor="middle" dominant-baseline="central" transform="matrix(1 0 0 1 -14 -38)">Cesta</text></g></g><g><g><path fill="none" stroke="none"/><text fill="#000000" stroke="none" font-family="Arial" font-size="13px" font-style="normal" font-weight="normal" text-decoration="undefined" x="309" y="270.5" text-anchor="start" dominant-baseline="central" transform="matrix(1 0 0 1 -14 -38)">-/precioTotal: int</text></g></g><g><g><path fill="none" stroke="none"/><text fill="#000000" stroke="none" font-family="Arial" font-size="13px" font-style="normal" font-weight="normal" text-decoration="undefined" x="309" y="293.5" text-anchor="start" dominant-baseline="central" transform="matrix(1 0 0 1 -14 -38)">+a침adirProducto(p: Producto, t: Tienda): boolean</text></g></g><g><g><path fill="none" stroke="none"/><text fill="#000000" stroke="none" font-family="Arial" font-size="13px" font-style="normal" font-weight="normal" text-decoration="undefined" x="309" y="308.5" text-anchor="start" dominant-baseline="central" transform="matrix(1 0 0 1 -14 -38)">+eliminarProducto(p: Producto, t: Tienda): boolean</text></g></g><g><g><path fill="none" stroke="none"/><text fill="#000000" stroke="none" font-family="Arial" font-size="13px" font-style="normal" font-weight="normal" text-decoration="undefined" x="309" y="323.5" text-anchor="start" dominant-baseline="central" transform="matrix(1 0 0 1 -14 -38)">+limpiarCesta(): boolean</text></g></g><g><g><path fill="none" stroke="none"/><text fill="#000000" stroke="none" font-family="Arial" font-size="13px" font-style="normal" font-weight="normal" text-decoration="undefined" x="309" y="338.5" text-anchor="start" dominant-baseline="central" transform="matrix(1 0 0 1 -14 -38)">+verProductoDeCesta(p: Producto, t: Tienda): Producto</text></g></g><g><g><path fill="none" stroke="none"/><text fill="#000000" stroke="none" font-family="Arial" font-size="13px" font-style="normal" font-weight="normal" text-decoration="undefined" x="309" y="353.5" text-anchor="start" dominant-baseline="central" transform="matrix(1 0 0 1 -14 -38)">+listadoProductosDeCesta(): Producto[*]</text></g></g><g><rect fill="#C0C0C0" stroke="none" x="863" y="207" width="158.4970703125" height="116" transform="matrix(1 0 0 1 -14 -38)" fill-opacity="0.2"/></g><g><rect fill="#ffffff" stroke="none" x="856" y="200" width="158.4970703125" height="116" transform="matrix(1 0 0 1 -14 -38)"/></g><g><path fill="none" stroke="#000000" paint-order="fill stroke markers" d=" M 842 162 L 1000.4970703125 162 L 1000.4970703125 278 L 842 278 L 842 162 Z Z" stroke-miterlimit="10" stroke-dasharray=""/></g><g><path fill="none" stroke="#000000" paint-order="fill stroke markers" d=" M 842 187 L 1001.4970703125 187" stroke-miterlimit="10" stroke-dasharray=""/></g><g><path fill="none" stroke="#000000" paint-order="fill stroke markers" d=" M 842 255 L 1001.4970703125 255" stroke-miterlimit="10" stroke-dasharray=""/></g><g><g><path fill="none" stroke="none"/><text fill="#000000" stroke="none" font-family="Arial" font-size="13px" font-style="normal" font-weight="bold" text-decoration="undefined" x="935.74853515625" y="213.5" text-anchor="middle" dominant-baseline="central" transform="matrix(1 0 0 1 -14 -38)">Compra</text></g></g><g><g><path fill="none" stroke="none"/><text fill="#000000" stroke="none" font-family="Arial" font-size="13px" font-style="normal" font-weight="normal" text-decoration="undefined" x="861" y="236.5" text-anchor="start" dominant-baseline="central" transform="matrix(1 0 0 1 -14 -38)">-id: int</text></g></g><g><g><path fill="none" stroke="none"/><text fill="#000000" stroke="none" font-family="Arial" font-size="13px" font-style="normal" font-weight="normal" text-decoration="undefined" x="861" y="251.5" text-anchor="start" dominant-baseline="central" transform="matrix(1 0 0 1 -14 -38)">-fecha: date</text></g></g><g><g><path fill="none" stroke="none"/><text fill="#000000" stroke="none" font-family="Arial" font-size="13px" font-style="normal" font-weight="normal" text-decoration="undefined" x="861" y="266.5" text-anchor="start" dominant-baseline="central" transform="matrix(1 0 0 1 -14 -38)">-hora: time</text></g></g><g><g><path fill="none" stroke="none"/><text fill="#000000" stroke="none" font-family="Arial" font-size="13px" font-style="normal" font-weight="normal" text-decoration="undefined" x="861" y="281.5" text-anchor="start" dominant-baseline="central" transform="matrix(1 0 0 1 -14 -38)">-coste: int</text></g></g><g><g><path fill="none" stroke="none"/><text fill="#000000" stroke="none" font-family="Arial" font-size="13px" font-style="normal" font-weight="normal" text-decoration="undefined" x="861" y="304.5" text-anchor="start" dominant-baseline="central" transform="matrix(1 0 0 1 -14 -38)">+hacerCompra(): boolean</text></g></g><g><rect fill="#C0C0C0" stroke="none" x="31" y="487" width="296.533203125" height="104" transform="matrix(1 0 0 1 -14 -38)" fill-opacity="0.2"/></g><g><rect fill="#ffffff" stroke="none" x="24" y="480" width="296.533203125" height="104" transform="matrix(1 0 0 1 -14 -38)"/></g><g><path fill="none" stroke="#000000" paint-order="fill stroke markers" d=" M 10 442 L 306.533203125 442 L 306.533203125 546 L 10 546 L 10 442 Z Z" stroke-miterlimit="10" stroke-dasharray=""/></g><g><path fill="none" stroke="#000000" paint-order="fill stroke markers" d=" M 10 467 L 307.533203125 467" stroke-miterlimit="10" stroke-dasharray=""/></g><g><path fill="none" stroke="#000000" paint-order="fill stroke markers" d=" M 10 477 L 307.533203125 477" stroke-miterlimit="10" stroke-dasharray=""/></g><g><g><path fill="none" stroke="none"/><text fill="#000000" stroke="none" font-family="Arial" font-size="13px" font-style="normal" font-weight="bold" text-decoration="undefined" x="172.7666015625" y="493.5" text-anchor="middle" dominant-baseline="central" transform="matrix(1 0 0 1 -14 -38)">Artista</text></g></g><g><g><path fill="none" stroke="none"/><text fill="#000000" stroke="none" font-family="Arial" font-size="13px" font-style="normal" font-weight="normal" text-decoration="undefined" x="29" y="526.5" text-anchor="start" dominant-baseline="central" transform="matrix(1 0 0 1 -14 -38)">+hacerSolicitudDeProducto(p: Producto): boolean</text></g></g><g><g><path fill="none" stroke="none"/><text fill="#000000" stroke="none" font-family="Arial" font-size="13px" font-style="normal" font-weight="normal" text-decoration="undefined" x="29" y="541.5" text-anchor="start" dominant-baseline="central" transform="matrix(1 0 0 1 -14 -38)">+hacerSolicitudDeTienda(): boolean</text></g></g><g><rect fill="#C0C0C0" stroke="none" x="463" y="487" width="243.771484375" height="104" transform="matrix(1 0 0 1 -14 -38)" fill-opacity="0.2"/></g><g><rect fill="#ffffff" stroke="none" x="456" y="480" width="243.771484375" height="104" transform="matrix(1 0 0 1 -14 -38)"/></g><g><path fill="none" stroke="#000000" paint-order="fill stroke markers" d=" M 442 442 L 685.771484375 442 L 685.771484375 546 L 442 546 L 442 442 Z Z" stroke-miterlimit="10" stroke-dasharray=""/></g><g><path fill="none" stroke="#000000" paint-order="fill stroke markers" d=" M 442 467 L 686.771484375 467" stroke-miterlimit="10" stroke-dasharray=""/></g><g><path fill="none" stroke="#000000" paint-order="fill stroke markers" d=" M 442 505 L 686.771484375 505" stroke-miterlimit="10" stroke-dasharray=""/></g><g><g><path fill="none" stroke="none"/><text fill="#000000" stroke="none" font-family="Arial" font-size="13px" font-style="normal" font-weight="bold" text-decoration="undefined" x="578.3857421875" y="493.5" text-anchor="middle" dominant-baseline="central" transform="matrix(1 0 0 1 -14 -38)">Tienda</text></g></g><g><g><path fill="none" stroke="none"/><text fill="#000000" stroke="none" font-family="Arial" font-size="13px" font-style="normal" font-weight="normal" text-decoration="undefined" x="461" y="516.5" text-anchor="start" dominant-baseline="central" transform="matrix(1 0 0 1 -14 -38)">-nombre: String</text></g></g><g><g><path fill="none" stroke="none"/><text fill="#000000" stroke="none" font-family="Arial" font-size="13px" font-style="normal" font-weight="normal" text-decoration="undefined" x="461" y="531.5" text-anchor="start" dominant-baseline="central" transform="matrix(1 0 0 1 -14 -38)">-descripcion: String</text></g></g><g><g><path fill="none" stroke="none"/><text fill="#000000" stroke="none" font-family="Arial" font-size="13px" font-style="normal" font-weight="normal" text-decoration="undefined" x="461" y="554.5" text-anchor="start" dominant-baseline="central" transform="matrix(1 0 0 1 -14 -38)">+a침adirProducto(p: Producto): boolean</text></g></g><g><g><path fill="none" stroke="none"/><text fill="#000000" stroke="none" font-family="Arial" font-size="13px" font-style="normal" font-weight="normal" text-decoration="undefined" x="461" y="569.5" text-anchor="start" dominant-baseline="central" transform="matrix(1 0 0 1 -14 -38)">+eliminarProducto(p: Producto): boolean</text></g></g><g><rect fill="#C0C0C0" stroke="none" x="871" y="487" width="155.25341796875" height="104" transform="matrix(1 0 0 1 -14 -38)" fill-opacity="0.2"/></g><g><rect fill="#ffffff" stroke="none" x="864" y="480" width="155.25341796875" height="104" transform="matrix(1 0 0 1 -14 -38)"/></g><g><path fill="none" stroke="#000000" paint-order="fill stroke markers" d=" M 850 442 L 1005.25341796875 442 L 1005.25341796875 546 L 850 546 L 850 442 Z Z" stroke-miterlimit="10" stroke-dasharray=""/></g><g><path fill="none" stroke="#000000" paint-order="fill stroke markers" d=" M 850 467 L 1006.25341796875 467" stroke-miterlimit="10" stroke-dasharray=""/></g><g><path fill="none" stroke="#000000" paint-order="fill stroke markers" d=" M 850 535 L 1006.25341796875 535" stroke-miterlimit="10" stroke-dasharray=""/></g><g><g><path fill="none" stroke="none"/><text fill="#000000" stroke="none" font-family="Arial" font-size="13px" font-style="normal" font-weight="bold" text-decoration="undefined" x="942.126708984375" y="493.5" text-anchor="middle" dominant-baseline="central" transform="matrix(1 0 0 1 -14 -38)">Producto</text></g></g><g><g><path fill="none" stroke="none"/><text fill="#000000" stroke="none" font-family="Arial" font-size="13px" font-style="normal" font-weight="normal" text-decoration="undefined" x="869" y="516.5" text-anchor="start" dominant-baseline="central" transform="matrix(1 0 0 1 -14 -38)">-id: int</text></g></g><g><g><path fill="none" stroke="none"/><text fill="#000000" stroke="none" font-family="Arial" font-size="13px" font-style="normal" font-weight="normal" text-decoration="undefined" x="869" y="531.5" text-anchor="start" dominant-baseline="central" transform="matrix(1 0 0 1 -14 -38)">-nombre: String</text></g></g><g><g><path fill="none" stroke="none"/><text fill="#000000" stroke="none" font-family="Arial" font-size="13px" font-style="normal" font-weight="normal" text-decoration="undefined" x="869" y="546.5" text-anchor="start" dominant-baseline="central" transform="matrix(1 0 0 1 -14 -38)">-precio: int</text></g></g><g><g><path fill="none" stroke="none"/><text fill="#000000" stroke="none" font-family="Arial" font-size="13px" font-style="normal" font-weight="normal" text-decoration="undefined" x="869" y="561.5" text-anchor="start" dominant-baseline="central" transform="matrix(1 0 0 1 -14 -38)">-unidadesDisponibles: int</text></g></g><g><path fill="#ffffff" stroke="none" paint-order="stroke fill markers" d=" M 282 98 L 407 98 L 417 108 L 417 181 L 282 181 L 282 98"/></g><g><path fill="none" stroke="#000000" paint-order="fill stroke markers" d=" M 282 98 L 407 98 L 417 108 L 417 181 L 282 181 L 282 98 L 282 98" stroke-miterlimit="10" stroke-dasharray=""/></g><g><path fill="none" stroke="#000000" paint-order="fill stroke markers" d=" M 407 98 L 407 108 L 417 108 L 407 98" stroke-miterlimit="10" stroke-dasharray=""/></g><g><g><path fill="none" stroke="none"/><text fill="#000000" stroke="none" font-family="Arial" font-size="12px" font-style="normal" font-weight="normal" text-decoration="undefined" x="301" y="141" text-anchor="start" dominant-baseline="text-before-edge" transform="matrix(1 0 0 1 -14 -38)">\precioTotal se calcula</text><text fill="#000000" stroke="none" font-family="Arial" font-size="12px" font-style="normal" font-weight="normal" text-decoration="undefined" x="301" y="153" text-anchor="start" dominant-baseline="text-before-edge" transform="matrix(1 0 0 1 -14 -38)">a partir de la suma de</text><text fill="#000000" stroke="none" font-family="Arial" font-size="12px" font-style="normal" font-weight="normal" text-decoration="undefined" x="301" y="165" text-anchor="start" dominant-baseline="text-before-edge" transform="matrix(1 0 0 1 -14 -38)">los precios de todos los</text><text fill="#000000" stroke="none" font-family="Arial" font-size="12px" font-style="normal" font-weight="normal" text-decoration="undefined" x="301" y="177" text-anchor="start" dominant-baseline="text-before-edge" transform="matrix(1 0 0 1 -14 -38)">productos de la cesta.</text></g></g><g><path fill="none" stroke="#000000" paint-order="fill stroke markers" d=" M 396 193 L 387 183" stroke-miterlimit="10" stroke-dasharray="3"/></g><g><path fill="none" stroke="#000000" paint-order="fill stroke markers" d=" M 144 441 L 107 307" stroke-miterlimit="10" stroke-dasharray=""/></g><g><path fill="#FFFFFF" stroke="none" paint-order="stroke fill markers" d=" M 120.52513742340889 324.3513877738325 L 107 307 L 104.29443243069805 328.8330003464467"/></g><g><path fill="none" stroke="#000000" paint-order="fill stroke markers" d=" M 120.52513742340889 324.3513877738325 L 107 307 L 104.29443243069805 328.8330003464467 L 120.52513742340889 324.3513877738325" stroke-miterlimit="10" stroke-dasharray=""/></g><g><path fill="none" stroke="#000000" paint-order="fill stroke markers" d=" M 308 494 L 441 494" stroke-miterlimit="10" stroke-dasharray=""/></g><g><path fill="none" stroke="#000000" paint-order="fill stroke markers" d=" M 430.83732514237585 498.209517756016 L 441 494 L 430.83732514237585 489.790482243984" stroke-miterlimit="10" stroke-dasharray=""/></g><g><rect fill="#ffffff" stroke="none" x="392" y="512" width="43.01171875" height="13" transform="matrix(1 0 0 1 -14 -38)"/></g><g><g><path fill="none" stroke="none"/><text fill="#000000" stroke="none" font-family="Arial" font-size="13px" font-style="normal" font-weight="normal" text-decoration="undefined" x="413.505859375" y="518.5" text-anchor="middle" dominant-baseline="central" transform="matrix(1 0 0 1 -14 -38)">-tienda</text></g></g><g><rect fill="#ffffff" stroke="none" x="430" y="538" width="7.22998046875" height="13" transform="matrix(1 0 0 1 -14 -38)"/></g><g><g><path fill="none" stroke="none"/><text fill="#000000" stroke="none" font-family="Arial" font-size="13px" font-style="normal" font-weight="normal" text-decoration="undefined" x="433.614990234375" y="544.5" text-anchor="middle" dominant-baseline="central" transform="matrix(1 0 0 1 -14 -38)">1</text></g></g><g><path fill="none" stroke="#000000" paint-order="fill stroke markers" d=" M 591 328 L 849 455" stroke-miterlimit="10" stroke-dasharray=""/></g><g><rect fill="#ffffff" stroke="none" x="628" y="359" width="38.66357421875" height="13" transform="matrix(1 0 0 1 -14 -38)"/></g><g><g><path fill="none" stroke="none"/><text fill="#000000" stroke="none" font-family="Arial" font-size="13px" font-style="normal" font-weight="normal" text-decoration="undefined" x="647.331787109375" y="365.5" text-anchor="middle" dominant-baseline="central" transform="matrix(1 0 0 1 -14 -38)">-cesta</text></g></g><g><rect fill="#ffffff" stroke="none" x="609" y="380" width="19.5126953125" height="13" transform="matrix(1 0 0 1 -14 -38)"/></g><g><g><path fill="none" stroke="none"/><text fill="#000000" stroke="none" font-family="Arial" font-size="13px" font-style="normal" font-weight="normal" text-decoration="undefined" x="618.75634765625" y="386.5" text-anchor="middle" dominant-baseline="central" transform="matrix(1 0 0 1 -14 -38)">0..*</text></g></g><g><rect fill="#ffffff" stroke="none" x="816" y="455" width="64.6826171875" height="13" transform="matrix(1 0 0 1 -14 -38)"/></g><g><g><path fill="none" stroke="none"/><text fill="#000000" stroke="none" font-family="Arial" font-size="13px" font-style="normal" font-weight="normal" text-decoration="undefined" x="848.34130859375" y="461.5" text-anchor="middle" dominant-baseline="central" transform="matrix(1 0 0 1 -14 -38)">-productos</text></g></g><g><rect fill="#ffffff" stroke="none" x="829" y="488" width="19.5126953125" height="13" transform="matrix(1 0 0 1 -14 -38)"/></g><g><g><path fill="none" stroke="none"/><text fill="#000000" stroke="none" font-family="Arial" font-size="13px" font-style="normal" font-weight="normal" text-decoration="undefined" x="838.75634765625" y="494.5" text-anchor="middle" dominant-baseline="central" transform="matrix(1 0 0 1 -14 -38)">0..*</text></g></g><g><path fill="none" stroke="#000000" paint-order="fill stroke markers" d=" M 922 279 L 926 441" stroke-miterlimit="10" stroke-dasharray=""/></g><g><rect fill="#ffffff" stroke="none" x="937" y="333" width="57.43994140625" height="13" transform="matrix(1 0 0 1 -14 -38)"/></g><g><g><path fill="none" stroke="none"/><text fill="#000000" stroke="none" font-family="Arial" font-size="13px" font-style="normal" font-weight="normal" text-decoration="undefined" x="965.719970703125" y="339.5" text-anchor="middle" dominant-baseline="central" transform="matrix(1 0 0 1 -14 -38)">-compras</text></g></g><g><rect fill="#ffffff" stroke="none" x="906" y="336" width="19.5126953125" height="13" transform="matrix(1 0 0 1 -14 -38)"/></g><g><g><path fill="none" stroke="none"/><text fill="#000000" stroke="none" font-family="Arial" font-size="13px" font-style="normal" font-weight="normal" text-decoration="undefined" x="915.75634765625" y="342.5" text-anchor="middle" dominant-baseline="central" transform="matrix(1 0 0 1 -14 -38)">0..*</text></g></g><g><rect fill="#ffffff" stroke="none" x="945" y="443" width="64.6826171875" height="13" transform="matrix(1 0 0 1 -14 -38)"/></g><g><g><path fill="none" stroke="none"/><text fill="#000000" stroke="none" font-family="Arial" font-size="13px" font-style="normal" font-weight="normal" text-decoration="undefined" x="977.34130859375" y="449.5" text-anchor="middle" dominant-baseline="central" transform="matrix(1 0 0 1 -14 -38)">-productos</text></g></g><g><rect fill="#ffffff" stroke="none" x="917" y="451" width="19.5126953125" height="13" transform="matrix(1 0 0 1 -14 -38)"/></g><g><g><path fill="none" stroke="none"/><text fill="#000000" stroke="none" font-family="Arial" font-size="13px" font-style="normal" font-weight="normal" text-decoration="undefined" x="926.75634765625" y="457.5" text-anchor="middle" dominant-baseline="central" transform="matrix(1 0 0 1 -14 -38)">1..*</text></g></g><g><path fill="none" stroke="#000000" paint-order="fill stroke markers" d=" M 687 494 L 849 494" stroke-miterlimit="10" stroke-dasharray=""/></g><g><rect fill="#ffffff" stroke="none" x="798" y="512" width="64.6826171875" height="13" transform="matrix(1 0 0 1 -14 -38)"/></g><g><g><path fill="none" stroke="none"/><text fill="#000000" stroke="none" font-family="Arial" font-size="13px" font-style="normal" font-weight="normal" text-decoration="undefined" x="830.34130859375" y="518.5" text-anchor="middle" dominant-baseline="central" transform="matrix(1 0 0 1 -14 -38)">-productos</text></g></g><g><rect fill="#ffffff" stroke="none" x="702" y="512" width="49.51171875" height="13" transform="matrix(1 0 0 1 -14 -38)"/></g><g><g><path fill="none" stroke="none"/><text fill="#000000" stroke="none" font-family="Arial" font-size="13px" font-style="normal" font-weight="normal" text-decoration="undefined" x="726.755859375" y="518.5" text-anchor="middle" dominant-baseline="central" transform="matrix(1 0 0 1 -14 -38)">-tiendas</text></g></g><g><rect fill="#ffffff" stroke="none" x="708" y="536" width="19.5126953125" height="13" transform="matrix(1 0 0 1 -14 -38)"/></g><g><g><path fill="none" stroke="none"/><text fill="#000000" stroke="none" font-family="Arial" font-size="13px" font-style="normal" font-weight="normal" text-decoration="undefined" x="717.75634765625" y="542.5" text-anchor="middle" dominant-baseline="central" transform="matrix(1 0 0 1 -14 -38)">0..*</text></g></g><g><rect fill="#ffffff" stroke="none" x="840" y="538" width="19.5126953125" height="13" transform="matrix(1 0 0 1 -14 -38)"/></g><g><g><path fill="none" stroke="none"/><text fill="#000000" stroke="none" font-family="Arial" font-size="13px" font-style="normal" font-weight="normal" text-decoration="undefined" x="849.75634765625" y="544.5" text-anchor="middle" dominant-baseline="central" transform="matrix(1 0 0 1 -14 -38)">0..*</text></g></g><g><path fill="none" stroke="#000000" paint-order="fill stroke markers" d=" M 155 258 L 289 259" stroke-miterlimit="10" stroke-dasharray=""/></g><g><path fill="none" stroke="#000000" paint-order="fill stroke markers" d=" M 278.80619468193873 263.13356179794926 L 289 259 L 278.86902155571977 254.714760711287" stroke-miterlimit="10" stroke-dasharray=""/></g><g><rect fill="#ffffff" stroke="none" x="257" y="276" width="38.66357421875" height="13" transform="matrix(1 0 0 1 -14 -38)"/></g><g><g><path fill="none" stroke="none"/><text fill="#000000" stroke="none" font-family="Arial" font-size="13px" font-style="normal" font-weight="normal" text-decoration="undefined" x="276.331787109375" y="282.5" text-anchor="middle" dominant-baseline="central" transform="matrix(1 0 0 1 -14 -38)">-cesta</text></g></g><g><rect fill="#ffffff" stroke="none" x="278" y="303" width="7.22998046875" height="13" transform="matrix(1 0 0 1 -14 -38)"/></g><g><g><path fill="none" stroke="none"/><text fill="#000000" stroke="none" font-family="Arial" font-size="13px" font-style="normal" font-weight="normal" text-decoration="undefined" x="281.614990234375" y="309.5" text-anchor="middle" dominant-baseline="central" transform="matrix(1 0 0 1 -14 -38)">1</text></g></g><g><path fill="none" stroke="#000000" paint-order="fill stroke markers" d=" M 93 209 L 90 90 L 922 90 L 921 161" stroke-miterlimit="10" stroke-dasharray=""/></g><g><path fill="none" stroke="#000000" paint-order="fill stroke markers" d=" M 916.9340217804229 150.77904989162334 L 921 161 L 925.3522223605827 150.8976160969777" stroke-miterlimit="10" stroke-dasharray=""/></g><g><rect fill="#ffffff" stroke="none" x="952" y="174" width="57.43994140625" height="13" transform="matrix(1 0 0 1 -14 -38)"/></g><g><g><path fill="none" stroke="none"/><text fill="#000000" stroke="none" font-family="Arial" font-size="13px" font-style="normal" font-weight="normal" text-decoration="undefined" x="980.719970703125" y="180.5" text-anchor="middle" dominant-baseline="central" transform="matrix(1 0 0 1 -14 -38)">-compras</text></g></g><g><rect fill="#ffffff" stroke="none" x="904" y="175" width="19.5126953125" height="13" transform="matrix(1 0 0 1 -14 -38)"/></g><g><g><path fill="none" stroke="none"/><text fill="#000000" stroke="none" font-family="Arial" font-size="13px" font-style="normal" font-weight="normal" text-decoration="undefined" x="913.75634765625" y="181.5" text-anchor="middle" dominant-baseline="central" transform="matrix(1 0 0 1 -14 -38)">0..*</text></g></g><g><g><path fill="none" stroke="none"/><text fill="#000000" stroke="none" font-family="Helvetica" font-size="28px" font-style="normal" font-weight="normal" text-decoration="undefined" x="229" y="53" text-anchor="start" dominant-baseline="text-before-edge" transform="matrix(1 0 0 1 -14 -38)">Compras - Adri치n Gonz치lez</text></g></g><g><rect fill="#C0C0C0" stroke="none" x="855" y="679" width="113.2001953125" height="58" transform="matrix(1 0 0 1 -14 -38)" fill-opacity="0.2"/></g><g><rect fill="#ffffff" stroke="none" x="848" y="672" width="113.2001953125" height="58" transform="matrix(1 0 0 1 -14 -38)"/></g><g><path fill="none" stroke="#000000" paint-order="fill stroke markers" d=" M 834 634 L 947.2001953125 634 L 947.2001953125 692 L 834 692 L 834 634 Z Z" stroke-miterlimit="10" stroke-dasharray=""/></g><g><path fill="none" stroke="#000000" paint-order="fill stroke markers" d=" M 834 659 L 948.2001953125 659" stroke-miterlimit="10" stroke-dasharray=""/></g><g><path fill="none" stroke="#000000" paint-order="fill stroke markers" d=" M 834 682 L 948.2001953125 682" stroke-miterlimit="10" stroke-dasharray=""/></g><g><g><path fill="none" stroke="none"/><text fill="#000000" stroke="none" font-family="Arial" font-size="13px" font-style="normal" font-weight="bold" text-decoration="undefined" x="905.10009765625" y="685.5" text-anchor="middle" dominant-baseline="central" transform="matrix(1 0 0 1 -14 -38)">Solicitud</text></g></g><g><g><path fill="none" stroke="none"/><text fill="#000000" stroke="none" font-family="Arial" font-size="13px" font-style="normal" font-weight="normal" text-decoration="undefined" x="853" y="708.5" text-anchor="start" dominant-baseline="central" transform="matrix(1 0 0 1 -14 -38)">-fechaHora: Time</text></g></g><g><rect fill="#C0C0C0" stroke="none" x="759" y="775" width="106.5478515625" height="45" transform="matrix(1 0 0 1 -14 -38)" fill-opacity="0.2"/></g><g><rect fill="#ffffff" stroke="none" x="752" y="768" width="106.5478515625" height="45" transform="matrix(1 0 0 1 -14 -38)"/></g><g><path fill="none" stroke="#000000" paint-order="fill stroke markers" d=" M 738 730 L 844.5478515625 730 L 844.5478515625 775 L 738 775 L 738 730 Z Z" stroke-miterlimit="10" stroke-dasharray=""/></g><g><path fill="none" stroke="#000000" paint-order="fill stroke markers" d=" M 738 755 L 845.5478515625 755" stroke-miterlimit="10" stroke-dasharray=""/></g><g><path fill="none" stroke="#000000" paint-order="fill stroke markers" d=" M 738 765 L 845.5478515625 765" stroke-miterlimit="10" stroke-dasharray=""/></g><g><g><path fill="none" stroke="none"/><text fill="#000000" stroke="none" font-family="Arial" font-size="13px" font-style="normal" font-weight="bold" text-decoration="undefined" x="805.77392578125" y="781.5" text-anchor="middle" dominant-baseline="central" transform="matrix(1 0 0 1 -14 -38)">SolicitudTienda</text></g></g><g><rect fill="#C0C0C0" stroke="none" x="911" y="775" width="121.94091796875" height="45" transform="matrix(1 0 0 1 -14 -38)" fill-opacity="0.2"/></g><g><rect fill="#ffffff" stroke="none" x="904" y="768" width="121.94091796875" height="45" transform="matrix(1 0 0 1 -14 -38)"/></g><g><path fill="none" stroke="#000000" paint-order="fill stroke markers" d=" M 890 730 L 1011.94091796875 730 L 1011.94091796875 775 L 890 775 L 890 730 Z Z" stroke-miterlimit="10" stroke-dasharray=""/></g><g><path fill="none" stroke="#000000" paint-order="fill stroke markers" d=" M 890 755 L 1012.94091796875 755" stroke-miterlimit="10" stroke-dasharray=""/></g><g><path fill="none" stroke="#000000" paint-order="fill stroke markers" d=" M 890 765 L 1012.94091796875 765" stroke-miterlimit="10" stroke-dasharray=""/></g><g><g><path fill="none" stroke="none"/><text fill="#000000" stroke="none" font-family="Arial" font-size="13px" font-style="normal" font-weight="bold" text-decoration="undefined" x="965.470458984375" y="781.5" text-anchor="middle" dominant-baseline="central" transform="matrix(1 0 0 1 -14 -38)">SolicitudProducto</text></g></g><g><path fill="none" stroke="#000000" paint-order="fill stroke markers" d=" M 817 729 L 857 693" stroke-miterlimit="10" stroke-dasharray=""/></g><g><path fill="#FFFFFF" stroke="none" paint-order="stroke fill markers" d=" M 847.5243243680558 712.8547619305339 L 857 693 L 836.2602487044031 700.3391223042531"/></g><g><path fill="none" stroke="#000000" paint-order="fill stroke markers" d=" M 847.5243243680558 712.8547619305339 L 857 693 L 836.2602487044031 700.3391223042531 L 847.5243243680558 712.8547619305339" stroke-miterlimit="10" stroke-dasharray=""/></g><g><path fill="none" stroke="#000000" paint-order="fill stroke markers" d=" M 934 729 L 910 693" stroke-miterlimit="10" stroke-dasharray=""/></g><g><path fill="#FFFFFF" stroke="none" paint-order="stroke fill markers" d=" M 928.2795364512216 705.2416725625407 L 910 693 L 914.2694144995677 714.5817538636433"/></g><g><path fill="none" stroke="#000000" paint-order="fill stroke markers" d=" M 928.2795364512216 705.2416725625407 L 910 693 L 914.2694144995677 714.5817538636433 L 928.2795364512216 705.2416725625407" stroke-miterlimit="10" stroke-dasharray=""/></g><g><path fill="none" stroke="#000000" paint-order="fill stroke markers" d=" M 1013 753 L 1082 754 L 1082 490 L 1006 492" stroke-miterlimit="10" stroke-dasharray=""/></g><g><path fill="none" stroke="#000000" paint-order="fill stroke markers" d=" M 1016.0484193071804 487.52459281996767 L 1006 492 L 1016.2698961978849 495.9407146667412" stroke-miterlimit="10" stroke-dasharray=""/></g><g><rect fill="#ffffff" stroke="none" x="1032" y="535" width="58.1826171875" height="13" transform="matrix(1 0 0 1 -14 -38)"/></g><g><g><path fill="none" stroke="none"/><text fill="#000000" stroke="none" font-family="Arial" font-size="13px" font-style="normal" font-weight="normal" text-decoration="undefined" x="1061.09130859375" y="541.5" text-anchor="middle" dominant-baseline="central" transform="matrix(1 0 0 1 -14 -38)">-producto</text></g></g><g><rect fill="#ffffff" stroke="none" x="1040" y="504" width="7.22998046875" height="13" transform="matrix(1 0 0 1 -14 -38)"/></g><g><g><path fill="none" stroke="none"/><text fill="#000000" stroke="none" font-family="Arial" font-size="13px" font-style="normal" font-weight="normal" text-decoration="undefined" x="1043.614990234375" y="510.5" text-anchor="middle" dominant-baseline="central" transform="matrix(1 0 0 1 -14 -38)">1</text></g></g><g><path fill="none" stroke="#000000" paint-order="fill stroke markers" d=" M 159 547 L 162 666 L 833 663" stroke-miterlimit="10" stroke-dasharray=""/></g><g><rect fill="#ffffff" stroke="none" x="184" y="591" width="49.49267578125" height="13" transform="matrix(1 0 0 1 -14 -38)"/></g><g><g><path fill="none" stroke="none"/><text fill="#000000" stroke="none" font-family="Arial" font-size="13px" font-style="normal" font-weight="normal" text-decoration="undefined" x="208.746337890625" y="597.5" text-anchor="middle" dominant-baseline="central" transform="matrix(1 0 0 1 -14 -38)">-artistas</text></g></g><g><rect fill="#ffffff" stroke="none" x="152" y="592" width="7.22998046875" height="13" transform="matrix(1 0 0 1 -14 -38)"/></g><g><g><path fill="none" stroke="none"/><text fill="#000000" stroke="none" font-family="Arial" font-size="13px" font-style="normal" font-weight="normal" text-decoration="undefined" x="155.614990234375" y="598.5" text-anchor="middle" dominant-baseline="central" transform="matrix(1 0 0 1 -14 -38)">1</text></g></g><g><rect fill="#ffffff" stroke="none" x="768" y="679" width="65.025390625" height="13" transform="matrix(1 0 0 1 -14 -38)"/></g><g><g><path fill="none" stroke="none"/><text fill="#000000" stroke="none" font-family="Arial" font-size="13px" font-style="normal" font-weight="normal" text-decoration="undefined" x="800.5126953125" y="685.5" text-anchor="middle" dominant-baseline="central" transform="matrix(1 0 0 1 -14 -38)">-solicitudes</text></g></g><g><rect fill="#ffffff" stroke="none" x="822" y="707" width="6.5" height="13" transform="matrix(1 0 0 1 -14 -38)"/></g><g><g><path fill="none" stroke="none"/><text fill="#000000" stroke="none" font-family="Arial" font-size="13px" font-style="normal" font-weight="normal" text-decoration="undefined" x="825.25" y="713.5" text-anchor="middle" dominant-baseline="central" transform="matrix(1 0 0 1 -14 -38)">*</text></g></g></g></svg>