<svg version="1.1" xmlns="http://www.w3.org/2000/svg" xmlns:xlink="http://www.w3.org/1999/xlink" width="1748.236328125" height="1628"><defs/><g><g><path fill="none" stroke="#000000" paint-order="fill stroke markers" d=" M 10 10 L 1570 10 L 1570 1618 L 10 1618 L 10 10" stroke-miterlimit="10" stroke-dasharray=""/></g><g><path fill="#ffffff" stroke="none" paint-order="stroke fill markers" d=" M 10 10 L 10 33 L 151.734375 33 L 163.234375 21.5 L 163.234375 10 L 10 10"/></g><g><path fill="none" stroke="#000000" paint-order="fill stroke markers" d=" M 10 10 L 10 33 L 151.734375 33 L 163.234375 21.5 L 163.234375 10 L 10 10 L 10 10" stroke-miterlimit="10" stroke-dasharray=""/></g><g><g><path fill="none" stroke="none"/><text fill="#000000" stroke="none" font-family="Arial" font-size="13px" font-style="normal" font-weight="normal" text-decoration="undefined" x="88.732177734375" y="19.5" text-anchor="middle" dominant-baseline="central" transform="matrix(1 0 0 1 2 2)">enviarMensajeChat</text></g></g><g><g><path fill="none" stroke="none"/><text fill="#000000" stroke="none" font-family="Arial" font-size="13px" font-style="normal" font-weight="bold" text-decoration="undefined" x="19.864990234375" y="19.5" text-anchor="middle" dominant-baseline="central" transform="matrix(1 0 0 1 2 2)">sd</text></g></g><g><rect fill="#C0C0C0" stroke="none" x="47" y="47" width="177.23779296875" height="40" transform="matrix(1 0 0 1 2 2)" fill-opacity="0.2"/></g><g><rect fill="#ffffff" stroke="none" x="40" y="40" width="177.23779296875" height="40" transform="matrix(1 0 0 1 2 2)"/></g><g><path fill="none" stroke="#000000" paint-order="fill stroke markers" d=" M 42 42 L 219.23779296875 42 L 219.23779296875 82 L 42 82 L 42 42 Z Z" stroke-miterlimit="10" stroke-dasharray=""/></g><g><g><path fill="none" stroke="none"/><text fill="#000000" stroke="none" font-family="Arial" font-size="13px" font-style="normal" font-weight="bold" text-decoration="undefined" x="129.118896484375" y="53.5" text-anchor="middle" dominant-baseline="central" transform="matrix(1 0 0 1 2 2)">: Vista Productor</text></g></g><g><path fill="none" stroke="#000000" paint-order="fill stroke markers" d=" M 131.5 83 L 131.5 1594" stroke-miterlimit="10" stroke-dasharray="3"/></g><g><rect fill="#C0C0C0" stroke="none" x="719" y="47" width="228.0380859375" height="40" transform="matrix(1 0 0 1 2 2)" fill-opacity="0.2"/></g><g><rect fill="#ffffff" stroke="none" x="712" y="40" width="228.0380859375" height="40" transform="matrix(1 0 0 1 2 2)"/></g><g><path fill="none" stroke="#000000" paint-order="fill stroke markers" d=" M 714 42 L 942.0380859375 42 L 942.0380859375 82 L 714 82 L 714 42 Z Z" stroke-miterlimit="10" stroke-dasharray=""/></g><g><g><path fill="none" stroke="none"/><text fill="#000000" stroke="none" font-family="Arial" font-size="13px" font-style="normal" font-weight="bold" text-decoration="undefined" x="826.51904296875" y="53.5" text-anchor="middle" dominant-baseline="central" transform="matrix(1 0 0 1 2 2)">: Gestión de Productores</text></g></g><g><path fill="none" stroke="#000000" paint-order="fill stroke markers" d=" M 828.5 83 L 828.5 1602" stroke-miterlimit="10" stroke-dasharray="3"/></g><g><rect fill="#C0C0C0" stroke="none" x="1351" y="47" width="202.87353515625" height="40" transform="matrix(1 0 0 1 2 2)" fill-opacity="0.2"/></g><g><rect fill="#ffffff" stroke="none" x="1344" y="40" width="202.87353515625" height="40" transform="matrix(1 0 0 1 2 2)"/></g><g><path fill="none" stroke="#000000" paint-order="fill stroke markers" d=" M 1346 42 L 1548.87353515625 42 L 1548.87353515625 82 L 1346 82 L 1346 42 Z Z" stroke-miterlimit="10" stroke-dasharray=""/></g><g><g><path fill="none" stroke="none"/><text fill="#000000" stroke="none" font-family="Arial" font-size="13px" font-style="normal" font-weight="bold" text-decoration="undefined" x="1445.936767578125" y="53.5" text-anchor="middle" dominant-baseline="central" transform="matrix(1 0 0 1 2 2)">: Datos Confidenciales</text></g></g><g><path fill="none" stroke="#000000" paint-order="fill stroke markers" d=" M 1447.5 83 L 1447.5 1594" stroke-miterlimit="10" stroke-dasharray="3"/></g><g><rect fill="#C0C0C0" stroke="none" x="967" y="203" width="111" height="40" transform="matrix(1 0 0 1 2 2)" fill-opacity="0.2"/></g><g><rect fill="#ffffff" stroke="none" x="960" y="196" width="111" height="40" transform="matrix(1 0 0 1 2 2)"/></g><g><path fill="none" stroke="#000000" paint-order="fill stroke markers" d=" M 962 198 L 1073 198 L 1073 238 L 962 238 L 962 198 Z Z" stroke-miterlimit="10" stroke-dasharray=""/></g><g><g><path fill="none" stroke="none"/><text fill="#000000" stroke="none" font-family="Arial" font-size="13px" font-style="normal" font-weight="bold" text-decoration="undefined" x="1016" y="209.5" text-anchor="middle" dominant-baseline="central" transform="matrix(1 0 0 1 2 2)">autor: Usuario</text></g></g><g><path fill="none" stroke="#000000" paint-order="fill stroke markers" d=" M 1018.5 239 L 1018.5 288" stroke-miterlimit="10" stroke-dasharray="3"/></g><g><rect fill="#C0C0C0" stroke="none" x="975" y="1323" width="90.8017578125" height="40" transform="matrix(1 0 0 1 2 2)" fill-opacity="0.2"/></g><g><rect fill="#ffffff" stroke="none" x="968" y="1316" width="90.8017578125" height="40" transform="matrix(1 0 0 1 2 2)"/></g><g><path fill="none" stroke="#000000" paint-order="fill stroke markers" d=" M 970 1318 L 1060.8017578125 1318 L 1060.8017578125 1358 L 970 1358 L 970 1318 Z Z" stroke-miterlimit="10" stroke-dasharray=""/></g><g><g><path fill="none" stroke="none"/><text fill="#000000" stroke="none" font-family="Arial" font-size="13px" font-style="normal" font-weight="bold" text-decoration="undefined" x="1013.90087890625" y="1329.5" text-anchor="middle" dominant-baseline="central" transform="matrix(1 0 0 1 2 2)">m: Mensaje</text></g></g><g><path fill="none" stroke="#000000" paint-order="fill stroke markers" d=" M 1015.5 1359 L 1015.5 1408" stroke-miterlimit="10" stroke-dasharray="3"/></g><g><g><path fill="none" stroke="none"/><text fill="#000000" stroke="none" font-family="Arial" font-size="20px" font-style="normal" font-weight="normal" text-decoration="undefined" x="1589" y="21" text-anchor="start" dominant-baseline="text-before-edge" transform="matrix(1 0 0 1 2 2)">ADRIAN DEL</text><text fill="#000000" stroke="none" font-family="Arial" font-size="20px" font-style="normal" font-weight="normal" text-decoration="undefined" x="1589" y="41" text-anchor="start" dominant-baseline="text-before-edge" transform="matrix(1 0 0 1 2 2)">RIO NIETO</text></g></g><g><path fill="none" stroke="#000000" paint-order="fill stroke markers" d=" M 132 124 L 821 124" stroke-miterlimit="10" stroke-dasharray=""/></g><g><path fill="#000000" stroke="none" paint-order="stroke fill markers" d=" M 810.8373251423759 128.209517756016 L 821 124 L 810.8373251423758 119.79048224398402"/></g><g><path fill="none" stroke="#000000" paint-order="fill stroke markers" d=" M 810.8373251423759 128.209517756016 L 821 124 L 810.8373251423758 119.79048224398402 L 810.8373251423759 128.209517756016" stroke-miterlimit="10" stroke-dasharray=""/></g><g><rect fill="#ffffff" stroke="none" x="142" y="106" width="664.7646484375" height="13" transform="matrix(1 0 0 1 2 2)"/></g><g><g><path fill="none" stroke="none"/><text fill="#000000" stroke="none" font-family="Arial" font-size="13px" font-style="normal" font-weight="normal" text-decoration="undefined" x="474.38232421875" y="112.5" text-anchor="middle" dominant-baseline="central" transform="matrix(1 0 0 1 2 2)">1 : enviarMensajeChat(idUsuarioSolicitante: String, idUsuarioSolicitado: String, idChat: String, msg: String):Boolean</text></g></g><g><rect fill="#ffffff" stroke="none" x="819" y="122" width="14" height="1454" transform="matrix(1 0 0 1 2 2)"/></g><g><path fill="none" stroke="#000000" paint-order="fill stroke markers" d=" M 821 124 L 835 124 L 835 1578 L 821 1578 L 821 124 Z Z" stroke-miterlimit="10" stroke-dasharray=""/></g><g><path fill="none" stroke="#000000" paint-order="fill stroke markers" d=" M 835 154 L 1440 154" stroke-miterlimit="10" stroke-dasharray=""/></g><g><path fill="#000000" stroke="none" paint-order="stroke fill markers" d=" M 1429.837325142376 158.209517756016 L 1440 154 L 1429.837325142376 149.790482243984"/></g><g><path fill="none" stroke="#000000" paint-order="fill stroke markers" d=" M 1429.837325142376 158.209517756016 L 1440 154 L 1429.837325142376 149.790482243984 L 1429.837325142376 158.209517756016" stroke-miterlimit="10" stroke-dasharray=""/></g><g><rect fill="#ffffff" stroke="none" x="1045" y="136" width="180.64794921875" height="13" transform="matrix(1 0 0 1 2 2)"/></g><g><g><path fill="none" stroke="none"/><text fill="#000000" stroke="none" font-family="Arial" font-size="13px" font-style="normal" font-weight="normal" text-decoration="undefined" x="1135.323974609375" y="142.5" text-anchor="middle" dominant-baseline="central" transform="matrix(1 0 0 1 2 2)">2 : obtenerChat(idChat)</text></g></g><g><rect fill="#ffffff" stroke="none" x="1438" y="152" width="14" height="28" transform="matrix(1 0 0 1 2 2)"/></g><g><path fill="none" stroke="#000000" paint-order="fill stroke markers" d=" M 1440 154 L 1454 154 L 1454 182 L 1440 182 L 1440 154 Z Z" stroke-miterlimit="10" stroke-dasharray=""/></g><g><path fill="none" stroke="#000000" paint-order="fill stroke markers" d=" M 1440 178 L 835 178" stroke-miterlimit="10" stroke-dasharray="3"/></g><g><path fill="none" stroke="#000000" paint-order="fill stroke markers" d=" M 845.1626748576241 173.790482243984 L 835 178 L 845.1626748576241 182.209517756016" stroke-miterlimit="10" stroke-dasharray=""/></g><g><rect fill="#ffffff" stroke="none" x="1122" y="180" width="24.5654296875" height="13" transform="matrix(1 0 0 1 2 2)"/></g><g><g><path fill="none" stroke="none"/><text fill="#000000" stroke="none" font-family="Arial" font-size="13px" font-style="normal" font-weight="normal" text-decoration="undefined" x="1134.28271484375" y="186.5" text-anchor="middle" dominant-baseline="central" transform="matrix(1 0 0 1 2 2)">3 : c</text></g></g><g><path fill="none" stroke="#000000" paint-order="fill stroke markers" d=" M 835 218 L 962 218" stroke-miterlimit="10" stroke-dasharray="3"/></g><g><path fill="none" stroke="#000000" paint-order="fill stroke markers" d=" M 951.8373251423759 222.209517756016 L 962 218 L 951.8373251423758 213.790482243984" stroke-miterlimit="10" stroke-dasharray=""/></g><g><rect fill="#ffffff" stroke="none" x="857" y="200" width="78.04443359375" height="13" transform="matrix(1 0 0 1 2 2)"/></g><g><g><path fill="none" stroke="none"/><text fill="#000000" stroke="none" font-family="Arial" font-size="13px" font-style="normal" font-weight="normal" text-decoration="undefined" x="896.022216796875" y="206.5" text-anchor="middle" dominant-baseline="central" transform="matrix(1 0 0 1 2 2)">4 : </text></g></g><g><rect fill="#ffffff" stroke="none" x="871" y="185" width="50.5908203125" height="13" transform="matrix(1 0 0 1 2 2)"/></g><g><g><path fill="none" stroke="none"/><text fill="#000000" stroke="none" font-family="Arial" font-size="13px" font-style="normal" font-weight="normal" text-decoration="undefined" x="896.29541015625" y="191.5" text-anchor="middle" dominant-baseline="central" transform="matrix(1 0 0 1 2 2)">«create»</text></g></g><g><path fill="none" stroke="#000000" paint-order="fill stroke markers" d=" M 835 370 L 1440 370" stroke-miterlimit="10" stroke-dasharray=""/></g><g><path fill="#000000" stroke="none" paint-order="stroke fill markers" d=" M 1429.837325142376 374.209517756016 L 1440 370 L 1429.837325142376 365.790482243984"/></g><g><path fill="none" stroke="#000000" paint-order="fill stroke markers" d=" M 1429.837325142376 374.209517756016 L 1440 370 L 1429.837325142376 365.790482243984 L 1429.837325142376 374.209517756016" stroke-miterlimit="10" stroke-dasharray=""/></g><g><rect fill="#ffffff" stroke="none" x="1014" y="352" width="242.06787109375" height="13" transform="matrix(1 0 0 1 2 2)"/></g><g><g><path fill="none" stroke="none"/><text fill="#000000" stroke="none" font-family="Arial" font-size="13px" font-style="normal" font-weight="normal" text-decoration="undefined" x="1135.033935546875" y="358.5" text-anchor="middle" dominant-baseline="central" transform="matrix(1 0 0 1 2 2)">5 : obtenerProductor(idUsuarioSolicitante)</text></g></g><g><rect fill="#ffffff" stroke="none" x="1438" y="368" width="14" height="28" transform="matrix(1 0 0 1 2 2)"/></g><g><path fill="none" stroke="#000000" paint-order="fill stroke markers" d=" M 1440 370 L 1454 370 L 1454 398 L 1440 398 L 1440 370 Z Z" stroke-miterlimit="10" stroke-dasharray=""/></g><g><path fill="none" stroke="#000000" paint-order="fill stroke markers" d=" M 1440 394 L 835 394" stroke-miterlimit="10" stroke-dasharray="3"/></g><g><path fill="none" stroke="#000000" paint-order="fill stroke markers" d=" M 845.1626748576241 389.790482243984 L 835 394 L 845.1626748576241 398.209517756016" stroke-miterlimit="10" stroke-dasharray=""/></g><g><rect fill="#ffffff" stroke="none" x="1122" y="396" width="25.29541015625" height="13" transform="matrix(1 0 0 1 2 2)"/></g><g><g><path fill="none" stroke="none"/><text fill="#000000" stroke="none" font-family="Arial" font-size="13px" font-style="normal" font-weight="normal" text-decoration="undefined" x="1134.647705078125" y="402.5" text-anchor="middle" dominant-baseline="central" transform="matrix(1 0 0 1 2 2)">6 : p</text></g></g><g><path fill="none" stroke="#000000" paint-order="fill stroke markers" d=" M 835 418 L 865 418 L 865 438 L 842 438" stroke-miterlimit="10" stroke-dasharray=""/></g><g><path fill="#000000" stroke="none" paint-order="stroke fill markers" d=" M 852.1626748576241 433.790482243984 L 842 438 L 852.1626748576241 442.209517756016"/></g><g><path fill="none" stroke="#000000" paint-order="fill stroke markers" d=" M 852.1626748576241 433.790482243984 L 842 438 L 852.1626748576241 442.209517756016 L 852.1626748576241 433.790482243984" stroke-miterlimit="10" stroke-dasharray=""/></g><g><rect fill="#ffffff" stroke="none" x="880" y="419" width="78.04443359375" height="13" transform="matrix(1 0 0 1 2 2)"/></g><g><g><path fill="none" stroke="none"/><text fill="#000000" stroke="none" font-family="Arial" font-size="13px" font-style="normal" font-weight="normal" text-decoration="undefined" x="919.022216796875" y="425.5" text-anchor="middle" dominant-baseline="central" transform="matrix(1 0 0 1 2 2)">7 : autor = p</text></g></g><g><rect fill="#ffffff" stroke="none" x="826" y="436" width="14" height="28" transform="matrix(1 0 0 1 2 2)"/></g><g><path fill="none" stroke="#000000" paint-order="fill stroke markers" d=" M 828 438 L 842 438 L 842 466 L 828 466 L 828 438 Z Z" stroke-miterlimit="10" stroke-dasharray=""/></g><g><path fill="none" stroke="#000000" paint-order="fill stroke markers" d=" M 835 538 L 1440 538" stroke-miterlimit="10" stroke-dasharray=""/></g><g><path fill="#000000" stroke="none" paint-order="stroke fill markers" d=" M 1429.837325142376 542.209517756016 L 1440 538 L 1429.837325142376 533.790482243984"/></g><g><path fill="none" stroke="#000000" paint-order="fill stroke markers" d=" M 1429.837325142376 542.209517756016 L 1440 538 L 1429.837325142376 533.790482243984 L 1429.837325142376 542.209517756016" stroke-miterlimit="10" stroke-dasharray=""/></g><g><rect fill="#ffffff" stroke="none" x="1024" y="520" width="222.548828125" height="13" transform="matrix(1 0 0 1 2 2)"/></g><g><g><path fill="none" stroke="none"/><text fill="#000000" stroke="none" font-family="Arial" font-size="13px" font-style="normal" font-weight="normal" text-decoration="undefined" x="1135.2744140625" y="526.5" text-anchor="middle" dominant-baseline="central" transform="matrix(1 0 0 1 2 2)">8 : obtenerArtista(idUsuarioSolicitante)</text></g></g><g><rect fill="#ffffff" stroke="none" x="1438" y="536" width="14" height="28" transform="matrix(1 0 0 1 2 2)"/></g><g><path fill="none" stroke="#000000" paint-order="fill stroke markers" d=" M 1440 538 L 1454 538 L 1454 566 L 1440 566 L 1440 538 Z Z" stroke-miterlimit="10" stroke-dasharray=""/></g><g><path fill="none" stroke="#000000" paint-order="fill stroke markers" d=" M 1447 570 L 835 570" stroke-miterlimit="10" stroke-dasharray="3"/></g><g><path fill="none" stroke="#000000" paint-order="fill stroke markers" d=" M 845.1626748576241 565.790482243984 L 835 570 L 845.1626748576241 574.209517756016" stroke-miterlimit="10" stroke-dasharray=""/></g><g><rect fill="#ffffff" stroke="none" x="1122" y="572" width="33.236328125" height="13" transform="matrix(1 0 0 1 2 2)"/></g><g><g><path fill="none" stroke="none"/><text fill="#000000" stroke="none" font-family="Arial" font-size="13px" font-style="normal" font-weight="normal" text-decoration="undefined" x="1138.6181640625" y="578.5" text-anchor="middle" dominant-baseline="central" transform="matrix(1 0 0 1 2 2)">9 : a</text></g></g><g><path fill="none" stroke="#000000" paint-order="fill stroke markers" d=" M 835 594 L 865 594 L 865 614 L 842 614" stroke-miterlimit="10" stroke-dasharray=""/></g><g><path fill="#000000" stroke="none" paint-order="stroke fill markers" d=" M 852.1626748576241 609.790482243984 L 842 614 L 852.1626748576241 618.209517756016"/></g><g><path fill="none" stroke="#000000" paint-order="fill stroke markers" d=" M 852.1626748576241 609.790482243984 L 842 614 L 852.1626748576241 618.209517756016 L 852.1626748576241 609.790482243984" stroke-miterlimit="10" stroke-dasharray=""/></g><g><rect fill="#ffffff" stroke="none" x="880" y="592" width="85.2744140625" height="13" transform="matrix(1 0 0 1 2 2)"/></g><g><g><path fill="none" stroke="none"/><text fill="#000000" stroke="none" font-family="Arial" font-size="13px" font-style="normal" font-weight="normal" text-decoration="undefined" x="922.63720703125" y="598.5" text-anchor="middle" dominant-baseline="central" transform="matrix(1 0 0 1 2 2)">10 : autor = a</text></g></g><g><rect fill="#ffffff" stroke="none" x="826" y="612" width="14" height="28" transform="matrix(1 0 0 1 2 2)"/></g><g><path fill="none" stroke="#000000" paint-order="fill stroke markers" d=" M 828 614 L 842 614 L 842 642 L 828 642 L 828 614 Z Z" stroke-miterlimit="10" stroke-dasharray=""/></g><g><path fill="none" stroke="#000000" paint-order="fill stroke markers" d=" M 835 794 L 865 794 L 865 814 L 842 814" stroke-miterlimit="10" stroke-dasharray=""/></g><g><path fill="#000000" stroke="none" paint-order="stroke fill markers" d=" M 852.1626748576241 809.790482243984 L 842 814 L 852.1626748576241 818.209517756016"/></g><g><path fill="none" stroke="#000000" paint-order="fill stroke markers" d=" M 852.1626748576241 809.790482243984 L 842 814 L 852.1626748576241 818.209517756016 L 852.1626748576241 809.790482243984" stroke-miterlimit="10" stroke-dasharray=""/></g><g><rect fill="#ffffff" stroke="none" x="880" y="795" width="147.7861328125" height="13" transform="matrix(1 0 0 1 2 2)"/></g><g><g><path fill="none" stroke="none"/><text fill="#000000" stroke="none" font-family="Arial" font-size="13px" font-style="normal" font-weight="normal" text-decoration="undefined" x="953.89306640625" y="801.5" text-anchor="middle" dominant-baseline="central" transform="matrix(1 0 0 1 2 2)">11 : c.aAceptaChat = true</text></g></g><g><rect fill="#ffffff" stroke="none" x="826" y="812" width="14" height="28" transform="matrix(1 0 0 1 2 2)"/></g><g><path fill="none" stroke="#000000" paint-order="fill stroke markers" d=" M 828 814 L 842 814 L 842 842 L 828 842 L 828 814 Z Z" stroke-miterlimit="10" stroke-dasharray=""/></g><g><path fill="none" stroke="#000000" paint-order="fill stroke markers" d=" M 821 952 L 132 952" stroke-miterlimit="10" stroke-dasharray="3"/></g><g><path fill="none" stroke="#000000" paint-order="fill stroke markers" d=" M 142.16267485762415 947.790482243984 L 132 952 L 142.16267485762415 956.209517756016" stroke-miterlimit="10" stroke-dasharray=""/></g><g><rect fill="#ffffff" stroke="none" x="447" y="954" width="52.75537109375" height="13" transform="matrix(1 0 0 1 2 2)"/></g><g><g><path fill="none" stroke="none"/><text fill="#000000" stroke="none" font-family="Arial" font-size="13px" font-style="normal" font-weight="normal" text-decoration="undefined" x="473.377685546875" y="960.5" text-anchor="middle" dominant-baseline="central" transform="matrix(1 0 0 1 2 2)">12 : false</text></g></g><g><path fill="none" stroke="#000000" paint-order="fill stroke markers" d=" M 821 1066 L 132 1066" stroke-miterlimit="10" stroke-dasharray="3"/></g><g><path fill="none" stroke="#000000" paint-order="fill stroke markers" d=" M 142.16267485762415 1061.7904822439841 L 132 1066 L 142.16267485762415 1070.2095177560159" stroke-miterlimit="10" stroke-dasharray=""/></g><g><rect fill="#ffffff" stroke="none" x="447" y="1068" width="52.75537109375" height="13" transform="matrix(1 0 0 1 2 2)"/></g><g><g><path fill="none" stroke="none"/><text fill="#000000" stroke="none" font-family="Arial" font-size="13px" font-style="normal" font-weight="normal" text-decoration="undefined" x="473.377685546875" y="1074.5" text-anchor="middle" dominant-baseline="central" transform="matrix(1 0 0 1 2 2)">13 : false</text></g></g><g><path fill="none" stroke="#000000" paint-order="fill stroke markers" d=" M 835 1194 L 865 1194 L 865 1214 L 842 1214" stroke-miterlimit="10" stroke-dasharray=""/></g><g><path fill="#000000" stroke="none" paint-order="stroke fill markers" d=" M 852.1626748576241 1209.7904822439841 L 842 1214 L 852.1626748576241 1218.2095177560159"/></g><g><path fill="none" stroke="#000000" paint-order="fill stroke markers" d=" M 852.1626748576241 1209.7904822439841 L 842 1214 L 852.1626748576241 1218.2095177560159 L 852.1626748576241 1209.7904822439841" stroke-miterlimit="10" stroke-dasharray=""/></g><g><rect fill="#ffffff" stroke="none" x="880" y="1195" width="164.38525390625" height="13" transform="matrix(1 0 0 1 2 2)"/></g><g><g><path fill="none" stroke="none"/><text fill="#000000" stroke="none" font-family="Arial" font-size="13px" font-style="normal" font-weight="normal" text-decoration="undefined" x="962.192626953125" y="1201.5" text-anchor="middle" dominant-baseline="central" transform="matrix(1 0 0 1 2 2)">14 : c.cArchivadoPorU = null</text></g></g><g><rect fill="#ffffff" stroke="none" x="826" y="1212" width="14" height="28" transform="matrix(1 0 0 1 2 2)"/></g><g><path fill="none" stroke="#000000" paint-order="fill stroke markers" d=" M 828 1214 L 842 1214 L 842 1242 L 828 1242 L 828 1214 Z Z" stroke-miterlimit="10" stroke-dasharray=""/></g><g><path fill="none" stroke="#000000" paint-order="fill stroke markers" d=" M 835 1338 L 970 1338" stroke-miterlimit="10" stroke-dasharray="3"/></g><g><path fill="none" stroke="#000000" paint-order="fill stroke markers" d=" M 959.8373251423759 1342.2095177560159 L 970 1338 L 959.8373251423758 1333.7904822439841" stroke-miterlimit="10" stroke-dasharray=""/></g><g><rect fill="#ffffff" stroke="none" x="858" y="1320" width="85.2744140625" height="13" transform="matrix(1 0 0 1 2 2)"/></g><g><g><path fill="none" stroke="none"/><text fill="#000000" stroke="none" font-family="Arial" font-size="13px" font-style="normal" font-weight="normal" text-decoration="undefined" x="900.63720703125" y="1326.5" text-anchor="middle" dominant-baseline="central" transform="matrix(1 0 0 1 2 2)">15 : </text></g></g><g><rect fill="#ffffff" stroke="none" x="875" y="1305" width="50.5908203125" height="13" transform="matrix(1 0 0 1 2 2)"/></g><g><g><path fill="none" stroke="none"/><text fill="#000000" stroke="none" font-family="Arial" font-size="13px" font-style="normal" font-weight="normal" text-decoration="undefined" x="900.29541015625" y="1311.5" text-anchor="middle" dominant-baseline="central" transform="matrix(1 0 0 1 2 2)">«create»</text></g></g><g><path fill="none" stroke="#000000" paint-order="fill stroke markers" d=" M 835 1418 L 865 1418 L 865 1438 L 842 1438" stroke-miterlimit="10" stroke-dasharray=""/></g><g><path fill="#000000" stroke="none" paint-order="stroke fill markers" d=" M 852.1626748576241 1433.7904822439841 L 842 1438 L 852.1626748576241 1442.2095177560159"/></g><g><path fill="none" stroke="#000000" paint-order="fill stroke markers" d=" M 852.1626748576241 1433.7904822439841 L 842 1438 L 852.1626748576241 1442.2095177560159 L 852.1626748576241 1433.7904822439841" stroke-miterlimit="10" stroke-dasharray=""/></g><g><rect fill="#ffffff" stroke="none" x="871" y="1424" width="135.83349609375" height="13" transform="matrix(1 0 0 1 2 2)"/></g><g><g><path fill="none" stroke="none"/><text fill="#000000" stroke="none" font-family="Arial" font-size="13px" font-style="normal" font-weight="normal" text-decoration="undefined" x="938.916748046875" y="1430.5" text-anchor="middle" dominant-baseline="central" transform="matrix(1 0 0 1 2 2)">16 : c.mensajes.add(m)</text></g></g><g><rect fill="#ffffff" stroke="none" x="826" y="1436" width="14" height="28" transform="matrix(1 0 0 1 2 2)"/></g><g><path fill="none" stroke="#000000" paint-order="fill stroke markers" d=" M 828 1438 L 842 1438 L 842 1466 L 828 1466 L 828 1438 Z Z" stroke-miterlimit="10" stroke-dasharray=""/></g><g><path fill="none" stroke="#000000" paint-order="fill stroke markers" d=" M 835 1509 L 1440 1509" stroke-miterlimit="10" stroke-dasharray=""/></g><g><path fill="#000000" stroke="none" paint-order="stroke fill markers" d=" M 1429.837325142376 1513.2095177560159 L 1440 1509 L 1429.837325142376 1504.7904822439841"/></g><g><path fill="none" stroke="#000000" paint-order="fill stroke markers" d=" M 1429.837325142376 1513.2095177560159 L 1440 1509 L 1429.837325142376 1504.7904822439841 L 1429.837325142376 1513.2095177560159" stroke-miterlimit="10" stroke-dasharray=""/></g><g><rect fill="#ffffff" stroke="none" x="1033" y="1491" width="205.21337890625" height="13" transform="matrix(1 0 0 1 2 2)"/></g><g><g><path fill="none" stroke="none"/><text fill="#000000" stroke="none" font-family="Arial" font-size="13px" font-style="normal" font-weight="normal" text-decoration="undefined" x="1135.606689453125" y="1497.5" text-anchor="middle" dominant-baseline="central" transform="matrix(1 0 0 1 2 2)">17 : modificarChat(c: Chat):boolean</text></g></g><g><rect fill="#ffffff" stroke="none" x="1438" y="1507" width="14" height="28" transform="matrix(1 0 0 1 2 2)"/></g><g><path fill="none" stroke="#000000" paint-order="fill stroke markers" d=" M 1440 1509 L 1454 1509 L 1454 1537 L 1440 1537 L 1440 1509 Z Z" stroke-miterlimit="10" stroke-dasharray=""/></g><g><path fill="none" stroke="#000000" paint-order="fill stroke markers" d=" M 1447 1538 L 835 1538" stroke-miterlimit="10" stroke-dasharray="3"/></g><g><path fill="none" stroke="#000000" paint-order="fill stroke markers" d=" M 845.1626748576241 1533.7904822439841 L 835 1538 L 845.1626748576241 1542.2095177560159" stroke-miterlimit="10" stroke-dasharray=""/></g><g><rect fill="#ffffff" stroke="none" x="1109" y="1540" width="59.97900390625" height="13" transform="matrix(1 0 0 1 2 2)"/></g><g><g><path fill="none" stroke="none"/><text fill="#000000" stroke="none" font-family="Arial" font-size="13px" font-style="normal" font-weight="normal" text-decoration="undefined" x="1138.989501953125" y="1546.5" text-anchor="middle" dominant-baseline="central" transform="matrix(1 0 0 1 2 2)">18 : status</text></g></g><g><path fill="none" stroke="#000000" paint-order="fill stroke markers" d=" M 821 1563 L 132 1563" stroke-miterlimit="10" stroke-dasharray="3"/></g><g><path fill="none" stroke="#000000" paint-order="fill stroke markers" d=" M 142.16267485762415 1558.7904822439841 L 132 1563 L 142.16267485762415 1567.2095177560159" stroke-miterlimit="10" stroke-dasharray=""/></g><g><rect fill="#ffffff" stroke="none" x="444" y="1565" width="59.97900390625" height="13" transform="matrix(1 0 0 1 2 2)"/></g><g><g><path fill="none" stroke="none"/><text fill="#000000" stroke="none" font-family="Arial" font-size="13px" font-style="normal" font-weight="normal" text-decoration="undefined" x="473.989501953125" y="1571.5" text-anchor="middle" dominant-baseline="central" transform="matrix(1 0 0 1 2 2)">19 : status</text></g></g><g><path fill="none" stroke="#000000" paint-order="fill stroke markers" d=" M 770 290 L 1474 290 L 1474 650 L 770 650 L 770 290" stroke-miterlimit="10" stroke-dasharray=""/></g><g><path fill="#ffffff" stroke="none" paint-order="stroke fill markers" d=" M 770 290 L 770 313 L 961.58251953125 313 L 973.08251953125 301.5 L 973.08251953125 290 L 770 290"/></g><g><path fill="none" stroke="#000000" paint-order="fill stroke markers" d=" M 770 290 L 770 313 L 961.58251953125 313 L 973.08251953125 301.5 L 973.08251953125 290 L 770 290 L 770 290" stroke-miterlimit="10" stroke-dasharray=""/></g><g><g><path fill="none" stroke="none"/><text fill="#000000" stroke="none" font-family="Arial" font-size="13px" font-style="normal" font-weight="normal" text-decoration="undefined" x="873.65625" y="299.5" text-anchor="middle" dominant-baseline="central" transform="matrix(1 0 0 1 2 2)">productorOArtistaSolicitante</text></g></g><g><g><path fill="none" stroke="none"/><text fill="#000000" stroke="none" font-family="Arial" font-size="13px" font-style="normal" font-weight="bold" text-decoration="undefined" x="779.864990234375" y="299.5" text-anchor="middle" dominant-baseline="central" transform="matrix(1 0 0 1 2 2)">alt</text></g></g><g><g><path fill="none" stroke="none"/><text fill="#000000" stroke="none" font-family="Arial" font-size="13px" font-style="normal" font-weight="normal" text-decoration="undefined" x="910.12255859375" y="332.5" text-anchor="middle" dominant-baseline="central" transform="matrix(1 0 0 1 2 2)">[c.pParticipante.id == idUsuarioSolicitante]</text></g></g><g><path fill="none" stroke="#000000" paint-order="fill stroke markers" d=" M 770 474 L 1474 474" stroke-miterlimit="10" stroke-dasharray="10,3"/></g><g><g><path fill="none" stroke="none"/><text fill="#000000" stroke="none" font-family="Arial" font-size="13px" font-style="normal" font-weight="normal" text-decoration="undefined" x="910.12255859375" y="493.5" text-anchor="middle" dominant-baseline="central" transform="matrix(1 0 0 1 2 2)">[c.aParticipante.id == idUsuarioSolicitante]</text></g></g><g><path fill="none" stroke="#000000" paint-order="fill stroke markers" d=" M 770 714 L 1474 714 L 1474 866 L 770 866 L 770 714" stroke-miterlimit="10" stroke-dasharray=""/></g><g><path fill="#ffffff" stroke="none" paint-order="stroke fill markers" d=" M 770 714 L 770 737 L 874.892578125 737 L 886.392578125 725.5 L 886.392578125 714 L 770 714"/></g><g><path fill="none" stroke="#000000" paint-order="fill stroke markers" d=" M 770 714 L 770 737 L 874.892578125 737 L 886.392578125 725.5 L 886.392578125 714 L 770 714 L 770 714" stroke-miterlimit="10" stroke-dasharray=""/></g><g><g><path fill="none" stroke="none"/><text fill="#000000" stroke="none" font-family="Arial" font-size="13px" font-style="normal" font-weight="normal" text-decoration="undefined" x="832.482177734375" y="723.5" text-anchor="middle" dominant-baseline="central" transform="matrix(1 0 0 1 2 2)">aceptarChat</text></g></g><g><g><path fill="none" stroke="none"/><text fill="#000000" stroke="none" font-family="Arial" font-size="13px" font-style="normal" font-weight="bold" text-decoration="undefined" x="782.035888671875" y="723.5" text-anchor="middle" dominant-baseline="central" transform="matrix(1 0 0 1 2 2)">opt</text></g></g><g><g><path fill="none" stroke="none"/><text fill="#000000" stroke="none" font-family="Arial" font-size="13px" font-style="normal" font-weight="normal" text-decoration="undefined" x="962.512939453125" y="756.5" text-anchor="middle" dominant-baseline="central" transform="matrix(1 0 0 1 2 2)">[c.aParticipante.id == idUsuarioSolicitante &amp; !c.aAceptaChat]</text></g></g><g><path fill="none" stroke="#000000" paint-order="fill stroke markers" d=" M 90 882 L 866 882 L 866 978 L 90 978 L 90 882" stroke-miterlimit="10" stroke-dasharray=""/></g><g><path fill="#ffffff" stroke="none" paint-order="stroke fill markers" d=" M 90 882 L 90 905 L 230.2998046875 905 L 241.7998046875 893.5 L 241.7998046875 882 L 90 882"/></g><g><path fill="none" stroke="#000000" paint-order="fill stroke markers" d=" M 90 882 L 90 905 L 230.2998046875 905 L 241.7998046875 893.5 L 241.7998046875 882 L 90 882 L 90 882" stroke-miterlimit="10" stroke-dasharray=""/></g><g><g><path fill="none" stroke="none"/><text fill="#000000" stroke="none" font-family="Arial" font-size="13px" font-style="normal" font-weight="normal" text-decoration="undefined" x="177.409423828125" y="891.5" text-anchor="middle" dominant-baseline="central" transform="matrix(1 0 0 1 2 2)">aNoAceptaChat</text></g></g><g><g><path fill="none" stroke="none"/><text fill="#000000" stroke="none" font-family="Arial" font-size="13px" font-style="normal" font-weight="bold" text-decoration="undefined" x="109.259521484375" y="891.5" text-anchor="middle" dominant-baseline="central" transform="matrix(1 0 0 1 2 2)">break</text></g></g><g><g><path fill="none" stroke="none"/><text fill="#000000" stroke="none" font-family="Arial" font-size="13px" font-style="normal" font-weight="normal" text-decoration="undefined" x="179.1826171875" y="924.5" text-anchor="middle" dominant-baseline="central" transform="matrix(1 0 0 1 2 2)">[c.aAceptaChat == false]</text></g></g><g><path fill="none" stroke="#000000" paint-order="fill stroke markers" d=" M 90 994 L 866 994 L 866 1098 L 90 1098 L 90 994" stroke-miterlimit="10" stroke-dasharray=""/></g><g><path fill="#ffffff" stroke="none" paint-order="stroke fill markers" d=" M 90 994 L 90 1017 L 225.259765625 1017 L 236.759765625 1005.5 L 236.759765625 994 L 90 994"/></g><g><path fill="none" stroke="#000000" paint-order="fill stroke markers" d=" M 90 994 L 90 1017 L 225.259765625 1017 L 236.759765625 1005.5 L 236.759765625 994 L 90 994 L 90 994" stroke-miterlimit="10" stroke-dasharray=""/></g><g><g><path fill="none" stroke="none"/><text fill="#000000" stroke="none" font-family="Arial" font-size="13px" font-style="normal" font-weight="normal" text-decoration="undefined" x="174.889404296875" y="1003.5" text-anchor="middle" dominant-baseline="central" transform="matrix(1 0 0 1 2 2)">chatBloqueado</text></g></g><g><g><path fill="none" stroke="none"/><text fill="#000000" stroke="none" font-family="Arial" font-size="13px" font-style="normal" font-weight="bold" text-decoration="undefined" x="109.259521484375" y="1003.5" text-anchor="middle" dominant-baseline="central" transform="matrix(1 0 0 1 2 2)">break</text></g></g><g><g><path fill="none" stroke="none"/><text fill="#000000" stroke="none" font-family="Arial" font-size="13px" font-style="normal" font-weight="normal" text-decoration="undefined" x="185.14306640625" y="1036.5" text-anchor="middle" dominant-baseline="central" transform="matrix(1 0 0 1 2 2)">[c.cBloqueadoPorU != null]</text></g></g><g><path fill="none" stroke="#000000" paint-order="fill stroke markers" d=" M 778 1122 L 1474 1122 L 1474 1282 L 778 1282 L 778 1122" stroke-miterlimit="10" stroke-dasharray=""/></g><g><path fill="#ffffff" stroke="none" paint-order="stroke fill markers" d=" M 778 1122 L 778 1145 L 906.72802734375 1145 L 918.22802734375 1133.5 L 918.22802734375 1122 L 778 1122"/></g><g><path fill="none" stroke="#000000" paint-order="fill stroke markers" d=" M 778 1122 L 778 1145 L 906.72802734375 1145 L 918.22802734375 1133.5 L 918.22802734375 1122 L 778 1122 L 778 1122" stroke-miterlimit="10" stroke-dasharray=""/></g><g><g><path fill="none" stroke="none"/><text fill="#000000" stroke="none" font-family="Arial" font-size="13px" font-style="normal" font-weight="normal" text-decoration="undefined" x="852.39990234375" y="1131.5" text-anchor="middle" dominant-baseline="central" transform="matrix(1 0 0 1 2 2)">desarchivarChat</text></g></g><g><g><path fill="none" stroke="none"/><text fill="#000000" stroke="none" font-family="Arial" font-size="13px" font-style="normal" font-weight="bold" text-decoration="undefined" x="790.035888671875" y="1131.5" text-anchor="middle" dominant-baseline="central" transform="matrix(1 0 0 1 2 2)">opt</text></g></g><g><g><path fill="none" stroke="none"/><text fill="#000000" stroke="none" font-family="Arial" font-size="13px" font-style="normal" font-weight="normal" text-decoration="undefined" x="865.903564453125" y="1164.5" text-anchor="middle" dominant-baseline="central" transform="matrix(1 0 0 1 2 2)">[c.cArtivadoPorU != null]</text></g></g></g></svg>