<svg version="1.1" xmlns="http://www.w3.org/2000/svg" xmlns:xlink="http://www.w3.org/1999/xlink" width="1231.44091796875" height="1196"><defs/><g><g><rect fill="#C0C0C0" stroke="none" x="271" y="71" width="792" height="1112" transform="matrix(1 0 0 1 -38 10)" fill-opacity="0.2"/></g><g><rect fill="#ffffff" stroke="none" x="264" y="64" width="792" height="1112" transform="matrix(1 0 0 1 -38 10)"/></g><g><path fill="none" stroke="#000000" paint-order="fill stroke markers" d=" M 226 74 L 1018 74 L 1018 1186 L 226 1186 L 226 74 Z Z" stroke-miterlimit="10" stroke-dasharray=""/></g><g><g><path fill="none" stroke="none"/><text fill="#000000" stroke="none" font-family="Arial" font-size="13px" font-style="normal" font-weight="bold" text-decoration="undefined" x="660.5" y="77.5" text-anchor="middle" dominant-baseline="central" transform="matrix(1 0 0 1 -38 10)">Gestión de Oyentes</text></g></g><g><path fill="#C0C0C0" stroke="none" paint-order="stroke fill markers" d=" M 321 256.5 C 321 240.7598832 381.8892672 228 457 228 C 532.1107328 228 593 240.7598832 593 256.5 C 593 272.2401168 532.1107328 285 457 285 C 381.8892672 285 321 272.2401168 321 256.5 Z" fill-opacity="0.2"/></g><g><path fill="#ffffff" stroke="none" paint-order="stroke fill markers" d=" M 314 249.5 C 314 233.7598832 374.8892672 221 450 221 C 525.1107328 221 586 233.7598832 586 249.5 C 586 265.2401168 525.1107328 278 450 278 C 374.8892672 278 314 265.2401168 314 249.5 Z"/></g><g><path fill="none" stroke="#000000" paint-order="fill stroke markers" d=" M 314 249.5 C 314 233.7598832 374.8892672 221 450 221 C 525.1107328 221 586 233.7598832 586 249.5 C 586 265.2401168 525.1107328 278 450 278 C 374.8892672 278 314 265.2401168 314 249.5 Z" stroke-miterlimit="10" stroke-dasharray=""/></g><g><path fill="none" stroke="#000000" paint-order="fill stroke markers" d=" M 314 283 L 586 283" stroke-miterlimit="10" stroke-dasharray=""/></g><g><g><path fill="none" stroke="none"/><text fill="#000000" stroke="none" font-family="Arial" font-size="13px" font-style="normal" font-weight="bold" text-decoration="undefined" x="488" y="243" text-anchor="middle" dominant-baseline="central" transform="matrix(1 0 0 1 -38 10)">Reproducir canción</text></g></g><g><g><path fill="none" stroke="none"/><text fill="#000000" stroke="none" font-family="Arial" font-size="13px" font-style="normal" font-weight="normal" text-decoration="undefined" x="357" y="284.5" text-anchor="start" dominant-baseline="central" transform="matrix(1 0 0 1 -38 10)">Recompensar</text></g></g><g><path fill="#C0C0C0" stroke="none" paint-order="stroke fill markers" d=" M 321 343 C 321 329.7451648 381.8892672 319 457 319 C 532.1107328 319 593 329.7451648 593 343 C 593 356.2548352 532.1107328 367 457 367 C 381.8892672 367 321 356.2548352 321 343 Z" fill-opacity="0.2"/></g><g><path fill="#ffffff" stroke="none" paint-order="stroke fill markers" d=" M 314 336 C 314 322.7451648 374.8892672 312 450 312 C 525.1107328 312 586 322.7451648 586 336 C 586 349.2548352 525.1107328 360 450 360 C 374.8892672 360 314 349.2548352 314 336 Z"/></g><g><path fill="none" stroke="#000000" paint-order="fill stroke markers" d=" M 314 336 C 314 322.7451648 374.8892672 312 450 312 C 525.1107328 312 586 322.7451648 586 336 C 586 349.2548352 525.1107328 360 450 360 C 374.8892672 360 314 349.2548352 314 336 Z" stroke-miterlimit="10" stroke-dasharray=""/></g><g><g><path fill="none" stroke="none"/><text fill="#000000" stroke="none" font-family="Arial" font-size="13px" font-style="normal" font-weight="bold" text-decoration="undefined" x="488" y="327" text-anchor="middle" dominant-baseline="central" transform="matrix(1 0 0 1 -38 10)">Pausar canción</text></g></g><g><path fill="#C0C0C0" stroke="none" paint-order="stroke fill markers" d=" M 321 402 C 321 388.7451648 381.8892672 378 457 378 C 532.1107328 378 593 388.7451648 593 402 C 593 415.2548352 532.1107328 426 457 426 C 381.8892672 426 321 415.2548352 321 402 Z" fill-opacity="0.2"/></g><g><path fill="#ffffff" stroke="none" paint-order="stroke fill markers" d=" M 314 395 C 314 381.7451648 374.8892672 371 450 371 C 525.1107328 371 586 381.7451648 586 395 C 586 408.2548352 525.1107328 419 450 419 C 374.8892672 419 314 408.2548352 314 395 Z"/></g><g><path fill="none" stroke="#000000" paint-order="fill stroke markers" d=" M 314 395 C 314 381.7451648 374.8892672 371 450 371 C 525.1107328 371 586 381.7451648 586 395 C 586 408.2548352 525.1107328 419 450 419 C 374.8892672 419 314 408.2548352 314 395 Z" stroke-miterlimit="10" stroke-dasharray=""/></g><g><g><path fill="none" stroke="none"/><text fill="#000000" stroke="none" font-family="Arial" font-size="13px" font-style="normal" font-weight="bold" text-decoration="undefined" x="488" y="386" text-anchor="middle" dominant-baseline="central" transform="matrix(1 0 0 1 -38 10)">Cambiar canción</text></g></g><g><path fill="#C0C0C0" stroke="none" paint-order="stroke fill markers" d=" M 321 629 C 321 620.715728 381.8892672 614 457 614 C 532.1107328 614 593 620.715728 593 629 C 593 637.284272 532.1107328 644 457 644 C 381.8892672 644 321 637.284272 321 629 Z" fill-opacity="0.2"/></g><g><path fill="#ffffff" stroke="none" paint-order="stroke fill markers" d=" M 314 622 C 314 613.715728 374.8892672 607 450 607 C 525.1107328 607 586 613.715728 586 622 C 586 630.284272 525.1107328 637 450 637 C 374.8892672 637 314 630.284272 314 622 Z"/></g><g><path fill="none" stroke="#000000" paint-order="fill stroke markers" d=" M 314 622 C 314 613.715728 374.8892672 607 450 607 C 525.1107328 607 586 613.715728 586 622 C 586 630.284272 525.1107328 637 450 637 C 374.8892672 637 314 630.284272 314 622 Z" stroke-miterlimit="10" stroke-dasharray=""/></g><g><path fill="none" stroke="#000000" paint-order="fill stroke markers" d=" M 314 642 L 586 642" stroke-miterlimit="10" stroke-dasharray=""/></g><g><g><path fill="none" stroke="none"/><text fill="#000000" stroke="none" font-family="Arial" font-size="13px" font-style="normal" font-weight="bold" text-decoration="undefined" x="488" y="615.5" text-anchor="middle" dominant-baseline="central" transform="matrix(1 0 0 1 -38 10)">Crear Playlist</text></g></g><g><g><path fill="none" stroke="none"/><text fill="#000000" stroke="none" font-family="Arial" font-size="13px" font-style="normal" font-weight="normal" text-decoration="undefined" x="357" y="643.5" text-anchor="start" dominant-baseline="central" transform="matrix(1 0 0 1 -38 10)">Añadir Canción</text></g></g><g><path fill="#C0C0C0" stroke="none" paint-order="stroke fill markers" d=" M 321 137 C 321 123.7451648 381.8892672 113 457 113 C 532.1107328 113 593 123.7451648 593 137 C 593 150.2548352 532.1107328 161 457 161 C 381.8892672 161 321 150.2548352 321 137 Z" fill-opacity="0.2"/></g><g><path fill="#ffffff" stroke="none" paint-order="stroke fill markers" d=" M 314 130 C 314 116.7451648 374.8892672 106 450 106 C 525.1107328 106 586 116.7451648 586 130 C 586 143.2548352 525.1107328 154 450 154 C 374.8892672 154 314 143.2548352 314 130 Z"/></g><g><path fill="none" stroke="#000000" paint-order="fill stroke markers" d=" M 314 130 C 314 116.7451648 374.8892672 106 450 106 C 525.1107328 106 586 116.7451648 586 130 C 586 143.2548352 525.1107328 154 450 154 C 374.8892672 154 314 143.2548352 314 130 Z" stroke-miterlimit="10" stroke-dasharray=""/></g><g><g><path fill="none" stroke="none"/><text fill="#000000" stroke="none" font-family="Arial" font-size="13px" font-style="normal" font-weight="bold" text-decoration="undefined" x="488" y="121" text-anchor="middle" dominant-baseline="central" transform="matrix(1 0 0 1 -38 10)">Seguir Artista</text></g></g><g><path fill="#C0C0C0" stroke="none" paint-order="stroke fill markers" d=" M 321 520 C 321 506.7451648 381.8892672 496 457 496 C 532.1107328 496 593 506.7451648 593 520 C 593 533.2548352 532.1107328 544 457 544 C 381.8892672 544 321 533.2548352 321 520 Z" fill-opacity="0.2"/></g><g><path fill="#ffffff" stroke="none" paint-order="stroke fill markers" d=" M 314 513 C 314 499.7451648 374.8892672 489 450 489 C 525.1107328 489 586 499.7451648 586 513 C 586 526.2548352 525.1107328 537 450 537 C 374.8892672 537 314 526.2548352 314 513 Z"/></g><g><path fill="none" stroke="#000000" paint-order="fill stroke markers" d=" M 314 513 C 314 499.7451648 374.8892672 489 450 489 C 525.1107328 489 586 499.7451648 586 513 C 586 526.2548352 525.1107328 537 450 537 C 374.8892672 537 314 526.2548352 314 513 Z" stroke-miterlimit="10" stroke-dasharray=""/></g><g><g><path fill="none" stroke="none"/><text fill="#000000" stroke="none" font-family="Arial" font-size="13px" font-style="normal" font-weight="bold" text-decoration="undefined" x="488" y="504" text-anchor="middle" dominant-baseline="central" transform="matrix(1 0 0 1 -38 10)">Añadir a Favoritos</text></g></g><g><path fill="#C0C0C0" stroke="none" paint-order="stroke fill markers" d=" M 321 697 C 321 683.7451648 381.8892672 673 457 673 C 532.1107328 673 593 683.7451648 593 697 C 593 710.2548352 532.1107328 721 457 721 C 381.8892672 721 321 710.2548352 321 697 Z" fill-opacity="0.2"/></g><g><path fill="#ffffff" stroke="none" paint-order="stroke fill markers" d=" M 314 690 C 314 676.7451648 374.8892672 666 450 666 C 525.1107328 666 586 676.7451648 586 690 C 586 703.2548352 525.1107328 714 450 714 C 374.8892672 714 314 703.2548352 314 690 Z"/></g><g><path fill="none" stroke="#000000" paint-order="fill stroke markers" d=" M 314 690 C 314 676.7451648 374.8892672 666 450 666 C 525.1107328 666 586 676.7451648 586 690 C 586 703.2548352 525.1107328 714 450 714 C 374.8892672 714 314 703.2548352 314 690 Z" stroke-miterlimit="10" stroke-dasharray=""/></g><g><g><path fill="none" stroke="none"/><text fill="#000000" stroke="none" font-family="Arial" font-size="13px" font-style="normal" font-weight="bold" text-decoration="undefined" x="488" y="681" text-anchor="middle" dominant-baseline="central" transform="matrix(1 0 0 1 -38 10)">Borrar Playlist</text></g></g><g><path fill="#C0C0C0" stroke="none" paint-order="stroke fill markers" d=" M 321 756 C 321 742.7451648 381.8892672 732 457 732 C 532.1107328 732 593 742.7451648 593 756 C 593 769.2548352 532.1107328 780 457 780 C 381.8892672 780 321 769.2548352 321 756 Z" fill-opacity="0.2"/></g><g><path fill="#ffffff" stroke="none" paint-order="stroke fill markers" d=" M 314 749 C 314 735.7451648 374.8892672 725 450 725 C 525.1107328 725 586 735.7451648 586 749 C 586 762.2548352 525.1107328 773 450 773 C 374.8892672 773 314 762.2548352 314 749 Z"/></g><g><path fill="none" stroke="#000000" paint-order="fill stroke markers" d=" M 314 749 C 314 735.7451648 374.8892672 725 450 725 C 525.1107328 725 586 735.7451648 586 749 C 586 762.2548352 525.1107328 773 450 773 C 374.8892672 773 314 762.2548352 314 749 Z" stroke-miterlimit="10" stroke-dasharray=""/></g><g><g><path fill="none" stroke="none"/><text fill="#000000" stroke="none" font-family="Arial" font-size="13px" font-style="normal" font-weight="bold" text-decoration="undefined" x="488" y="740" text-anchor="middle" dominant-baseline="central" transform="matrix(1 0 0 1 -38 10)">Añadir Cancion a Playlist</text></g></g><g><path fill="#C0C0C0" stroke="none" paint-order="stroke fill markers" d=" M 321 815 C 321 801.7451648 381.8892672 791 457 791 C 532.1107328 791 593 801.7451648 593 815 C 593 828.2548352 532.1107328 839 457 839 C 381.8892672 839 321 828.2548352 321 815 Z" fill-opacity="0.2"/></g><g><path fill="#ffffff" stroke="none" paint-order="stroke fill markers" d=" M 314 808 C 314 794.7451648 374.8892672 784 450 784 C 525.1107328 784 586 794.7451648 586 808 C 586 821.2548352 525.1107328 832 450 832 C 374.8892672 832 314 821.2548352 314 808 Z"/></g><g><path fill="none" stroke="#000000" paint-order="fill stroke markers" d=" M 314 808 C 314 794.7451648 374.8892672 784 450 784 C 525.1107328 784 586 794.7451648 586 808 C 586 821.2548352 525.1107328 832 450 832 C 374.8892672 832 314 821.2548352 314 808 Z" stroke-miterlimit="10" stroke-dasharray=""/></g><g><g><path fill="none" stroke="none"/><text fill="#000000" stroke="none" font-family="Arial" font-size="13px" font-style="normal" font-weight="bold" text-decoration="undefined" x="488" y="799" text-anchor="middle" dominant-baseline="central" transform="matrix(1 0 0 1 -38 10)">Eliminar Cancion de Playlist</text></g></g><g><path fill="#C0C0C0" stroke="none" paint-order="stroke fill markers" d=" M 321 874 C 321 860.7451648 381.8892672 850 457 850 C 532.1107328 850 593 860.7451648 593 874 C 593 887.2548352 532.1107328 898 457 898 C 381.8892672 898 321 887.2548352 321 874 Z" fill-opacity="0.2"/></g><g><path fill="#ffffff" stroke="none" paint-order="stroke fill markers" d=" M 314 867 C 314 853.7451648 374.8892672 843 450 843 C 525.1107328 843 586 853.7451648 586 867 C 586 880.2548352 525.1107328 891 450 891 C 374.8892672 891 314 880.2548352 314 867 Z"/></g><g><path fill="none" stroke="#000000" paint-order="fill stroke markers" d=" M 314 867 C 314 853.7451648 374.8892672 843 450 843 C 525.1107328 843 586 853.7451648 586 867 C 586 880.2548352 525.1107328 891 450 891 C 374.8892672 891 314 880.2548352 314 867 Z" stroke-miterlimit="10" stroke-dasharray=""/></g><g><g><path fill="none" stroke="none"/><text fill="#000000" stroke="none" font-family="Arial" font-size="13px" font-style="normal" font-weight="bold" text-decoration="undefined" x="488" y="858" text-anchor="middle" dominant-baseline="central" transform="matrix(1 0 0 1 -38 10)">Añadir valoraciones</text></g></g><g><path fill="#C0C0C0" stroke="none" paint-order="stroke fill markers" d=" M 321 993 C 321 979.7451648 381.8892672 969 457 969 C 532.1107328 969 593 979.7451648 593 993 C 593 1006.2548352 532.1107328 1017 457 1017 C 381.8892672 1017 321 1006.2548352 321 993 Z" fill-opacity="0.2"/></g><g><path fill="#ffffff" stroke="none" paint-order="stroke fill markers" d=" M 314 986 C 314 972.7451648 374.8892672 962 450 962 C 525.1107328 962 586 972.7451648 586 986 C 586 999.2548352 525.1107328 1010 450 1010 C 374.8892672 1010 314 999.2548352 314 986 Z"/></g><g><path fill="none" stroke="#000000" paint-order="fill stroke markers" d=" M 314 986 C 314 972.7451648 374.8892672 962 450 962 C 525.1107328 962 586 972.7451648 586 986 C 586 999.2548352 525.1107328 1010 450 1010 C 374.8892672 1010 314 999.2548352 314 986 Z" stroke-miterlimit="10" stroke-dasharray=""/></g><g><g><path fill="none" stroke="none"/><text fill="#000000" stroke="none" font-family="Arial" font-size="13px" font-style="normal" font-weight="bold" text-decoration="undefined" x="488" y="977" text-anchor="middle" dominant-baseline="central" transform="matrix(1 0 0 1 -38 10)">Borrar valoracion</text></g></g><g><path fill="#C0C0C0" stroke="none" paint-order="stroke fill markers" d=" M 321 933 C 321 919.7451648 381.8892672 909 457 909 C 532.1107328 909 593 919.7451648 593 933 C 593 946.2548352 532.1107328 957 457 957 C 381.8892672 957 321 946.2548352 321 933 Z" fill-opacity="0.2"/></g><g><path fill="#ffffff" stroke="none" paint-order="stroke fill markers" d=" M 314 926 C 314 912.7451648 374.8892672 902 450 902 C 525.1107328 902 586 912.7451648 586 926 C 586 939.2548352 525.1107328 950 450 950 C 374.8892672 950 314 939.2548352 314 926 Z"/></g><g><path fill="none" stroke="#000000" paint-order="fill stroke markers" d=" M 314 926 C 314 912.7451648 374.8892672 902 450 902 C 525.1107328 902 586 912.7451648 586 926 C 586 939.2548352 525.1107328 950 450 950 C 374.8892672 950 314 939.2548352 314 926 Z" stroke-miterlimit="10" stroke-dasharray=""/></g><g><g><path fill="none" stroke="none"/><text fill="#000000" stroke="none" font-family="Arial" font-size="13px" font-style="normal" font-weight="bold" text-decoration="undefined" x="488" y="917" text-anchor="middle" dominant-baseline="central" transform="matrix(1 0 0 1 -38 10)">Visualizar valoracion</text></g></g><g><path fill="#C0C0C0" stroke="none" paint-order="stroke fill markers" d=" M 321 461 C 321 447.7451648 381.8892672 437 457 437 C 532.1107328 437 593 447.7451648 593 461 C 593 474.2548352 532.1107328 485 457 485 C 381.8892672 485 321 474.2548352 321 461 Z" fill-opacity="0.2"/></g><g><path fill="#ffffff" stroke="none" paint-order="stroke fill markers" d=" M 314 454 C 314 440.7451648 374.8892672 430 450 430 C 525.1107328 430 586 440.7451648 586 454 C 586 467.2548352 525.1107328 478 450 478 C 374.8892672 478 314 467.2548352 314 454 Z"/></g><g><path fill="none" stroke="#000000" paint-order="fill stroke markers" d=" M 314 454 C 314 440.7451648 374.8892672 430 450 430 C 525.1107328 430 586 440.7451648 586 454 C 586 467.2548352 525.1107328 478 450 478 C 374.8892672 478 314 467.2548352 314 454 Z" stroke-miterlimit="10" stroke-dasharray=""/></g><g><g><path fill="none" stroke="none"/><text fill="#000000" stroke="none" font-family="Arial" font-size="13px" font-style="normal" font-weight="bold" text-decoration="undefined" x="488" y="445" text-anchor="middle" dominant-baseline="central" transform="matrix(1 0 0 1 -38 10)">Reportar cancion</text></g></g><g><path fill="#C0C0C0" stroke="none" paint-order="stroke fill markers" d=" M 738 289 C 738 275.7451648 798.8892672 265 874 265 C 949.1107328 265 1010 275.7451648 1010 289 C 1010 302.2548352 949.1107328 313 874 313 C 798.8892672 313 738 302.2548352 738 289 Z" fill-opacity="0.2"/></g><g><path fill="#ffffff" stroke="none" paint-order="stroke fill markers" d=" M 731 282 C 731 268.7451648 791.8892672 258 867 258 C 942.1107328 258 1003 268.7451648 1003 282 C 1003 295.2548352 942.1107328 306 867 306 C 791.8892672 306 731 295.2548352 731 282 Z"/></g><g><path fill="none" stroke="#000000" paint-order="fill stroke markers" d=" M 731 282 C 731 268.7451648 791.8892672 258 867 258 C 942.1107328 258 1003 268.7451648 1003 282 C 1003 295.2548352 942.1107328 306 867 306 C 791.8892672 306 731 295.2548352 731 282 Z" stroke-miterlimit="10" stroke-dasharray=""/></g><g><g><path fill="none" stroke="none"/><text fill="#000000" stroke="none" font-family="Arial" font-size="13px" font-style="normal" font-weight="bold" text-decoration="undefined" x="905" y="273" text-anchor="middle" dominant-baseline="central" transform="matrix(1 0 0 1 -38 10)">Obtener recompensas</text></g></g><g><path fill="#C0C0C0" stroke="none" paint-order="stroke fill markers" d=" M 321 582 C 321 567.0883104 381.8892672 555 457 555 C 532.1107328 555 593 567.0883104 593 582 C 593 596.9116896 532.1107328 609 457 609 C 381.8892672 609 321 596.9116896 321 582 Z" fill-opacity="0.2"/></g><g><path fill="#ffffff" stroke="none" paint-order="stroke fill markers" d=" M 314 575 C 314 560.0883104 374.8892672 548 450 548 C 525.1107328 548 586 560.0883104 586 575 C 586 589.9116896 525.1107328 602 450 602 C 374.8892672 602 314 589.9116896 314 575 Z"/></g><g><path fill="none" stroke="#000000" paint-order="fill stroke markers" d=" M 314 575 C 314 560.0883104 374.8892672 548 450 548 C 525.1107328 548 586 560.0883104 586 575 C 586 589.9116896 525.1107328 602 450 602 C 374.8892672 602 314 589.9116896 314 575 Z" stroke-miterlimit="10" stroke-dasharray=""/></g><g><g><path fill="none" stroke="none"/><text fill="#000000" stroke="none" font-family="Arial" font-size="13px" font-style="normal" font-weight="bold" text-decoration="undefined" x="488" y="566" text-anchor="middle" dominant-baseline="central" transform="matrix(1 0 0 1 -38 10)">Eliminar de favoritos</text></g></g><g><path fill="#C0C0C0" stroke="none" paint-order="stroke fill markers" d=" M 321 193 C 321 179.7451648 381.8892672 169 457 169 C 532.1107328 169 593 179.7451648 593 193 C 593 206.2548352 532.1107328 217 457 217 C 381.8892672 217 321 206.2548352 321 193 Z" fill-opacity="0.2"/></g><g><path fill="#ffffff" stroke="none" paint-order="stroke fill markers" d=" M 314 186 C 314 172.7451648 374.8892672 162 450 162 C 525.1107328 162 586 172.7451648 586 186 C 586 199.2548352 525.1107328 210 450 210 C 374.8892672 210 314 199.2548352 314 186 Z"/></g><g><path fill="none" stroke="#000000" paint-order="fill stroke markers" d=" M 314 186 C 314 172.7451648 374.8892672 162 450 162 C 525.1107328 162 586 172.7451648 586 186 C 586 199.2548352 525.1107328 210 450 210 C 374.8892672 210 314 199.2548352 314 186 Z" stroke-miterlimit="10" stroke-dasharray=""/></g><g><g><path fill="none" stroke="none"/><text fill="#000000" stroke="none" font-family="Arial" font-size="13px" font-style="normal" font-weight="bold" text-decoration="undefined" x="488" y="177" text-anchor="middle" dominant-baseline="central" transform="matrix(1 0 0 1 -38 10)">Ver Cancion</text></g></g><g><path fill="#C0C0C0" stroke="none" paint-order="stroke fill markers" d=" M 321 1051 C 321 1037.7451648 381.8892672 1027 457 1027 C 532.1107328 1027 593 1037.7451648 593 1051 C 593 1064.2548352 532.1107328 1075 457 1075 C 381.8892672 1075 321 1064.2548352 321 1051 Z" fill-opacity="0.2"/></g><g><path fill="#ffffff" stroke="none" paint-order="stroke fill markers" d=" M 314 1044 C 314 1030.7451648 374.8892672 1020 450 1020 C 525.1107328 1020 586 1030.7451648 586 1044 C 586 1057.2548352 525.1107328 1068 450 1068 C 374.8892672 1068 314 1057.2548352 314 1044 Z"/></g><g><path fill="none" stroke="#000000" paint-order="fill stroke markers" d=" M 314 1044 C 314 1030.7451648 374.8892672 1020 450 1020 C 525.1107328 1020 586 1030.7451648 586 1044 C 586 1057.2548352 525.1107328 1068 450 1068 C 374.8892672 1068 314 1057.2548352 314 1044 Z" stroke-miterlimit="10" stroke-dasharray=""/></g><g><g><path fill="none" stroke="none"/><text fill="#000000" stroke="none" font-family="Arial" font-size="13px" font-style="normal" font-weight="bold" text-decoration="undefined" x="488" y="1035" text-anchor="middle" dominant-baseline="central" transform="matrix(1 0 0 1 -38 10)">Editar valoración</text></g></g><g><path fill="#ffffff" stroke="none" paint-order="stroke fill markers" d=" M 30.360439453124997 515.85 C 30.360439453124997 510.96227952000004 34.318241821125 507 39.200439453125 507 C 44.082637085125 507 48.040439453125 510.96227952000004 48.040439453125 515.85 C 48.040439453125 520.73772048 44.082637085125 524.7 39.200439453125 524.7 C 34.318241821125 524.7 30.360439453124997 520.73772048 30.360439453124997 515.85 Z"/></g><g><path fill="none" stroke="#000000" paint-order="fill stroke markers" d=" M 30.360439453124997 515.85 C 30.360439453124997 510.96227952000004 34.318241821125 507 39.200439453125 507 C 44.082637085125 507 48.040439453125 510.96227952000004 48.040439453125 515.85 C 48.040439453125 520.73772048 44.082637085125 524.7 39.200439453125 524.7 C 34.318241821125 524.7 30.360439453124997 520.73772048 30.360439453124997 515.85 Z" stroke-miterlimit="10" stroke-dasharray=""/></g><g><path fill="none" stroke="#000000" paint-order="fill stroke markers" d=" M 39.200439453125 524.7 L 39.200439453125 542.3" stroke-miterlimit="10" stroke-dasharray=""/></g><g><path fill="none" stroke="#000000" paint-order="fill stroke markers" d=" M 29.840439453125 531.3 L 48.560439453125 531.3" stroke-miterlimit="10" stroke-dasharray=""/></g><g><path fill="none" stroke="#000000" paint-order="fill stroke markers" d=" M 39.200439453125 542.3 L 26.200439453125 560" stroke-miterlimit="10" stroke-dasharray=""/></g><g><path fill="none" stroke="#000000" paint-order="fill stroke markers" d=" M 39.200439453125 542.3 L 52.200439453125 560" stroke-miterlimit="10" stroke-dasharray=""/></g><g><g><path fill="none" stroke="none"/><text fill="#000000" stroke="none" font-family="Arial" font-size="13px" font-style="normal" font-weight="bold" text-decoration="undefined" x="77.700439453125" y="564.5" text-anchor="middle" dominant-baseline="central" transform="matrix(1 0 0 1 -38 10)">Usuario</text></g></g><g><path fill="#ffffff" stroke="none" paint-order="stroke fill markers" d=" M 1186.380458984375 795.85 C 1186.380458984375 790.96227952 1190.338261352375 787 1195.220458984375 787 C 1200.102656616375 787 1204.060458984375 790.96227952 1204.060458984375 795.85 C 1204.060458984375 800.73772048 1200.102656616375 804.7 1195.220458984375 804.7 C 1190.338261352375 804.7 1186.380458984375 800.73772048 1186.380458984375 795.85 Z"/></g><g><path fill="none" stroke="#000000" paint-order="fill stroke markers" d=" M 1186.380458984375 795.85 C 1186.380458984375 790.96227952 1190.338261352375 787 1195.220458984375 787 C 1200.102656616375 787 1204.060458984375 790.96227952 1204.060458984375 795.85 C 1204.060458984375 800.73772048 1200.102656616375 804.7 1195.220458984375 804.7 C 1190.338261352375 804.7 1186.380458984375 800.73772048 1186.380458984375 795.85 Z" stroke-miterlimit="10" stroke-dasharray=""/></g><g><path fill="none" stroke="#000000" paint-order="fill stroke markers" d=" M 1195.220458984375 804.7 L 1195.220458984375 822.3" stroke-miterlimit="10" stroke-dasharray=""/></g><g><path fill="none" stroke="#000000" paint-order="fill stroke markers" d=" M 1185.860458984375 811.3 L 1204.580458984375 811.3" stroke-miterlimit="10" stroke-dasharray=""/></g><g><path fill="none" stroke="#000000" paint-order="fill stroke markers" d=" M 1195.220458984375 822.3 L 1182.220458984375 840" stroke-miterlimit="10" stroke-dasharray=""/></g><g><path fill="none" stroke="#000000" paint-order="fill stroke markers" d=" M 1195.220458984375 822.3 L 1208.220458984375 840" stroke-miterlimit="10" stroke-dasharray=""/></g><g><g><path fill="none" stroke="none"/><text fill="#000000" stroke="none" font-family="Arial" font-size="13px" font-style="normal" font-weight="bold" text-decoration="undefined" x="1233.720458984375" y="844.5" text-anchor="middle" dominant-baseline="central" transform="matrix(1 0 0 1 -38 10)">Admin</text></g></g><g><path fill="none" stroke="#000000" paint-order="fill stroke markers" d=" M 56 505 L 186 186 L 313 186" stroke-miterlimit="10" stroke-dasharray=""/></g><g><path fill="none" stroke="#000000" paint-order="fill stroke markers" d=" M 313 265 L 186 266 L 61 505" stroke-miterlimit="10" stroke-dasharray=""/></g><g><path fill="none" stroke="#000000" paint-order="fill stroke markers" d=" M 313 337 L 194 338 L 69 505" stroke-miterlimit="10" stroke-dasharray=""/></g><g><path fill="none" stroke="#000000" paint-order="fill stroke markers" d=" M 313 399 L 194 402 L 69 518" stroke-miterlimit="10" stroke-dasharray=""/></g><g><path fill="none" stroke="#000000" paint-order="fill stroke markers" d=" M 313 452 L 194 450 L 69 527" stroke-miterlimit="10" stroke-dasharray=""/></g><g><path fill="none" stroke="#000000" paint-order="fill stroke markers" d=" M 313 514 L 194 514 L 69 540" stroke-miterlimit="10" stroke-dasharray=""/></g><g><path fill="none" stroke="#000000" paint-order="fill stroke markers" d=" M 313 572 L 186 570 L 69 551" stroke-miterlimit="10" stroke-dasharray=""/></g><g><path fill="none" stroke="#000000" paint-order="fill stroke markers" d=" M 587 634 L 1098 626 L 1175 785" stroke-miterlimit="10" stroke-dasharray=""/></g><g><path fill="none" stroke="#000000" paint-order="fill stroke markers" d=" M 587 690 L 1098 690 L 1169 790" stroke-miterlimit="10" stroke-dasharray=""/></g><g><path fill="none" stroke="#000000" paint-order="fill stroke markers" d=" M 587 925 L 1098 922 L 1169 852" stroke-miterlimit="10" stroke-dasharray=""/></g><g><path fill="none" stroke="#000000" paint-order="fill stroke markers" d=" M 587 986 L 1098 986 L 1170 867" stroke-miterlimit="10" stroke-dasharray=""/></g><g><path fill="none" stroke="#000000" paint-order="fill stroke markers" d=" M 587 1044 L 1098 1042 L 1177 867" stroke-miterlimit="10" stroke-dasharray=""/></g><g><path fill="none" stroke="#000000" paint-order="fill stroke markers" d=" M 69 585 L 194 746 L 313 747" stroke-miterlimit="10" stroke-dasharray=""/></g><g><path fill="none" stroke="#000000" paint-order="fill stroke markers" d=" M 64 587 L 194 802 L 313 805" stroke-miterlimit="10" stroke-dasharray=""/></g><g><path fill="none" stroke="#000000" paint-order="fill stroke markers" d=" M 59 587 L 194 866 L 313 866" stroke-miterlimit="10" stroke-dasharray=""/></g><g><path fill="none" stroke="#000000" paint-order="fill stroke markers" d=" M 56 587 L 194 930 L 313 928" stroke-miterlimit="10" stroke-dasharray=""/></g><g><path fill="none" stroke="#000000" paint-order="fill stroke markers" d=" M 53 587 L 194 986 L 313 986" stroke-miterlimit="10" stroke-dasharray=""/></g><g><path fill="none" stroke="#000000" paint-order="fill stroke markers" d=" M 52 587 L 194 1042 L 313 1043" stroke-miterlimit="10" stroke-dasharray=""/></g><g><path fill="#C0C0C0" stroke="none" paint-order="stroke fill markers" d=" M 321 1113 C 321 1099.7451648 381.8892672 1089 457 1089 C 532.1107328 1089 593 1099.7451648 593 1113 C 593 1126.2548352 532.1107328 1137 457 1137 C 381.8892672 1137 321 1126.2548352 321 1113 Z" fill-opacity="0.2"/></g><g><path fill="#ffffff" stroke="none" paint-order="stroke fill markers" d=" M 314 1106 C 314 1092.7451648 374.8892672 1082 450 1082 C 525.1107328 1082 586 1092.7451648 586 1106 C 586 1119.2548352 525.1107328 1130 450 1130 C 374.8892672 1130 314 1119.2548352 314 1106 Z"/></g><g><path fill="none" stroke="#000000" paint-order="fill stroke markers" d=" M 314 1106 C 314 1092.7451648 374.8892672 1082 450 1082 C 525.1107328 1082 586 1092.7451648 586 1106 C 586 1119.2548352 525.1107328 1130 450 1130 C 374.8892672 1130 314 1119.2548352 314 1106 Z" stroke-miterlimit="10" stroke-dasharray=""/></g><g><g><path fill="none" stroke="none"/><text fill="#000000" stroke="none" font-family="Arial" font-size="13px" font-style="normal" font-weight="bold" text-decoration="undefined" x="488" y="1097" text-anchor="middle" dominant-baseline="central" transform="matrix(1 0 0 1 -38 10)">Ver Playlist</text></g></g><g><path fill="none" stroke="#000000" paint-order="fill stroke markers" d=" M 587 1106 L 1098 1106 L 1181 867" stroke-miterlimit="10" stroke-dasharray=""/></g><g><path fill="#ffffff" stroke="none" paint-order="stroke fill markers" d=" M 28.195888671874997 755.85 C 28.195888671874997 750.96227952 32.153691039875 747 37.035888671875 747 C 41.918086303875 747 45.875888671875 750.96227952 45.875888671875 755.85 C 45.875888671875 760.73772048 41.918086303875 764.7 37.035888671875 764.7 C 32.153691039875 764.7 28.195888671874997 760.73772048 28.195888671874997 755.85 Z"/></g><g><path fill="none" stroke="#000000" paint-order="fill stroke markers" d=" M 28.195888671874997 755.85 C 28.195888671874997 750.96227952 32.153691039875 747 37.035888671875 747 C 41.918086303875 747 45.875888671875 750.96227952 45.875888671875 755.85 C 45.875888671875 760.73772048 41.918086303875 764.7 37.035888671875 764.7 C 32.153691039875 764.7 28.195888671874997 760.73772048 28.195888671874997 755.85 Z" stroke-miterlimit="10" stroke-dasharray=""/></g><g><path fill="none" stroke="#000000" paint-order="fill stroke markers" d=" M 37.035888671875 764.7 L 37.035888671875 782.3" stroke-miterlimit="10" stroke-dasharray=""/></g><g><path fill="none" stroke="#000000" paint-order="fill stroke markers" d=" M 27.675888671875 771.3 L 46.395888671875 771.3" stroke-miterlimit="10" stroke-dasharray=""/></g><g><path fill="none" stroke="#000000" paint-order="fill stroke markers" d=" M 37.035888671875 782.3 L 24.035888671875 800" stroke-miterlimit="10" stroke-dasharray=""/></g><g><path fill="none" stroke="#000000" paint-order="fill stroke markers" d=" M 37.035888671875 782.3 L 50.035888671875 800" stroke-miterlimit="10" stroke-dasharray=""/></g><g><g><path fill="none" stroke="none"/><text fill="#000000" stroke="none" font-family="Arial" font-size="13px" font-style="normal" font-weight="bold" text-decoration="undefined" x="75.535888671875" y="804.5" text-anchor="middle" dominant-baseline="central" transform="matrix(1 0 0 1 -38 10)">Oyente</text></g></g><g><path fill="none" stroke="#000000" paint-order="fill stroke markers" d=" M 313 635 L 194 634 L 65 759" stroke-miterlimit="10" stroke-dasharray=""/></g><g><path fill="none" stroke="#000000" paint-order="fill stroke markers" d=" M 313 690 L 194 690 L 65 769" stroke-miterlimit="10" stroke-dasharray=""/></g><g><path fill="none" stroke="#000000" paint-order="fill stroke markers" d=" M 50 587 L 194 1106 L 313 1106" stroke-miterlimit="10" stroke-dasharray=""/></g><g><path fill="none" stroke="#000000" paint-order="fill stroke markers" d=" M 587 748 L 1098 746 L 1169 805" stroke-miterlimit="10" stroke-dasharray=""/></g><g><path fill="none" stroke="#000000" paint-order="fill stroke markers" d=" M 587 808 L 1098 810 L 1169 822" stroke-miterlimit="10" stroke-dasharray=""/></g><g><g><path fill="none" stroke="none"/><text fill="#000000" stroke="none" font-family="Helvetica" font-size="28px" font-style="normal" font-weight="normal" text-decoration="undefined" x="469" y="5" text-anchor="start" dominant-baseline="text-before-edge" transform="matrix(1 0 0 1 -38 10)">Gestión Oyente - Lucía Fernández</text></g></g><g><path fill="none" stroke="#000000" paint-order="fill stroke markers" d=" M 730 277 L 642 274 L 587 271" stroke-miterlimit="10" stroke-dasharray="3"/></g><g><path fill="none" stroke="#000000" paint-order="fill stroke markers" d=" M 597.3768597309615 267.3502353330729 L 587 271 L 596.9183212289038 275.7567745374652" stroke-miterlimit="10" stroke-dasharray=""/></g><g><rect fill="#ffffff" stroke="none" x="652" y="287" width="53.49169921875" height="13" transform="matrix(1 0 0 1 -38 10)"/></g><g><g><path fill="none" stroke="none"/><text fill="#000000" stroke="none" font-family="Arial" font-size="13px" font-style="normal" font-weight="normal" text-decoration="undefined" x="678.745849609375" y="293.5" text-anchor="middle" dominant-baseline="central" transform="matrix(1 0 0 1 -38 10)">«extend»</text></g></g><g><path fill="#ffffff" stroke="none" paint-order="stroke fill markers" d=" M 658 338 L 748.64990234375 338 L 758.64990234375 348 L 758.64990234375 427 L 658 427 L 658 338"/></g><g><path fill="none" stroke="#000000" paint-order="fill stroke markers" d=" M 658 338 L 748.64990234375 338 L 758.64990234375 348 L 758.64990234375 427 L 658 427 L 658 338 L 658 338" stroke-miterlimit="10" stroke-dasharray=""/></g><g><path fill="none" stroke="#000000" paint-order="fill stroke markers" d=" M 748.64990234375 338 L 748.64990234375 348 L 758.64990234375 348 L 748.64990234375 338" stroke-miterlimit="10" stroke-dasharray=""/></g><g><g><path fill="none" stroke="none"/><text fill="#000000" stroke="none" font-family="Arial" font-size="13px" font-style="normal" font-weight="normal" text-decoration="undefined" x="701" y="333" text-anchor="start" dominant-baseline="text-before-edge" transform="matrix(1 0 0 1 -38 10)">A partir de</text><text fill="#000000" stroke="none" font-family="Arial" font-size="13px" font-style="normal" font-weight="normal" text-decoration="undefined" x="701" y="346" text-anchor="start" dominant-baseline="text-before-edge" transform="matrix(1 0 0 1 -38 10)">ciertas</text><text fill="#000000" stroke="none" font-family="Arial" font-size="13px" font-style="normal" font-weight="normal" text-decoration="undefined" x="701" y="359" text-anchor="start" dominant-baseline="text-before-edge" transform="matrix(1 0 0 1 -38 10)">escuchas,</text><text fill="#000000" stroke="none" font-family="Arial" font-size="13px" font-style="normal" font-weight="normal" text-decoration="undefined" x="701" y="372" text-anchor="start" dominant-baseline="text-before-edge" transform="matrix(1 0 0 1 -38 10)">acumulas</text><text fill="#000000" stroke="none" font-family="Arial" font-size="13px" font-style="normal" font-weight="normal" text-decoration="undefined" x="701" y="385" text-anchor="start" dominant-baseline="text-before-edge" transform="matrix(1 0 0 1 -38 10)">puntos o</text><text fill="#000000" stroke="none" font-family="Arial" font-size="13px" font-style="normal" font-weight="normal" text-decoration="undefined" x="701" y="398" text-anchor="start" dominant-baseline="text-before-edge" transform="matrix(1 0 0 1 -38 10)">recompensas.</text></g></g><g><path fill="none" stroke="#000000" paint-order="fill stroke markers" d=" M 614 272 L 706 306 L 707 337" stroke-miterlimit="10" stroke-dasharray="3"/></g><g><path fill="none" stroke="#000000" paint-order="fill stroke markers" d=" M 587 763 L 738 778 L 738 578 L 587 608" stroke-miterlimit="10" stroke-dasharray="3"/></g><g><path fill="none" stroke="#000000" paint-order="fill stroke markers" d=" M 596.1475580470293 601.8908116925218 L 587 608 L 597.7881488061155 610.1484518465886" stroke-miterlimit="10" stroke-dasharray=""/></g><g><rect fill="#ffffff" stroke="none" x="720" y="661" width="53.49169921875" height="13" transform="matrix(1 0 0 1 -38 10)"/></g><g><g><path fill="none" stroke="none"/><text fill="#000000" stroke="none" font-family="Arial" font-size="13px" font-style="normal" font-weight="normal" text-decoration="undefined" x="746.745849609375" y="667.5" text-anchor="middle" dominant-baseline="central" transform="matrix(1 0 0 1 -38 10)">«extend»</text></g></g><g><path fill="none" stroke="#000000" paint-order="fill stroke markers" d=" M 313 130 L 186 130 L 53 505" stroke-miterlimit="10" stroke-dasharray=""/></g></g></svg>