<svg version="1.1" xmlns="http://www.w3.org/2000/svg" xmlns:xlink="http://www.w3.org/1999/xlink" width="269" height="228"><defs/><g><g><rect fill="#C0C0C0" stroke="none" x="71" y="71" width="248" height="208" transform="matrix(1 0 0 1 -54 -54)" fill-opacity="0.2"/></g><g><rect fill="#ffffff" stroke="none" x="64" y="64" width="248" height="208" transform="matrix(1 0 0 1 -54 -54)"/></g><g><path fill="none" stroke="#000000" paint-order="fill stroke markers" d=" M 10 10 L 258 10 L 258 218 L 10 218 L 10 10 Z Z" stroke-miterlimit="10" stroke-dasharray=""/></g><g><path fill="none" stroke="#000000" paint-order="fill stroke markers" d=" M 10 35 L 259 35" stroke-miterlimit="10" stroke-dasharray=""/></g><g><path fill="none" stroke="#000000" paint-order="fill stroke markers" d=" M 10 118 L 259 118" stroke-miterlimit="10" stroke-dasharray=""/></g><g><g><path fill="none" stroke="none"/><text fill="#000000" stroke="none" font-family="Arial" font-size="13px" font-style="normal" font-weight="bold" text-decoration="undefined" x="188.5" y="77.5" text-anchor="middle" dominant-baseline="central" transform="matrix(1 0 0 1 -54 -54)">Evento</text></g></g><g><g><path fill="none" stroke="none"/><text fill="#000000" stroke="none" font-family="Arial" font-size="13px" font-style="normal" font-weight="normal" text-decoration="undefined" x="69" y="100.5" text-anchor="start" dominant-baseline="central" transform="matrix(1 0 0 1 -54 -54)">-aforoMin</text></g></g><g><g><path fill="none" stroke="none"/><text fill="#000000" stroke="none" font-family="Arial" font-size="13px" font-style="normal" font-weight="normal" text-decoration="undefined" x="69" y="115.5" text-anchor="start" dominant-baseline="central" transform="matrix(1 0 0 1 -54 -54)">-aforoActual</text></g></g><g><g><path fill="none" stroke="none"/><text fill="#000000" stroke="none" font-family="Arial" font-size="13px" font-style="normal" font-weight="normal" text-decoration="undefined" x="69" y="130.5" text-anchor="start" dominant-baseline="central" transform="matrix(1 0 0 1 -54 -54)">-aforoMax</text></g></g><g><g><path fill="none" stroke="none"/><text fill="#000000" stroke="none" font-family="Arial" font-size="13px" font-style="normal" font-weight="normal" text-decoration="undefined" x="69" y="145.5" text-anchor="start" dominant-baseline="central" transform="matrix(1 0 0 1 -54 -54)">-fechaInicio</text></g></g><g><g><path fill="none" stroke="none"/><text fill="#000000" stroke="none" font-family="Arial" font-size="13px" font-style="normal" font-weight="normal" text-decoration="undefined" x="69" y="160.5" text-anchor="start" dominant-baseline="central" transform="matrix(1 0 0 1 -54 -54)">-fechaFin</text></g></g><g><g><path fill="none" stroke="none"/><text fill="#000000" stroke="none" font-family="Arial" font-size="13px" font-style="normal" font-weight="normal" text-decoration="undefined" x="69" y="183.5" text-anchor="start" dominant-baseline="central" transform="matrix(1 0 0 1 -54 -54)">+apuntarOyente(o: Oyente): boolean</text></g></g><g><g><path fill="none" stroke="none"/><text fill="#000000" stroke="none" font-family="Arial" font-size="13px" font-style="normal" font-weight="normal" text-decoration="undefined" x="69" y="198.5" text-anchor="start" dominant-baseline="central" transform="matrix(1 0 0 1 -54 -54)">+desapuntarOyente(o: Oyente): boolean</text></g></g><g><g><path fill="none" stroke="none"/><text fill="#000000" stroke="none" font-family="Arial" font-size="13px" font-style="normal" font-weight="normal" text-decoration="undefined" x="69" y="213.5" text-anchor="start" dominant-baseline="central" transform="matrix(1 0 0 1 -54 -54)">+cancelarEvento(): boolean</text></g></g><g><g><path fill="none" stroke="none"/><text fill="#000000" stroke="none" font-family="Arial" font-size="13px" font-style="normal" font-weight="normal" text-decoration="undefined" x="69" y="228.5" text-anchor="start" dominant-baseline="central" transform="matrix(1 0 0 1 -54 -54)">+iniciarEvento(): boolean</text></g></g><g><g><path fill="none" stroke="none"/><text fill="#000000" stroke="none" font-family="Arial" font-size="13px" font-style="normal" font-weight="normal" text-decoration="undefined" x="69" y="243.5" text-anchor="start" dominant-baseline="central" transform="matrix(1 0 0 1 -54 -54)">+finalizarEvento(): boolean</text></g></g><g><g><path fill="none" stroke="none"/><text fill="#000000" stroke="none" font-family="Arial" font-size="13px" font-style="normal" font-weight="normal" text-decoration="undefined" x="69" y="258.5" text-anchor="start" dominant-baseline="central" transform="matrix(1 0 0 1 -54 -54)">+archivar(): boolean</text></g></g></g></svg>