<svg version="1.1" xmlns="http://www.w3.org/2000/svg" xmlns:xlink="http://www.w3.org/1999/xlink" width="1479.841796875" height="1308"><defs/><g><g><rect fill="#C0C0C0" stroke="none" x="463" y="103" width="872" height="1232" transform="matrix(1 0 0 1 -70 -30)" fill-opacity="0.2"/></g><g><rect fill="#ffffff" stroke="none" x="456" y="96" width="872" height="1232" transform="matrix(1 0 0 1 -70 -30)"/></g><g><path fill="none" stroke="#000000" paint-order="fill stroke markers" d=" M 386 66 L 1258 66 L 1258 1298 L 386 1298 L 386 66 Z Z" stroke-miterlimit="10" stroke-dasharray=""/></g><g><g><path fill="none" stroke="none"/><text fill="#000000" stroke="none" font-family="Arial" font-size="13px" font-style="normal" font-weight="bold" text-decoration="undefined" x="892.5" y="109.5" text-anchor="middle" dominant-baseline="central" transform="matrix(1 0 0 1 -70 -30)">Gestión compras</text></g></g><g><path fill="#ffffff" stroke="none" paint-order="stroke fill markers" d=" M 50.5808984375 355.85 C 50.5808984375 350.96227952000004 54.5387008055 347 59.4208984375 347 C 64.30309606950001 347 68.2608984375 350.96227952000004 68.2608984375 355.85 C 68.2608984375 360.73772048 64.30309606950001 364.7 59.4208984375 364.7 C 54.5387008055 364.7 50.5808984375 360.73772048 50.5808984375 355.85 Z"/></g><g><path fill="none" stroke="#000000" paint-order="fill stroke markers" d=" M 50.5808984375 355.85 C 50.5808984375 350.96227952000004 54.5387008055 347 59.4208984375 347 C 64.30309606950001 347 68.2608984375 350.96227952000004 68.2608984375 355.85 C 68.2608984375 360.73772048 64.30309606950001 364.7 59.4208984375 364.7 C 54.5387008055 364.7 50.5808984375 360.73772048 50.5808984375 355.85 Z" stroke-miterlimit="10" stroke-dasharray=""/></g><g><path fill="none" stroke="#000000" paint-order="fill stroke markers" d=" M 59.4208984375 364.7 L 59.4208984375 382.3" stroke-miterlimit="10" stroke-dasharray=""/></g><g><path fill="none" stroke="#000000" paint-order="fill stroke markers" d=" M 50.0608984375 371.3 L 68.78089843750001 371.3" stroke-miterlimit="10" stroke-dasharray=""/></g><g><path fill="none" stroke="#000000" paint-order="fill stroke markers" d=" M 59.4208984375 382.3 L 46.4208984375 400" stroke-miterlimit="10" stroke-dasharray=""/></g><g><path fill="none" stroke="#000000" paint-order="fill stroke markers" d=" M 59.4208984375 382.3 L 72.4208984375 400" stroke-miterlimit="10" stroke-dasharray=""/></g><g><g><path fill="none" stroke="none"/><text fill="#000000" stroke="none" font-family="Arial" font-size="13px" font-style="normal" font-weight="bold" text-decoration="undefined" x="129.9208984375" y="444.5" text-anchor="middle" dominant-baseline="central" transform="matrix(1 0 0 1 -70 -30)">Usuario</text></g></g><g><path fill="#ffffff" stroke="none" paint-order="stroke fill markers" d=" M 1410.5808984375 515.85 C 1410.5808984375 510.96227952000004 1414.5387008055 507 1419.4208984375 507 C 1424.3030960695 507 1428.2608984375 510.96227952000004 1428.2608984375 515.85 C 1428.2608984375 520.73772048 1424.3030960695 524.7 1419.4208984375 524.7 C 1414.5387008055 524.7 1410.5808984375 520.73772048 1410.5808984375 515.85 Z"/></g><g><path fill="none" stroke="#000000" paint-order="fill stroke markers" d=" M 1410.5808984375 515.85 C 1410.5808984375 510.96227952000004 1414.5387008055 507 1419.4208984375 507 C 1424.3030960695 507 1428.2608984375 510.96227952000004 1428.2608984375 515.85 C 1428.2608984375 520.73772048 1424.3030960695 524.7 1419.4208984375 524.7 C 1414.5387008055 524.7 1410.5808984375 520.73772048 1410.5808984375 515.85 Z" stroke-miterlimit="10" stroke-dasharray=""/></g><g><path fill="none" stroke="#000000" paint-order="fill stroke markers" d=" M 1419.4208984375 524.7 L 1419.4208984375 542.3" stroke-miterlimit="10" stroke-dasharray=""/></g><g><path fill="none" stroke="#000000" paint-order="fill stroke markers" d=" M 1410.0608984375 531.3 L 1428.7808984375 531.3" stroke-miterlimit="10" stroke-dasharray=""/></g><g><path fill="none" stroke="#000000" paint-order="fill stroke markers" d=" M 1419.4208984375 542.3 L 1406.4208984375 560" stroke-miterlimit="10" stroke-dasharray=""/></g><g><path fill="none" stroke="#000000" paint-order="fill stroke markers" d=" M 1419.4208984375 542.3 L 1432.4208984375 560" stroke-miterlimit="10" stroke-dasharray=""/></g><g><g><path fill="none" stroke="none"/><text fill="#000000" stroke="none" font-family="Arial" font-size="13px" font-style="normal" font-weight="bold" text-decoration="undefined" x="1489.9208984375" y="604.5" text-anchor="middle" dominant-baseline="central" transform="matrix(1 0 0 1 -70 -30)">Admin</text></g></g><g><path fill="#C0C0C0" stroke="none" paint-order="stroke fill markers" d=" M 447 197 C 447 181.5360256 517.7390015999999 169 605 169 C 692.2609984000001 169 763 181.5360256 763 197 C 763 212.4639744 692.2609984000001 225 605 225 C 517.7390015999999 225 447 212.4639744 447 197 Z" fill-opacity="0.2"/></g><g><path fill="#ffffff" stroke="none" paint-order="stroke fill markers" d=" M 440 190 C 440 174.5360256 510.73900159999994 162 598 162 C 685.2609984000001 162 756 174.5360256 756 190 C 756 205.4639744 685.2609984000001 218 598 218 C 510.73900159999994 218 440 205.4639744 440 190 Z"/></g><g><path fill="none" stroke="#000000" paint-order="fill stroke markers" d=" M 440 190 C 440 174.5360256 510.73900159999994 162 598 162 C 685.2609984000001 162 756 174.5360256 756 190 C 756 205.4639744 685.2609984000001 218 598 218 C 510.73900159999994 218 440 205.4639744 440 190 Z" stroke-miterlimit="10" stroke-dasharray=""/></g><g><g><path fill="none" stroke="none"/><text fill="#000000" stroke="none" font-family="Arial" font-size="13px" font-style="normal" font-weight="bold" text-decoration="undefined" x="668" y="221" text-anchor="middle" dominant-baseline="central" transform="matrix(1 0 0 1 -70 -30)">Añadir a la cesta</text></g></g><g><path fill="#C0C0C0" stroke="none" paint-order="stroke fill markers" d=" M 447 437 C 447 421.5360256 517.7390015999999 409 605 409 C 692.2609984000001 409 763 421.5360256 763 437 C 763 452.4639744 692.2609984000001 465 605 465 C 517.7390015999999 465 447 452.4639744 447 437 Z" fill-opacity="0.2"/></g><g><path fill="#ffffff" stroke="none" paint-order="stroke fill markers" d=" M 440 430 C 440 414.5360256 510.73900159999994 402 598 402 C 685.2609984000001 402 756 414.5360256 756 430 C 756 445.4639744 685.2609984000001 458 598 458 C 510.73900159999994 458 440 445.4639744 440 430 Z"/></g><g><path fill="none" stroke="#000000" paint-order="fill stroke markers" d=" M 440 430 C 440 414.5360256 510.73900159999994 402 598 402 C 685.2609984000001 402 756 414.5360256 756 430 C 756 445.4639744 685.2609984000001 458 598 458 C 510.73900159999994 458 440 445.4639744 440 430 Z" stroke-miterlimit="10" stroke-dasharray=""/></g><g><g><path fill="none" stroke="none"/><text fill="#000000" stroke="none" font-family="Arial" font-size="13px" font-style="normal" font-weight="bold" text-decoration="undefined" x="668" y="461" text-anchor="middle" dominant-baseline="central" transform="matrix(1 0 0 1 -70 -30)">Eliminar de la cesta</text></g></g><g><path fill="#C0C0C0" stroke="none" paint-order="stroke fill markers" d=" M 893 947 C 893 931.5360256 963.7390015999999 919 1051 919 C 1138.2609984 919 1209 931.5360256 1209 947 C 1209 962.4639744 1138.2609984 975 1051 975 C 963.7390015999999 975 893 962.4639744 893 947 Z" fill-opacity="0.2"/></g><g><path fill="#ffffff" stroke="none" paint-order="stroke fill markers" d=" M 886 940 C 886 924.5360256 956.7390015999999 912 1044 912 C 1131.2609984 912 1202 924.5360256 1202 940 C 1202 955.4639744 1131.2609984 968 1044 968 C 956.7390015999999 968 886 955.4639744 886 940 Z"/></g><g><path fill="none" stroke="#000000" paint-order="fill stroke markers" d=" M 886 940 C 886 924.5360256 956.7390015999999 912 1044 912 C 1131.2609984 912 1202 924.5360256 1202 940 C 1202 955.4639744 1131.2609984 968 1044 968 C 956.7390015999999 968 886 955.4639744 886 940 Z" stroke-miterlimit="10" stroke-dasharray=""/></g><g><g><path fill="none" stroke="none"/><text fill="#000000" stroke="none" font-family="Arial" font-size="13px" font-style="normal" font-weight="bold" text-decoration="undefined" x="1114" y="971" text-anchor="middle" dominant-baseline="central" transform="matrix(1 0 0 1 -70 -30)">Añadir producto a la tienda</text></g></g><g><path fill="#C0C0C0" stroke="none" paint-order="stroke fill markers" d=" M 893 765 C 893 749.5360256 963.7390015999999 737 1051 737 C 1138.2609984 737 1209 749.5360256 1209 765 C 1209 780.4639744 1138.2609984 793 1051 793 C 963.7390015999999 793 893 780.4639744 893 765 Z" fill-opacity="0.2"/></g><g><path fill="#ffffff" stroke="none" paint-order="stroke fill markers" d=" M 886 758 C 886 742.5360256 956.7390015999999 730 1044 730 C 1131.2609984 730 1202 742.5360256 1202 758 C 1202 773.4639744 1131.2609984 786 1044 786 C 956.7390015999999 786 886 773.4639744 886 758 Z"/></g><g><path fill="none" stroke="#000000" paint-order="fill stroke markers" d=" M 886 758 C 886 742.5360256 956.7390015999999 730 1044 730 C 1131.2609984 730 1202 742.5360256 1202 758 C 1202 773.4639744 1131.2609984 786 1044 786 C 956.7390015999999 786 886 773.4639744 886 758 Z" stroke-miterlimit="10" stroke-dasharray=""/></g><g><g><path fill="none" stroke="none"/><text fill="#000000" stroke="none" font-family="Arial" font-size="13px" font-style="normal" font-weight="bold" text-decoration="undefined" x="1114" y="789" text-anchor="middle" dominant-baseline="central" transform="matrix(1 0 0 1 -70 -30)">Crear tienda</text></g></g><g><path fill="#ffffff" stroke="none" paint-order="stroke fill markers" d=" M 50.5808984375 771.85 C 50.5808984375 766.96227952 54.5387008055 763 59.4208984375 763 C 64.30309606950001 763 68.2608984375 766.96227952 68.2608984375 771.85 C 68.2608984375 776.73772048 64.30309606950001 780.7 59.4208984375 780.7 C 54.5387008055 780.7 50.5808984375 776.73772048 50.5808984375 771.85 Z"/></g><g><path fill="none" stroke="#000000" paint-order="fill stroke markers" d=" M 50.5808984375 771.85 C 50.5808984375 766.96227952 54.5387008055 763 59.4208984375 763 C 64.30309606950001 763 68.2608984375 766.96227952 68.2608984375 771.85 C 68.2608984375 776.73772048 64.30309606950001 780.7 59.4208984375 780.7 C 54.5387008055 780.7 50.5808984375 776.73772048 50.5808984375 771.85 Z" stroke-miterlimit="10" stroke-dasharray=""/></g><g><path fill="none" stroke="#000000" paint-order="fill stroke markers" d=" M 59.4208984375 780.7 L 59.4208984375 798.3" stroke-miterlimit="10" stroke-dasharray=""/></g><g><path fill="none" stroke="#000000" paint-order="fill stroke markers" d=" M 50.0608984375 787.3 L 68.78089843750001 787.3" stroke-miterlimit="10" stroke-dasharray=""/></g><g><path fill="none" stroke="#000000" paint-order="fill stroke markers" d=" M 59.4208984375 798.3 L 46.4208984375 816" stroke-miterlimit="10" stroke-dasharray=""/></g><g><path fill="none" stroke="#000000" paint-order="fill stroke markers" d=" M 59.4208984375 798.3 L 72.4208984375 816" stroke-miterlimit="10" stroke-dasharray=""/></g><g><g><path fill="none" stroke="none"/><text fill="#000000" stroke="none" font-family="Arial" font-size="13px" font-style="normal" font-weight="bold" text-decoration="undefined" x="129.9208984375" y="860.5" text-anchor="middle" dominant-baseline="central" transform="matrix(1 0 0 1 -70 -30)">Artista</text></g></g><g><path fill="none" stroke="#000000" paint-order="fill stroke markers" d=" M 59 761 L 59 427" stroke-miterlimit="10" stroke-dasharray=""/></g><g><path fill="#FFFFFF" stroke="none" paint-order="stroke fill markers" d=" M 67.41903551203197 447.3253497152483 L 59 427 L 50.58096448796803 447.3253497152483"/></g><g><path fill="none" stroke="#000000" paint-order="fill stroke markers" d=" M 67.41903551203197 447.3253497152483 L 59 427 L 50.58096448796803 447.3253497152483 L 67.41903551203197 447.3253497152483" stroke-miterlimit="10" stroke-dasharray=""/></g><g><path fill="#C0C0C0" stroke="none" paint-order="stroke fill markers" d=" M 893 277 C 893 261.5360256 963.7390015999999 249 1051 249 C 1138.2609984 249 1209 261.5360256 1209 277 C 1209 292.4639744 1138.2609984 305 1051 305 C 963.7390015999999 305 893 292.4639744 893 277 Z" fill-opacity="0.2"/></g><g><path fill="#ffffff" stroke="none" paint-order="stroke fill markers" d=" M 886 270 C 886 254.53602560000002 956.7390015999999 242 1044 242 C 1131.2609984 242 1202 254.53602560000002 1202 270 C 1202 285.4639744 1131.2609984 298 1044 298 C 956.7390015999999 298 886 285.4639744 886 270 Z"/></g><g><path fill="none" stroke="#000000" paint-order="fill stroke markers" d=" M 886 270 C 886 254.53602560000002 956.7390015999999 242 1044 242 C 1131.2609984 242 1202 254.53602560000002 1202 270 C 1202 285.4639744 1131.2609984 298 1044 298 C 956.7390015999999 298 886 285.4639744 886 270 Z" stroke-miterlimit="10" stroke-dasharray=""/></g><g><g><path fill="none" stroke="none"/><text fill="#000000" stroke="none" font-family="Arial" font-size="13px" font-style="normal" font-weight="bold" text-decoration="undefined" x="1114" y="301" text-anchor="middle" dominant-baseline="central" transform="matrix(1 0 0 1 -70 -30)">Añadir compra al histórico</text></g></g><g><path fill="#C0C0C0" stroke="none" paint-order="stroke fill markers" d=" M 893 856 C 893 840.5360256 963.7390015999999 828 1051 828 C 1138.2609984 828 1209 840.5360256 1209 856 C 1209 871.4639744 1138.2609984 884 1051 884 C 963.7390015999999 884 893 871.4639744 893 856 Z" fill-opacity="0.2"/></g><g><path fill="#ffffff" stroke="none" paint-order="stroke fill markers" d=" M 886 849 C 886 833.5360256 956.7390015999999 821 1044 821 C 1131.2609984 821 1202 833.5360256 1202 849 C 1202 864.4639744 1131.2609984 877 1044 877 C 956.7390015999999 877 886 864.4639744 886 849 Z"/></g><g><path fill="none" stroke="#000000" paint-order="fill stroke markers" d=" M 886 849 C 886 833.5360256 956.7390015999999 821 1044 821 C 1131.2609984 821 1202 833.5360256 1202 849 C 1202 864.4639744 1131.2609984 877 1044 877 C 956.7390015999999 877 886 864.4639744 886 849 Z" stroke-miterlimit="10" stroke-dasharray=""/></g><g><g><path fill="none" stroke="none"/><text fill="#000000" stroke="none" font-family="Arial" font-size="13px" font-style="normal" font-weight="bold" text-decoration="undefined" x="1114" y="880" text-anchor="middle" dominant-baseline="central" transform="matrix(1 0 0 1 -70 -30)">Eliminar tienda</text></g></g><g><path fill="#C0C0C0" stroke="none" paint-order="stroke fill markers" d=" M 893 1038 C 893 1022.5360255999999 963.7390015999999 1010 1051 1010 C 1138.2609984 1010 1209 1022.5360255999999 1209 1038 C 1209 1053.4639744 1138.2609984 1066 1051 1066 C 963.7390015999999 1066 893 1053.4639744 893 1038 Z" fill-opacity="0.2"/></g><g><path fill="#ffffff" stroke="none" paint-order="stroke fill markers" d=" M 886 1031 C 886 1015.5360255999999 956.7390015999999 1003 1044 1003 C 1131.2609984 1003 1202 1015.5360255999999 1202 1031 C 1202 1046.4639744 1131.2609984 1059 1044 1059 C 956.7390015999999 1059 886 1046.4639744 886 1031 Z"/></g><g><path fill="none" stroke="#000000" paint-order="fill stroke markers" d=" M 886 1031 C 886 1015.5360255999999 956.7390015999999 1003 1044 1003 C 1131.2609984 1003 1202 1015.5360255999999 1202 1031 C 1202 1046.4639744 1131.2609984 1059 1044 1059 C 956.7390015999999 1059 886 1046.4639744 886 1031 Z" stroke-miterlimit="10" stroke-dasharray=""/></g><g><g><path fill="none" stroke="none"/><text fill="#000000" stroke="none" font-family="Arial" font-size="13px" font-style="normal" font-weight="bold" text-decoration="undefined" x="1114" y="1062" text-anchor="middle" dominant-baseline="central" transform="matrix(1 0 0 1 -70 -30)">Eliminar producto de la tienda</text></g></g><g><path fill="none" stroke="#000000" paint-order="fill stroke markers" d=" M 110 368 L 518 219" stroke-miterlimit="10" stroke-dasharray=""/></g><g><path fill="none" stroke="#000000" paint-order="fill stroke markers" d=" M 110 390 L 439 417" stroke-miterlimit="10" stroke-dasharray=""/></g><g><path fill="#C0C0C0" stroke="none" paint-order="stroke fill markers" d=" M 447 277 C 447 261.5360256 517.7390015999999 249 605 249 C 692.2609984000001 249 763 261.5360256 763 277 C 763 292.4639744 692.2609984000001 305 605 305 C 517.7390015999999 305 447 292.4639744 447 277 Z" fill-opacity="0.2"/></g><g><path fill="#ffffff" stroke="none" paint-order="stroke fill markers" d=" M 440 270 C 440 254.53602560000002 510.73900159999994 242 598 242 C 685.2609984000001 242 756 254.53602560000002 756 270 C 756 285.4639744 685.2609984000001 298 598 298 C 510.73900159999994 298 440 285.4639744 440 270 Z"/></g><g><path fill="none" stroke="#000000" paint-order="fill stroke markers" d=" M 440 270 C 440 254.53602560000002 510.73900159999994 242 598 242 C 685.2609984000001 242 756 254.53602560000002 756 270 C 756 285.4639744 685.2609984000001 298 598 298 C 510.73900159999994 298 440 285.4639744 440 270 Z" stroke-miterlimit="10" stroke-dasharray=""/></g><g><g><path fill="none" stroke="none"/><text fill="#000000" stroke="none" font-family="Arial" font-size="13px" font-style="normal" font-weight="bold" text-decoration="undefined" x="668" y="301" text-anchor="middle" dominant-baseline="central" transform="matrix(1 0 0 1 -70 -30)">Comprar cesta</text></g></g><g><path fill="none" stroke="#000000" paint-order="fill stroke markers" d=" M 110 375 L 463 299" stroke-miterlimit="10" stroke-dasharray=""/></g><g><path fill="none" stroke="#000000" paint-order="fill stroke markers" d=" M 1419 587 L 1418 762 L 1203 760" stroke-miterlimit="10" stroke-dasharray=""/></g><g><path fill="none" stroke="#000000" paint-order="fill stroke markers" d=" M 1419 587 L 1418 850 L 1203 849" stroke-miterlimit="10" stroke-dasharray=""/></g><g><path fill="none" stroke="#000000" paint-order="fill stroke markers" d=" M 1419 587 L 1418 938 L 1203 939" stroke-miterlimit="10" stroke-dasharray=""/></g><g><path fill="none" stroke="#000000" paint-order="fill stroke markers" d=" M 1419 587 L 1418 1034 L 1203 1032" stroke-miterlimit="10" stroke-dasharray=""/></g><g><path fill="#C0C0C0" stroke="none" paint-order="stroke fill markers" d=" M 447 517 C 447 501.5360256 517.7390015999999 489 605 489 C 692.2609984000001 489 763 501.5360256 763 517 C 763 532.4639744 692.2609984000001 545 605 545 C 517.7390015999999 545 447 532.4639744 447 517 Z" fill-opacity="0.2"/></g><g><path fill="#ffffff" stroke="none" paint-order="stroke fill markers" d=" M 440 510 C 440 494.5360256 510.73900159999994 482 598 482 C 685.2609984000001 482 756 494.5360256 756 510 C 756 525.4639744 685.2609984000001 538 598 538 C 510.73900159999994 538 440 525.4639744 440 510 Z"/></g><g><path fill="none" stroke="#000000" paint-order="fill stroke markers" d=" M 440 510 C 440 494.5360256 510.73900159999994 482 598 482 C 685.2609984000001 482 756 494.5360256 756 510 C 756 525.4639744 685.2609984000001 538 598 538 C 510.73900159999994 538 440 525.4639744 440 510 Z" stroke-miterlimit="10" stroke-dasharray=""/></g><g><g><path fill="none" stroke="none"/><text fill="#000000" stroke="none" font-family="Arial" font-size="13px" font-style="normal" font-weight="bold" text-decoration="undefined" x="668" y="541" text-anchor="middle" dominant-baseline="central" transform="matrix(1 0 0 1 -70 -30)">Ver tienda</text></g></g><g><path fill="none" stroke="#000000" paint-order="fill stroke markers" d=" M 110 398 L 472 481" stroke-miterlimit="10" stroke-dasharray=""/></g><g><path fill="none" stroke="#000000" paint-order="fill stroke markers" d=" M 757 517 L 1369 544" stroke-miterlimit="10" stroke-dasharray=""/></g><g><path fill="#C0C0C0" stroke="none" paint-order="stroke fill markers" d=" M 447 949 C 447 933.5360256 517.7390015999999 921 605 921 C 692.2609984000001 921 763 933.5360256 763 949 C 763 964.4639744 692.2609984000001 977 605 977 C 517.7390015999999 977 447 964.4639744 447 949 Z" fill-opacity="0.2"/></g><g><path fill="#ffffff" stroke="none" paint-order="stroke fill markers" d=" M 440 942 C 440 926.5360256 510.73900159999994 914 598 914 C 685.2609984000001 914 756 926.5360256 756 942 C 756 957.4639744 685.2609984000001 970 598 970 C 510.73900159999994 970 440 957.4639744 440 942 Z"/></g><g><path fill="none" stroke="#000000" paint-order="fill stroke markers" d=" M 440 942 C 440 926.5360256 510.73900159999994 914 598 914 C 685.2609984000001 914 756 926.5360256 756 942 C 756 957.4639744 685.2609984000001 970 598 970 C 510.73900159999994 970 440 957.4639744 440 942 Z" stroke-miterlimit="10" stroke-dasharray=""/></g><g><g><path fill="none" stroke="none"/><text fill="#000000" stroke="none" font-family="Arial" font-size="13px" font-style="normal" font-weight="bold" text-decoration="undefined" x="668" y="973" text-anchor="middle" dominant-baseline="central" transform="matrix(1 0 0 1 -70 -30)">Solicitar creacion tienda</text></g></g><g><path fill="none" stroke="#000000" paint-order="fill stroke markers" d=" M 59 843 L 58 946 L 439 943" stroke-miterlimit="10" stroke-dasharray=""/></g><g><path fill="#C0C0C0" stroke="none" paint-order="stroke fill markers" d=" M 893 1129 C 893 1113.5360256 963.7390015999999 1101 1051 1101 C 1138.2609984 1101 1209 1113.5360256 1209 1129 C 1209 1144.4639744 1138.2609984 1157 1051 1157 C 963.7390015999999 1157 893 1144.4639744 893 1129 Z" fill-opacity="0.2"/></g><g><path fill="#ffffff" stroke="none" paint-order="stroke fill markers" d=" M 886 1122 C 886 1106.5360256 956.7390015999999 1094 1044 1094 C 1131.2609984 1094 1202 1106.5360256 1202 1122 C 1202 1137.4639744 1131.2609984 1150 1044 1150 C 956.7390015999999 1150 886 1137.4639744 886 1122 Z"/></g><g><path fill="none" stroke="#000000" paint-order="fill stroke markers" d=" M 886 1122 C 886 1106.5360256 956.7390015999999 1094 1044 1094 C 1131.2609984 1094 1202 1106.5360256 1202 1122 C 1202 1137.4639744 1131.2609984 1150 1044 1150 C 956.7390015999999 1150 886 1137.4639744 886 1122 Z" stroke-miterlimit="10" stroke-dasharray=""/></g><g><g><path fill="none" stroke="none"/><text fill="#000000" stroke="none" font-family="Arial" font-size="13px" font-style="normal" font-weight="bold" text-decoration="undefined" x="1114" y="1153" text-anchor="middle" dominant-baseline="central" transform="matrix(1 0 0 1 -70 -30)">Ver solicitud de creacion de tienda</text></g></g><g><path fill="none" stroke="#000000" paint-order="fill stroke markers" d=" M 1419 587 L 1418 1130 L 1203 1125" stroke-miterlimit="10" stroke-dasharray=""/></g><g><path fill="#C0C0C0" stroke="none" paint-order="stroke fill markers" d=" M 447 357 C 447 341.5360256 517.7390015999999 329 605 329 C 692.2609984000001 329 763 341.5360256 763 357 C 763 372.4639744 692.2609984000001 385 605 385 C 517.7390015999999 385 447 372.4639744 447 357 Z" fill-opacity="0.2"/></g><g><path fill="#ffffff" stroke="none" paint-order="stroke fill markers" d=" M 440 350 C 440 334.5360256 510.73900159999994 322 598 322 C 685.2609984000001 322 756 334.5360256 756 350 C 756 365.4639744 685.2609984000001 378 598 378 C 510.73900159999994 378 440 365.4639744 440 350 Z"/></g><g><path fill="none" stroke="#000000" paint-order="fill stroke markers" d=" M 440 350 C 440 334.5360256 510.73900159999994 322 598 322 C 685.2609984000001 322 756 334.5360256 756 350 C 756 365.4639744 685.2609984000001 378 598 378 C 510.73900159999994 378 440 365.4639744 440 350 Z" stroke-miterlimit="10" stroke-dasharray=""/></g><g><g><path fill="none" stroke="none"/><text fill="#000000" stroke="none" font-family="Arial" font-size="13px" font-style="normal" font-weight="bold" text-decoration="undefined" x="668" y="381" text-anchor="middle" dominant-baseline="central" transform="matrix(1 0 0 1 -70 -30)">Ver historico de compras</text></g></g><g><path fill="none" stroke="#000000" paint-order="fill stroke markers" d=" M 110 383 L 439 361" stroke-miterlimit="10" stroke-dasharray=""/></g><g><path fill="#C0C0C0" stroke="none" paint-order="stroke fill markers" d=" M 447 597 C 447 581.5360256 517.7390015999999 569 605 569 C 692.2609984000001 569 763 581.5360256 763 597 C 763 612.4639744 692.2609984000001 625 605 625 C 517.7390015999999 625 447 612.4639744 447 597 Z" fill-opacity="0.2"/></g><g><path fill="#ffffff" stroke="none" paint-order="stroke fill markers" d=" M 440 590 C 440 574.5360256 510.73900159999994 562 598 562 C 685.2609984000001 562 756 574.5360256 756 590 C 756 605.4639744 685.2609984000001 618 598 618 C 510.73900159999994 618 440 605.4639744 440 590 Z"/></g><g><path fill="none" stroke="#000000" paint-order="fill stroke markers" d=" M 440 590 C 440 574.5360256 510.73900159999994 562 598 562 C 685.2609984000001 562 756 574.5360256 756 590 C 756 605.4639744 685.2609984000001 618 598 618 C 510.73900159999994 618 440 605.4639744 440 590 Z" stroke-miterlimit="10" stroke-dasharray=""/></g><g><g><path fill="none" stroke="none"/><text fill="#000000" stroke="none" font-family="Arial" font-size="13px" font-style="normal" font-weight="bold" text-decoration="undefined" x="668" y="621" text-anchor="middle" dominant-baseline="central" transform="matrix(1 0 0 1 -70 -30)">Ver producto</text></g></g><g><path fill="none" stroke="#000000" paint-order="fill stroke markers" d=" M 110 405 L 521 561" stroke-miterlimit="10" stroke-dasharray=""/></g><g><path fill="none" stroke="#000000" paint-order="fill stroke markers" d=" M 757 581 L 1369 549" stroke-miterlimit="10" stroke-dasharray=""/></g><g><path fill="#C0C0C0" stroke="none" paint-order="stroke fill markers" d=" M 447 1053 C 447 1037.5360256 517.7390015999999 1025 605 1025 C 692.2609984000001 1025 763 1037.5360256 763 1053 C 763 1068.4639744 692.2609984000001 1081 605 1081 C 517.7390015999999 1081 447 1068.4639744 447 1053 Z" fill-opacity="0.2"/></g><g><path fill="#ffffff" stroke="none" paint-order="stroke fill markers" d=" M 440 1046 C 440 1030.5360256 510.73900159999994 1018 598 1018 C 685.2609984000001 1018 756 1030.5360256 756 1046 C 756 1061.4639744 685.2609984000001 1074 598 1074 C 510.73900159999994 1074 440 1061.4639744 440 1046 Z"/></g><g><path fill="none" stroke="#000000" paint-order="fill stroke markers" d=" M 440 1046 C 440 1030.5360256 510.73900159999994 1018 598 1018 C 685.2609984000001 1018 756 1030.5360256 756 1046 C 756 1061.4639744 685.2609984000001 1074 598 1074 C 510.73900159999994 1074 440 1061.4639744 440 1046 Z" stroke-miterlimit="10" stroke-dasharray=""/></g><g><g><path fill="none" stroke="none"/><text fill="#000000" stroke="none" font-family="Arial" font-size="13px" font-style="normal" font-weight="bold" text-decoration="undefined" x="668" y="1077" text-anchor="middle" dominant-baseline="central" transform="matrix(1 0 0 1 -70 -30)">Solicitar cambio producto</text></g></g><g><path fill="none" stroke="#000000" paint-order="fill stroke markers" d=" M 59 843 L 58 1042 L 439 1045" stroke-miterlimit="10" stroke-dasharray=""/></g><g><path fill="#C0C0C0" stroke="none" paint-order="stroke fill markers" d=" M 893 1220 C 893 1204.5360256 963.7390015999999 1192 1051 1192 C 1138.2609984 1192 1209 1204.5360256 1209 1220 C 1209 1235.4639744 1138.2609984 1248 1051 1248 C 963.7390015999999 1248 893 1235.4639744 893 1220 Z" fill-opacity="0.2"/></g><g><path fill="#ffffff" stroke="none" paint-order="stroke fill markers" d=" M 886 1213 C 886 1197.5360256 956.7390015999999 1185 1044 1185 C 1131.2609984 1185 1202 1197.5360256 1202 1213 C 1202 1228.4639744 1131.2609984 1241 1044 1241 C 956.7390015999999 1241 886 1228.4639744 886 1213 Z"/></g><g><path fill="none" stroke="#000000" paint-order="fill stroke markers" d=" M 886 1213 C 886 1197.5360256 956.7390015999999 1185 1044 1185 C 1131.2609984 1185 1202 1197.5360256 1202 1213 C 1202 1228.4639744 1131.2609984 1241 1044 1241 C 956.7390015999999 1241 886 1228.4639744 886 1213 Z" stroke-miterlimit="10" stroke-dasharray=""/></g><g><g><path fill="none" stroke="none"/><text fill="#000000" stroke="none" font-family="Arial" font-size="13px" font-style="normal" font-weight="bold" text-decoration="undefined" x="1114" y="1244" text-anchor="middle" dominant-baseline="central" transform="matrix(1 0 0 1 -70 -30)">Ver solicutud cambio producto</text></g></g><g><path fill="none" stroke="#000000" paint-order="fill stroke markers" d=" M 1203 1215 L 1418 1218 L 1419 587" stroke-miterlimit="10" stroke-dasharray=""/></g><g><path fill="#C0C0C0" stroke="none" paint-order="stroke fill markers" d=" M 889 197 C 889 181.5360256 959.7390015999999 169 1047 169 C 1134.2609984 169 1205 181.5360256 1205 197 C 1205 212.4639744 1134.2609984 225 1047 225 C 959.7390015999999 225 889 212.4639744 889 197 Z" fill-opacity="0.2"/></g><g><path fill="#ffffff" stroke="none" paint-order="stroke fill markers" d=" M 882 190 C 882 174.5360256 952.7390015999999 162 1040 162 C 1127.2609984 162 1198 174.5360256 1198 190 C 1198 205.4639744 1127.2609984 218 1040 218 C 952.7390015999999 218 882 205.4639744 882 190 Z"/></g><g><path fill="none" stroke="#000000" paint-order="fill stroke markers" d=" M 882 190 C 882 174.5360256 952.7390015999999 162 1040 162 C 1127.2609984 162 1198 174.5360256 1198 190 C 1198 205.4639744 1127.2609984 218 1040 218 C 952.7390015999999 218 882 205.4639744 882 190 Z" stroke-miterlimit="10" stroke-dasharray=""/></g><g><g><path fill="none" stroke="none"/><text fill="#000000" stroke="none" font-family="Arial" font-size="13px" font-style="normal" font-weight="bold" text-decoration="undefined" x="1110" y="221" text-anchor="middle" dominant-baseline="central" transform="matrix(1 0 0 1 -70 -30)">Comprobar si hay stock</text></g></g><g><path fill="none" stroke="#000000" paint-order="fill stroke markers" d=" M 757 190 L 881 190" stroke-miterlimit="10" stroke-dasharray="3"/></g><g><path fill="none" stroke="#000000" paint-order="fill stroke markers" d=" M 870.8373251423759 194.209517756016 L 881 190 L 870.8373251423758 185.790482243984" stroke-miterlimit="10" stroke-dasharray=""/></g><g><rect fill="#ffffff" stroke="none" x="858" y="201" width="55.65625" height="13" transform="matrix(1 0 0 1 -70 -30)"/></g><g><g><path fill="none" stroke="none"/><text fill="#000000" stroke="none" font-family="Arial" font-size="13px" font-style="normal" font-weight="normal" text-decoration="undefined" x="885.828125" y="207.5" text-anchor="middle" dominant-baseline="central" transform="matrix(1 0 0 1 -70 -30)">«include»</text></g></g><g><path fill="none" stroke="#000000" paint-order="fill stroke markers" d=" M 757 270 L 885 270" stroke-miterlimit="10" stroke-dasharray="3"/></g><g><path fill="none" stroke="#000000" paint-order="fill stroke markers" d=" M 874.8373251423759 274.209517756016 L 885 270 L 874.8373251423758 265.790482243984" stroke-miterlimit="10" stroke-dasharray=""/></g><g><rect fill="#ffffff" stroke="none" x="863" y="281" width="55.65625" height="13" transform="matrix(1 0 0 1 -70 -30)"/></g><g><g><path fill="none" stroke="none"/><text fill="#000000" stroke="none" font-family="Arial" font-size="13px" font-style="normal" font-weight="normal" text-decoration="undefined" x="890.828125" y="287.5" text-anchor="middle" dominant-baseline="central" transform="matrix(1 0 0 1 -70 -30)">«include»</text></g></g><g><g><path fill="none" stroke="none"/><text fill="#000000" stroke="none" font-family="Helvetica" font-size="28px" font-style="normal" font-weight="normal" text-decoration="undefined" x="629" y="45" text-anchor="start" dominant-baseline="text-before-edge" transform="matrix(1 0 0 1 -70 -30)">Gestión de compras - Adrián González</text></g></g></g></svg>