<svg version="1.1" xmlns="http://www.w3.org/2000/svg" xmlns:xlink="http://www.w3.org/1999/xlink" width="1393" height="128"><defs/><g><g><path fill="#C0C0C0" stroke="none" paint-order="stroke fill markers" d=" M 17 73 C 17 44.281190400000014 93.3354416 21 187.5 21 C 281.66455840000003 21 358 44.281190400000014 358 73 C 358 101.71880959999999 281.66455840000003 125 187.5 125 C 93.3354416 125 17 101.71880959999999 17 73 Z" fill-opacity="0.2"/></g><g><path fill="#ffffff" stroke="none" paint-order="stroke fill markers" d=" M 10 66 C 10 37.281190400000014 86.3354416 14 180.5 14 C 274.66455840000003 14 351 37.281190400000014 351 66 C 351 94.71880959999999 274.66455840000003 118 180.5 118 C 86.3354416 118 10 94.71880959999999 10 66 Z"/></g><g><path fill="none" stroke="#000000" paint-order="fill stroke markers" d=" M 10 66 C 10 37.281190400000014 86.3354416 14 180.5 14 C 274.66455840000003 14 351 37.281190400000014 351 66 C 351 94.71880959999999 274.66455840000003 118 180.5 118 C 86.3354416 118 10 94.71880959999999 10 66 Z" stroke-miterlimit="10" stroke-dasharray=""/></g><g><g><path fill="none" stroke="none"/><text fill="#000000" stroke="none" font-family="Arial" font-size="13px" font-style="normal" font-weight="bold" text-decoration="undefined" x="258.5" y="297" text-anchor="middle" dominant-baseline="central" transform="matrix(1 0 0 1 -78 -230)">Artista – Publicar Canción</text></g></g><g><path fill="#C0C0C0" stroke="none" paint-order="stroke fill markers" d=" M 361 73 C 361 44.281190400000014 437.33544159999997 21 531.5 21 C 625.6645584 21 702 44.281190400000014 702 73 C 702 101.71880959999999 625.6645584 125 531.5 125 C 437.33544159999997 125 361 101.71880959999999 361 73 Z" fill-opacity="0.2"/></g><g><path fill="#ffffff" stroke="none" paint-order="stroke fill markers" d=" M 354 66 C 354 37.281190400000014 430.33544159999997 14 524.5 14 C 618.6645584 14 695 37.281190400000014 695 66 C 695 94.71880959999999 618.6645584 118 524.5 118 C 430.33544159999997 118 354 94.71880959999999 354 66 Z"/></g><g><path fill="none" stroke="#000000" paint-order="fill stroke markers" d=" M 354 66 C 354 37.281190400000014 430.33544159999997 14 524.5 14 C 618.6645584 14 695 37.281190400000014 695 66 C 695 94.71880959999999 618.6645584 118 524.5 118 C 430.33544159999997 118 354 94.71880959999999 354 66 Z" stroke-miterlimit="10" stroke-dasharray=""/></g><g><g><path fill="none" stroke="none"/><text fill="#000000" stroke="none" font-family="Arial" font-size="13px" font-style="normal" font-weight="bold" text-decoration="undefined" x="602.5" y="297" text-anchor="middle" dominant-baseline="central" transform="matrix(1 0 0 1 -78 -230)">Oyente – Crear Playlist</text></g></g><g><path fill="#C0C0C0" stroke="none" paint-order="stroke fill markers" d=" M 705 69 C 705 40.281190400000014 781.3354416 17 875.5 17 C 969.6645584 17 1046 40.281190400000014 1046 69 C 1046 97.71880959999999 969.6645584 121 875.5 121 C 781.3354416 121 705 97.71880959999999 705 69 Z" fill-opacity="0.2"/></g><g><path fill="#ffffff" stroke="none" paint-order="stroke fill markers" d=" M 698 62 C 698 33.281190400000014 774.3354416 10 868.5 10 C 962.6645584 10 1039 33.281190400000014 1039 62 C 1039 90.71880959999999 962.6645584 114 868.5 114 C 774.3354416 114 698 90.71880959999999 698 62 Z"/></g><g><path fill="none" stroke="#000000" paint-order="fill stroke markers" d=" M 698 62 C 698 33.281190400000014 774.3354416 10 868.5 10 C 962.6645584 10 1039 33.281190400000014 1039 62 C 1039 90.71880959999999 962.6645584 114 868.5 114 C 774.3354416 114 698 90.71880959999999 698 62 Z" stroke-miterlimit="10" stroke-dasharray=""/></g><g><g><path fill="none" stroke="none"/><text fill="#000000" stroke="none" font-family="Arial" font-size="13px" font-style="normal" font-weight="bold" text-decoration="undefined" x="946.5" y="293" text-anchor="middle" dominant-baseline="central" transform="matrix(1 0 0 1 -78 -230)">Productor – Solicitud chat con artista</text></g></g><g><path fill="#C0C0C0" stroke="none" paint-order="stroke fill markers" d=" M 1049 73 C 1049 44.281190400000014 1125.3354416 21 1219.5 21 C 1313.6645584 21 1390 44.281190400000014 1390 73 C 1390 101.71880959999999 1313.6645584 125 1219.5 125 C 1125.3354416 125 1049 101.71880959999999 1049 73 Z" fill-opacity="0.2"/></g><g><path fill="#ffffff" stroke="none" paint-order="stroke fill markers" d=" M 1042 66 C 1042 37.281190400000014 1118.3354416 14 1212.5 14 C 1306.6645584 14 1383 37.281190400000014 1383 66 C 1383 94.71880959999999 1306.6645584 118 1212.5 118 C 1118.3354416 118 1042 94.71880959999999 1042 66 Z"/></g><g><path fill="none" stroke="#000000" paint-order="fill stroke markers" d=" M 1042 66 C 1042 37.281190400000014 1118.3354416 14 1212.5 14 C 1306.6645584 14 1383 37.281190400000014 1383 66 C 1383 94.71880959999999 1306.6645584 118 1212.5 118 C 1118.3354416 118 1042 94.71880959999999 1042 66 Z" stroke-miterlimit="10" stroke-dasharray=""/></g><g><g><path fill="none" stroke="none"/><text fill="#000000" stroke="none" font-family="Arial" font-size="13px" font-style="normal" font-weight="bold" text-decoration="undefined" x="1290.5" y="297" text-anchor="middle" dominant-baseline="central" transform="matrix(1 0 0 1 -78 -230)">Eventos – Eliminarse de evento</text></g></g></g></svg>