<svg version="1.1" xmlns="http://www.w3.org/2000/svg" xmlns:xlink="http://www.w3.org/1999/xlink" width="962" height="644"><defs/><g><g><rect fill="#C0C0C0" stroke="none" x="55" y="319" width="152" height="160" transform="matrix(1 0 0 1 -38 -38)" fill-opacity="0.2"/></g><g><rect fill="#ffffff" stroke="none" x="48" y="312" width="152" height="160" transform="matrix(1 0 0 1 -38 -38)"/></g><g><path fill="none" stroke="#000000" paint-order="fill stroke markers" d=" M 10 274 L 162 274 L 162 434 L 10 434 L 10 274 Z Z" stroke-miterlimit="10" stroke-dasharray=""/></g><g><path fill="none" stroke="#000000" paint-order="fill stroke markers" d=" M 10 299 L 163 299" stroke-miterlimit="10" stroke-dasharray=""/></g><g><g><path fill="none" stroke="none"/><text fill="#000000" stroke="none" font-family="Arial" font-size="13px" font-style="normal" font-weight="bold" text-decoration="undefined" x="124.5" y="325.5" text-anchor="middle" dominant-baseline="central" transform="matrix(1 0 0 1 -38 -38)">Oyente</text></g></g><g><g><path fill="none" stroke="none"/><text fill="#000000" stroke="none" font-family="Arial" font-size="13px" font-style="normal" font-weight="normal" text-decoration="undefined" x="53" y="348.5" text-anchor="start" dominant-baseline="central" transform="matrix(1 0 0 1 -38 -38)">-esPremium: Boolean</text></g></g><g><g><path fill="none" stroke="none"/><text fill="#000000" stroke="none" font-family="Arial" font-size="13px" font-style="normal" font-weight="normal" text-decoration="undefined" x="53" y="363.5" text-anchor="start" dominant-baseline="central" transform="matrix(1 0 0 1 -38 -38)">-fechaPremium</text></g></g><g><g><path fill="none" stroke="none"/><text fill="#000000" stroke="none" font-family="Arial" font-size="13px" font-style="normal" font-weight="normal" text-decoration="undefined" x="53" y="378.5" text-anchor="start" dominant-baseline="central" transform="matrix(1 0 0 1 -38 -38)">-puntos</text></g></g><g><g><path fill="none" stroke="none"/><text fill="#000000" stroke="none" font-family="Arial" font-size="13px" font-style="normal" font-weight="normal" text-decoration="undefined" x="53" y="393.5" text-anchor="start" dominant-baseline="central" transform="matrix(1 0 0 1 -38 -38)">-escuchas</text></g></g><g><rect fill="#C0C0C0" stroke="none" x="351" y="135" width="192" height="160" transform="matrix(1 0 0 1 -38 -38)" fill-opacity="0.2"/></g><g><rect fill="#ffffff" stroke="none" x="344" y="128" width="192" height="160" transform="matrix(1 0 0 1 -38 -38)"/></g><g><path fill="none" stroke="#000000" paint-order="fill stroke markers" d=" M 306 90 L 498 90 L 498 250 L 306 250 L 306 90 Z Z" stroke-miterlimit="10" stroke-dasharray=""/></g><g><path fill="none" stroke="#000000" paint-order="fill stroke markers" d=" M 306 115 L 499 115" stroke-miterlimit="10" stroke-dasharray=""/></g><g><g><path fill="none" stroke="none"/><text fill="#000000" stroke="none" font-family="Arial" font-size="13px" font-style="normal" font-weight="bold" text-decoration="undefined" x="440.5" y="141.5" text-anchor="middle" dominant-baseline="central" transform="matrix(1 0 0 1 -38 -38)">Playlist</text></g></g><g><g><path fill="none" stroke="none"/><text fill="#000000" stroke="none" font-family="Arial" font-size="13px" font-style="normal" font-weight="normal" text-decoration="undefined" x="349" y="164.5" text-anchor="start" dominant-baseline="central" transform="matrix(1 0 0 1 -38 -38)">-creador: Oyente</text></g></g><g><g><path fill="none" stroke="none"/><text fill="#000000" stroke="none" font-family="Arial" font-size="13px" font-style="normal" font-weight="normal" text-decoration="undefined" x="349" y="179.5" text-anchor="start" dominant-baseline="central" transform="matrix(1 0 0 1 -38 -38)">-duración</text></g></g><g><g><path fill="none" stroke="none"/><text fill="#000000" stroke="none" font-family="Arial" font-size="13px" font-style="normal" font-weight="normal" text-decoration="undefined" x="349" y="194.5" text-anchor="start" dominant-baseline="central" transform="matrix(1 0 0 1 -38 -38)">-reproducciones</text></g></g><g><g><path fill="none" stroke="none"/><text fill="#000000" stroke="none" font-family="Arial" font-size="13px" font-style="normal" font-weight="normal" text-decoration="undefined" x="349" y="209.5" text-anchor="start" dominant-baseline="central" transform="matrix(1 0 0 1 -38 -38)">-likes</text></g></g><g><g><path fill="none" stroke="none"/><text fill="#000000" stroke="none" font-family="Arial" font-size="13px" font-style="normal" font-weight="normal" text-decoration="undefined" x="349" y="224.5" text-anchor="start" dominant-baseline="central" transform="matrix(1 0 0 1 -38 -38)">-descripcion</text></g></g><g><g><path fill="none" stroke="none"/><text fill="#000000" stroke="none" font-family="Arial" font-size="13px" font-style="normal" font-weight="normal" text-decoration="undefined" x="349" y="239.5" text-anchor="start" dominant-baseline="central" transform="matrix(1 0 0 1 -38 -38)">-foto</text></g></g><g><rect fill="#C0C0C0" stroke="none" x="655" y="135" width="184" height="160" transform="matrix(1 0 0 1 -38 -38)" fill-opacity="0.2"/></g><g><rect fill="#ffffff" stroke="none" x="648" y="128" width="184" height="160" transform="matrix(1 0 0 1 -38 -38)"/></g><g><path fill="none" stroke="#000000" paint-order="fill stroke markers" d=" M 610 90 L 794 90 L 794 250 L 610 250 L 610 90 Z Z" stroke-miterlimit="10" stroke-dasharray=""/></g><g><path fill="none" stroke="#000000" paint-order="fill stroke markers" d=" M 610 115 L 795 115" stroke-miterlimit="10" stroke-dasharray=""/></g><g><g><path fill="none" stroke="none"/><text fill="#000000" stroke="none" font-family="Arial" font-size="13px" font-style="normal" font-weight="bold" text-decoration="undefined" x="740.5" y="141.5" text-anchor="middle" dominant-baseline="central" transform="matrix(1 0 0 1 -38 -38)">Canción</text></g></g><g><g><path fill="none" stroke="none"/><text fill="#000000" stroke="none" font-family="Arial" font-size="13px" font-style="normal" font-weight="normal" text-decoration="undefined" x="653" y="164.5" text-anchor="start" dominant-baseline="central" transform="matrix(1 0 0 1 -38 -38)">-productor: Productor</text></g></g><g><g><path fill="none" stroke="none"/><text fill="#000000" stroke="none" font-family="Arial" font-size="13px" font-style="normal" font-weight="normal" text-decoration="undefined" x="653" y="179.5" text-anchor="start" dominant-baseline="central" transform="matrix(1 0 0 1 -38 -38)">-duración</text></g></g><g><g><path fill="none" stroke="none"/><text fill="#000000" stroke="none" font-family="Arial" font-size="13px" font-style="normal" font-weight="normal" text-decoration="undefined" x="653" y="194.5" text-anchor="start" dominant-baseline="central" transform="matrix(1 0 0 1 -38 -38)">-escuchas</text></g></g><g><g><path fill="none" stroke="none"/><text fill="#000000" stroke="none" font-family="Arial" font-size="13px" font-style="normal" font-weight="normal" text-decoration="undefined" x="653" y="209.5" text-anchor="start" dominant-baseline="central" transform="matrix(1 0 0 1 -38 -38)">-likes</text></g></g><g><g><path fill="none" stroke="none"/><text fill="#000000" stroke="none" font-family="Arial" font-size="13px" font-style="normal" font-weight="normal" text-decoration="undefined" x="653" y="224.5" text-anchor="start" dominant-baseline="central" transform="matrix(1 0 0 1 -38 -38)">-descripción</text></g></g><g><g><path fill="none" stroke="none"/><text fill="#000000" stroke="none" font-family="Arial" font-size="13px" font-style="normal" font-weight="normal" text-decoration="undefined" x="653" y="239.5" text-anchor="start" dominant-baseline="central" transform="matrix(1 0 0 1 -38 -38)">-foto</text></g></g><g><rect fill="#C0C0C0" stroke="none" x="367" y="575" width="160" height="104" transform="matrix(1 0 0 1 -38 -38)" fill-opacity="0.2"/></g><g><rect fill="#ffffff" stroke="none" x="360" y="568" width="160" height="104" transform="matrix(1 0 0 1 -38 -38)"/></g><g><path fill="none" stroke="#000000" paint-order="fill stroke markers" d=" M 322 530 L 482 530 L 482 634 L 322 634 L 322 530 Z Z" stroke-miterlimit="10" stroke-dasharray=""/></g><g><path fill="none" stroke="#000000" paint-order="fill stroke markers" d=" M 322 555 L 483 555" stroke-miterlimit="10" stroke-dasharray=""/></g><g><g><path fill="none" stroke="none"/><text fill="#000000" stroke="none" font-family="Arial" font-size="13px" font-style="normal" font-weight="bold" text-decoration="undefined" x="440.5" y="581.5" text-anchor="middle" dominant-baseline="central" transform="matrix(1 0 0 1 -38 -38)">Artista</text></g></g><g><rect fill="#C0C0C0" stroke="none" x="887" y="415" width="98" height="166" transform="matrix(1 0 0 1 -38 -38)" fill-opacity="0.2"/></g><g><rect fill="#ffffff" stroke="none" x="880" y="408" width="98" height="166" transform="matrix(1 0 0 1 -38 -38)"/></g><g><path fill="none" stroke="#000000" paint-order="fill stroke markers" d=" M 842 370 L 940 370 L 940 536 L 842 536 L 842 370 Z Z" stroke-miterlimit="10" stroke-dasharray=""/></g><g><path fill="none" stroke="#000000" paint-order="fill stroke markers" d=" M 842 408 L 941 408" stroke-miterlimit="10" stroke-dasharray=""/></g><g><g><path fill="none" stroke="none"/><text fill="#000000" stroke="none" font-family="Arial" font-size="13px" font-style="normal" font-weight="normal" text-decoration="undefined" x="929.5" y="419.5" text-anchor="middle" dominant-baseline="central" transform="matrix(1 0 0 1 -38 -38)">«enumeration»</text></g></g><g><g><path fill="none" stroke="none"/><text fill="#000000" stroke="none" font-family="Arial" font-size="13px" font-style="normal" font-weight="bold" text-decoration="undefined" x="929.5" y="434.5" text-anchor="middle" dominant-baseline="central" transform="matrix(1 0 0 1 -38 -38)">Género</text></g></g><g><g><path fill="none" stroke="none"/><text fill="#000000" stroke="none" font-family="Arial" font-size="13px" font-style="normal" font-weight="normal" text-decoration="undefined" x="885" y="457.5" text-anchor="start" dominant-baseline="central" transform="matrix(1 0 0 1 -38 -38)">Pop</text></g></g><g><g><path fill="none" stroke="none"/><text fill="#000000" stroke="none" font-family="Arial" font-size="13px" font-style="normal" font-weight="normal" text-decoration="undefined" x="885" y="472.5" text-anchor="start" dominant-baseline="central" transform="matrix(1 0 0 1 -38 -38)">Rock</text></g></g><g><g><path fill="none" stroke="none"/><text fill="#000000" stroke="none" font-family="Arial" font-size="13px" font-style="normal" font-weight="normal" text-decoration="undefined" x="885" y="487.5" text-anchor="start" dominant-baseline="central" transform="matrix(1 0 0 1 -38 -38)">Reggaeton</text></g></g><g><g><path fill="none" stroke="none"/><text fill="#000000" stroke="none" font-family="Arial" font-size="13px" font-style="normal" font-weight="normal" text-decoration="undefined" x="885" y="502.5" text-anchor="start" dominant-baseline="central" transform="matrix(1 0 0 1 -38 -38)">Kpop</text></g></g><g><g><path fill="none" stroke="none"/><text fill="#000000" stroke="none" font-family="Arial" font-size="13px" font-style="normal" font-weight="normal" text-decoration="undefined" x="885" y="517.5" text-anchor="start" dominant-baseline="central" transform="matrix(1 0 0 1 -38 -38)">Metal</text></g></g><g><g><path fill="none" stroke="none"/><text fill="#000000" stroke="none" font-family="Arial" font-size="13px" font-style="normal" font-weight="normal" text-decoration="undefined" x="885" y="532.5" text-anchor="start" dominant-baseline="central" transform="matrix(1 0 0 1 -38 -38)">Rap</text></g></g><g><g><path fill="none" stroke="none"/><text fill="#000000" stroke="none" font-family="Arial" font-size="13px" font-style="normal" font-weight="normal" text-decoration="undefined" x="885" y="547.5" text-anchor="start" dominant-baseline="central" transform="matrix(1 0 0 1 -38 -38)">Electrohouse</text></g></g><g><g><path fill="none" stroke="none"/><text fill="#000000" stroke="none" font-family="Arial" font-size="13px" font-style="normal" font-weight="normal" text-decoration="undefined" x="885" y="562.5" text-anchor="start" dominant-baseline="central" transform="matrix(1 0 0 1 -38 -38)">Electrónica</text></g></g><g><rect fill="#C0C0C0" stroke="none" x="695" y="591" width="168" height="80" transform="matrix(1 0 0 1 -38 -38)" fill-opacity="0.2"/></g><g><rect fill="#ffffff" stroke="none" x="688" y="584" width="168" height="80" transform="matrix(1 0 0 1 -38 -38)"/></g><g><path fill="none" stroke="#000000" paint-order="fill stroke markers" d=" M 650 546 L 818 546 L 818 626 L 650 626 L 650 546 Z Z" stroke-miterlimit="10" stroke-dasharray=""/></g><g><path fill="none" stroke="#000000" paint-order="fill stroke markers" d=" M 650 571 L 819 571" stroke-miterlimit="10" stroke-dasharray=""/></g><g><g><path fill="none" stroke="none"/><text fill="#000000" stroke="none" font-family="Arial" font-size="13px" font-style="normal" font-weight="bold" text-decoration="undefined" x="772.5" y="597.5" text-anchor="middle" dominant-baseline="central" transform="matrix(1 0 0 1 -38 -38)">Disco</text></g></g><g><path fill="none" stroke="#000000" paint-order="fill stroke markers" d=" M 134 273 L 194 170 L 305 170" stroke-miterlimit="10" stroke-dasharray=""/></g><g><path fill="none" stroke="#000000" paint-order="fill stroke markers" d=" M 294.83732514237585 174.209517756016 L 305 170 L 294.83732514237585 165.790482243984" stroke-miterlimit="10" stroke-dasharray=""/></g><g><rect fill="#ffffff" stroke="none" x="272" y="186" width="56" height="13" transform="matrix(1 0 0 1 -38 -38)"/></g><g><g><path fill="none" stroke="none"/><text fill="#000000" stroke="none" font-family="Arial" font-size="13px" font-style="normal" font-weight="normal" text-decoration="undefined" x="300" y="192.5" text-anchor="middle" dominant-baseline="central" transform="matrix(1 0 0 1 -38 -38)">-playlists</text></g></g><g><rect fill="#ffffff" stroke="none" x="311" y="214" width="20" height="13" transform="matrix(1 0 0 1 -38 -38)"/></g><g><g><path fill="none" stroke="none"/><text fill="#000000" stroke="none" font-family="Arial" font-size="13px" font-style="normal" font-weight="normal" text-decoration="undefined" x="321" y="220.5" text-anchor="middle" dominant-baseline="central" transform="matrix(1 0 0 1 -38 -38)">0..*</text></g></g><g><path fill="none" stroke="#000000" paint-order="fill stroke markers" d=" M 499 170 L 609 170" stroke-miterlimit="10" stroke-dasharray=""/></g><g><path fill="none" stroke="#000000" paint-order="fill stroke markers" d=" M 598.8373251423759 174.209517756016 L 609 170 L 598.8373251423758 165.790482243984" stroke-miterlimit="10" stroke-dasharray=""/></g><g><rect fill="#ffffff" stroke="none" x="576" y="186" width="67" height="13" transform="matrix(1 0 0 1 -38 -38)"/></g><g><g><path fill="none" stroke="none"/><text fill="#000000" stroke="none" font-family="Arial" font-size="13px" font-style="normal" font-weight="normal" text-decoration="undefined" x="609.5" y="192.5" text-anchor="middle" dominant-baseline="central" transform="matrix(1 0 0 1 -38 -38)">-canciones</text></g></g><g><rect fill="#ffffff" stroke="none" x="615" y="214" width="20" height="13" transform="matrix(1 0 0 1 -38 -38)"/></g><g><g><path fill="none" stroke="none"/><text fill="#000000" stroke="none" font-family="Arial" font-size="13px" font-style="normal" font-weight="normal" text-decoration="undefined" x="625" y="220.5" text-anchor="middle" dominant-baseline="central" transform="matrix(1 0 0 1 -38 -38)">1..*</text></g></g><g><path fill="none" stroke="#000000" paint-order="fill stroke markers" d=" M 795 170 L 890 170 L 891 369" stroke-miterlimit="10" stroke-dasharray=""/></g><g><path fill="none" stroke="#000000" paint-order="fill stroke markers" d=" M 886.7394673190131 358.85860654178913 L 891 369 L 895.1583965347891 358.81630036482545" stroke-miterlimit="10" stroke-dasharray=""/></g><g><rect fill="#ffffff" stroke="none" x="936" y="392" width="54" height="13" transform="matrix(1 0 0 1 -38 -38)"/></g><g><g><path fill="none" stroke="none"/><text fill="#000000" stroke="none" font-family="Arial" font-size="13px" font-style="normal" font-weight="normal" text-decoration="undefined" x="963" y="398.5" text-anchor="middle" dominant-baseline="central" transform="matrix(1 0 0 1 -38 -38)">-géneros</text></g></g><g><rect fill="#ffffff" stroke="none" x="896" y="391" width="20" height="13" transform="matrix(1 0 0 1 -38 -38)"/></g><g><g><path fill="none" stroke="none"/><text fill="#000000" stroke="none" font-family="Arial" font-size="13px" font-style="normal" font-weight="normal" text-decoration="undefined" x="906" y="397.5" text-anchor="middle" dominant-baseline="central" transform="matrix(1 0 0 1 -38 -38)">1..*</text></g></g><g><path fill="none" stroke="#000000" paint-order="fill stroke markers" d=" M 85 435 L 82 578 L 321 581" stroke-miterlimit="10" stroke-dasharray=""/></g><g><path fill="none" stroke="#000000" paint-order="fill stroke markers" d=" M 310.78529069182974 585.0816312608539 L 321 581 L 310.8909606374907 576.6632589231962" stroke-miterlimit="10" stroke-dasharray=""/></g><g><rect fill="#ffffff" stroke="none" x="248" y="591" width="88" height="13" transform="matrix(1 0 0 1 -38 -38)"/></g><g><g><path fill="none" stroke="none"/><text fill="#000000" stroke="none" font-family="Arial" font-size="13px" font-style="normal" font-weight="normal" text-decoration="undefined" x="292" y="597.5" text-anchor="middle" dominant-baseline="central" transform="matrix(1 0 0 1 -38 -38)">-suscripciones</text></g></g><g><rect fill="#ffffff" stroke="none" x="312" y="632" width="20" height="13" transform="matrix(1 0 0 1 -38 -38)"/></g><g><g><path fill="none" stroke="none"/><text fill="#000000" stroke="none" font-family="Arial" font-size="13px" font-style="normal" font-weight="normal" text-decoration="undefined" x="322" y="638.5" text-anchor="middle" dominant-baseline="central" transform="matrix(1 0 0 1 -38 -38)">0..*</text></g></g><g><path fill="none" stroke="#000000" paint-order="fill stroke markers" d=" M 402 529 L 402 346 L 594 346 L 652 251" stroke-miterlimit="10" stroke-dasharray=""/></g><g><rect fill="#ffffff" stroke="none" x="448" y="544" width="51" height="13" transform="matrix(1 0 0 1 -38 -38)"/></g><g><g><path fill="none" stroke="none"/><text fill="#000000" stroke="none" font-family="Arial" font-size="13px" font-style="normal" font-weight="normal" text-decoration="undefined" x="473.5" y="550.5" text-anchor="middle" dominant-baseline="central" transform="matrix(1 0 0 1 -38 -38)">-artistas</text></g></g><g><rect fill="#ffffff" stroke="none" x="403" y="551" width="20" height="13" transform="matrix(1 0 0 1 -38 -38)"/></g><g><g><path fill="none" stroke="none"/><text fill="#000000" stroke="none" font-family="Arial" font-size="13px" font-style="normal" font-weight="normal" text-decoration="undefined" x="413" y="557.5" text-anchor="middle" dominant-baseline="central" transform="matrix(1 0 0 1 -38 -38)">1..*</text></g></g><g><rect fill="#ffffff" stroke="none" x="599" y="295" width="67" height="13" transform="matrix(1 0 0 1 -38 -38)"/></g><g><g><path fill="none" stroke="none"/><text fill="#000000" stroke="none" font-family="Arial" font-size="13px" font-style="normal" font-weight="normal" text-decoration="undefined" x="632.5" y="301.5" text-anchor="middle" dominant-baseline="central" transform="matrix(1 0 0 1 -38 -38)">-canciones</text></g></g><g><rect fill="#ffffff" stroke="none" x="688" y="303" width="20" height="13" transform="matrix(1 0 0 1 -38 -38)"/></g><g><g><path fill="none" stroke="none"/><text fill="#000000" stroke="none" font-family="Arial" font-size="13px" font-style="normal" font-weight="normal" text-decoration="undefined" x="698" y="309.5" text-anchor="middle" dominant-baseline="central" transform="matrix(1 0 0 1 -38 -38)">1..*</text></g></g><g><path fill="none" stroke="#000000" paint-order="fill stroke markers" d=" M 734 251 L 746 282 L 736 545" stroke-miterlimit="10" stroke-dasharray=""/></g><g><rect fill="#ffffff" stroke="none" x="679" y="335" width="100" height="13" transform="matrix(1 0 0 1 -38 -38)"/></g><g><g><path fill="none" stroke="none"/><text fill="#000000" stroke="none" font-family="Arial" font-size="13px" font-style="normal" font-weight="normal" text-decoration="undefined" x="729" y="341.5" text-anchor="middle" dominant-baseline="central" transform="matrix(1 0 0 1 -38 -38)">-cancionesDisco</text></g></g><g><rect fill="#ffffff" stroke="none" x="791" y="336" width="20" height="13" transform="matrix(1 0 0 1 -38 -38)"/></g><g><g><path fill="none" stroke="none"/><text fill="#000000" stroke="none" font-family="Arial" font-size="13px" font-style="normal" font-weight="normal" text-decoration="undefined" x="801" y="342.5" text-anchor="middle" dominant-baseline="central" transform="matrix(1 0 0 1 -38 -38)">1..*</text></g></g><g><rect fill="#ffffff" stroke="none" x="783" y="560" width="48" height="13" transform="matrix(1 0 0 1 -38 -38)"/></g><g><g><path fill="none" stroke="none"/><text fill="#000000" stroke="none" font-family="Arial" font-size="13px" font-style="normal" font-weight="normal" text-decoration="undefined" x="807" y="566.5" text-anchor="middle" dominant-baseline="central" transform="matrix(1 0 0 1 -38 -38)">-discos</text></g></g><g><rect fill="#ffffff" stroke="none" x="733" y="575" width="20" height="13" transform="matrix(1 0 0 1 -38 -38)"/></g><g><g><path fill="none" stroke="none"/><text fill="#000000" stroke="none" font-family="Arial" font-size="13px" font-style="normal" font-weight="normal" text-decoration="undefined" x="743" y="581.5" text-anchor="middle" dominant-baseline="central" transform="matrix(1 0 0 1 -38 -38)">0..*</text></g></g><g><rect fill="#C0C0C0" stroke="none" x="79" y="135" width="112" height="56" transform="matrix(1 0 0 1 -38 -38)" fill-opacity="0.2"/></g><g><rect fill="#ffffff" stroke="none" x="72" y="128" width="112" height="56" transform="matrix(1 0 0 1 -38 -38)"/></g><g><path fill="none" stroke="#000000" paint-order="fill stroke markers" d=" M 34 90 L 146 90 L 146 146 L 34 146 L 34 90 Z Z" stroke-miterlimit="10" stroke-dasharray=""/></g><g><path fill="none" stroke="#000000" paint-order="fill stroke markers" d=" M 34 115 L 147 115" stroke-miterlimit="10" stroke-dasharray=""/></g><g><g><path fill="none" stroke="none"/><text fill="#000000" stroke="none" font-family="Arial" font-size="13px" font-style="normal" font-weight="bold" text-decoration="undefined" x="128.5" y="141.5" text-anchor="middle" dominant-baseline="central" transform="matrix(1 0 0 1 -38 -38)">Usuario</text></g></g><g><path fill="none" stroke="#000000" paint-order="fill stroke markers" d=" M 87 273 L 90 147" stroke-miterlimit="10" stroke-dasharray=""/></g><g><path fill="#FFFFFF" stroke="none" paint-order="stroke fill markers" d=" M 97.93285039226964 167.51998744282918 L 90 147 L 81.0995500358249 167.11919457719955"/></g><g><path fill="none" stroke="#000000" paint-order="fill stroke markers" d=" M 97.93285039226964 167.51998744282918 L 90 147 L 81.0995500358249 167.11919457719955 L 97.93285039226964 167.51998744282918" stroke-miterlimit="10" stroke-dasharray=""/></g><g><g><path fill="none" stroke="none"/><text fill="#000000" stroke="none" font-family="Helvetica" font-size="28px" font-style="normal" font-weight="normal" text-decoration="undefined" x="317" y="53" text-anchor="start" dominant-baseline="text-before-edge" transform="matrix(1 0 0 1 -38 -38)">Oyente - Lucía Fernández</text></g></g></g></svg>